<svg xmlns="http://www.w3.org/2000/svg" viewBox="0 0 416 1024"><defs><style>.cls-3{fill:#e6f6fa}.cls-110,.cls-13,.cls-14,.cls-17,.cls-55,.cls-68,.cls-79,.cls-87{fill:none}.cls-13{stroke:#2b7b92}.cls-110,.cls-13,.cls-14,.cls-55,.cls-68,.cls-87{stroke-linecap:round}.cls-110,.cls-13,.cls-14,.cls-17,.cls-29,.cls-35,.cls-55,.cls-79{stroke-miterlimit:10}.cls-14,.cls-29,.cls-35{stroke:#5595a8}.cls-8{fill:#1d5463}.cls-9{fill:#f5c1b0}.cls-10{fill:#f0a288}.cls-11{fill:#e8744d}.cls-12{fill:#ed9375}.cls-13,.cls-14{stroke-width:.76px}.cls-15,.cls-22{fill:#a14516}.cls-15,.cls-49{opacity:.5}.cls-16{fill:#ca6532}.cls-17,.cls-79{stroke:#c40c1a}.cls-17{stroke-width:.39px}.cls-18{fill:#e45454}.cls-19{fill:#e03c3c}.cls-20{fill:#d90b0b}.cls-23{fill:#b46a45}.cls-24{fill:#fff}.cls-25{fill:#d5e5e9}.cls-26{fill:#f0b496}.cls-27{fill:#e58250}.cls-29,.cls-35,.cls-39{fill:#ade2ef}.cls-29{stroke-width:1.01px}.cls-30,.cls-61{fill:#2b7b92}.cls-30{opacity:.3}.cls-31{fill:#c4541b}.cls-32{fill:#dc9876}.cls-33{fill:#f09d9d}.cls-35{stroke-width:.76px}.cls-36{fill:#c40c1a}.cls-37{fill:#9b0c1a}.cls-38{fill:#e84d49}.cls-40{fill:#d07649}.cls-42{fill:#c6ebf4}.cls-43{fill:#ceeef5}.cls-44{fill:#eff9fc}.cls-46{fill:#bde8f2}.cls-47{fill:#d6f0f7}.cls-48{fill:#91d8ea}.cls-50{fill:#76cee5}.cls-55{stroke:#76cee5;stroke-width:1.3px}.cls-53{fill:#4c4c4c}.cls-54{fill:#c8ebf5}.cls-81,.cls-88{fill:#65c7de}.cls-60{fill:#5595a8}.cls-67{opacity:.7}.cls-68,.cls-87{stroke:#8a6239;stroke-linejoin:round}.cls-68{stroke-width:.56px}.cls-69{isolation:isolate}.cls-70{fill:#7e120f}.cls-71{fill:#2f535d}.cls-74{fill:#905f2d}.cls-75{fill:#a87536}.cls-77{fill:#603813}.cls-78{fill:#805959}.cls-79{stroke-width:.55px}.cls-80{opacity:.15}.cls-82{fill:#eb9b73}.cls-83{fill:#e88f62}.cls-84{fill:#805126}.cls-85{fill:#f4c856}.cls-87{stroke-width:.53px}.cls-88{opacity:.4}.cls-89{fill:#bd7d5c}.cls-94{fill:#8d3913}.cls-98{fill:#997a7a}.cls-99{fill:#b29c9c}.cls-105{fill:#987272}.cls-106{fill:#8d6363}.cls-107{fill:#553723}.cls-109{fill:#42210b}.cls-110{stroke:#82585d;stroke-width:1.26px}.cls-112{fill:#41889d}</style></defs><g id="desktop-home-middle"><path d="M47.1 1024l357.5.14c-18.5-96.89-51.45-159.14-77.77-197.8-44.52-65.39-74-69.19-78.63-113.4-7.39-70.19 60.68-119.37 38.46-202.23-2-7.6-1.86-4.41-6.14-18-8.11-25.79-22.94-82.43-16.31-175.67 6.17-86.72 22.5-87 12.15-111.71-18.95-45.3-68.28-31.54-128.79-85.88-5.62-5-18-16.64-33.33-15C99.2 106.06 85.53 120 79 133.68c-25.49 53.71 47.75 127.44 33.67 201.43a417.64 417.64 0 0 1-12.8 50.66c-9.48 29-17.35 38.59-24.24 83.62-11.88 77.66 4.48 95.21-3.19 186-5.91 69.83-16.29 79.09-27 146.33-7.95 50.17-13.69 124.97 1.66 222.28z" fill="#f9fdfe"/><path d="M390.89 1024H6.23c19.9-99 55.35-162.52 83.68-202 47.89-66.81 79.59-70.69 84.6-115.85 8-71.7-65.29-122-41.39-206.6 2.19-7.76 2-4.51 6.61-18.4 8.73-26.34 24.68-84.21 17.55-179.46-6.64-88.6-24.21-88.85-13.08-114.13 20.4-46.27 73.47-32.22 138.58-87.73 6.05-5.16 19.34-17 35.87-15.32 16.17 1.64 30.88 15.84 37.89 29.87 27.43 54.87-51.38 130.18-36.23 205.77a409.82 409.82 0 0 0 13.77 51.76c10.21 29.65 18.67 39.42 26.09 85.43 12.78 79.34-4.83 97.27 3.43 190 6.35 71.34 17.52 80.8 29 149.49 8.62 51.23 14.8 127.79-1.71 227.17z" fill="#f3fbfd"/><path class="cls-3" d="M107.86 562.45h163.7S257.34 548 241.8 548s-16.13 5.6-22.44 5.6-17.06-15.77-30-15.77-20.22 11.33-25.25 11.33c-9.93 0-10.06-15.59-40.07-15.59-33.66.02-16.18 28.88-16.18 28.88z"/><path d="M240.63 383.13h138.76s-12.05-12.23-25.22-12.23-13.67 4.74-19 4.74-14.46-13.36-25.46-13.36-17.14 9.61-21.4 9.61c-8.42 0-8.53-13.22-34-13.22-28.49 0-13.68 24.46-13.68 24.46z" fill="#def3f9"/><g opacity=".6"><path d="M98.53 432.28v14.38m-12.22 17.27l12.22-17.48 11.92 17.48" stroke-width=".6" stroke-miterlimit="10" stroke-linecap="round" stroke="#2b7b92" fill="none"/><path stroke="#5595a8" stroke-width=".6" stroke-miterlimit="10" stroke-linecap="round" fill="none" d="M98.53 446.66l3.17 16.84"/><circle class="cls-8" cx="98.53" cy="446.66" r="1.07"/><path class="cls-9" transform="rotate(180 90.955 471.14)" d="M85.26 462.18h11.4v17.92h-11.4z"/><path class="cls-10" d="M96.65 462.18h14.85v17.92H96.65z"/><path class="cls-11" d="M96.65 462.18h14.85v1.75H96.65z"/><path class="cls-12" d="M85.26 462.18h11.36v1.75H85.26z"/><path class="cls-11" d="M96.65 478.35h14.85v1.75H96.65z"/><path class="cls-12" d="M85.66 478.35h10.96v1.75H85.66z"/><path class="cls-11" transform="rotate(-90 97.525 471.335)" d="M88.76 470.46h17.53v1.75H88.76z"/><path class="cls-11" transform="rotate(-90 110.62 471.34)" d="M101.85 470.46h17.53v1.75h-17.53z"/><path class="cls-11" d="M111.5 463.68l-13.64 16.35-1.24-1.24 13.64-16.35 1.24 1.24z"/><path class="cls-11" d="M96.64 463.68l13.63 16.35 1.24-1.24-13.63-16.35-1.24 1.24z"/><path class="cls-12" d="M96.61 463.68l-10.03 16.35-.92-1.24 10.04-16.35.91 1.24z"/><path class="cls-12" d="M85.67 463.68l10.04 16.35.91-1.24-10.04-16.35-.91 1.24z"/><path class="cls-12" transform="rotate(-90 85.985 471.365)" d="M77.22 470.63h17.53v1.46H77.22z"/><path class="cls-12" transform="rotate(-90 95.92 471.36)" d="M87.15 470.63h17.53v1.46H87.15z"/></g><path class="cls-13" d="M74.73 431.42v15.9m-15.5 21.91c-.07 0 15.5-22.19 15.5-22.19l15.13 22.19"/><path class="cls-14" d="M74.73 447.32l4.02 21.36"/><circle class="cls-8" cx="74.73" cy="447.32" r="1.36"/><path class="cls-9" transform="rotate(180 65.115 478.37)" d="M57.89 467h14.46v22.74H57.89z"/><path class="cls-10" d="M72.35 467h18.83v22.74H72.35z"/><path class="cls-11" d="M72.35 467h18.83v2.23H72.35z"/><path class="cls-12" d="M57.9 467h14.41v2.23H57.9z"/><path class="cls-11" d="M72.35 487.52h18.83v2.23H72.35z"/><path class="cls-12" d="M58.4 487.52h13.91v2.23H58.4z"/><path class="cls-11" transform="rotate(-90 73.46 478.62)" d="M62.34 477.51h22.24v2.23H62.34z"/><path class="cls-11" transform="rotate(-90 90.07 478.62)" d="M78.95 477.51h22.24v2.23H78.95z"/><path class="cls-11" d="M91.18 468.9l-17.3 20.74-1.57-1.57 17.3-20.74 1.57 1.57z"/><path class="cls-11" d="M72.33 468.9l17.3 20.74 1.57-1.57-17.3-20.74-1.57 1.57z"/><path class="cls-12" d="M72.3 468.9l-12.74 20.74-1.16-1.57 12.74-20.74 1.16 1.57z"/><path class="cls-12" d="M58.42 468.9l12.73 20.74 1.16-1.57-12.73-20.74-1.16 1.57z"/><path class="cls-12" transform="rotate(-90 58.815 478.655)" d="M47.69 477.73h22.24v1.85H47.69z"/><path class="cls-12" transform="rotate(-90 71.415 478.655)" d="M60.3 477.73h22.24v1.85H60.3z"/><path class="cls-15" d="M72.3 467h18.9v22.64H72.3z"/><path class="cls-13" d="M116.14 431.42v15.9m-15.5 21.91c-.07 0 15.5-22.19 15.5-22.19l15.13 22.19"/><path class="cls-14" d="M116.14 447.32l4.02 21.36"/><circle class="cls-8" cx="116.14" cy="447.32" r="1.36"/><path class="cls-9" transform="rotate(180 106.525 478.37)" d="M99.3 467h14.46v22.74H99.3z"/><path class="cls-10" d="M113.75 467h18.83v22.74h-18.83z"/><path class="cls-11" d="M113.75 467h18.83v2.23h-18.83z"/><path class="cls-12" d="M99.31 467h14.41v2.23H99.31z"/><path class="cls-11" d="M113.75 487.52h18.83v2.23h-18.83z"/><path class="cls-12" d="M99.81 487.52h13.91v2.23H99.81z"/><path class="cls-11" transform="rotate(-90 114.87 478.62)" d="M103.75 477.51h22.24v2.23h-22.24z"/><path class="cls-11" transform="rotate(-90 131.48 478.62)" d="M120.36 477.51h22.24v2.23h-22.24z"/><path class="cls-11" d="M132.59 468.9l-17.3 20.74-1.57-1.57 17.3-20.74 1.57 1.57z"/><path class="cls-11" d="M113.74 468.9l17.29 20.74 1.58-1.57-17.3-20.74-1.57 1.57z"/><path class="cls-12" d="M113.71 468.9l-12.74 20.74-1.16-1.57 12.74-20.74 1.16 1.57z"/><path class="cls-12" d="M99.83 468.9l12.73 20.74 1.16-1.57-12.74-20.74-1.15 1.57z"/><path class="cls-12" transform="rotate(-90 100.225 478.655)" d="M89.1 477.73h22.24v1.85H89.1z"/><path class="cls-12" transform="rotate(-90 112.825 478.655)" d="M101.71 477.73h22.24v1.85h-22.24z"/><path class="cls-15" d="M99.3 467h14.49v22.64H99.3z"/><path class="cls-13" d="M93.53 432.28v20.65M78 474.84c-.07 0 15.5-22.19 15.5-22.19l15.12 22.19"/><path class="cls-14" d="M93.53 452.93l4.01 21.36"/><circle class="cls-8" cx="93.53" cy="452.93" r="1.36"/><path class="cls-9" transform="rotate(180 83.915 483.985)" d="M76.68 472.61h14.46v22.74H76.68z"/><path class="cls-10" d="M91.14 472.61h18.83v22.74H91.14z"/><path class="cls-11" d="M91.14 472.61h18.83v2.23H91.14z"/><path class="cls-12" d="M76.69 472.61H91.1v2.23H76.69z"/><path class="cls-11" d="M91.14 493.13h18.83v2.23H91.14z"/><path class="cls-12" d="M77.2 493.13h13.91v2.23H77.2z"/><path class="cls-11" transform="rotate(-90 92.255 484.235)" d="M81.13 483.12h22.24v2.23H81.13z"/><path class="cls-11" transform="rotate(-90 108.865 484.235)" d="M97.74 483.12h22.24v2.23H97.74z"/><path class="cls-11" d="M109.98 474.51l-17.3 20.75-1.57-1.57 17.29-20.75 1.58 1.57z"/><path class="cls-11" d="M91.12 474.51l17.3 20.75 1.57-1.57-17.29-20.75-1.58 1.57z"/><path class="cls-12" d="M91.09 474.51l-12.73 20.75-1.16-1.57 12.74-20.75 1.15 1.57z"/><path class="cls-12" d="M77.21 474.51l12.74 20.75 1.16-1.57-12.74-20.75-1.16 1.57z"/><path class="cls-12" transform="rotate(-90 77.61 484.27)" d="M66.49 483.34h22.24v1.85H66.49z"/><path class="cls-12" transform="rotate(-90 90.215 484.265)" d="M79.09 483.34h22.24v1.85H79.09z"/><path class="cls-16" d="M104.75 203.11a1.79 1.79 0 1 0-3.57 0c0 .98 3.57.98 3.57 0zM352.19 201a1.22 1.22 0 1 0-2.44 0c0 .69 2.44.69 2.44 0z"/><path class="cls-17" d="M351.17 221.09l-.47-19.6"/><rect class="cls-18" x="349.49" y="213.21" width="2.75" height="6.23" rx="1.38" ry="1.38" transform="rotate(-.72 349.592 215.47)"/><circle class="cls-19" cx="350.97" cy="219.08" r="3.05"/><path class="cls-20" d="M354 219c0-1.69-6.12-1.61-6.1.08a3.05 3.05 0 1 0 6.1-.08z"/><path class="cls-17" d="M103.2 223.25l-.47-19.6"/><rect class="cls-18" x="101.52" y="215.37" width="2.75" height="6.23" rx="1.38" ry="1.38" transform="rotate(-.72 102.88 217.899)"/><circle class="cls-19" cx="103" cy="221.24" r="3.05"/><path class="cls-20" d="M106.05 221.2c0-1.69-6.12-1.61-6.1.07a3.05 3.05 0 1 0 6.1-.07z"/><circle cx="265.19" cy="45.72" r=".91" fill="#dd2323"/><path class="cls-19" d="M265.19 51.38h8.66l-1.98-4.44h-6.68v4.44z"/><path class="cls-20" d="M273.31 52.15h11.1l-3.74-2.22 2.47-2.23h-11.79l1.96 4.45z"/><path class="cls-11" d="M265.66 61.08V46.49a.43.43 0 0 0-.41-.46h-.12a.44.44 0 0 0-.41.46v14.59c0 .26.94.26.94 0z"/><path class="cls-22" d="M272.62 210.01l23.11 66.06v-6.58l-18.74-60.38-4.37.9z"/><path class="cls-23" d="M213.96 232.77l64.8-10.24-2.68-5.11-62.75 9.94.63 5.41z"/><path class="cls-22" d="M180.92 207.33l61.74 84.05-1.25-9.32-57.52-74.73h-2.97z"/><path class="cls-23" d="M173.8 237.91l29.81-4.15-3.33-3.69-29.02 4.88 2.54 2.96z"/><path class="cls-24" d="M236.66 127.89h27.02v28.58h-27.02z"/><path class="cls-25" d="M263.07 127.89h23.55v28.58h-23.55z"/><path class="cls-26" d="M236.66 129.19h1.93v27.28h-1.93z"/><path class="cls-27" d="M261.67 128.34h1.93v28.14h-1.93zm23.32 0h1.93v28.14h-1.93z"/><path class="cls-24" d="M236.66 154.62h27.02v48.75h-27.02z"/><path class="cls-25" d="M263.07 154.62h23.55v48.75h-23.55z"/><path fill="#c68f73" stroke="#b46a45" stroke-width="1.31" stroke-miterlimit="10" d="M245.66 191.52l5.01-7.29 5.01 7.29-2 11.85h-6.02l-2-11.85z"/><circle class="cls-29" cx="250.67" cy="167.9" r="5.46"/><path class="cls-26" d="M236.66 155.91h1.93v47.46h-1.93z"/><path class="cls-27" d="M261.67 155.06h1.93v48.31h-1.93zm23.32 0h1.93v48.31h-1.93z"/><path class="cls-30" d="M286.92 158.56l-24.29-1.39-25.97 1.39v-3.46h50.26v3.46z"/><path class="cls-29" d="M250.67 162.44v10.92m5.46-5.46h-10.92"/><circle class="cls-29" cx="250.67" cy="142.18" r="5.46"/><path class="cls-29" d="M250.67 136.72v10.92m5.46-5.46h-10.92"/><path class="cls-27" d="M262.64 174.55h23.32v1.84h-23.32z"/><path class="cls-27" d="M273.93 175.47L263.6 201.4l2.3.54 10.33-25.93-2.3-.54zm11.08 0l-10.33 25.93 2.3.54 9.79-25.39-1.76-1.08z"/><path class="cls-27" d="M276.29 175.47l10.33 25.93-2.3.54-10.33-25.93 2.3-.54zm-11.28 0l10.33 25.93-2.3.54-10.33-25.93 2.3-.54zm8.92-47.58l-10.33 25.93 2.3.54 10.33-25.93-2.3-.54zm11.08 0l-10.33 25.93 2.3.54 9.79-25.39-1.76-1.08z"/><path class="cls-27" d="M276.29 127.89l10.33 25.93-2.3.54-10.33-25.93 2.3-.54zm-11.28 0l10.33 25.93-2.3.54-10.33-25.93 2.3-.54z"/><path class="cls-31" d="M262.64 155c9.32.52 5.12.83 15.39.84 10.59 0 11.45-.3 21-.84v-1.69c-9.57.54-10.43.85-21 .85-10.27 0-6.07-.32-15.39-.85z"/><path class="cls-32" d="M219.88 155c7.08.51 11.64.83 19.67.84 8.34 0 15.76-.31 23.09-.84v-1.69c-7.33.54-14.75.86-23.09.85-8 0-12.59-.33-19.67-.85z"/><path class="cls-24" d="M224.43 111.34h30.45l-15.85-38.1-14.6 38.1z"/><path class="cls-26" d="M285.94 61.18c-.09 1.5-.28 3.71-.7 6.35-1.67 10.63-5.45 18.29-9 25.4a136.47 136.47 0 0 1-10.87 18.41h6.26a131 131 0 0 0 8.94-17.78c6.47-15.51 6.19-23.66 6.1-26a45.71 45.71 0 0 0-.73-6.38z"/><path class="cls-20" d="M241.57 89.25l-2.74-6.59-1.03 2.82 2.05 6.59 1.72-2.82z"/><path class="cls-20" d="M235.05 89.29l2.49-5.99.94 2.57-1.87 5.99-1.56-2.57z"/><path class="cls-33" d="M240.97 86.94l-2.49-6-2.3 6 1.87 5.99 2.92-5.99z"/><path class="cls-20" d="M240.19 85.65l-1.78-4.28-1.64 4.28 1.33 4.28 2.09-4.28zm-12.04 20.15l-4.62 5.45 2.99-.37 4.93-4.84-3.3-.24z"/><path class="cls-20" d="M231.16 111.58l-6.47.52 1.86-2.01 6.18-1.07-1.57 2.56z"/><path class="cls-33" d="M226.37 107.39l-4.2 4.95 6.38-.69 4.48-4.4-6.66.14z"/><path class="cls-20" d="M225.58 108.67l-3 3.54 4.56-.49 3.2-3.14-4.76.09zm21.35 2.95l7.11-.59-2.37-1.85-6.9-.06 2.16 2.5z"/><path class="cls-20" d="M248.89 105.4l4.94 4.21-2.74.1-5.13-3.61 2.93-.7z"/><path class="cls-33" d="M249.31 111.75l6.47-.53-5-4.02-6.28-.06 4.81 4.61z"/><path class="cls-20" d="M250.78 111.4l4.62-.38-3.58-2.87-4.48-.04 3.44 3.29z"/><path d="M254.91 111.34h43.18l-14-38.1c-1.09.1-9.71.6-14.92-4.54-3.06-3-2.76-6.52-3.1-8.12a38.41 38.41 0 0 0-14.59 2.85c-7.2 2.88-2.48 35.21 3.43 47.91z" fill="#bf0f20"/><path class="cls-20" d="M254.91 111.34h43.18l-14-38.1c-1.09.1-11.72.6-16.93-4.54-3.06-3-2.77-6.52-3.11-8.12-3.39 0-6.43.4-12.57 2.85-7.23 2.88-11.14 8.91-13.59 11.51z"/><circle class="cls-35" cx="239.03" cy="96.74" r="1.27"/><circle class="cls-35" cx="239.03" cy="104.36" r="3.35"/><path class="cls-36" d="M251.1 105.63c3.66.28 7.31.58 11 .92l11 1c7.3.74 14.61 1.39 21.91 2.2-7.32-.54-14.63-1.26-21.94-1.88l-11-1.08c-3.67-.38-7.33-.79-10.97-1.16zm.63-.63c3.41-.06 6.83-.11 10.24-.12l10.24-.08c6.83 0 13.65 0 20.48.12-6.83.15-13.65.13-20.48.2h-10.24c-3.41-.04-6.83-.07-10.24-.12zm-3.23-9.47q5.13.23 10.25.54l10.25.59c6.83.48 13.66.88 20.48 1.44-6.83-.29-13.66-.75-20.5-1.12l-10.24-.7c-3.41-.22-6.83-.47-10.24-.75zm-1.21-1.33q5-.36 9.9-.65l9.91-.55c6.61-.3 13.22-.7 19.83-.92-6.6.49-13.21.82-19.81 1.24l-9.92.48c-3.3.14-6.61.28-9.91.4zm2.54 6.35c3.4 0 6.79 0 10.19.12l10.2.17c6.79.21 13.59.33 20.38.62-6.8 0-13.59-.2-20.39-.3l-10.21-.28q-5.08-.12-10.17-.33zm-4.45-13.34c3.4.07 6.8.15 10.19.27l10.19.32c6.8.3 13.59.51 20.38.9-6.8-.11-13.59-.4-20.39-.59l-10.18-.42q-5.1-.19-10.19-.48zm-1.27-1.9c3.4-.23 6.8-.44 10.21-.61l10.21-.55c6.81-.28 13.62-.65 20.43-.85-6.8.47-13.61.77-20.42 1.16l-10.21.45c-3.41.16-6.81.29-10.22.4zm-3.81-8.26c3.55 0 7.09 0 10.64.08l10.64.12c7.09.17 14.18.26 21.27.51-7.1 0-14.19-.13-21.28-.19l-10.63-.23c-3.55-.07-7.09-.17-10.64-.29zm1.21-1.45c3.54-.22 7.08-.42 10.63-.58l10.63-.53c7.1-.26 14.19-.61 21.28-.8-7.08.46-14.17.74-21.26 1.12l-10.64.42c-3.55.15-7.09.27-10.64.37zm.7 5.9c3.34-.19 6.69-.36 10-.49l10-.44c6.69-.2 13.39-.49 20.09-.61-6.69.39-13.39.61-20.08.93l-10.05.33q-4.93.18-9.96.28z"/><path class="cls-37" d="M280.74 95.74h6.22l-3.26-9.35-2.96 9.35z"/><path class="cls-38" d="M283.7 86.39l-8.4-4.65s4.67 7.82 5.44 14"/><path class="cls-39" d="M281.88 95.1h3.91l-2.05-6.35-1.86 6.35z"/><path class="cls-37" d="M267.62 95.74h6.22l-3.27-9.35-2.95 9.35z"/><path class="cls-38" d="M270.57 86.39l-8.39-4.65s4.67 7.82 5.44 14"/><path class="cls-39" d="M268.76 95.1h3.9l-2.04-6.35-1.86 6.35z"/><path class="cls-37" d="M254.49 94.97h6.22l-3.26-9.34-2.96 9.34z"/><path class="cls-39" d="M255.65 94.33h3.9l-2.05-6.35-1.85 6.35z"/><path class="cls-38" d="M257.45 85.63l-8.4-4.63s4.67 7.82 5.44 14"/><path class="cls-26" d="M240.22 61.18c-.1 1.5-.28 3.71-.7 6.35-1.67 10.63-5.46 18.29-9 25.4a143.72 143.72 0 0 1-11.13 18.41h6.26a133.53 133.53 0 0 0 9-17.78c6.47-15.51 6.35-23.66 6.26-26a45.71 45.71 0 0 0-.69-6.38z"/><path class="cls-32" d="M240.22 61.18c-.1 1.5 0 22.12-14.61 50.16a133.53 133.53 0 0 0 9-17.78c6.47-15.51 6.35-23.66 6.26-26a45.71 45.71 0 0 0-.65-6.38z"/><path class="cls-27" d="M236.62 61.18a60.3 60.3 0 0 0 .76 6.35c1.81 10.63 5.94 18.29 9.85 25.4a139.92 139.92 0 0 0 12.12 18.41h-6.82a130.38 130.38 0 0 1-9.85-17.78c-7.05-15.51-6.92-23.66-6.82-26a41.2 41.2 0 0 1 .76-6.38z"/><path class="cls-40" d="M236.62 61.18c-.13 19.76 9.69 37.46 15.91 50.16a130.38 130.38 0 0 1-9.85-17.78c-7.05-15.51-6.92-23.66-6.82-26a41.2 41.2 0 0 1 .76-6.38z"/><path class="cls-27" d="M283.5 61.18c.09 1.5.26 3.71.64 6.35 1.52 10.63 5 18.29 8.24 25.4a146 146 0 0 0 10.15 18.41h-5.71a138.38 138.38 0 0 1-8.24-17.78c-5.9-15.51-5.79-23.66-5.71-26a49.18 49.18 0 0 1 .63-6.38z"/><path class="cls-25" d="M248.56 127.86h46.99l3.81-16.52h-50.8v16.52z"/><path class="cls-24" d="M227.6 127.86h24.77v-16.52h-29.21l4.44 16.52z"/><path class="cls-27" d="M294.28 127.85h1.27a50.8 50.8 0 0 1 3.17-9.52 51.6 51.6 0 0 1 3.81-7h-5.71zm-43.18 0h2.54a34.75 34.75 0 0 1 1.9-8.89 35.12 35.12 0 0 1 3.81-7.62h-7z"/><path class="cls-26" d="M225.7 127.85h1.9l-1.9-16.51H220a53.36 53.36 0 0 1 3.18 7 53.9 53.9 0 0 1 2.52 9.51z"/><path class="cls-35" d="M274.3 118.12l2.6-3.39 2.6 3.39-1.04 5.52h-3.12l-1.04-5.52zm11.38.23l2.05-2.68 2.04 2.68-.82 4.35h-2.45l-.82-4.35zm-23.27 0l2.05-2.68 2.05 2.68-.82 4.35h-2.46l-.82-4.35zm-31.19 0l2.05-2.68 2.05 2.68-.82 4.35h-2.46l-.82-4.35zm10.29 0l2.05-2.68 2.05 2.68-.82 4.35h-2.46l-.82-4.35z"/><path class="cls-30" d="M300.72 114.36l-49.25-1.04-29.97 1.05-1.3-2.62h82.06l-1.54 2.61z"/><path class="cls-31" d="M252.37 112c7 .4 14.46.63 22.22.63 8 0 23.25-.22 30.48-.63v-1.27c-7.23.41-22.48.64-30.48.63-7.76 0-15.18-.23-22.22-.63z"/><path class="cls-32" d="M218.07 112c5.36.39 11.08.63 17.15.63 6.3 0 12.25-.23 17.78-.63v-1.27c-5.53.4-11.48.64-17.78.63-6.07 0-11.79-.24-17.15-.63z"/><path d="M239.03 101.01v6.55m3.27-3.28h-6.54" stroke-width=".76" stroke="#5595a8" stroke-miterlimit="10" fill="none"/><path class="cls-30" d="M286.92 131.83l-24.29-1.38-25.97 1.38v-3.45h50.26v3.45z"/><path class="cls-31" d="M264 128.29c9.61.54 5.28.86 15.87.86 10.91 0 11.8-.31 21.67-.86v-1.73c-9.87.55-10.76.87-21.67.86-10.59 0-6.26-.32-15.87-.86z"/><path class="cls-32" d="M219.94 128.29c7.3.53 12 .85 20.27.86 8.6 0 16.24-.31 23.79-.86v-1.73c-7.55.55-15.19.87-23.79.86-8.28 0-13-.33-20.27-.86z"/><path class="cls-36" d="M242.38 71.51c1.87-.2 3.75-.39 5.63-.55l5.64-.47 5.64-.4c1.88-.12 3.77-.23 5.65-.31-1.87.2-3.75.39-5.63.55l-5.64.47-5.64.4c-1.89.12-3.77.22-5.65.31zm5.21-5.41c1.27.08 2.53.17 3.8.29l3.78.36 3.78.44c1.25.15 2.51.33 3.76.52-1.26-.07-2.53-.16-3.79-.28l-3.78-.36-3.78-.44c-1.26-.16-2.51-.33-3.77-.53zm8.19-3.18c1.25.25 2.47.61 3.69 1s2.42.76 3.6 1.26c-1.25-.24-2.47-.61-3.69-1s-2.38-.76-3.6-1.26z"/><path class="cls-22" d="M276.61 288.29l14.68-82.6 2.99-.46-14.68 82.61-2.99.45z"/><path class="cls-40" d="M112.51 205.88l108.63 58.57-1.36-6.22-103.82-52.35h-3.45z"/><path class="cls-32" d="M112.51 205.88l108.63 58.57-.56-2.55-106.09-56.02h-1.98z"/><path class="cls-3" d="M383.29 808.05L344.91 758 75.48 905.15l-14.05 36.09 30.26 30.09 141.2 11.57 150.4-174.85z"/><path class="cls-42" d="M236.87 1024.1H89.32l2.88-52.71 141.21 11.58 3.46 41.13z"/><path class="cls-43" d="M63.63 1024.11l-1.59-84.15 30.25 30.08-2.97 54.06-25.69.01z"/><path class="cls-39" d="M383.29 808.05l-14.52 216.05h-131.9l-3.98-41.2 150.4-174.85z"/><path class="cls-43" d="M279.75 355.3l-54.7 12.74-4.64-69.27 31.49-31.81 27.85 88.34z"/><path class="cls-43" d="M279.75 355.3l23.37-20.71 15.49 101.32-41.62 7.87 2.76-88.48z"/><path class="cls-44" d="M279.75 355.3l-54.7 12.74-12.96 40.68 64.9 35.06 2.76-88.48z"/><path fill="#b5e5f1" d="M353.1 602.98L340.83 826.1 221.25 956.34l4.81-229.85L353.1 602.98z"/><path class="cls-42" d="M165.28 731.76l-12.27 223.12 68.24 1.46 4.81-229.85-60.78 5.27z"/><path class="cls-43" d="M165.28 731.76l-12.27 223.12-47.75-17.99 4.81-229.84 55.21 24.71z"/><path class="cls-46" d="M83.91 767.34L73.67 941.61l31.59-4.72 3.8-181.47-25.15 11.92z"/><path class="cls-3" d="M83.91 767.34l12.96-21.9 12.45-2.52-.26 12.5-25.15 11.92zM354.05 603.2l-32.38-34.52-180.56 77.71-31.04 60.66 55.21 24.71 60.78-5.27L354.05 603.2z"/><path class="cls-3" d="M316.49 541.05l-4.04-13.34-82.54-28.79-68.51 124.23 50.38 2.82 104.71-84.92z"/><path class="cls-43" d="M204.58 697.41l-61.71-18.66 11.94-43.46 56.96 5.61-7.19 56.51z"/><path class="cls-47" d="M211.78 625.97l-50.38-2.82-6.59 12.14 56.96 5.61.01-14.93z"/><path class="cls-42" d="M320.7 554.96l.59 49.26-116.71 93.19 7.19-56.51 108.93-85.94z"/><path class="cls-43" d="M320.7 554.96l-4.21-13.91-104.71 84.92-.01 14.93 108.93-85.94z"/><path class="cls-46" d="M240.83 580.01l71.62-52.3 7.25-92.25-42.71 8.32-36.16 136.23z"/><path class="cls-42" d="M297.54 268.63l5.41 66.99-23.2 19.68-27.85-88.34 45.64 1.67z"/><path class="cls-47" d="M240.83 580.01l-51.75-7.04 23.01-164.25 64.9 35.06-36.16 136.23z"/><path class="cls-48" d="M259.51 881.39a26.06 26.06 0 0 1 3.41 4 25.26 25.26 0 0 1 2.66 4.5 29.06 29.06 0 0 1-6.07-8.46z"/><path class="cls-48" d="M267.26 886.36a29.37 29.37 0 0 1-10.11-2.46 28.78 28.78 0 0 1 10.11 2.46z"/><g class="cls-49"><path class="cls-50" d="M205.35 745.19a39 39 0 0 0-.61 15.28 27.37 27.37 0 0 0 7 13.41 31.12 31.12 0 0 0 12.71 8.2 26.47 26.47 0 0 0 3.66 1 17.44 17.44 0 0 0 3.76.14c2.55-.13 5-.72 7.65-1l.55-.05-.14.56c-.58 2.38-1 4.83-1.32 7.28s-.61 4.91-.85 7.37c-.47 4.93-.8 9.88-1.05 14.83-.49 9.9-.69 19.82-.53 29.73.1 4.95.26 9.91.64 14.84a78.27 78.27 0 0 0 2.12 14.57c1.33 4.6 5.2 8.12 9.55 10.16a22.58 22.58 0 0 0 7 2.13 18.46 18.46 0 0 0 7.32-.35 17.79 17.79 0 0 1-7.39 1 23.14 23.14 0 0 1-7.34-1.82 21.62 21.62 0 0 1-6.32-4.23 16.37 16.37 0 0 1-2.43-3 14.79 14.79 0 0 1-1.55-3.56 79.15 79.15 0 0 1-2.14-14.84c-.36-5-.51-9.94-.59-14.91q-.19-14.91.63-29.81c.29-5 .67-9.91 1.18-14.86.26-2.47.56-4.94.92-7.41a74.33 74.33 0 0 1 1.4-7.35l.42.51c-2.48.23-5.05.81-7.65.92a17.88 17.88 0 0 1-3.93-.17 26.16 26.16 0 0 1-3.76-1.07 31.11 31.11 0 0 1-12.84-8.52 27.81 27.81 0 0 1-6.87-13.7 39 39 0 0 1 .8-15.28z"/></g><path d="M263.73 883.44c2.8 8.72 1.9 22-.18 37.55-2.48 18.49-8.17 26.62-13.92 44.89-3.58 11.38-.88 30.52 15.87 51.49" stroke="#76cee5" stroke-width="1.3" opacity=".5" stroke-miterlimit="10" fill="none"/><path d="M263.73 883.44a85.59 85.59 0 0 1 3.71 37.56c-2.48 18.49-8.17 26.62-13.92 44.89-3.58 11.38-4.77 30.52 12 51.49" stroke="#76cee5" stroke-width="1.3" stroke-miterlimit="10" fill="none"/><path class="cls-53" d="M262.96 885.62l-1.89-1.78 2.88-3.51-1.46-1.54 1.14-1.22 4 3.77-4.67 4.28z"/><path class="cls-39" d="M234.64 780.7a26.39 26.39 0 0 1 4.2 3.11 25.88 25.88 0 0 1 3.58 3.81 24.43 24.43 0 0 1-4.2-3.11 25.39 25.39 0 0 1-3.58-3.81z"/><path class="cls-39" d="M243.29 783.85a29 29 0 0 1-10.4-.18 24.77 24.77 0 0 1 5.21-.38 25.37 25.37 0 0 1 5.19.56z"/><path class="cls-54" d="M201.73 743.24a25.19 25.19 0 0 1 4.66 2 24.08 24.08 0 0 1 4.23 2.74A24.67 24.67 0 0 1 206 746a25.19 25.19 0 0 1-4.27-2.76z"/><path class="cls-54" d="M210.62 744.23a25.14 25.14 0 0 1-4.8 1.56 24.47 24.47 0 0 1-5 .67 27.91 27.91 0 0 1 9.8-2.23z"/><path class="cls-55" d="M239.75 782.64c-4.41 17.33-3.52 75.14 1.69 87.82 3.23 7.83 14.86 15.68 23.84 12.8"/><path class="cls-53" d="M239.09 784.54l-2.13-1.48 2.33-3.9-1.67-1.31.95-1.37 4.51 3.15-3.99 4.91z"/><path class="cls-55" d="M205.64 743.45a32.29 32.29 0 0 0 2.47 20.15c6.16 12.68 18.89 16.35 21.62 17.06 4.2 1.09 8.4 2.11 10.92 2"/><path class="cls-53" d="M206.77 745.59l-2.51-.71 1.25-5.56-2-.72.57-2.02 5.29 1.5-2.6 7.51z"/><path class="cls-50" transform="rotate(16.4 205.64 744.5)" d="M203.79 743.95h3.71v1.31h-3.71z"/><path transform="rotate(16.4 206.17 743.751)" fill="#9fdded" d="M204.34 743.22h3.71v1.31h-3.71z"/><path class="cls-50" transform="rotate(16.4 206.08 742.879)" d="M204.26 742.35h3.71v1.31h-3.71z"/><path d="M235.09 283.98l-7.32 7.4 2.22 24.13 4.31 2.04.79-33.57zm24.15-16.76l-5.36-.15-5.35 15.41 4.92.67 5.79-15.93zm36.49 1.34l-2.94-.11v5.94l2.98 5-.04-10.83z" fill="#65c7de" opacity=".5"/><path class="cls-40" d="M230.38 315.51l-23.59-109.8 2.89-.95 26.98 108.29-2.36 4.5-3.92-2.04z"/><path class="cls-32" d="M230.38 315.51L206.72 205.4l1.73-.37 25.76 112.48-3.83-2z"/><path class="cls-40" d="M292.79 274.39l20.95-69.88 4.83 1.45-22.64 73.43h-2.4l-.74-5z"/><path class="cls-32" d="M292.79 274.39l20.95-69.88 3.04.91-23.25 73.97-.74-5z"/><path class="cls-40" d="M248.53 282.48l9.6-76.47 5.04-.26-9.72 77.4-2.67 2.39-2.25-3.06z"/><path class="cls-32" d="M248.53 282.48l9.6-76.47 3.54-.18-10.89 79.71-2.25-3.06z"/><path class="cls-32" d="M90.13 210.3l203.54.13 8.81-7.06-218.86 2.13 6.51 4.8z"/><path class="cls-31" d="M67.23 207.13l279.26-.49 7.57-6.06-296.18 2.65 9.35 3.9z"/><path d="M131.44 192.91c-2.27 2.1-5.44 1.88-8.31 1.63-1.16-.1-1.15 1.72 0 1.82 3.43.29 6.93.3 9.6-2.17.86-.79-.43-2.07-1.29-1.28z" fill="#cc9f80"/><path class="cls-23" d="M80.99 194.68h2.63v8.43h-2.63z"/><path class="cls-22" d="M80.99 194.68h2.63v2.4h-2.63z"/><path class="cls-23" d="M104.74 194.68h2.63v8.43h-2.63z"/><path class="cls-22" d="M104.74 194.68h2.63v2.4h-2.63z"/><path class="cls-31" d="M75.59 186.01h3.08v12.19h-3.08zm34.38 0h3.08v12.19h-3.08z"/><path class="cls-16" d="M113.05 187.49h2.26v9.24h-2.26z"/><path class="cls-32" d="M115.31 189.53h2.26v5.14h-2.26zm-44.25 0h2.26v5.14h-2.26z"/><path class="cls-16" d="M73.32 187.49h2.26v9.24h-2.26z"/><path fill="#80b0be" d="M78.66 188.54h31.31v7.13H78.66z"/><path class="cls-60" d="M78.66 188.54h31.31v2.14H78.66z"/><path class="cls-61" d="M94.84 195.67H78.66v-7.13H97.4l-2.56 7.13z"/><path class="cls-8" d="M96.63 190.68H78.66v-2.14H97.4l-.77 2.14z"/><path d="M94.32 194.68v196.33M66.23 430.7c-.12 0 28.09-40.2 28.09-40.2l27.4 40.2" stroke-width=".95" stroke-miterlimit="10" stroke-linecap="round" stroke="#2b7b92" fill="none"/><path stroke-width=".95" stroke="#5595a8" stroke-miterlimit="10" stroke-linecap="round" fill="none" d="M94.32 391.01l7.27 38.7"/><path class="cls-22" d="M64.93 429.71h58.78v3.41H64.93z"/><path class="cls-31" d="M64.93 429.71h38.11v3.41H64.93z"/><circle class="cls-8" cx="94.32" cy="391.01" r="2.46"/><path class="cls-61" d="M117.57 191.32h3.26v1.57h-3.26z"/><path class="cls-8" transform="rotate(90 121.55 193.75)" d="M119.12 193.04h4.86v1.43h-4.86z"/><path class="cls-61" transform="rotate(180 123.48 195.465)" d="M122.26 194.75h2.43v1.43h-2.43z"/><path fill="#bf8760" d="M130.26 192.72l-3.88-2.09 8.19-1.01 5.5 2.03-9.81 1.07z"/><path fill="#d2ab8f" d="M140.07 191.65l-5.52-1.76.95-8.62 5.59 2.13-1.02 8.25z"/><path fill="#c69370" d="M126.31 182.01l9.2-1.01-.96 8.89-8.17.74-.07-8.62z"/><g class="cls-67"><path class="cls-68" d="M127 185.53s.53-1.16 1.74-.17"/></g><g class="cls-67"><path class="cls-68" d="M130.94 188.31s-.5 1.17-1.74.21"/></g><g class="cls-67"><path class="cls-68" d="M131.41 185.1s.53-1.16 1.74-.17"/></g><g class="cls-69"><path class="cls-20" d="M133.02 191.4h3.89v8.82h-3.89z"/><path class="cls-19" d="M127.47 191.4h5.56v8.82h-5.56z"/><path class="cls-70" d="M136.91 191.4h-9.44 9.44z"/></g><g class="cls-69"><path class="cls-61" d="M128.95 200.22h7.85v3.91h-7.85z"/><path class="cls-60" d="M122.81 200.22h6.14v3.91h-6.14z"/><path class="cls-71" d="M136.8 200.22h-13.99 13.99z"/></g><path stroke-width=".8" stroke-miterlimit="10" stroke="#2b7b92" fill="none" d="M125.88 200.36v3.61"/><path d="M123.66 201.4c-.82.55-1.8 1-2.09 2a14.62 14.62 0 0 0-.17 4 .91.91 0 0 0 1.82 0v-2.72c0-.91.52-1.21 1.32-1.76 1-.65.06-2.22-.91-1.56zm3.1.29a2.7 2.7 0 0 0-1.11 2.43c.12 1.37.45 2.76.68 4.13.19 1.15 1.94.66 1.75-.49l-.42-2.48c-.15-.92-.38-1.64.39-2.31s-.41-2.05-1.29-1.28zm7.56-8.32a7.91 7.91 0 0 1-9.25 1.7c-1-.49-2 1.08-.91 1.57a9.75 9.75 0 0 0 11.44-2c.83-.82-.45-2.1-1.28-1.28z" fill="#d9b79f"/><path class="cls-74" d="M119.77 206.93h3.67v1.93h-3.67z"/><path class="cls-75" d="M119.77 206.93h1.47v1.93h-1.47z"/><path class="cls-74" transform="rotate(-12.1 126.656 208.874)" d="M124.83 207.91h3.67v1.93h-3.67z"/><path class="cls-75" transform="rotate(-12.1 125.583 209.094)" d="M124.86 208.14h1.47v1.93h-1.47z"/><path d="M136.91 196c-4.19-3.88-1.82-11.89-1.82-11.89l-.83-4.88s5.5 1.78 6.36 3.42c2.31 4.36 2.48 9.56 1.32 11.69-1.48 2.72-5.03 1.66-5.03 1.66z" fill="#704c2b"/><path class="cls-77" d="M126.31 182s.7 2.15 8.78 2.07a6.66 6.66 0 0 0 .78-1.46 2.87 2.87 0 0 0-.36-2.42c-1.13-1.8-4.26-1.37-4.81-1.29-2.27.32-4.01 1.5-4.39 3.1z"/><g class="cls-49"><path class="cls-78" d="M129.34 180.4a7.16 7.16 0 0 0 2.52 1.7 11.05 11.05 0 0 0 1.44.48c.49.13 1 .22 1.53.34a7 7 0 0 1-.8.11h-.81a5.44 5.44 0 0 1-1.58-.38 5 5 0 0 1-1.38-.89 3.23 3.23 0 0 1-.92-1.36z"/></g><path class="cls-77" d="M139.57 194.68c.33-2 .65-4 .8-5.92a20.92 20.92 0 0 0 0-3 8.51 8.51 0 0 0-.62-2.89 6.43 6.43 0 0 1 1 2.85 13.44 13.44 0 0 1 .06 3 20.37 20.37 0 0 1-.45 3 19.52 19.52 0 0 1-.79 2.96zm-1.57-3.29a24.31 24.31 0 0 0 1-4.31 14.4 14.4 0 0 0 .08-2.18 11.7 11.7 0 0 0-.36-2.17 6.35 6.35 0 0 1 .74 2.13 8.71 8.71 0 0 1 0 2.28 11.08 11.08 0 0 1-.51 2.21 9 9 0 0 1-.95 2.04z"/><g class="cls-49"><path class="cls-78" d="M131.41 179.74a6.38 6.38 0 0 0 1.72 1.09 13.16 13.16 0 0 0 2 .61 2.93 2.93 0 0 1-1.1.15 3 3 0 0 1-1.1-.25 2.76 2.76 0 0 1-.94-.64 2 2 0 0 1-.58-.96z"/></g><path class="cls-77" d="M135.81 188.9c.19-.55.43-1.07.59-1.6a10.32 10.32 0 0 0 .39-1.62 9.21 9.21 0 0 0 .12-1.66 16.55 16.55 0 0 0-.15-1.69 5.54 5.54 0 0 1 .53 3.43 6.2 6.2 0 0 1-.53 1.68 6.79 6.79 0 0 1-.95 1.46z"/><path class="cls-79" d="M321.35 228.09l-.67-27.51"/><rect class="cls-18" x="318.99" y="217.03" width="3.86" height="8.74" rx="1.93" ry="1.93" transform="rotate(-.72 320.114 220.855)"/><circle class="cls-19" cx="321.06" cy="225.26" r="4.28"/><path class="cls-20" d="M325.35 225.21c0-2.37-8.6-2.26-8.57.11a4.29 4.29 0 0 0 8.57-.11z"/><path class="cls-79" d="M67.73 230.26l-.66-27.5"/><rect class="cls-18" x="65.38" y="219.2" width="3.86" height="8.74" rx="1.93" ry="1.93" transform="rotate(-.72 67.036 223.244)"/><circle class="cls-19" cx="67.45" cy="227.44" r="4.28"/><path class="cls-20" d="M71.73 227.38c0-2.36-8.59-2.26-8.56.11a4.28 4.28 0 1 0 8.56-.11z"/><path class="cls-16" d="M68.85 203.11a1.79 1.79 0 1 0-3.57 0c0 .98 3.57.98 3.57 0zm253.62-2.33a1.79 1.79 0 0 0-3.57 0c0 .99 3.57.99 3.57 0z"/><g class="cls-80"><path class="cls-81" d="M99.38 810.45l-43.79-28.79-13.81 1.74 22.51 29.74 35.09-2.69z"/><path class="cls-81" d="M59.29 1024.1h139.26l-96.09-215.16-38.17 4.2-5 210.96z"/></g><path class="cls-44" d="M56.54 1024.1H23l15.55-243.91 22.52 29.74-4.53 214.17z"/><path class="cls-3" d="M96.16 807.24l-43.79-28.79-13.82 1.74 22.52 29.74 35.09-2.69z"/><path class="cls-47" d="M56.54 1024.1h109.39L96.16 807.24l-35.09 2.69-4.53 214.17z"/><g class="cls-80"><path class="cls-81" d="M317.15 703.31l43.86-40.87 13.82 2.43-22.59 42.17-35.09-3.73z"/><path class="cls-81" d="M356.43 1024.1H211.76l102.32-322.92 38.16 5.86 4.19 317.06z"/></g><path class="cls-44" d="M379.62 1024.1l13.38.57-14.94-364.35-22.59 42.17 4.25 321.61h19.9z"/><path class="cls-3" d="M320.38 698.76l43.86-40.88 13.82 2.44-22.59 42.17-35.09-3.73z"/><path class="cls-47" d="M359.72 1024.1H245.95l74.43-325.34 35.09 3.73 4.25 321.61z"/><path class="cls-82" d="M89 400.65a8.89 8.89 0 0 1-5.67 7.1c-1.15.43-.65 2.28.51 1.85a10.94 10.94 0 0 0 7.08-9c.16-1.22-1.76-1.2-1.92 0zM73.58 421a15.41 15.41 0 0 1-.29 7.08 1 1 0 0 0 1.85.51 17.61 17.61 0 0 0 .29-8.1c-.23-1.21-2.08-.7-1.85.51z"/><path class="cls-75" d="M72.49 427.14h4.88v2.57h-4.88z"/><path class="cls-74" d="M75.42 427.14h1.95v2.57h-1.95z"/><path class="cls-82" d="M80.64 421a15.41 15.41 0 0 1-.29 7.08 1 1 0 0 0 1.85.51 17.74 17.74 0 0 0 .29-8.1c-.23-1.21-2.08-.7-1.85.51z"/><g class="cls-69"><path class="cls-26" d="M84.21 396.75h-8.67l1.56 8.22h8.67l-1.56-8.22z"/><path class="cls-83" d="M81.25 406.79l4.52-1.82H77.1l-4.51 1.82h8.66z"/><path class="cls-82" d="M72.59 406.79l4.51-1.82-1.56-8.22-4.51 1.82 1.56 8.22z"/><path class="cls-84" d="M75.05 394.93l.74 3.11c-.62.43-.41 3.63-1.23 5-1 1.64-2 2.95-2 3.72-.39-2-1.93-6.8-1.56-8.24s4.05-3.59 4.05-3.59z"/><path class="cls-74" d="M82.87 394.65a6.76 6.76 0 0 0-2.44.49s-3.63-1.51-5.38-.21 0 3.88.74 3.11 4.59-1 5.46-.84 2.52.86 3.16.64.59-1.1.36-1.66a2.91 2.91 0 0 0-1.9-1.53z"/></g><g class="cls-69"><path class="cls-61" d="M77.16 406.03h7.27v9.37h-7.27z"/><path class="cls-60" d="M72.36 406.03h4.79v9.37h-4.79z"/><path class="cls-70" d="M72.36 406.03h12.07-12.07z"/></g><g class="cls-69"><path class="cls-85" d="M77.21 418.58H82v3.63h-4.79z"/><path fill="#f0b10d" d="M84.43 415.4h-7.27v6.82h2.42v-3.64H82v3.64h2.43v-6.82z"/><path class="cls-85" d="M72.36 415.4h4.79v6.82h-4.79z"/><path class="cls-71" d="M72.36 415.4h12.07-12.07z"/></g><path class="cls-75" d="M79.55 427.14h4.88v2.57h-4.88z"/><path class="cls-74" d="M82.48 427.14h1.95v2.57h-1.95z"/><g class="cls-49"><path class="cls-87" d="M83.55 398.93s-.58-1.08-1.68-.06"/></g><g class="cls-49"><path class="cls-87" d="M79.32 398.79s-.58-1.08-1.68-.06"/></g><path class="cls-74" d="M75.49 400.78c.19 0 .52.74 1.24.72.93 0 1.33-1.63 2.78-1.67a1.89 1.89 0 0 1 1.6.88 1.87 1.87 0 0 1 1.55-1c1.45 0 1.92 1.55 2.85 1.53.72 0 1-.82 1.21-.77a2.85 2.85 0 0 1-2.81 2.83 4.26 4.26 0 0 1-2.77-1.24 4.3 4.3 0 0 1-2.71 1.37 2.84 2.84 0 0 1-2.94-2.65z"/><path class="cls-84" d="M77.27 394.41a2.65 2.65 0 0 1-1 1.45 4.37 4.37 0 0 1-.8.42 2.7 2.7 0 0 1-.89.17c.5-.34 1-.59 1.44-.94a8.82 8.82 0 0 0 1.25-1.1zm3.02.68a4.2 4.2 0 0 1-1.29 1.46 3.41 3.41 0 0 1-1.87.63l.84-.47c.27-.17.54-.32.79-.51.5-.34.98-.74 1.53-1.11zm.71.39a11.12 11.12 0 0 1 1.7.72c.53.3 1.07.55 1.6.91a4.87 4.87 0 0 1-1.8-.53 6 6 0 0 1-1.5-1.1z"/><path class="cls-82" d="M74.74 408.55c-2.83-2.31-4.48-4.71-4.16-8.45.11-1.23-1.81-1.22-1.92 0-.36 4.26 1.5 7.18 4.73 9.81.94.77 2.31-.58 1.35-1.36z"/><path class="cls-88" d="M206.88 955.97h-11.94l-5.38 12.89 12.65-.89 4.67-12z"/><path class="cls-26" d="M191.31 960.34c-.06 1.75-.14 3.49-.25 5.23-.08 1.2 1.78 1.2 1.86 0 .11-1.74.2-3.48.25-5.23 0-1.2-1.83-1.2-1.86 0z"/><g class="cls-69"><path class="cls-23" d="M192.46 967.12l-.13 2.09-2.77-.35.13-2.09 2.77.35z"/><path class="cls-22" d="M195.85 968.22l-3.52.99.13-2.09 3.52-.99-.13 2.09z"/><path class="cls-89" d="M195.98 966.13l-3.52.99-2.77-.35 3.52-.99 2.77.35z"/></g><path class="cls-61" d="M192.84 966.88l-1.87-.12.1-1.84 1.89-.2-.12 2.16z"/><g class="cls-69"><path class="cls-23" d="M198.77 967.05l-.02 2.09-2.79-.19.03-2.09 2.78.19z"/><path class="cls-22" d="M202.21 967.97l-3.46 1.17.02-2.09 3.47-1.17-.03 2.09z"/><path class="cls-89" d="M202.24 965.88l-3.47 1.17-2.78-.19 3.46-1.18 2.79.2z"/></g><path class="cls-26" d="M197.27 960.77v5a.93.93 0 0 0 1.86 0v-5a.93.93 0 0 0-1.86 0zm-8.59-12.42a16.51 16.51 0 0 0-1.68 5.17c-.16 1.17 1.63 1.68 1.8.49a14.78 14.78 0 0 1 1.49-4.72c.55-1.06-1-2-1.61-.94z"/><g class="cls-69"><path class="cls-61" d="M194.94 961.6l-2.81.97-.01-3.53 2.81-.96.01 3.52z"/><path class="cls-60" d="M189.13 955.75l8.92.63.02 6.6-2.98-.21v-3.52l-2.97-.21.01 3.53-2.98-.21-.02-6.61z"/><path class="cls-61" d="M200.88 962.02l-2.81.96-.02-6.6 2.81-.97.02 6.61z"/><path fill="#355c68" d="M200.86 955.41l-2.81.97-8.92-.63 2.81-.96 8.92.62z"/></g><g class="cls-69"><path fill="#fcc062" d="M189.04 946.65l8.91.63.02 9.08-8.91-.62-.02-9.09z"/><path fill="#fbb03b" d="M200.78 955.4l-2.81.96-.02-9.08 2.81-.97.02 9.09z"/><path fill="#f2a20d" d="M200.76 946.31l-2.81.97-8.91-.63 2.81-.96 8.91.62z"/></g><path class="cls-82" d="M199.9 950.72c2.89-2 7.36-6.26 4-9.87-.81-.88-2.13.44-1.32 1.32 2.27 2.46-1.9 5.72-3.64 6.94-1 .69-.05 2.31.94 1.61z"/><path class="cls-94" transform="rotate(-85.97 196.163 955.88)" d="M195.79 955.45h.72v.85h-.72z"/><path class="cls-23" d="M189.45 948.39l5.52.38-.13 7.64-5.52-.39.13-7.63z"/><path class="cls-22" d="M196.6 955.55l-1.76.86.13-7.64 1.76-.85-.13 7.63z"/><path class="cls-89" d="M196.73 947.92l-1.76.85-5.52-.38 1.76-.86 5.52.39z"/><path stroke-width="1.14" stroke="#a14516" stroke-miterlimit="10" fill="none" d="M189.39 952.17l5.52.28"/><path class="cls-22" d="M191.27 951.09l1.79.13.12-2.57-1.8-.13-.11 2.57z"/><path class="cls-22" d="M192.41 947.62l1.8.12-1.03.91-1.8-.13 1.03-.9z"/><path stroke-width=".57" stroke="#fcc062" stroke-miterlimit="10" fill="none" d="M191.27 951.09l1.79.13-.04 2.49-1.79-.13.04-2.49z"/><path class="cls-61" d="M199.14 966.8l-1.88-.02.01-1.85 1.88-.29-.01 2.16z"/><path class="cls-22" transform="rotate(-85.97 196.336 947.53)" d="M195.96 947.1h.72v.85h-.72z"/><path class="cls-22" transform="rotate(-85.97 191.691 947.212)" d="M191.32 946.77h.72v.85h-.72z"/><path class="cls-82" d="M187.53 939.59l10.4.73 1.5 6.97-10.39-.73-1.51-6.97z"/><path class="cls-83" d="M201.97 943.63l-2.54 3.66-1.5-6.97 2.54-3.66 1.5 6.97z"/><path class="cls-26" d="M200.47 936.66l-2.54 3.66-10.4-.73 2.54-3.67 10.4.74z"/><path class="cls-74" d="M189.75 935.05c-1.63.63-2.05.6-2.53 3.28s.1 5.29 1.57 6.27 9.12 1.61 10.45.74 2.62-7.82 1-9.55-8.87-1.36-10.49-.74z"/><path class="cls-84" d="M199.24 945.34c1.33-.87 2.62-7.82 1-9.55a3.47 3.47 0 0 0-1.5-.79c-2.74-.79-.83 11.21.5 10.34zm-2.52-9.04a7.72 7.72 0 0 1-1.8 1.48 9.78 9.78 0 0 1-2.12 1 8.44 8.44 0 0 1-2.34.4 5.28 5.28 0 0 1-2.3-.49 14.62 14.62 0 0 0 2.24-.18 17.48 17.48 0 0 0 2.13-.54c1.4-.46 2.76-1.06 4.19-1.67zm-.06.88a11.75 11.75 0 0 1-2.69 4.64 7 7 0 0 1-2.23 1.61 3.33 3.33 0 0 1-2.71.09 4.24 4.24 0 0 0 2.4-.68 9.23 9.23 0 0 0 1.92-1.62c1.18-1.22 2.2-2.63 3.31-4.04z"/><path class="cls-88" d="M221.42 789.91l-.9.58-.48-.3a.87.87 0 0 0-.11-.09c-.64-.4-1.26-.81-1.87-1.24l.85-.64-3.57-4.36h-.06.06l-2.67-4.36a7.64 7.64 0 0 0-.21-7.19 1.15 1.15 0 0 0-.21-.39v-.06a.13.13 0 0 0 0-.05l-.16-.17c-.91-1-2.42.46-1.78 1.49a6.32 6.32 0 0 1 .86 3.54 4.22 4.22 0 0 1 0 .52l-1.63-.22-1-3.42-4.32-3-.08-.09-.08-.09a.7.7 0 0 0-.47-.22c-2.71-.3-7.29 2.78-8 5.61 0 .17-.09.35-.13.53v.08a5.22 5.22 0 0 0 1 4.44 26.49 26.49 0 0 0 5.53 5.18 9.48 9.48 0 0 1-2.77 1.68l-4.57-2.7a.75.75 0 0 0-.16 0 14 14 0 0 1 2.38-2.59l-1.58-.94a11.65 11.65 0 0 0-3.1 3.44 10.9 10.9 0 0 0-1.18 3l.71 2.41c.26-.43 1.24-2.7 1.9-4 0 0 .06.06.09.08L198 789a1 1 0 0 0 1.44.91h.06l1.2.7a.84.84 0 0 0 .72.08.87.87 0 0 0 .47-.36.79.79 0 0 0-.26-1.13l-.28-.17a9.72 9.72 0 0 0 2.54-2 1.77 1.77 0 0 0 .49.06l1 1.66h.05-.05l1.7 5.77 1.21.16a24.5 24.5 0 0 0 .71 2.64l.26.8h-.11l-2.71.89.56 1.99 3.69.2 2.7-.89-.5-1.93-1.05-.05-.3-.9a1 1 0 0 0 0-.17 20.58 20.58 0 0 1-.81-2.78l1.7-1.28-1-3 1.57-1.18.7.66 1.8.25c.72.53 1.46 1 2.21 1.53l-.05.07.73.46-.09.06-1.63 2.32 1.66 1.19 3.15-2.05 1.63-2.32z"/><g class="cls-69"><path class="cls-23" d="M209.77 799.8l.16 1.97 2.66-.38-.16-1.96-2.66.37z"/><path class="cls-22" d="M206.53 800.9l3.4.87-.16-1.97-3.39-.86.15 1.96z"/><path class="cls-89" d="M206.38 798.94l3.39.86 2.66-.37-3.4-.87-2.65.38z"/></g><path stroke-width="1.63" stroke="#a14516" stroke-miterlimit="10" stroke-linecap="round" fill="none" d="M202.96 789.04l-5.96-5.4"/><path class="cls-53" d="M200 780.86a12.86 12.86 0 0 0-3.35 2.89c-.76.93-2.35 3.49-2.7 3.92l-.28-2.48a10.46 10.46 0 0 1 5-5.53z"/><path class="cls-98" d="M213.92 782.35a5.6 5.6 0 0 0 2.49-3.7 9.06 9.06 0 0 0-.27-5l-2 .86.13.2c.75 1.2 2.67.09 1.91-1.12l-.13-.2c-.63-1-2.49-.37-2 .85.78 2 .67 4.85-1.19 6.22-1.14.84 0 2.76 1.11 1.92z"/><path class="cls-99" d="M208.77 794.3a25 25 0 0 0 .4 4.23c.24 1.41 2.38.81 2.13-.58a21.33 21.33 0 0 1-.31-3.65 1.11 1.11 0 0 0-2.22 0z"/><path class="cls-98" d="M216 791.43c.9 1 1.85 2 2.84 2.93s2.6-.58 1.56-1.57-1.93-1.91-2.83-2.93-2.51.5-1.57 1.57z"/><g class="cls-69"><path class="cls-60" d="M212.9 788.61l2.62.91 1.7 2.45-2.62-.91-1.7-2.45z"/><path class="cls-61" d="M209.68 789.66l7.38-3.88 2.62 4.9-2.46 1.29-1.7-2.45-3.11 1.63.4 3.14-2.47 1.29-.66-5.92z"/><path class="cls-60" d="M207.06 788.75l2.62.91.66 5.92-2.62-.9-.66-5.93z"/><path fill="#417180" d="M214.44 784.88l2.62.9-7.38 3.88-2.62-.91 7.38-3.87z"/></g><g class="cls-69"><path fill="#fdc14d" d="M206.98 782.41l7.37-3.88 2.71 7.21-7.37 3.87-2.71-7.2z"/><path fill="#fdcd71" d="M204.35 781.51l2.63.9 2.71 7.2-2.63-.9-2.71-7.2z"/><path fill="#f5b53d" d="M211.73 777.63l2.62.9-7.37 3.88-2.63-.9 7.38-3.88z"/></g><path class="cls-99" d="M201.5 788.73c2.44-.5 5.72-1.88 6.11-4.68.2-1.4-1.94-2-2.13-.59-.28 2-2.87 2.79-4.57 3.13-1.4.28-.81 2.42.59 2.14z"/><path class="cls-94" d="M211.97 788.42l-.96.51-1.12-1.55 1.15-.6.93 1.64zm4.37-2.3l-.87.46-.56-.62 1.06-.59.37.75z"/><path class="cls-23" d="M209.84 783.31l4.77-2.5 1.75 4.65-4.77 2.51-1.75-4.66z"/><path class="cls-22" d="M210.43 784.83l4.76-2.5.47 1.28-4.77 2.51-.46-1.29z"/><path class="cls-22" d="M208.15 782.73l1.69.58 1.75 4.66-1.69-.59-1.75-4.65z"/><path class="cls-89" d="M212.91 780.22l1.7.59-4.77 2.5-1.69-.58 4.76-2.51z"/><path class="cls-22" d="M211.04 781.21l1.67.62-1.16.58-1.64-.61 1.13-.59z"/><path class="cls-22" d="M213.37 783.42l-.66-1.59-1.16.58.69 1.6 1.13-.59z"/><path stroke-width=".48" stroke="#fcc062" stroke-miterlimit="10" fill="none" d="M211.79 783.64l1.65-.87.83 2.04-1.65.87-.83-2.04z"/><path class="cls-22" d="M209.12 782.22l-.97.51-.56-.64 1.15-.6.38.73z"/><path class="cls-94" d="M207.5 780.99l-.97.51 1.06.59 1.15-.6-1.24-.5z"/><path class="cls-22" d="M212.91 780.22l-.87.46-.55-.62 1.05-.58.37.74z"/><path class="cls-94" d="M211.59 778.93l-.87.46.77.67 1.05-.58-.95-.55z"/><g class="cls-69"><path class="cls-105" d="M200.06 778.8l8.6-4.53 4.07 4.26-8.6 4.52-4.07-4.25z"/><path class="cls-78" d="M212.34 774.45l.39 4.08-4.07-4.26-.39-4.08 4.07 4.26z"/><path class="cls-106" d="M208.27 770.19l.39 4.08-8.6 4.53-.4-4.09 8.61-4.52z"/></g><path class="cls-107" d="M208.66 774.27c-.83-1.09 1-3.65-.39-4.08-2.48-.78-7.22 1.38-8.36 4a5.55 5.55 0 0 0 0 5.11c1 2.17 4.74 7.34 6.5 7.6 3.79.57-.18-4.15 6.21-7 1.95-.9-3.12-4.53-3.96-5.63z"/><path d="M212.73 778.53s-5.75-2.31-6.18-4.72 2.12-3.32 2.12-3.32z" fill="#4b2c17"/><path class="cls-61" d="M211.49 799.39l-2.24.01-.24-1.64 2.2-.31.28 1.94z"/><g class="cls-69"><path class="cls-23" d="M219.86 794.74l1.36 1.47 1.88-1.96-1.36-1.47-1.88 1.96z"/><path class="cls-22" d="M217.97 797.64l3.25-1.43-1.36-1.47-3.25 1.43 1.36 1.47z"/><path class="cls-89" d="M216.61 796.17l3.25-1.43 1.88-1.96-3.24 1.43-1.89 1.96z"/></g><path class="cls-61" d="M220.97 793.34l-1.78 1.41-1.21-1.16 1.56-1.63 1.43 1.38z"/><circle class="cls-109" cx="275.37" cy="240.26" r="3.52"/><path class="cls-110" d="M263.74 253.14a13.69 13.69 0 0 1-6.42-.8"/><path class="cls-78" d="M265.72 251.75l-5.11-1.45 9-2.17 5.71 1.31-9.6 2.31z"/><path class="cls-106" d="M265.72 251.75l-5.11-1.45 9-2.17 5.71 1.31-9.6 2.31z"/><path class="cls-105" d="M265.72 251.75l-5.11-1.45 9-2.17 5.71 1.31-9.6 2.31z"/><path stroke="#8d6363" stroke-width=".17" fill="#8d6363" stroke-miterlimit="10" d="M275.32 249.44l-5.69-1.04-.16-8.67 5.82 1.4.03 8.31z"/><path class="cls-107" d="M275.32 249.44a24.58 24.58 0 0 1-5.8-6.08l-.64-4.12s5.65.5 6.29 1.53c1.19 1.92.15 8.67.15 8.67z"/><path class="cls-78" d="M260.46 241.62l8.99-2.16.18 8.94-9.02 1.9-.15-8.68z"/><g class="cls-69"><path class="cls-112" d="M267.23 261.05l-4.21-.21 1.6-.8 4.2.2-1.59.81z"/><path class="cls-61" d="M268.82 260.24l-4.2-.2-.05-2.87 4.2.21.05 2.86z"/><path class="cls-112" d="M270.11 257.7l-5.54-.53 1.91-.97 4.57.44-.94 1.06zm-.09 1.8l-3.48-.44 1.59-.81 3.61.35-1.72.9z"/><path class="cls-20" d="M271.74 258.6l-3.61-.35-.17-9.56 3.6.35.18 9.56z"/><path class="cls-61" d="M271.74 258.6l-3.61-.35-.09-4.84 3.61.45.09 4.74z"/><path class="cls-19" d="M262.85 251.28l5.11-2.59.17 9.56-1.59.81-.06-2.86-1.91.97.05 2.87-1.6.8-.17-9.56z"/><path class="cls-60" d="M268.04 253.41l.09 4.84-1.59.81-.06-2.86-1.91.97.05 2.87-1.6.8-.09-5.14 5.11-2.29z"/></g><path d="M261.59 245s.38-1.22 1.71-.39m2.6-.56s.38-1.22 1.71-.4" stroke="#632e34" stroke-width=".29" stroke-miterlimit="10" stroke-linecap="round" fill="none"/><path class="cls-109" d="M260.46 241.62s2.51 1.28 9.06 1.74c0 0 1.59-2.83-.07-3.9s-8.99 2.16-8.99 2.16z"/><g class="cls-49"><path class="cls-78" d="M264.24 240.41a7.39 7.39 0 0 0 2.71 1.37 14.53 14.53 0 0 0 1.49.29c.51.07 1 .09 1.56.14-.25.09-.51.14-.77.21s-.54.07-.81.08a5.57 5.57 0 0 1-1.62-.19 4.57 4.57 0 0 1-1.48-.7 3.36 3.36 0 0 1-1.08-1.2z"/></g><g class="cls-49"><path class="cls-78" d="M266.35 239.6a6.1 6.1 0 0 0 1.85.87 13.5 13.5 0 0 0 2 .36 3.27 3.27 0 0 1-2.2.18 3 3 0 0 1-1-.52 2.13 2.13 0 0 1-.65-.89z"/></g><path class="cls-110" d="M265.39 261a9.37 9.37 0 0 0 .51 5.56m3.24-7.34s1.35 5.06 4.86 5.25m.82-16.67a13 13 0 0 1-2.28 2.14 13.31 13.31 0 0 1-3 1.66"/><circle cx="264.55" cy="247.37" r=".88" fill="#632e34"/><path class="cls-74" transform="rotate(-59.9 273.607 265.48)" d="M271.61 264.64h3.95v1.67h-3.95z"/><path class="cls-75" transform="matrix(.5 -.87 .87 .5 -94.48 369.04)" d="M272.2 265.67h1.58v1.67h-1.58z"/><path class="cls-74" transform="rotate(-88.83 264.903 266.75)" d="M264.04 264.66h1.77v4.18h-1.77z"/><path class="cls-75" transform="rotate(-88.83 263.644 266.727)" d="M262.78 265.89h1.77v1.67h-1.77z"/></g></svg>