<svg xmlns="http://www.w3.org/2000/svg" xmlns:xlink="http://www.w3.org/1999/xlink" width="663" height="295" viewBox="0 0 663 295">
  <defs>
    <polygon id="footer-dekstop-a" points="0 0 663 0 663 295 0 295"/>
  </defs>
  <g fill="none" fill-rule="evenodd">
    <mask id="footer-dekstop-b" fill="#fff">
      <use xlink:href="#footer-dekstop-a"/>
    </mask>
    <g fill="#F1FAFC" mask="url(#footer-dekstop-b)">
      <g transform="translate(52.233 103.797)">
        <ellipse cx="442.659" cy="130.007" rx="128.749" ry="129.318"/>
        <ellipse cx="128.791" cy="252.774" rx="128.749" ry="129.318"/>
        <ellipse cx="349.599" cy="155.535" rx="92.393" ry="93.042"/>
        <ellipse cx="179.49" cy="248.913" rx="107.069" ry="107.821"/>
        <ellipse cx="526.713" cy="186.101" rx="84.054" ry="84.645"/>
      </g>
    </g>
    <g fill="#E4F6FA" mask="url(#footer-dekstop-b)">
      <g transform="translate(-2.255 131.32)">
        <ellipse cx="471.641" cy="120.99" rx="120.394" ry="120.942"/>
        <ellipse cx="103.877" cy="225.241" rx="103.719" ry="104.144"/>
        <ellipse cx="399.272" cy="144.842" rx="86.71" ry="87.011"/>
        <ellipse cx="329.904" cy="156.6" rx="84.709" ry="85.331"/>
        <ellipse cx="580.363" cy="181.797" rx="75.038" ry="75.589"/>
      </g>
    </g>
    <g fill="#D7F4FA" mask="url(#footer-dekstop-b)">
      <g transform="translate(95.775 168.552)">
        <ellipse cx="269.671" cy="106.275" rx="105.432" ry="105.763"/>
        <ellipse cx="79.112" cy="160.14" rx="78.879" ry="79.421"/>
        <ellipse cx="412.981" cy="170.362" rx="75.365" ry="76.275"/>
        <ellipse cx="166.973" cy="144.413" rx="73.803" ry="74.703"/>
        <ellipse cx="93.17" cy="191.593" rx="87.47" ry="88.07"/>
        <ellipse cx="374.713" cy="116.104" rx="65.212" ry="66.053"/>
      </g>
    </g>
    <g fill="#ADE2EF" mask="url(#footer-dekstop-b)">
      <g transform="translate(-.441 189.509)">
        <ellipse cx="334.507" cy="88.609" rx="88.087" ry="88.446"/>
        <ellipse cx="162.957" cy="138.144" rx="65.731" ry="66.251"/>
        <ellipse cx="90.995" cy="121.483" rx="32.032" ry="30.267"/>
        <ellipse cx="440.278" cy="147.125" rx="63.062" ry="63.56"/>
        <ellipse cx="235.409" cy="119.311" rx="61.728" ry="62.215"/>
        <ellipse cx="174.015" cy="164.613" rx="73.072" ry="73.649"/>
        <ellipse cx="389.895" cy="107.778" rx="54.721" ry="55.153"/>
        <ellipse cx="241.082" cy="123.921" rx="30.03" ry="30.267"/>
      </g>
    </g>
    <g mask="url(#footer-dekstop-b)">
      <g transform="translate(163 56)">
        <g transform="rotate(-21 464.015 -152.474)">
          <path fill="#E2211B" fill-rule="nonzero" d="M19.9789153,48.4878388 L0,40.7026232 C0,40.7026232 6.35303002,19.6367457 25.6303837,11.9541749 C45.6794551,4.00314839 66.8822056,-0.521119909 110.316664,40.7578935 C115.412214,44.4843141 121.759832,46.0093465 127.964835,44.9979146 L119.733179,82.1079687 L101.430217,59.2497545 L58.1672515,26.2612851 L33.6983421,27.4219613 L22.0913952,38.5865605 L19.9789153,48.4878388 Z"/>
          <path fill="#F1B08F" fill-rule="nonzero" d="M102.54492,78.8549171 C102.54492,78.8549171 88.4669174,53.5884973 75.2619691,40.2525651 C60.2875266,25.0453387 38.110385,23.7820177 22.6292591,39.0129314 L17.5702204,36.0362313 C17.5702204,36.0362313 34.9923334,7.79311136 72.1361225,27.6746255 C105.966982,45.8348647 109.693053,66.5454332 109.693053,66.5454332 L102.54492,78.8549171 Z"/>
          <path fill="#D90B0B" fill-rule="nonzero" d="M19.9789153,48.4878388 L8.06016324,43.8293426 C8.06016324,43.8293426 9.14368615,30.0986226 27.3531072,20.1420741 C41.8520468,12.1910476 62.7741727,4.79272401 106.216426,46.0717374 C115.032717,52.3883424 122.936977,67.6587348 122.936977,67.6587348 L119.733179,82.0763856 L101.430217,59.2497545 L58.1672515,26.2612851 L33.6983421,27.4219613 L22.0913952,38.5865605 L19.9789153,48.4878388 Z"/>
          <path fill="#F1B08F" fill-rule="nonzero" d="M102.54492,78.8549171 C102.54492,78.8549171 88.4669174,53.5884973 75.2619691,40.2525651 C60.2875266,25.0453387 38.110385,23.7820177 22.6292591,39.0129314 L17.5702204,36.0362313 C17.5702204,36.0362313 34.9923334,7.79311136 72.1361225,27.6746255 C105.966982,45.8348647 109.693053,66.5454332 109.693053,66.5454332 L102.54492,78.8549171 Z"/>
          <path fill="#000" fill-rule="nonzero" d="M102.54492,78.8549171 C102.54492,78.8549171 88.4669174,53.5884973 75.2619691,40.2525651 C60.2875266,25.0453387 38.110385,23.7820177 22.6292591,39.0129314 L20.0880471,37.5206334 C20.0880471,37.5206334 39.5057131,14.1097163 69.3454663,31.0776964 C95.1785234,45.7874902 105.335576,74.0306101 105.335576,74.0306101 L102.54492,78.8549171 Z" opacity=".1"/>
          <path fill="#603813" fill-rule="nonzero" d="M0.943210592,7.95102649 C0.626084113,6.75269553 0.453334761,5.5198863 0.428732087,4.27949986 C0.368565548,3.04107454 0.460207623,1.79987058 0.701561597,0.584285958 C1.01218627,1.78373287 1.18225234,3.01606479 1.20824497,4.25581259 C1.26729391,5.49386894 1.17830301,6.73461524 0.943210592,7.95102649 L0.943210592,7.95102649 Z" opacity=".3" transform="translate(51.448 20.529)"/>
          <path fill="#603813" fill-rule="nonzero" d="M0.756127499,7.7141538 C0.744480065,6.4651959 0.880564882,5.21932048 1.1614742,4.00314839 C1.40956698,2.77822582 1.8021399,1.58795483 2.33074353,0.457953859 C2.34201759,1.70689267 2.20593769,2.95272315 1.92539683,4.16895927 C1.6725812,5.39259196 1.28019122,6.58230829 0.756127499,7.7141538 L0.756127499,7.7141538 Z" opacity=".3" transform="translate(60.022 22.898)"/>
          <path fill="#603813" fill-rule="nonzero" d="M0.311805154,7.54044717 C0.581684774,6.26104284 0.992188762,5.01628171 1.53564039,3.82944175 C2.04291606,2.6296538 2.68925333,1.49522709 3.46103721,0.450058103 C3.19859388,1.72795126 2.79051327,2.97064649 2.24499711,4.15316776 C1.73028164,5.35326363 1.0816643,6.48975096 0.311805154,7.54044717 L0.311805154,7.54044717 Z" opacity=".3" transform="translate(67.818 26.846)"/>
          <path fill="#603813" fill-rule="nonzero" d="M0.771717757,7.92733922 C1.30651493,6.54783804 1.97496581,5.22541635 2.76727074,3.97946112 C3.53242664,2.70465967 4.42301227,1.51158321 5.42540969,0.418475078 C4.89061251,1.79797625 4.22216163,3.12039795 3.4298567,4.36635318 C2.66287206,5.63989497 1.77242027,6.83279214 0.771717757,7.92733922 Z" opacity=".3" transform="translate(74.054 31.583)"/>
          <path fill="#603813" fill-rule="nonzero" d="M2.09688966,7.30357448 C1.57209405,6.18650942 1.18212415,5.00945045 0.935415463,3.79785873 C0.654458322,2.59240297 0.518356031,1.35697213 0.530068762,0.118436343 C1.06058224,1.23315298 1.45079324,2.41093964 1.69154296,3.62415209 C1.9720503,4.82968671 2.1081465,6.0650622 2.09688966,7.30357448 Z" opacity=".3" transform="translate(40.535 21.319)"/>
          <path fill="#603813" fill-rule="nonzero" d="M3.32852002,7.18513814 C2.58490518,6.17209503 1.95972148,5.07516098 1.46548423,3.91629507 C0.941666531,2.76659209 0.554398865,1.55798595 0.311805154,0.315830248 C1.06284657,1.32674606 1.68853738,2.42722163 2.17484095,3.59256907 C2.70207685,4.73816556 3.08949323,5.94458433 3.32852002,7.18513814 L3.32852002,7.18513814 Z" opacity=".3" transform="translate(29.621 24.477)"/>
          <path fill="#E53732" fill-rule="nonzero" d="M56.6627917,10.201317 C61.1060151,5.70863173 63.2574707,2.02131359 68.4412314,3.45834121 C74.0615193,5.03749245 67.8332113,7.87206893 66.243005,13.020102 C66.1962343,13.1780171 65.2530237,13.114851 65.2530237,13.114851 C63.5781386,12.2943251 61.8390867,11.6156056 60.0536727,11.0856417 C57.5670266,10.5171473 56.6627917,10.201317 56.6627917,10.201317 Z"/>
          <path fill="#D90B0B" fill-rule="nonzero" d="M54.6516484,10.0986722 C58.0659149,4.93484762 63.7875394,2.20291598 67.5915623,3.21357277 C73.562631,4.84009855 66.9757472,7.46938536 65.3855409,12.6174184 C65.3387701,12.7832293 65.2530237,13.114851 65.2530237,13.114851 C63.5791789,12.2918972 61.8399236,11.6130984 60.0536727,11.0856417 C58.2853065,10.5957085 56.477565,10.2654276 54.6516484,10.0986722 L54.6516484,10.0986722 Z"/>
          <path fill="#E53732" fill-rule="nonzero" d="M83.3844934,21.4685611 C88.7865177,18.2313011 91.7798472,15.2072264 96.4491294,17.8996793 C101.508168,20.8132133 94.7731767,22.0133683 91.9747254,26.5850111 C91.888979,26.7271347 90.9925392,26.427096 90.9925392,26.427096 C89.5697257,25.2130679 88.0525509,24.1172682 86.4557742,23.1503572 C84.1873917,22.0054725 83.3844934,21.4685611 83.3844934,21.4685611 Z"/>
          <path fill="#D90B0B" fill-rule="nonzero" d="M81.4668917,20.8684836 C86.0348372,16.7232116 92.2475549,15.4914737 95.6852067,17.4496212 C101.071641,20.5210704 94.0482297,21.3974993 91.2419833,26.0007251 L90.9925392,26.4507833 C89.5717222,25.2341504 88.0543314,24.1381948 86.4557742,23.1740444 C84.862195,22.2599848 83.1929013,21.4885379 81.4668917,20.8684836 L81.4668917,20.8684836 Z"/>
          <path fill="#E53732" fill-rule="nonzero" d="M27.3141315,14.2360484 C27.6805026,7.95892224 26.8698092,3.79785873 31.6326329,1.39754885 C36.7930082,-1.20015494 34.0491229,5.06117972 36.2317589,9.92496554 C36.3019151,10.0828807 35.5613779,10.6592709 35.5613779,10.6592709 C33.7902629,11.1713938 32.064204,11.8316433 30.4010025,12.6332099 C28.1949811,13.8649479 27.3141315,14.2360484 27.3141315,14.2360484 Z"/>
          <path fill="#D90B0B" fill-rule="nonzero" d="M26.0279353,15.2388095 C25.1938565,9.15118143 27.3609023,3.5688818 30.85312,1.81602392 C36.3097102,-0.971178012 33.1916587,5.36911421 35.3353191,10.2329 C35.4054753,10.3908152 35.5613779,10.6908539 35.5613779,10.6908539 C33.7899104,11.2018973 32.063764,11.8621802 30.4010025,12.6647929 C28.8796282,13.406649 27.4175291,14.2672503 26.0279353,15.2388095 L26.0279353,15.2388095 Z"/>
          <path fill="#E53732" fill-rule="nonzero" d="M5.12139966,35.2308641 C1.94878221,29.7433136 -1.02116188,26.7429262 1.66036245,22.0054725 C4.56015038,16.8969183 5.71382945,23.7188516 10.2350042,26.5771154 C10.3753165,26.6718644 10.0713065,27.5719806 10.0713065,27.5719806 C8.86531304,29.008163 7.77811694,30.5424917 6.82073775,32.159415 C5.65146842,34.425497 5.12139966,35.2308641 5.12139966,35.2308641 Z"/>
          <path fill="#D90B0B" fill-rule="nonzero" d="M4.51337961,37.1732202 C0.444322345,32.5226198 -0.740537242,26.2297021 1.20824497,22.7950481 C4.26393549,17.3469764 5.1058094,24.4768442 9.63477927,27.3351079 L10.0713065,27.5877721 C8.86430303,29.0231542 7.77704515,30.5575701 6.82073775,32.1752065 C5.91099851,33.7708202 5.13901059,35.4430383 4.51337961,37.1732202 L4.51337961,37.1732202 Z"/>
        </g>
        <g transform="translate(371.731 .81)">
          <g fill-rule="nonzero" transform="translate(0 105.803)">
            <path fill="#E2211B" d="M40.23066,23.0792954 C40.23066,23.0792954 26.253994,23.6004153 25.0613393,21.5475187 C24.5234754,20.6237152 29.1303965,18.7682125 29.1303965,18.7682125 C29.1303965,18.7682125 20.3530814,17.3706636 16.2294583,14.5597744 C11.552381,11.4014719 6.99223059,0.268455711 6.99223059,0.268455711 C6.99223059,0.268455711 18.8875972,0.339517516 23.533494,3.49781999 C27.6571172,6.30081344 32.3341945,14.0386545 32.3341945,14.0386545 C32.3341945,14.0386545 32.2718335,9.00905782 33.3241759,9.15907719 C35.6627145,9.4985947 40.4333334,22.7713609 40.4333334,22.7713609 L40.23066,23.0792954 Z"/>
            <path fill="#D90B0B" d="M36.9099351,20.1578656 C36.9099351,20.1578656 30.2840756,21.0974606 29.6136945,20.0552207 C29.3096845,19.5893711 31.9132575,18.0181156 31.9132575,18.0181156 C31.9132575,18.0181156 24.4221387,16.6600456 22.2083221,15.2940797 C19.7060858,13.7149285 17.0557419,8.05367132 17.0557419,8.05367132 C17.0557419,8.05367132 23.291845,7.80890288 25.7629009,9.34857533 C27.9845126,10.7066454 32.9655999,16.5100262 32.9655999,16.5100262 C32.9655999,16.5100262 33.090322,13.3517237 33.635981,13.3912025 C34.8598163,13.5175346 37.0112718,19.9999504 37.0112718,19.9999504 L36.9099351,20.1578656 Z"/>
            <path fill="#F1B08F" d="M9.41651566,75.9019043 C9.41651566,75.9019043 40.2852259,91.5433973 45.7574064,55.5229576 C48.6805797,26.8455711 38.6326586,21.3185417 38.6326586,21.3185417 C38.6326586,21.3185417 51.9311485,17.5364745 56.6394063,60.3630561 C61.3476641,103.189638 0,100.315582 0,100.315582"/>
            <path fill="#000" d="M9.41651566,75.9019043 C9.41651566,75.9019043 40.3164065,92.0645172 45.7885869,55.2071273 C48.7195554,26.5139493 38.6326586,21.2553757 38.6326586,21.2553757 C38.6326586,21.2553757 51.6271384,29.5143367 47.8231155,56.3599077 C42.5224279,93.65946 8.06795837,79.699763 8.06795837,79.699763" opacity=".1"/>
            <path fill="#E2211B" d="M13.8441489,83.2923321 C13.8441489,83.2923321 46.9344709,92.8146141 52.3988562,56.8020701 C55.3298246,28.1088921 30.0268364,16.3363196 30.0268364,16.3363196 C30.0268364,16.3363196 62.1349721,23.8451837 64.0369836,63.3871307 C65.5960093,95.957125 20.3219009,110.761668 6.07240538,100.734058"/>
            <path fill="#D90B0B" d="M13.8441489,83.2923321 C13.8441489,83.2923321 46.9344709,92.8146141 52.3988562,56.8020701 C55.3298246,28.1088921 30.0268364,16.3363196 30.0268364,16.3363196 C30.0268364,16.3363196 57.9879636,25.2032538 58.089523,60.2446198 C58.1906369,86.4190516 23.6816015,101.468363 9.21384231,93.1067571"/>
            <path fill="#603813" d="M6.07018187,2.15830248 C3.91010715,1.84047529 1.86316292,1.15816055 0.0701818745,0.158302478 C2.22778485,0.482560795 4.27305075,1.16431609 6.07018187,2.15830248 L6.07018187,2.15830248 Z" opacity=".3" transform="translate(43.873 64.166)"/>
            <path fill="#603813" d="M3.04010025,4.8479943 C2.38884884,4.33488207 1.83206065,3.70943027 1.39532807,3.00038735 C0.933289724,2.30583837 0.597987033,1.53297702 0.405346701,0.718513814 C1.05659811,1.23162605 1.6133863,1.85707785 2.05011889,2.56612076 C2.51215723,3.26066975 2.84745992,4.0335311 3.04010025,4.8479943 L3.04010025,4.8479943 Z" opacity=".3" transform="translate(31.96 76.8)"/>
            <path fill="#603813" d="M6.17931368,1.18436343 C4.20676167,1.70543746 2.15186569,1.70543746 0.179313679,1.18436343 C2.1507523,0.652826106 4.20787506,0.652826106 6.17931368,1.18436343 L6.17931368,1.18436343 Z" opacity=".3" transform="translate(46.212 46.585)"/>
            <path fill="#E53732" d="M61.581518,63.4345053 C66.5781956,67.492924 70.4679649,69.1589285 69.8209692,75.230765 C69.1116125,81.8000342 65.4479019,75.4281589 60.2173704,74.6859578 C60.0536727,74.6859578 59.9835166,73.5963435 59.9835166,73.5963435 C60.5402572,71.5606359 60.9492929,69.4864172 61.2073518,67.3902791 C61.4100251,64.5083281 61.581518,63.4345053 61.581518,63.4345053 Z"/>
            <path fill="#D90B0B" d="M61.4723862,61.5868983 C66.9757472,64.3583087 70.3978087,69.7747975 69.9378961,74.2201082 C69.2207443,81.2078525 65.7207314,74.3859191 60.4901999,73.643718 L59.9913117,73.5884477 C60.5506428,71.5533657 60.9597169,69.4789519 61.2151469,67.3823834 C61.4346647,65.4590314 61.5206224,63.5224437 61.4723862,61.5868983 Z"/>
            <path fill="#E53732" d="M55.1817172,36.9047645 C60.2251656,35.8467331 63.3899879,34.1886243 66.0948976,37.9943788 C69.025866,42.1159635 63.5926612,41.0026619 60.1004435,44.0583196 C59.9835166,44.1530686 59.406677,43.6082615 59.406677,43.6082615 C58.708367,42.1251474 57.8923978,40.701873 56.9668017,39.3524489 C55.6260395,37.6232783 55.1817172,36.9047645 55.1817172,36.9047645 Z"/>
            <path fill="#D90B0B" d="M54.1683504,35.9572737 C58.8454278,33.8491068 63.6628174,34.5913079 65.6583704,37.3627183 C68.7764219,41.7211757 63.2262902,40.2525651 59.7340724,43.3082227 L59.4144722,43.6082615 C58.7136402,42.1264968 57.8977858,40.7034228 56.9745968,39.3524489 C56.1309855,38.1460142 55.1925166,37.0105948 54.1683504,35.9572737 Z"/>
            <path fill="#E53732" d="M52.6716857,87.0112333 C53.3888376,96.0676656 55.2051026,101.792089 49.5536342,106.490064 C43.4656385,111.582827 45.7807918,101.910525 42.0859007,95.5465457 C41.9689738,95.3491518 42.8030526,94.3305993 42.8030526,94.3305993 C44.9953345,93.1116453 47.0815226,91.7064214 49.0391556,90.130057 C51.6193433,87.7771216 52.6716857,87.0112333 52.6716857,87.0112333 Z"/>
            <path fill="#D90B0B" d="M54.1215797,85.2741669 C56.3431914,93.7463133 54.6204679,102.297417 50.512435,105.803133 C44.0658634,111.243309 46.8954952,101.349927 43.2006041,94.985947 C43.0914723,94.7885531 42.8342331,94.4016611 42.8342331,94.4016611 C45.0270424,93.1835896 47.1133026,91.7783171 49.0703362,90.2011188 C50.8741607,88.6899756 52.5627124,87.0429726 54.1215797,85.2741669 L54.1215797,85.2741669 Z"/>
          </g>
          <g transform="translate(42.094)">
            <path stroke="#ED9375" stroke-linecap="round" stroke-linejoin="round" d="M11.4822248,12.8621868 C11.4822248,12.8621868 55.3454149,79.5813267 8.96439819,136.186003"/>
            <polygon fill="#D90B0B" fill-rule="nonzero" points="44.222 41.84 45.75 42.645 46.615 44.145 47.355 40.924"/>
            <polygon fill="#D90B0B" fill-rule="nonzero" points="50.053 40.482 48.525 39.684 47.659 38.176 46.919 41.397"/>
            <polygon fill="#E03C3C" fill-rule="nonzero" points="54.028 46.159 55.564 46.688 47.776 41.603 56.819 44.848"/>
            <polygon fill="#E03C3C" fill-rule="nonzero" points="59.266 44.035 57.723 43.514 56.694 42.242 56.468 45.353"/>
            <path fill="#C40C1A" fill-rule="nonzero" d="M18.45107,17.9944284 C20.4262453,17.5563843 22.4653268,17.5001281 24.4611144,17.8286175 C26.4742933,18.1410636 28.4230736,18.7865944 30.2295097,19.7393905 C33.8394964,21.6741714 36.9154504,24.4912939 39.1783176,27.9351854 C40.328782,29.6281422 41.3552881,31.4041743 42.2495984,33.2490293 C43.1616285,35.0492617 44.0035024,36.9047645 44.9934838,38.6418308 C45.2321345,39.0759763 45.4923043,39.4976216 45.7729967,39.9051518 C46.038031,40.2762524 46.4121972,40.6947274 46.6616413,40.6947274 C46.9110855,40.6947274 47.308637,40.3157311 47.729574,40.0235882 C48.1818989,39.6884494 48.7281818,39.5086155 49.2885998,39.510364 C50.3337667,39.6025667 51.3314358,39.9941883 52.1650023,40.6394571 C52.9968273,41.2165279 53.7791134,41.863642 54.503541,42.5739174 C53.7076205,41.9610043 52.874502,41.3993012 52.0090997,40.8921213 C51.1909795,40.368427 50.2547982,40.0641123 49.2885998,40.0077966 C48.8363296,40.0286645 48.4023045,40.1945618 48.0491743,40.481542 C47.8620912,40.6236656 47.6905984,40.7973723 47.487925,40.9710789 C47.2469016,41.2062563 46.9261348,41.3390447 46.5914852,41.3421794 C46.2689006,41.2975929 45.9714658,41.1413765 45.7496113,40.9000171 C45.5531529,40.7051139 45.3732305,40.4938153 45.2117474,40.2683566 C44.9068955,39.8506571 44.6258143,39.415684 44.3698735,38.9655568 C43.3409165,37.1969074 42.4132961,35.3808835 41.5558319,33.5411723 C40.6956398,31.7229359 39.705629,29.9706907 38.593683,28.2983902 C36.4082523,24.9304786 33.4708199,22.1309432 30.0190412,20.1262825 C26.4976921,18.151362 22.433504,17.4023753 18.45107,17.9944284 L18.45107,17.9944284 Z"/>
            <polygon fill="#E03C3C" fill-rule="nonzero" points="37.986 33.21 39.669 34.733 40.293 36.936 42.273 33.091"/>
            <polygon fill="#E03C3C" fill-rule="nonzero" points="45.835 33.423 44.152 31.899 43.544 29.696 41.556 33.541"/>
            <polygon fill="#D90B0B" fill-rule="nonzero" points="32.373 25.661 34.454 27.043 35.491 29.341 37.027 24.808"/>
            <polygon fill="#D90B0B" fill-rule="nonzero" points="40.979 24.572 38.89 23.19 37.861 20.892 36.318 25.424"/>
            <polygon fill="#E2211B" fill-rule="nonzero" points="31.866 20.884 5.761 21.05 .405 5.416 15.84 0"/>
            <polygon fill="#E53732" fill-rule="nonzero" points="10.079 10.17 5.761 21.05 .405 5.416 15.84 0"/>
            <polygon fill="#D90B0B" fill-rule="nonzero" points="31.866 20.884 5.761 21.05 .405 5.416"/>
            <polygon fill="#DD2323" fill-rule="nonzero" points="10.079 10.17 5.761 21.05 .405 5.416"/>
            <path fill="#E8744D" fill-rule="nonzero" stroke="#E56439" stroke-width=".5" d="M3.00112461,143.300079 C3.66371056,144.381798 5.26950711,142.881604 7.80292399,141.610387 C11.7706446,139.612761 10.8040486,136.407084 10.1414626,135.293782 C9.47887669,134.180481 10.7806632,138.515251 7.29624061,140.2839 C4.77841399,141.594596 2.33853866,142.210465 3.00112461,143.300079 Z"/>
            <path fill="#E8744D" fill-rule="nonzero" stroke="#E56439" stroke-width=".5" d="M2.88419768 143.315871C3.44544696 144.5634 6.13476641 144.555504 8.90203716 143.315871 11.6693079 142.076237 13.4543924 140.015445 12.9009383 138.767915 12.3474841 137.520386 11.3419125 140.599731 8.54346123 141.863052 5.74500997 143.126373 2.33853866 142.068341 2.88419768 143.315871zM2.73609023 139.162703C3.19600283 140.197047 4.55235525 140.118089 6.83632801 139.07585 9.12030076 138.03361 10.6013752 136.351814 10.1492578 135.31747 9.6971403 134.283126 8.831881 136.833455 6.54790824 137.875695 4.26393549 138.917934 2.27617763 138.175733 2.73609023 139.162703z"/>
          </g>
        </g>
        <g transform="translate(0 86.079)">
          <g fill-rule="nonzero" transform="translate(41.38)">
            <polygon fill="#FFF" points="334.142 154.757 383.52 154.757 221.28 .79 168.97 66.167 146.548 121.346 146.548 154.757"/>
            <path fill="#FAFAFA" d="M159.479161,154.756821 L0,154.756821 C0,154.756821 116.156082,108.862544 221.83928,0 L210.13577,48.6088639 L236.192404,78.5327444 L159.479161,154.756821 Z"/>
          </g>
          <g fill-rule="nonzero" transform="translate(0 59.511)">
            <polygon fill="#F0F0F0" points="30.309 95.539 0 95.539 53.687 43.986 60.618 48.312 98.524 0 131.079 41.221 144.21 75.1 144.21 95.539"/>
            <path fill="#FAFAFA" d="M150.445987,95.53865 L30.4010025,95.53865 L73.2002193,52.3158923 C73.2002193,52.3158923 78.4452213,57.9774098 79.9924969,57.9774098 C81.5397725,57.9774098 95.648828,43.8951985 100.867605,41.0579322 L133.924231,78.6321874 L150.445987,95.53865 Z"/>
            <path fill="#FFF" d="M136.383539,95.53865 L233.853866,95.53865 C233.853866,95.53865 162.851493,66.7885321 98.2186236,0 C98.2186236,0 103.897771,26.5568644 109.081948,34.2728887 C111.032407,33.2218399 113.051788,32.3080324 115.125811,31.537928 C115.125811,31.537928 128.437942,50.6826526 132.05905,54.5406648 C132.05905,54.5406648 106.307501,41.4736305 100.08128,40.0070574 C100.094305,40.0466945 106.138169,61.1864871 136.383539,95.53865 Z"/>
          </g>
          <g fill-rule="nonzero" transform="translate(292.837 75.452)">
            <polygon fill="#F0F0F0" points="25.056 78.958 0 78.958 44.381 36.352 50.111 39.927 81.447 0 108.358 34.067 119.214 62.066 119.214 78.958"/>
            <path fill="#FAFAFA" d="M124.368683,78.9575619 L25.1314954,78.9575619 L60.5121813,43.2362746 C60.5121813,43.2362746 64.8480496,47.9152147 66.1271308,47.9152147 C67.406212,47.9152147 79.0696979,36.2770235 83.3838869,33.9321754 L110.710697,64.9852788 L124.368683,78.9575619 Z"/>
            <path fill="#FFF" d="M112.743725,78.9575619 L193.319196,78.9575619 C193.319196,78.9575619 134.623901,55.197134 81.1940622,0 C81.1940622,0 85.8888243,21.9478218 90.17441,28.3247014 C91.7867901,27.456066 93.456145,26.7008532 95.1706706,26.0644033 C95.1706706,26.0644033 106.175365,41.8864898 109.168815,45.0749296 C109.168815,45.0749296 87.8808679,34.2757277 82.733858,33.0636838 C82.7446258,33.0964417 87.7408865,50.5673447 112.743725,78.9575619 Z"/>
          </g>
        </g>
      </g>
    </g>
  </g>
</svg>
