<svg xmlns="http://www.w3.org/2000/svg" width="224" height="72" viewBox="0 0 224 72">
  <g fill="none" fill-rule="evenodd">
    <path fill="#143250" fill-rule="nonzero" d="M12.3821401 15.9874699L12.2953696 15.9874699C11.6300188 16.3183985 10.903128 16.5074572 10.1608171 16.5426506 9.21501946 16.5426506 8.76381323 15.9874699 8.76381323 14.8077108L8.76381323 8.47518072 13.1630739 8.47518072 13.1630739 4.66698795 8.76381323 4.66698795 8.76381323 0 3.02828794 0 3.02828794 4.71036145.668132296 4.71036145.668132296 8.58795181 3.02828794 8.58795181 3.02828794 15.7966265C2.95070225 17.3149216 3.52899183 18.7934265 4.61618677 19.8563855 5.74908396 20.8589138 7.22608338 21.3842727 8.7377821 21.3224096 9.58301202 21.3252472 10.4253306 21.2232639 11.2454475 21.0187952 12.0150135 20.8363105 12.7543402 20.5441655 13.4407393 20.1513253L13.4928016 20.1513253 12.4081712 16.1262651 12.3821401 15.9874699zM23.7490661 3.6346988C22.4141534 3.62927259 21.0832261 3.78067198 19.7836576 4.08578313 18.4091143 4.4276394 17.0698291 4.89815047 15.7835409 5.49108434L15.7141245 5.49108434 17.2846693 9.3426506 17.2846693 9.42072289 17.3627626 9.42072289C18.2158815 8.99262099 19.1116451 8.6553466 20.0352918 8.41445783 20.8135834 8.20323038 21.61513 8.08958721 22.4214786 8.07614458 23.2579968 8.01892193 24.0894116 8.24505456 24.7816342 8.71807229 25.3234627 9.16300354 25.6200982 9.83992327 25.5799222 10.539759L25.5799222 10.6438554 21.2414008 10.6438554C19.5047364 10.5564602 17.7885717 11.0510217 16.3649027 12.0491566 15.2101415 12.9791452 14.5660099 14.4022915 14.6294942 15.8833735 14.5744213 17.3545485 15.1524931 18.7788106 16.217393 19.7956627 17.414171 20.8378025 18.9714279 21.3702405 20.5559144 21.2790361 22.4588837 21.4066097 24.3167791 20.6630141 25.6059533 19.2578313L25.6059533 20.9927711 31.2720623 20.9927711 31.2720623 9.87180723C31.344 8.1131703 30.6052574 6.41867755 29.2676654 5.27421687 27.677418 4.09753454 25.7240098 3.51719741 23.7490661 3.6346988zM22.3 17.3493976C21.7136439 17.381355 21.1351455 17.2029303 20.668716 16.8462651 20.2800683 16.5137993 20.0657299 16.0212739 20.0873541 15.5103614 20.0873541 14.3826506 20.8335798 13.8274699 22.3607393 13.8274699L25.6146304 13.8274699 25.6146304 15.2154217C25.437865 15.8523967 25.0252605 16.3982522 24.4605837 16.7421687 23.8151388 17.1511283 23.0640504 17.3622206 22.3 17.3493976L22.3 17.3493976zM46.2052529 3.6346988C45.051488 3.611501 43.9098717 3.87373361 42.8819455 4.39807229 41.9839238 4.87526784 41.2201298 5.5702519 40.6606226 6.41927711L40.6606226 3.81686747 34.8903891 3.81686747 34.8903891 20.9927711 40.6606226 20.9927711 40.6606226 11.9624096C40.7088392 11.1086101 41.0594981 10.2998522 41.6498054 9.68096386 42.2494118 9.11430111 43.046082 8.80318589 43.8711284 8.81349398 44.6379451 8.77587202 45.3839112 9.06975384 45.9189105 9.62024096 46.4551806 10.2315627 46.7294467 11.0292122 46.6824903 11.8409639L46.6824903 21.0274699 52.4180156 21.0274699 52.4180156 10.2274699C52.4951295 8.45697542 51.8716723 6.72734895 50.682607 5.41301205 49.4991734 4.22854893 47.8790999 3.58508893 46.2052529 3.6346988L46.2052529 3.6346988zM63.854358 3.6346988C62.5194452 3.62927259 61.1885179 3.78067198 59.8889494 4.08578313 58.5148588 4.42914947 57.1757127 4.89961166 55.8888327 5.49108434L55.8194163 5.49108434 57.3899611 9.3426506 57.3899611 9.42072289 57.4680545 9.42072289C58.3219299 8.99435097 59.2175098 8.65714577 60.1405837 8.41445783 60.9190013 8.20384336 61.7204712 8.09021106 62.5267704 8.07614458 63.3632886 8.01892193 64.1947034 8.24505456 64.8869261 8.71807229 65.4287546 9.16300354 65.72539 9.83992327 65.685214 10.539759L65.685214 10.6438554 61.3466926 10.6438554C59.6100283 10.5564602 57.8938635 11.0510217 56.4701946 12.0491566 55.3142993 12.9782671 54.6698933 14.4020195 54.734786 15.8833735 54.6986374 17.3668565 55.3061326 18.793452 56.4007782 19.7956627 57.5975562 20.8378025 59.1548131 21.3702405 60.7392996 21.2790361 62.6395119 21.4052007 64.4941765 20.6616205 65.7806615 19.2578313L65.7806615 20.9927711 71.4467704 20.9927711 71.4467704 9.87180723C71.5187082 8.1131703 70.7799655 6.41867755 69.4423735 5.27421687 67.8335016 4.08174413 65.8526643 3.5005685 63.854358 3.6346988zM62.4052918 17.3493976C61.8190302 17.3805885 61.2407912 17.2022437 60.7740078 16.8462651 60.3853601 16.5137993 60.1710217 16.0212739 60.1926459 15.5103614 60.1926459 14.3826506 60.9388716 13.8274699 62.4660311 13.8274699L65.7199222 13.8274699 65.7199222 15.2154217C65.5431569 15.8523967 65.1305523 16.3982522 64.5658755 16.7421687 63.9210621 17.1525421 63.1695401 17.3637563 62.4052918 17.3493976L62.4052918 17.3493976zM103.864202 12.326747C103.899951 13.3025303 103.592971 14.2600501 102.996498 15.033253 102.444358 15.7141507 101.608363 16.1016145 100.73179 16.0828916 100.002011 16.1173392 99.2941273 15.8285499 98.7968093 15.293494 98.2862275 14.6733673 98.0289728 13.8832198 98.0766148 13.0814458L98.0766148 3.85156627 92.3150584 3.85156627 92.3150584 14.6862651C92.2310375 16.4391257 92.8315034 18.1560565 93.9897276 19.4746988 95.1520265 20.6935707 96.7841784 21.3513147 98.4670817 21.2790361 100.62752 21.363085 102.669787 20.2926712 103.829494 18.4684337L103.829494 21.0708434 109.591051 21.0708434 109.591051 3.85156627 103.864202 3.85156627 103.864202 12.326747zM121.660817 4.42409639L121.660817 4.42409639C120.785559 4.92549985 120.044358 5.6307905 119.500233 6.48L119.500233 3.87759036 113.738677 3.87759036 113.738677 21.053494 119.500233 21.053494 119.500233 12.2746988C119.589755 11.2905602 120.094757 10.3912684 120.88856 9.80240964 121.817669 9.1746698 122.927506 8.869852 124.047004 8.93493976 124.41144 8.93493976 124.697782 8.93493976 124.914708 8.93493976L125.001479 8.93493976 125.001479 3.64337349 124.923385 3.64337349C123.786388 3.61490545 122.661695 3.88404129 121.660817 4.42409639L121.660817 4.42409639zM138.277354 3.85156627L138.277354 12.326747C138.313103 13.3025303 138.006123 14.2600501 137.40965 15.033253 136.85751 15.7141507 136.021515 16.1016145 135.144942 16.0828916 134.415163 16.1173392 133.707279 15.8285499 133.209961 15.293494 132.699379 14.6733673 132.442125 13.8832198 132.489767 13.0814458L132.489767 3.85156627 126.72821 3.85156627 126.72821 14.6862651C126.648943 16.441496 127.255736 18.1587226 128.420233 19.4746988 129.582532 20.6935707 131.214684 21.3513147 132.897588 21.2790361 135.058026 21.363085 137.100293 20.2926712 138.26 18.4684337L138.26 21.0708434 144.038911 21.0708434 144.038911 3.85156627 138.277354 3.85156627zM81.8245136 15.206747L85.4428405 15.206747 85.4428405 16.4819277C83.3690272 17.4708434 81.8245136 17.3493976 80.5142802 16.5860241 79.8263635 16.1853247 79.2620014 15.6031085 78.8829961 14.9031325 78.4877447 14.1584627 78.2877301 13.3257909 78.3016342 12.4828916 78.2878975 11.6510615 78.4880789 10.8296434 78.8829961 10.0973494 79.2603245 9.40699877 79.8142946 8.82922933 80.488249 8.42313253 81.8838675 7.65460901 83.5653513 7.60935052 85.0003113 8.30168675 85.7506663 8.60724769 86.4365896 9.05165301 87.0220623 9.61156627L87.2476654 9.81975904 90.1110895 6.29783133 89.9028405 6.11566265C88.9439662 5.28577213 87.8370853 4.64419009 86.6402724 4.22457831 85.4104715 3.76544356 84.1090865 3.52755709 82.7963424 3.52192771 81.0970013 3.5008878 79.4188172 3.90020559 77.9111673 4.68433735 76.4836467 5.42251074 75.2838731 6.53500012 74.4403502 7.9026506 73.6033573 9.2824332 73.1704487 10.8693357 73.190856 12.4828916 73.1700535 14.1000858 73.5899955 15.6924356 74.405642 17.0891566 75.2027089 18.4516951 76.354167 19.5728644 77.7376265 20.333494 79.1929494 21.1247203 80.8275292 21.5280269 82.4839689 21.5045783 83.7723169 21.4901009 85.0509406 21.2794921 86.2758366 20.88 87.4896458 20.5248028 88.6361136 19.9707775 89.6685603 19.2404819L89.7813619 19.1537349 89.7813619 12.0578313 81.7984825 12.0578313 81.8245136 15.206747z" transform="translate(71.961 24.157)"/>
    <path fill="#143250" fill-rule="nonzero" d="M80.554,61 L80.554,59.362 L75.08,59.362 L75.08,56.898 L79.84,56.898 L79.84,55.26 L75.08,55.26 L75.08,52.838 L80.386,52.838 L80.386,51.2 L73.204,51.2 L73.204,61 L80.554,61 Z M84.208,61 L84.208,57.318 C84.208,56.6926667 84.383,56.1793333 84.733,55.778 C85.083,55.3766667 85.5613333,55.1713333 86.168,55.162 C86.6813333,55.162 87.0873333,55.3136667 87.386,55.617 C87.6846667,55.9203333 87.834,56.3333333 87.834,56.856 L87.834,56.856 L87.834,61 L89.668,61 L89.668,56.324 C89.668,55.4373333 89.4206667,54.735 88.926,54.217 C88.4313333,53.699 87.7546667,53.44 86.896,53.44 C85.6173333,53.4586667 84.7213333,53.9486667 84.208,54.91 L84.208,54.91 L84.208,53.51 L82.388,53.51 L82.388,61 L84.208,61 Z M94.638,63.786 C95.422,63.786 96.1103333,63.6436667 96.703,63.359 C97.2956667,63.0743333 97.753,62.6683333 98.075,62.141 C98.397,61.6136667 98.558,60.9953333 98.558,60.286 L98.558,60.286 L98.558,53.51 L96.738,53.51 L96.738,54.63 C96.486,54.2566667 96.157,53.9673333 95.751,53.762 C95.345,53.5566667 94.8806667,53.454 94.358,53.454 C93.7046667,53.454 93.126,53.6033333 92.622,53.902 C92.118,54.2006667 91.726,54.6183333 91.446,55.155 C91.166,55.6916667 91.026,56.31 91.026,57.01 C91.026,57.7193333 91.166,58.347 91.446,58.893 C91.726,59.439 92.118,59.8636667 92.622,60.167 C93.126,60.4703333 93.7046667,60.622 94.358,60.622 C94.89,60.622 95.3566667,60.5216667 95.758,60.321 C96.1593333,60.1203333 96.486,59.8286667 96.738,59.446 L96.738,59.446 L96.738,60.328 C96.738,60.9253333 96.5396667,61.3966667 96.143,61.742 C95.7463333,62.0873333 95.212,62.26 94.54,62.26 C93.6906667,62.26 92.9113333,61.9986667 92.202,61.476 L92.202,61.476 L91.474,62.792 C92.4446667,63.4546667 93.4993333,63.786 94.638,63.786 Z M94.75,59.194 C94.162,59.194 93.6836667,58.9956667 93.315,58.599 C92.9463333,58.2023333 92.7573333,57.6866667 92.748,57.052 C92.7573333,56.4266667 92.9463333,55.9133333 93.315,55.512 C93.6836667,55.1106667 94.162,54.91 94.75,54.91 C95.338,54.91 95.8163333,55.1083333 96.185,55.505 C96.5536667,55.9016667 96.738,56.4173333 96.738,57.052 C96.738,57.6866667 96.5536667,58.2023333 96.185,58.599 C95.8163333,58.9956667 95.338,59.194 94.75,59.194 Z M101.596,52.46 C101.894667,52.46 102.142,52.3573333 102.338,52.152 C102.534,51.9466667 102.632,51.69 102.632,51.382 C102.632,51.0646667 102.534,50.8033333 102.338,50.598 C102.142,50.3926667 101.894667,50.29 101.596,50.29 C101.297333,50.29 101.05,50.3926667 100.854,50.598 C100.658,50.8033333 100.56,51.0646667 100.56,51.382 C100.56,51.69 100.658,51.9466667 100.854,52.152 C101.05,52.3573333 101.297333,52.46 101.596,52.46 Z M102.52,61 L102.52,53.51 L100.7,53.51 L100.7,61 L102.52,61 Z M106.594,61 L106.594,57.318 C106.594,56.6926667 106.769,56.1793333 107.119,55.778 C107.469,55.3766667 107.947333,55.1713333 108.554,55.162 C109.067333,55.162 109.473333,55.3136667 109.772,55.617 C110.070667,55.9203333 110.22,56.3333333 110.22,56.856 L110.22,56.856 L110.22,61 L112.054,61 L112.054,56.324 C112.054,55.4373333 111.806667,54.735 111.312,54.217 C110.817333,53.699 110.140667,53.44 109.282,53.44 C108.003333,53.4586667 107.107333,53.9486667 106.594,54.91 L106.594,54.91 L106.594,53.51 L104.774,53.51 L104.774,61 L106.594,61 Z M117.262,61.07 C117.915333,61.07 118.510333,60.958 119.047,60.734 C119.583667,60.51 120.038667,60.1926667 120.412,59.782 L120.412,59.782 L119.432,58.76 C119.170667,59.0306667 118.865,59.2383333 118.515,59.383 C118.165,59.5276667 117.798667,59.6 117.416,59.6 C116.865333,59.6 116.401,59.4483333 116.023,59.145 C115.645,58.8416667 115.395333,58.424 115.274,57.892 L115.274,57.892 L120.804,57.892 C120.813333,57.7706667 120.818,57.5886667 120.818,57.346 C120.818,56.114 120.517,55.1573333 119.915,54.476 C119.313,53.7946667 118.414667,53.454 117.22,53.454 C116.482667,53.454 115.824667,53.615 115.246,53.937 C114.667333,54.259 114.217,54.7093333 113.895,55.288 C113.573,55.8666667 113.412,56.5293333 113.412,57.276 C113.412,58.0226667 113.570667,58.683 113.888,59.257 C114.205333,59.831 114.655667,60.2766667 115.239,60.594 C115.822333,60.9113333 116.496667,61.07 117.262,61.07 Z M119.152,56.674 L115.232,56.674 C115.316,56.114 115.537667,55.673 115.897,55.351 C116.256333,55.029 116.702,54.868 117.234,54.868 C117.803333,54.868 118.260667,55.0313333 118.606,55.358 C118.951333,55.6846667 119.133333,56.1233333 119.152,56.674 L119.152,56.674 Z"/>
    <g transform="translate(8 8)">
      <path fill="#D20F00" d="M40.4138378,56 L52.972973,56 C54.6447538,56 56,54.6447538 56,52.972973 L56,3.02702703 C56,1.35524616 54.6447538,0 52.972973,0 L47.9308843,0 L47.9308843,32.2326843 L40.4138378,37.3280184 L40.4138378,56 Z"/>
      <path fill="#D90B0B" d="M40.4123243,56.000053 L52.9714595,56.000053 C54.6432403,56.000053 55.9984865,54.6448068 55.9984865,52.9730259 L55.9984865,37.3280714 L40.4123243,37.3280714 L40.4123243,56.000053 Z"/>
      <polygon fill="#E53732" points="40.414 37.305 56 37.305 56 32.233 47.931 32.233 40.414 37.328"/>
      <path fill="#E53732" fill-rule="nonzero" d="M0,37.3280184 L40.4138378,37.3280184 L40.4138378,56 L3.02702703,56 C1.35524616,56 0,54.6447538 0,52.972973 L0,37.3280184 Z"/>
      <polygon fill="#F4726B" points="47.931 32.233 7.657 32.233 0 37.328 40.414 37.328"/>
      <path fill="#E53732" fill-rule="nonzero" d="M10.6840508,0 L47.9308616,0 L47.9308616,32.2326843 L7.65702378,32.2326843 L7.65702378,3.02702703 C7.65702378,1.35524616 9.01226995,0 10.6840508,0 Z"/>
      <path fill="#B20800" d="M42.5881665,6.62108432 C43.70893,6.77684706 44.6010655,7.63813971 44.7961481,8.75273189 C45.2296178,11.4015555 45.4620078,14.0793852 45.4913276,16.7632822 C45.5243995,19.8187113 45.2942033,22.8713104 44.8032919,25.8872259 C44.605482,27.0233388 43.6855907,27.8950166 42.5404832,28.0314357 C37.8458251,28.6433856 33.1154896,28.9406119 28.3811557,28.9211243 C23.905032,28.9027109 19.4345544,28.6011947 14.9964973,28.0183816 C13.888864,27.8776913 12.9931052,27.0485755 12.7673719,25.9550995 C11.6138752,20.2560565 11.6168629,14.3833756 12.7761578,8.68550919 C13.004531,7.6066498 13.8835226,6.78597301 14.9754973,6.63208 C24.1279584,5.25526961 33.4346118,5.2515636 42.5881665,6.62108432 L42.5881665,6.62108432 Z"/>
      <g transform="translate(10.595 5.297)">
        <path fill="#E6F6FA" d="M31.1307027,1.32121405 C32.2514662,1.47697679 33.1436017,2.33826944 33.3386843,3.45286162 C33.7721517,6.10168282 34.0045392,8.7795101 34.0338562,11.4634043 C34.0669344,14.5188358 33.8367407,17.5714378 33.3458281,20.5873557 C33.1480159,21.7234673 32.2281258,22.5951439 31.0830195,22.7315654 C26.3883488,23.343517 21.6580006,23.6407434 16.9236541,23.6212541 C12.4475304,23.6028406 7.97705281,23.3013245 3.53899568,22.7185114 C2.43136045,22.5778218 1.53559907,21.7487064 1.3098627,20.6552292 C0.156376061,14.9561852 0.159363801,9.0835063 1.31864865,3.38563892 C1.54703533,2.30678577 2.42601924,1.48611307 3.51798811,1.33220216 C12.6704649,-0.0446047275 21.9771331,-0.0483081909 31.1307027,1.32121405 L31.1307027,1.32121405 Z"/>
        <path fill="#9FDDED" d="M34.0210141,11.4634422 C34.054073,14.5188902 33.8239686,17.5715106 33.3332508,20.5874768 C33.1355692,21.7233306 32.2160948,22.5949456 31.0713049,22.7316865 C26.3785032,23.3435618 21.6500233,23.6407984 16.9175395,23.6214054 C12.4431494,23.6029166 7.97441294,23.3013089 3.53811784,22.7183903 C2.43071095,22.5776036 1.53526094,21.748459 1.3098627,20.6551308 C1.31510703,20.6533297 1.32882703,20.6484865 1.34582378,20.6418195 C2.94416216,20.0145968 2.37255351,9.30598162 4.25273081,9.24405622 C5.74080973,9.19504108 6.34227243,15.5140659 8.05240649,15.5385319 C10.4720605,15.5730703 11.5470486,2.70097838 13.8393254,2.66240314 C16.5157168,2.61751568 18.5136984,20.1061265 20.4296854,19.9456714 C21.8240551,19.8291308 22.1250173,10.4528692 23.4476995,10.4334432 C24.3866076,10.4197686 24.7968151,15.1359297 26.0616584,15.1971135 C27.6441654,15.2733795 28.8409384,7.97911459 30.5000368,8.11187243 C31.6262043,8.20181297 32.2821459,11.6595481 33.6784151,11.5584303 C33.7976543,11.549058 33.9139724,11.5168079 34.0210141,11.4634422 L34.0210141,11.4634422 Z"/>
      </g>
      <line x1="20.603" x2="20.603" y1="39.78" y2="43.293" stroke="#B20800" stroke-linecap="round"/>
      <line x1="10.735" x2="10.735" y1="39.78" y2="43.293" stroke="#B20800" stroke-linecap="round"/>
      <line x1="18.136" x2="18.136" y1="39.78" y2="43.293" stroke="#B20800" stroke-linecap="round"/>
      <line x1="25.536" x2="25.536" y1="39.78" y2="43.293" stroke="#B20800" stroke-linecap="round"/>
      <line x1="23.07" x2="23.07" y1="39.78" y2="43.293" stroke="#B20800" stroke-linecap="round"/>
      <line x1="15.669" x2="15.669" y1="39.78" y2="43.293" stroke="#B20800" stroke-linecap="round"/>
      <line x1="13.202" x2="13.202" y1="39.78" y2="43.293" stroke="#B20800" stroke-linecap="round"/>
      <line x1="8.268" x2="8.268" y1="39.78" y2="43.293" stroke="#B20800" stroke-linecap="round"/>
      <line x1="3.334" x2="3.334" y1="39.78" y2="43.293" stroke="#B20800" stroke-linecap="round"/>
      <line x1="5.801" x2="5.801" y1="39.78" y2="43.293" stroke="#B20800" stroke-linecap="round"/>
      <line x2="40.411" y1="45.896" y2="45.896" stroke="#D90B0B"/>
      <line x1="7.742" x2="47.931" y1="3.147" y2="3.147" stroke="#D90B0B"/>
      <line x1="47.931" x2="56" y1="3.147" y2="3.147" stroke="#B20800"/>
      <line x1="40.411" x2="56" y1="45.896" y2="45.896" stroke="#B20800"/>
      <g fill-rule="nonzero" transform="translate(28.757 39.351)">
        <path fill="#9FDDED" d="M2.77106162,11.8746335 L7.6453773,11.8746335 C8.19985214,11.8737311 8.64952122,11.4252285 8.65186378,10.8707578 L8.65186378,1.42139351 C8.64952122,0.866922884 8.19985214,0.418420242 7.6453773,0.417517838 L2.77106162,0.417517838"/>
        <rect width="6.887" height="11.457" x=".473" y=".418" fill="#EFF9FC" rx="1.328"/>
        <path fill="#9B0C1A" d="M4.15933189,5.17900865 C4.69529003,5.18071283 5.19126654,4.89576076 5.45973876,4.43188934 C5.72821099,3.96801792 5.72821099,3.39601235 5.45973876,2.93214093 C5.19126654,2.46826951 4.69529003,2.18331744 4.15933189,2.18501402 L3.34436541,2.18501402 L3.34436541,5.17911459 L4.15933189,5.17900865 Z"/>
        <ellipse cx="3.391" cy="3.682" fill="#E53732" rx="1.497" ry="1.501" transform="rotate(-68.597 3.39 3.682)"/>
        <path fill="#9B0C1A" d="M4.15933189,10.3231611 C4.69495655,10.3243654 5.19041019,10.0393044 5.45857077,9.57563952 C5.72673135,9.11197464 5.72673135,8.54036807 5.45857077,8.07670318 C5.19041019,7.6130383 4.69495655,7.32797734 4.15933189,7.32917782 L3.34436541,7.32917782 L3.34436541,10.323267 L4.15933189,10.3231611 Z"/>
        <ellipse cx="3.391" cy="8.826" fill="#E53732" rx="1.497" ry="1.501" transform="rotate(-68.597 3.39 8.826)"/>
      </g>
      <line x1="49.341" x2="49.341" y1="45.896" y2="56" stroke="#B20800"/>
    </g>
  </g>
</svg>
