<svg xmlns="http://www.w3.org/2000/svg" xmlns:xlink="http://www.w3.org/1999/xlink" viewBox="0 0 256 336">
  <defs>
    <clipPath id="clip-path">
      <path d="M491.66345-1113.43085l-9.79366,69.88564-37.72857,49.34649-38.73795,392.7823-63.548,73.15807-54.86582,181.737a126.0982,126.0982,0,0,0-55.7933,53.05947A102.22923,102.22923,0,0,0,196.54357-299.48a102.45073,102.45073,0,0,0-28.24467,3.94723A125.33437,125.33437,0,0,0,59.08255-359.39943a124.81281,124.81281,0,0,0-84.68022,32.98026,209.0153,209.0153,0,0,0-76.46444,37.79593,102.64323,102.64323,0,0,0-94.70773-63.19543,102.04438,102.04438,0,0,0-42.51428,9.21834,210.58429,210.58429,0,0,0-130.5935-107.24961l-18.85007-357.52533L-426.448-880.53379l-11.16974-232.89706Z" style="fill: none"/>
    </clipPath>
  </defs>
  <title>engine-mobile-home-middle</title>
  <g id="desktop-home-middle">
    <g>
      <path d="M38.24357,336c.47417-3.22865,1.11565-6.43782,1.94338-9.79526,1.37078-5.55985,1.25558-3.2286,4.13447-13.183,5.45725-18.86991,15.43653-60.3234,10.973-128.56067-4.15166-63.4691-15.14249-63.64677-8.17558-81.75452,12.7552-33.152,45.95082-23.08294,86.67525-62.85106,3.783-3.69421,12.09452-12.18215,22.435-10.97628,10.11817,1.17991,19.3166,11.34721,23.70253,21.39781,17.15445,39.30983-32.141,93.2626-22.6614,147.41348a327.007,327.007,0,0,0,8.61283,37.07921c6.38241,21.23767,11.67816,28.23917,16.31461,61.19639A280.84109,280.84109,0,0,1,185.21661,336Z" style="fill: #fdfeff"/>
      <path d="M183.16794,336a99.22987,99.22987,0,0,0-2.99712-17.99261c-1.47491-5.68-1.351-3.29836-4.44856-13.46785-5.87182-19.27757-16.60921-61.62663-11.80663-131.33811,4.46706-64.8403,16.29284-65.02181,8.79666-83.52077C158.9881,55.81241,123.27067,66.099,79.45247,25.47176c-4.07038-3.774-13.01332-12.44533-24.13938-11.21342C44.42626,15.46375,34.529,25.8507,29.80992,36.11844,11.35228,76.27753,64.39264,131.3959,54.19287,186.71666a320.07274,320.07274,0,0,1-9.26714,37.88023c-6.86726,21.69654-12.56533,28.84931-17.554,62.51854A267.22478,267.22478,0,0,0,24.23485,336Z" style="fill: #f8fdfe"/>
      <line x1="171.26194" y1="66.57228" x2="159.67459" y2="77.91864" style="fill: none;stroke: #41889d;stroke-miterlimit: 10;stroke-width: 0.4656099116908908px"/>
      <line x1="171.1171" y1="66.55275" x2="182.70445" y2="77.89911" style="fill: none;stroke: #2b7b92;stroke-miterlimit: 10;stroke-width: 0.4656099116908908px"/>
      <line x1="171.26194" y1="39.01186" x2="171.26194" y2="66.57228" style="fill: none;stroke: #2b7b92;stroke-miterlimit: 10;stroke-width: 0.4656099116908908px"/>
      <line x1="167.82025" y1="77.56569" x2="171.26194" y2="66.57228" style="fill: none;stroke: #5595a8;stroke-miterlimit: 10;stroke-width: 0.4656099116908908px"/>
      <g>
        <circle cx="171.11718" cy="67.03465" r="1.00031" style="opacity: 0.1"/>
        <circle cx="171.02363" cy="66.83075" r="1.00031" style="fill: #41889d"/>
        <circle cx="171.32192" cy="66.83075" r="1.00031" style="fill: #1d5463"/>
        <circle cx="171.32192" cy="66.83075" r="0.57127" style="fill: #41889d"/>
      </g>
      <line x1="143.4135" y1="38.54203" x2="140.961" y2="46.30205" style="fill: #9b0c1a;stroke: #1d5463;stroke-linecap: round;stroke-miterlimit: 10;stroke-width: 0.9312198233817734px"/>
      <path d="M143.55067,40.859s20.95274,1.68728,23.27595,1.84036a3.99638,3.99638,0,0,0,4.07307-3.79971c.22087-2.25919-1.541-4.86473-4.07307-4.64984s-15.51734,1.3169-23.27595,1.97536a2.33167,2.33167,0,1,0,0,4.63383Z" style="fill: none;stroke: #2b7b92;stroke-miterlimit: 10;stroke-width: 0.4656099116908908px"/>
      <path d="M143.8287,41.14587s-21.00237.87459-23.32976.93758a3.99635,3.99635,0,0,1-3.92286-3.95459c-.13322-2.266,1.72827-4.8014,4.25008-4.48862l23.182,2.87527a2.33167,2.33167,0,1,1-.17945,4.63036Z" style="fill: none;stroke: #2b7b92;stroke-miterlimit: 10;stroke-width: 0.4656099116908908px"/>
      <path d="M143.55068,40.85889s20.9527,1.6875,23.27594,1.84033a3.99631,3.99631,0,0,0,4.07306-3.79981c.22089-2.25879-1.541-4.86474-4.07306-4.64941-2.532.21484-15.51733,1.31689-23.27594,1.9751a2.33166,2.33166,0,1,0,0,4.63379Z" style="fill: none;stroke: #76cee5;stroke-linecap: round;stroke-miterlimit: 10;stroke-width: 0.4656099116908908px;stroke-dasharray: 0.9384944438934326,1.8769888877868652"/>
      <path d="M143.8287,41.146s-21.00238.87451-23.32977.9375a3.9965,3.9965,0,0,1-3.92286-3.95459c-.13324-2.26612,1.72828-4.80127,4.25007-4.48877,2.52185.313,15.45471,1.917,23.182,2.87548a2.33169,2.33169,0,1,1-.17944,4.63038Z" style="fill: none;stroke: #76cee5;stroke-linecap: round;stroke-miterlimit: 10;stroke-width: 0.4656099116908908px;stroke-dasharray: 0.9384944438934326,1.8769888877868652"/>
      <circle cx="143.84982" cy="38.54203" r="2.84379" style="fill: #2b7b92"/>
      <circle cx="143.38421" cy="38.54203" r="2.84379" style="fill: #41889d"/>
      <circle cx="143.38421" cy="38.54203" r="1.99543" style="fill: #6ba3b3"/>
      <path d="M141.37336,40.5529a2.84374,2.84374,0,0,1,0-4.02173c.278,2.455,1.93788,3.36356,4.02168,4.02173A2.84373,2.84373,0,0,1,141.37336,40.5529Z" style="fill: #346573;opacity: 0.4"/>
      <line x1="143.4135" y1="38.54203" x2="139.36405" y2="46.30205" style="fill: #d90b0b;stroke: #2b7b92;stroke-linecap: round;stroke-miterlimit: 10;stroke-width: 0.9312198233817734px"/>
      <line x1="166.57443" y1="38.54203" x2="164.12194" y2="46.30205" style="fill: #9b0c1a;stroke: #1d5463;stroke-linecap: round;stroke-miterlimit: 10;stroke-width: 0.9312198233817734px"/>
      <circle cx="167.15378" cy="38.54203" r="4.59094" style="fill: #2b7b92"/>
      <circle cx="166.40211" cy="38.54203" r="4.59094" style="fill: #41889d"/>
      <circle cx="166.40211" cy="38.54203" r="3.22138" style="fill: #6ba3b3"/>
      <path d="M163.15585,41.78832a4.59086,4.59086,0,0,1,0-6.49257c.44877,3.96325,3.12847,5.43,6.4925,6.49257A4.59084,4.59084,0,0,1,163.15585,41.78832Z" style="fill: #346573;opacity: 0.4"/>
      <line x1="166.57443" y1="38.54203" x2="162.52498" y2="46.30205" style="fill: #d90b0b;stroke: #2b7b92;stroke-linecap: round;stroke-miterlimit: 10;stroke-width: 0.9312198233817734px"/>
      <g>
        <rect x="100.02412" y="81.82392" width="23.24074" height="41.93478" transform="translate(223.28898 205.58261) rotate(-180)" style="fill: #def3f9"/>
        <rect x="121.02027" y="82.80572" width="1.65943" height="40.82072" transform="translate(243.69996 206.43216) rotate(-180)" style="fill: #e58250"/>
        <rect x="60.92221" y="81.88185" width="39.62388" height="41.93478" transform="translate(161.4683 205.69848) rotate(-180)" style="fill: #f7fcfd"/>
        <g>
          <polygon points="90.595 99.631 99.478 121.936 97.502 122.399 88.619 100.095 90.595 99.631" style="fill: #d68760"/>
          <polygon points="81.062 99.631 89.945 121.936 87.969 122.399 79.085 100.095 81.062 99.631" style="fill: #d68760"/>
          <polygon points="72.181 99.631 81.065 121.936 79.088 122.399 70.041 99.684 72.181 99.631" style="fill: #d68760"/>
          <polygon points="78.622 99.631 69.739 121.936 71.716 122.399 80.599 100.095 78.622 99.631" style="fill: #d68760"/>
          <polygon points="63.117 99.631 72 121.936 70.024 122.399 61.141 100.095 63.117 99.631" style="fill: #d68760"/>
          <polygon points="70.024 99.631 61.141 121.936 63.117 122.399 72.185 99.631 70.024 99.631" style="fill: #d68760"/>
          <polygon points="88.564 99.631 79.681 121.936 81.657 122.399 90.54 100.095 88.564 99.631" style="fill: #d68760"/>
          <polygon points="98.266 99.631 89.383 121.936 91.359 122.399 100.242 100.095 98.266 99.631" style="fill: #d68760"/>
        </g>
        <g>
          <polygon points="91.206 99.631 100.09 121.936 98.113 122.399 89.23 100.095 91.206 99.631" style="fill: #eda885"/>
          <polygon points="81.673 99.631 90.556 121.936 88.58 122.399 79.697 100.095 81.673 99.631" style="fill: #eda885"/>
          <polygon points="72.793 99.631 81.676 121.936 79.699 122.399 70.653 99.684 72.793 99.631" style="fill: #eda885"/>
          <polygon points="79.234 99.631 70.351 121.936 72.327 122.399 81.21 100.095 79.234 99.631" style="fill: #eda885"/>
          <polygon points="63.728 99.631 72.612 121.936 70.635 122.399 61.752 100.095 63.728 99.631" style="fill: #eda885"/>
          <polygon points="70.635 99.631 61.752 121.936 63.728 122.399 72.796 99.631 70.635 99.631" style="fill: #eda885"/>
          <polygon points="89.175 99.631 80.292 121.936 82.269 122.399 91.152 100.095 89.175 99.631" style="fill: #eda885"/>
          <polygon points="98.877 99.631 89.994 121.936 91.97 122.399 100.853 100.095 98.877 99.631" style="fill: #eda885"/>
        </g>
        <g>
          <polygon points="101.893 96.224 111.644 81.647 111.644 85.096 101.893 99.672 101.893 96.224" style="fill: #eda885"/>
          <polygon points="122.68 98.125 111.644 81.647 111.644 85.096 122.68 101.574 122.68 98.125" style="fill: #eda885"/>
        </g>
        <g>
          <polygon points="102.824 96.224 112.576 81.647 112.576 85.096 102.824 99.672 102.824 96.224" style="fill: #e58250"/>
          <polygon points="122.382 96.42 112.553 81.647 112.553 85.096 122.382 99.869 122.382 96.42" style="fill: #e58250"/>
        </g>
        <rect x="60.92221" y="98.35508" width="39.99708" height="2.51705" transform="translate(161.84151 199.22722) rotate(-180)" style="fill: #c4541b;opacity: 0.5"/>
        <rect x="60.92221" y="97.42386" width="39.99708" height="2.51705" transform="translate(161.84151 197.36478) rotate(-180)" style="fill: #eda885"/>
        <rect x="121.60543" y="82.80572" width="1.65943" height="40.82072" transform="translate(244.87029 206.43216) rotate(-180)" style="fill: #e58250"/>
        <rect x="100.08959" y="82.07204" width="1.65943" height="41.55441" transform="translate(201.8386 205.69848) rotate(-180)" style="fill: #eda885"/>
        <rect x="101.48642" y="82.07204" width="1.65943" height="41.55441" transform="translate(204.63226 205.69848) rotate(-180)" style="fill: #e58250"/>
        <rect x="60.92221" y="82.07204" width="1.65943" height="41.55441" transform="translate(123.50385 205.69848) rotate(-180)" style="fill: #eda885"/>
        <polygon points="60.921 85.08 100.919 83.892 123.265 85.08 123.265 82.112 60.921 82.112 60.921 85.08" style="fill: #2b7b92;opacity: 0.2"/>
        <polygon points="132.994 62.893 98.316 62.893 116.364 19.512 132.994 62.893" style="fill: #def3f9"/>
        <path d="M62.95522,5.77451c.10617,1.70958.3193,4.22127.79217,7.23021,1.90251,12.10514,6.21385,20.8227,10.29833,28.92086A154.91552,154.91552,0,0,0,86.4187,62.8932H79.28909A149.35526,149.35526,0,0,1,69.11722,42.6486c-7.36711-17.65966-7.0563-26.94826-6.95418-29.64388A51.12381,51.12381,0,0,1,62.95522,5.77451Z" style="fill: #f0b496"/>
        <path d="M62.95521,5.77446c.10617,1.70966-3.36249,30.059,23.46351,57.11872H79.28907a149.3526,149.3526,0,0,1-10.17181-20.2446c-7.36711-17.65964-7.05633-26.9482-6.95425-29.64387A51.11763,51.11763,0,0,1,62.95521,5.77446Z" style="fill: #e58250"/>
        <path d="M64.1735,15.45642c.35408,1.85717.76475,3.63313,1.22133,5.33908a24.6596,24.6596,0,0,1-1.738,5.4425c-.49655-2.12271-.836-3.98915-1.06609-5.61012A22.1774,22.1774,0,0,0,64.1735,15.45642Z" style="fill: #a14516;opacity: 0.2"/>
        <polygon points="113.472 37.734 116.595 30.229 117.769 33.445 115.428 40.951 113.472 37.734" style="fill: #d90b0b"/>
        <polygon points="120.896 37.783 118.058 30.96 116.99 33.884 119.118 40.707 120.896 37.783" style="fill: #d90b0b"/>
        <polygon points="114.155 35.102 116.994 28.279 119.609 35.102 117.481 41.925 114.155 35.102" style="fill: #f09d9d"/>
        <polygon points="115.047 33.64 117.075 28.767 118.943 33.64 117.423 38.514 115.047 33.64" style="fill: #d90b0b"/>
        <polygon points="128.755 56.582 134.009 62.785 130.61 62.363 125 56.855 128.755 56.582" style="fill: #d90b0b"/>
        <polygon points="125.324 63.166 132.691 63.753 130.576 61.469 123.533 60.249 125.324 63.166" style="fill: #d90b0b"/>
        <polygon points="130.785 58.39 135.561 64.03 128.297 63.244 123.196 58.237 130.785 58.39" style="fill: #f09d9d"/>
        <polygon points="131.679 59.852 135.091 63.879 129.901 63.318 126.258 59.742 131.679 59.852" style="fill: #d90b0b"/>
        <polygon points="107.371 63.204 99.27 62.533 101.971 60.428 109.833 60.356 107.371 63.204" style="fill: #d90b0b"/>
        <polygon points="105.141 56.122 99.517 60.916 102.628 61.036 108.47 56.919 105.141 56.122" style="fill: #d90b0b"/>
        <polygon points="104.656 63.361 97.292 62.751 102.984 58.169 110.131 58.103 104.656 63.361" style="fill: #f09d9d"/>
        <polygon points="102.991 62.96 97.731 62.524 101.797 59.252 106.902 59.204 102.991 62.96" style="fill: #d90b0b"/>
        <polygon points="98.289 62.893 49.123 62.893 65.03 19.512 118.533 19.512 98.289 62.893" style="fill: #d90b0b"/>
        <path d="M98.28882,62.89307H49.12343c5.92152-.95816,23.25083-4.56391,37.0335-19.73341A62.13747,62.13747,0,0,0,99.52105,19.51177h19.01237Z" style="fill: #9b0c1a;opacity: 0.1"/>
        <circle cx="116.36437" cy="54.93987" r="3.80894" style="fill: #ade2ef;stroke: #2b7b92;stroke-miterlimit: 10;stroke-width: 0.7718524205477103px"/>
        <g style="opacity: 0.4">
          <path d="M102.627,56.38574Q96.3958,57.072,90.15627,57.668L77.68014,58.89062,65.19271,59.99316q-6.24179.57057-12.49292,1.043,6.23109-.687,12.47064-1.28222l12.4762-1.22266,12.48743-1.102Q96.37594,56.85791,102.627,56.38574Z" style="fill: #9b0c1a"/>
        </g>
        <g style="opacity: 0.4">
          <path d="M101.904,55.66309q-5.82963.09228-11.65894.09472L78.58615,55.794l-11.65857-.085q-5.82926-.02343-11.65845-.145,5.82962-.09375,11.659-.0957l11.65881-.03515,11.65857.08544Q96.07485,55.54126,101.904,55.66309Z" style="fill: #9b0c1a"/>
        </g>
        <g style="opacity: 0.4">
          <path d="M105.58053,44.88867q-5.82614.47022-11.658.85108l-11.66174.79248-11.66931.67187q-5.83347.35523-11.6731.61231,5.82614-.47242,11.658-.852l11.6618-.792L93.9075,45.501Q99.741,45.145,105.58053,44.88867Z" style="fill: #9b0c1a"/>
        </g>
        <g style="opacity: 0.4">
          <path d="M106.96511,43.37158q-5.648-.20287-11.291-.49609L84.38638,42.3208,73.10519,41.645q-5.64166-.3186-11.278-.73535,5.64807.20142,11.291.49512l11.28772.55566,11.28119.67578Q101.32883,42.95483,106.96511,43.37158Z" style="fill: #9b0c1a"/>
        </g>
        <g style="opacity: 0.4">
          <path d="M104.073,50.60156q-5.8005.23438-11.603.37793l-11.60431.31836-11.607.19776q-5.80307.11865-11.60834.13769,5.80042-.23511,11.603-.37793L80.85769,50.937l11.607-.19726Q98.26776,50.62109,104.073,50.60156Z" style="fill: #9b0c1a"/>
        </g>
        <g style="opacity: 0.4">
          <path d="M109.13418,35.41846q-5.79666.31567-11.59662.5415l-11.59875.48242-11.60315.36182q-5.80088.19995-11.60535.30127,5.79666-.31641,11.59662-.54151l11.59875-.48242,11.60315-.36133Q103.3297,35.52026,109.13418,35.41846Z" style="fill: #9b0c1a"/>
        </g>
        <g style="opacity: 0.4">
          <path d="M110.58022,33.249q-5.81927-.1809-11.63409-.45263L87.315,32.28467l-11.62525-.63233q-5.81359-.29662-11.62231-.69238,5.81937.18018,11.63409.45215l11.63117.51221,11.62524.63281Q104.77151,32.85376,110.58022,33.249Z" style="fill: #9b0c1a"/>
        </g>
        <g style="opacity: 0.4">
          <path d="M114.91836,23.8501q-6.05357.2058-12.10864.32129l-12.10956.26269-12.11157.1416q-6.05549.09009-12.11261.08155,6.05355-.20728,12.10858-.32178l12.10962-.26221,12.11157-.14111Q108.86124,23.84131,114.91836,23.8501Z" style="fill: #9b0c1a"/>
        </g>
        <g style="opacity: 0.4">
          <path d="M113.54464,22.19434q-6.06-.16554-12.116-.42237L89.31539,21.29,77.20748,20.688q-6.05484-.282-12.10522-.6626,6.06006.16552,12.116.42236l12.11328.48194,12.10791.603Q107.49426,21.814,113.54464,22.19434Z" style="fill: #9b0c1a"/>
        </g>
        <g style="opacity: 0.4">
          <path d="M112.74929,28.91113q-5.72177-.11425-11.44006-.31836l-11.43781-.37793-11.43316-.498q-5.7173-.23-11.43085-.5586,5.72177.11353,11.44006.31836l11.43781.37793,11.4331.49854Q107.03577,28.583,112.74929,28.91113Z" style="fill: #9b0c1a"/>
        </g>
        <g>
          <polygon points="98.762 44.249 91.679 44.249 95.394 33.614 98.762 44.249" style="fill: #9b0c1a"/>
          <polygon points="97.444 43.526 92.997 43.526 95.33 36.296 97.444 43.526" style="fill: #ade2ef"/>
          <path d="M98.76233,44.24941c.8749-7.03123,6.19178-15.93549,6.19178-15.93549l-9.55968,5.3Z" style="fill: #ca2431"/>
          <path d="M98.76239,44.24946a25.92957,25.92957,0,0,1,.974-4.33827,61.3647,61.3647,0,0,1,5.21776-11.59728L98.62288,31.824C99.73972,33.37,98.94029,41.8166,98.76239,44.24946Z" style="fill: #9b0c1a;opacity: 0.2"/>
          <line x1="96.76985" y1="40.36877" x2="93.81762" y2="40.36877" style="fill: none;stroke: #9b0c1a;stroke-miterlimit: 10;stroke-width: 0.8676162584733287px"/>
          <path d="M98.71717,44.24943h-4.345a12.77013,12.77013,0,0,0,1.737-8.23578Q97.41313,40.13154,98.71717,44.24943Z" style="fill: #1d5463;opacity: 0.1"/>
        </g>
        <g>
          <polygon points="69.74 44.249 62.656 44.249 66.372 33.614 69.74 44.249" style="fill: #9b0c1a"/>
          <polygon points="68.422 43.526 63.975 43.526 66.307 36.296 68.422 43.526" style="fill: #ade2ef"/>
          <path d="M69.7398,44.24943h-4.345a12.77,12.77,0,0,0,1.737-8.23578Q68.43577,40.13154,69.7398,44.24943Z" style="fill: #1d5463;opacity: 0.1"/>
          <path d="M69.73983,44.24941c.8749-7.03123,6.19178-15.93549,6.19178-15.93549l-9.55968,5.3Z" style="fill: #ca2431"/>
          <path d="M69.73988,44.24946a25.93155,25.93155,0,0,1,.974-4.33827,61.36511,61.36511,0,0,1,5.21777-11.59728L69.60038,31.824C70.71722,33.37,69.91778,41.8166,69.73988,44.24946Z" style="fill: #9b0c1a;opacity: 0.2"/>
          <line x1="67.74735" y1="40.36877" x2="64.79512" y2="40.36877" style="fill: none;stroke: #9b0c1a;stroke-miterlimit: 10;stroke-width: 0.8676162584733287px"/>
        </g>
        <g>
          <polygon points="84.274 44.249 77.191 44.249 80.906 33.614 84.274 44.249" style="fill: #9b0c1a"/>
          <polygon points="82.956 43.526 78.509 43.526 80.842 36.296 82.956 43.526" style="fill: #ade2ef"/>
          <path d="M84.27434,44.24941c.8749-7.03123,6.19178-15.93549,6.19178-15.93549l-9.55968,5.3Z" style="fill: #ca2431"/>
          <path d="M84.27439,44.24946a25.93062,25.93062,0,0,1,.974-4.33827,61.3647,61.3647,0,0,1,5.21776-11.59728L84.13489,31.824C85.25173,33.37,84.45229,41.8166,84.27439,44.24946Z" style="fill: #9b0c1a;opacity: 0.2"/>
          <line x1="82.28186" y1="40.36877" x2="79.32963" y2="40.36877" style="fill: none;stroke: #9b0c1a;stroke-miterlimit: 10;stroke-width: 0.8676162584733287px"/>
          <path d="M84.27434,44.24943h-4.345a12.77,12.77,0,0,0,1.737-8.23578Q82.9703,40.13154,84.27434,44.24943Z" style="fill: #1d5463;opacity: 0.1"/>
        </g>
        <path d="M115.01261,5.77451c.10617,1.70958.3193,4.22127.79217,7.23021,1.90251,12.10514,6.21385,20.8227,10.29833,28.92086A161.95982,161.95982,0,0,0,138.778,62.8932h-7.12961A152.52942,152.52942,0,0,1,121.35,42.6486c-7.36711-17.65966-7.23173-26.94826-7.12961-29.64388A51.12381,51.12381,0,0,1,115.01261,5.77451Z" style="fill: #e58250"/>
        <path d="M116.24381,28.04854c2.71341,8.91536,7.85664,20.51587,17.44994,34.84466h-3.44221a152.52819,152.52819,0,0,1-10.29833-20.2446,120.2977,120.2977,0,0,1-4.33266-12.02507" style="fill: #2b7b92;opacity: 0.2"/>
        <path d="M115.01261,5.77451c.10617,1.70958-4.43242,20.50934,20.078,57.11869h-3.44221A152.52942,152.52942,0,0,1,121.35,42.6486c-7.36711-17.65966-7.23173-26.94826-7.12961-29.64388A51.12381,51.12381,0,0,1,115.01261,5.77451Z" style="fill: #eda885"/>
        <path d="M116.64857,17.49389c.39265,1.83523.96572,3.96551,1.4449,5.55627-.28305,2.3095-1.46016,1.81687-1.80431,4.98459-.62044-2.34067-1.06106-4.40415-1.37241-6.20238A8.43669,8.43669,0,0,0,116.64857,17.49389Z" style="fill: #a14516;opacity: 0.2"/>
        <path d="M119.11222,5.77441a71.512,71.512,0,0,1-.86282,7.23022c-2.07215,12.10514-6.76793,20.8227-11.21663,28.92086A159.86471,159.86471,0,0,1,93.22769,62.89311h7.76536a148.08878,148.08878,0,0,0,11.21663-20.2446c8.024-17.65966,7.87658-26.94826,7.76536-29.64388A47.116,47.116,0,0,0,119.11222,5.77441Z" style="fill: #eda885"/>
        <path d="M119.11222,5.77441c-.11565,1.70959,2.95458,22.99233-22.56755,57.1187h4.44838a148.08878,148.08878,0,0,0,11.21663-20.2446c8.024-17.65966,7.87658-26.94826,7.76536-29.64388A47.116,47.116,0,0,0,119.11222,5.77441Z" style="fill: #e58250"/>
        <path d="M65.73075,5.77441c-.09681,1.70959-.29114,4.22128-.72228,7.23022-1.73464,12.10514-5.66557,20.8227-9.38966,28.92086A165.82933,165.82933,0,0,1,44.06232,62.89311h6.50053a158.73846,158.73846,0,0,0,9.38965-20.2446c6.71707-17.65966,6.59363-26.94826,6.50053-29.64388A55.88359,55.88359,0,0,0,65.73075,5.77441Z" style="fill: #eda885"/>
        <path d="M65.73079,5.77446c-.09685,1.70955,3.62291,17.24026-18.109,57.11861h2.9411a171.738,171.738,0,0,0,9.38961-20.2446c6.717-17.65964,6.59368-26.9482,6.50058-29.64387A55.91188,55.91188,0,0,0,65.73079,5.77446Z" style="fill: #e58250"/>
        <polygon points="105.519 81.692 52.016 81.692 47.677 62.893 105.519 62.893 105.519 81.692" style="fill: #f7fcfd"/>
        <path d="M105.51908,81.69162H52.01553a108.7866,108.7866,0,0,0,29.812-6.50024,108.71394,108.71394,0,0,0,23.69155-12.29831Z" style="fill: #ade2ef;opacity: 0.2"/>
        <polygon points="129.379 81.692 101.181 81.692 101.181 62.893 134.44 62.893 129.379 81.692" style="fill: #def3f9"/>
        <path d="M53.4616,81.69166h-1.446a57.83958,57.83958,0,0,0-3.61511-10.84532,57.79858,57.79858,0,0,0-4.33813-7.95323h6.50719Z" style="fill: #eda885"/>
        <path d="M53.4616,81.69166h-.373c-.9832-4.24611-3.54311-16.11582-5.98261-18.79855h3.46356Z" style="fill: #e58250"/>
        <path d="M102.627,81.69166H99.73488a39.80517,39.80517,0,0,0-6.50719-18.79855h7.95323Z" style="fill: #eda885"/>
        <path d="M102.627,81.69166h-1.14881s-.48511-12.85137-5.52322-18.79855h5.226Z" style="fill: #e58250"/>
        <path d="M131.29548,81.69166h-2.16907l2.16907-18.79855h6.50719c-1.22875,2.25361-2.984,4.70282-4.10892,7.74724C132.20728,74.66287,131.82362,78.5671,131.29548,81.69166Z" style="fill: #eda885"/>
        <path d="M131.54782,81.69166h-1.41918l2.37828-18.73187,5.5481-.06668c-1.22875,2.25361-2.92145,4.47752-4.0464,7.52194C132.52215,74.43756,132.076,78.5671,131.54782,81.69166Z" style="fill: #e58250"/>
        <g>
          <polygon points="64.033 71.187 61.454 67.819 58.875 71.187 59.907 76.661 63.001 76.661 64.033 71.187" style="fill: #ade2ef;stroke: #e58250;stroke-miterlimit: 10;stroke-width: 0.7718524205477103px"/>
          <polygon points="64.033 71.187 61.454 67.819 58.875 71.187 59.907 76.661 63.001 76.661 64.033 71.187" style="fill: #ade2ef;stroke: #41889d;stroke-miterlimit: 10;stroke-width: 0.7718524205477103px"/>
          <line x1="58.87522" y1="72.55768" x2="63.99738" y2="72.55768" style="fill: none;stroke: #41889d;stroke-miterlimit: 10;stroke-width: 0.5145682803651426px"/>
          <line x1="61.45395" y1="67.96715" x2="61.45395" y2="76.44899" style="fill: none;stroke: #41889d;stroke-miterlimit: 10;stroke-width: 0.5145682803651426px"/>
          <path d="M64.46128,71.10779l-1.951-2.51418a12.93944,12.93944,0,0,1-2.60362,8.44591h3.41065Z" style="fill: #1d5463;opacity: 0.1"/>
        </g>
        <g>
          <polygon points="77.315 71.187 74.737 67.819 72.158 71.187 73.189 76.661 76.284 76.661 77.315 71.187" style="fill: #ade2ef;stroke: #e58250;stroke-miterlimit: 10;stroke-width: 0.7718524205477103px"/>
          <polygon points="77.315 71.187 74.737 67.819 72.158 71.187 73.189 76.661 76.284 76.661 77.315 71.187" style="fill: #ade2ef;stroke: #41889d;stroke-miterlimit: 10;stroke-width: 0.7718524205477103px"/>
          <line x1="72.15785" y1="72.55768" x2="77.28001" y2="72.55768" style="fill: none;stroke: #41889d;stroke-miterlimit: 10;stroke-width: 0.5145682803651426px"/>
          <line x1="74.73658" y1="67.96715" x2="74.73658" y2="76.44899" style="fill: none;stroke: #41889d;stroke-miterlimit: 10;stroke-width: 0.5145682803651426px"/>
          <path d="M77.74391,71.10779l-1.951-2.51418a12.93944,12.93944,0,0,1-2.60362,8.44591H76.6Z" style="fill: #1d5463;opacity: 0.1"/>
        </g>
        <g>
          <polygon points="90.598 71.187 88.019 67.819 85.44 71.187 86.472 76.661 89.566 76.661 90.598 71.187" style="fill: #ade2ef;stroke: #e58250;stroke-miterlimit: 10;stroke-width: 0.7718524205477103px"/>
          <polygon points="90.598 71.187 88.019 67.819 85.44 71.187 86.472 76.661 89.566 76.661 90.598 71.187" style="fill: #ade2ef;stroke: #41889d;stroke-miterlimit: 10;stroke-width: 0.7718524205477103px"/>
          <line x1="85.44049" y1="72.55768" x2="90.56264" y2="72.55768" style="fill: none;stroke: #41889d;stroke-miterlimit: 10;stroke-width: 0.5145682803651426px"/>
          <line x1="88.01921" y1="67.96715" x2="88.01921" y2="76.44899" style="fill: none;stroke: #41889d;stroke-miterlimit: 10;stroke-width: 0.5145682803651426px"/>
          <path d="M91.02654,71.10779l-1.951-2.51418a12.93959,12.93959,0,0,1-2.60362,8.44591h3.41064Z" style="fill: #1d5463;opacity: 0.1"/>
        </g>
        <g>
          <polygon points="114.009 71.187 111.43 67.819 108.851 71.187 109.883 76.661 112.977 76.661 114.009 71.187" style="fill: #ade2ef;stroke: #e58250;stroke-miterlimit: 10;stroke-width: 0.7718524205477103px"/>
          <polygon points="114.009 71.187 111.43 67.819 108.851 71.187 109.883 76.661 112.977 76.661 114.009 71.187" style="fill: #ade2ef;stroke: #2b7b92;stroke-miterlimit: 10;stroke-width: 0.7718524205477103px"/>
          <line x1="108.85146" y1="72.55768" x2="113.97362" y2="72.55768" style="fill: none;stroke: #2b7b92;stroke-miterlimit: 10;stroke-width: 0.5145682803651426px"/>
          <line x1="111.43019" y1="67.96715" x2="111.43019" y2="76.44899" style="fill: none;stroke: #2b7b92;stroke-miterlimit: 10;stroke-width: 0.5145682803651426px"/>
          <path d="M114.43752,71.10779l-1.951-2.51418a12.93944,12.93944,0,0,1-2.60362,8.44591h3.41065Z" style="fill: #1d5463;opacity: 0.1"/>
        </g>
        <g>
          <polygon points="125.649 71.187 123.07 67.819 120.492 71.187 121.523 76.661 124.618 76.661 125.649 71.187" style="fill: #ade2ef;stroke: #e58250;stroke-miterlimit: 10;stroke-width: 0.7718524205477103px"/>
          <polygon points="125.649 71.187 123.07 67.819 120.492 71.187 121.523 76.661 124.618 76.661 125.649 71.187" style="fill: #ade2ef;stroke: #2b7b92;stroke-miterlimit: 10;stroke-width: 0.7718524205477103px"/>
          <line x1="120.49172" y1="72.55768" x2="125.61387" y2="72.55768" style="fill: none;stroke: #2b7b92;stroke-miterlimit: 10;stroke-width: 0.5145682803651426px"/>
          <line x1="123.07044" y1="67.96715" x2="123.07044" y2="76.44899" style="fill: none;stroke: #2b7b92;stroke-miterlimit: 10;stroke-width: 0.5145682803651426px"/>
          <path d="M126.07777,71.10779l-1.951-2.51418a12.93944,12.93944,0,0,1-2.60362,8.44591h3.41064Z" style="fill: #1d5463;opacity: 0.1"/>
        </g>
        <polygon points="46.128 66.328 102.206 65.141 136.012 66.324 137.803 63.361 44.369 63.361 46.128 66.328" style="fill: #2b7b92;opacity: 0.2"/>
        <path d="M100.9193,82.0531c-8.02.45224-15.41053.716-24.24883.723-9.10237.00724-26.468-.2586-34.70494-.723v-1.446c8.2369.46442,25.60257.73026,34.70494.723,8.8383-.00706,16.22887-.27078,24.24883-.723Z" style="fill: #c4541b"/>
        <path d="M140.29636,82.05305c-6.09291.44377-12.61528.71385-19.52158.723-7.17673.00953-13.5527-.2639-19.85548-.723V80.607c6.30278.45913,12.67875.73255,19.85548.723,6.9063-.00918,13.42867-.27925,19.52158-.723Z" style="fill: #dc9876"/>
        <path d="M101.18092,63.61613c-8.01995.45224-16.46744.716-25.30574.723-9.10238.00724-26.468-.2586-34.70494-.723v-1.446c8.2369.46442,25.60256.73025,34.70494.723,8.8383-.00706,17.28579-.27078,25.30574-.723Z" style="fill: #c4541b"/>
        <path d="M140.22408,63.61613c-6.0929.44377-12.61527.71384-19.52158.723-7.17673.00953-13.94181-.2639-20.2446-.723v-1.446c6.30279.45912,13.06787.73255,20.2446.723,6.90631-.00918,13.42868-.27926,19.52158-.723Z" style="fill: #dc9876"/>
        <line x1="116.36437" y1="51.13093" x2="116.36437" y2="58.57926" style="fill: none;stroke: #2b7b92;stroke-miterlimit: 10;stroke-width: 0.5145682803651426px"/>
        <line x1="112.64021" y1="54.8551" x2="120.08854" y2="54.8551" style="fill: none;stroke: #2b7b92;stroke-miterlimit: 10;stroke-width: 0.5145682803651426px"/>
        <g>
          <polygon points="117.467 104.823 112.11 95.768 111.179 95.768 104.89 104.823 106.454 123.756 116.2 123.756 117.467 104.823" style="fill: #c75d27"/>
          <polygon points="118.399 104.823 112.11 95.768 105.822 104.823 107.385 123.756 117.131 123.756 118.399 104.823" style="fill: #d07649"/>
          <polygon points="116.687 105.107 112.11 98.47 107.51 105.107 108.859 122.802 115.534 122.802 116.687 105.107" style="fill: #ca6532;stroke: #c75d27;stroke-miterlimit: 10;stroke-width: 0.44654354645660954px"/>
          <circle cx="112.1101" cy="105.19607" r="2.16121" style="fill: #ade2ef;stroke: #c4541b;stroke-miterlimit: 10;stroke-width: 0.4922904845620944px"/>
          <line x1="112.1101" y1="103.08401" x2="112.1101" y2="107.31024" style="fill: none;stroke: #c4541b;stroke-miterlimit: 10;stroke-width: 0.4922904845620944px"/>
          <line x1="109.99699" y1="105.14797" x2="114.22321" y2="105.14797" style="fill: none;stroke: #c4541b;stroke-miterlimit: 10;stroke-width: 0.4922904845620944px"/>
        </g>
        <path d="M119.33413,57.90963a4.19988,4.19988,0,0,0,0-5.93952c-.93352,3.443-2.06238,5.0911-5.93951,5.93952A4.19987,4.19987,0,0,0,119.33413,57.90963Z" style="fill: #1d5463;opacity: 0.1"/>
      </g>
      <circle cx="116.45836" cy="46.29378" r="2.63835" style="fill: #41889d"/>
      <circle cx="116.97943" cy="46.29378" r="2.63835" style="fill: #1d5463"/>
      <path d="M129.444,48.1935H116.87277a1.5506,1.5506,0,0,1,0-2.751h11.1288Z" style="fill-rule: evenodd;opacity: 0.1"/>
      <path d="M164.66451,47.72789H116.87277a1.5506,1.5506,0,0,1,0-2.751h47.79174a1.40241,1.40241,0,0,1,0,2.751Z" style="fill: #ca6532;fill-rule: evenodd"/>
      <path d="M164.66451,47.72789H116.87277A1.55361,1.55361,0,0,1,116.038,46.358c1.34371.44039,47.24216.32407,49.75443-.06422A1.4225,1.4225,0,0,1,164.66451,47.72789Z" style="fill: #d07649;fill-rule: evenodd"/>
      <g style="opacity: 0.6000000000000001">
        <line x1="170.82187" y1="84.97007" x2="176.0666" y2="93.08294" style="fill: none;stroke: #fff;stroke-linecap: round;stroke-miterlimit: 10;stroke-width: 0.2718711486386699px"/>
        <line x1="176.28324" y1="93.41805" x2="177.10959" y2="94.6963" style="fill: none;stroke: #fff;stroke-linecap: round;stroke-miterlimit: 10;stroke-width: 0.2718711486386699px"/>
        <line x1="177.55128" y1="95.37953" x2="177.96445" y2="96.01866" style="fill: none;stroke: #fff;stroke-linecap: round;stroke-miterlimit: 10;stroke-width: 0.2718711486386699px"/>
      </g>
      <g style="opacity: 0.6000000000000001">
        <line x1="161.38668" y1="89.43261" x2="169.77049" y2="94.23192" style="fill: none;stroke: #fff;stroke-linecap: round;stroke-miterlimit: 10;stroke-width: 0.2718711486386699px"/>
        <line x1="170.1168" y1="94.43016" x2="171.43774" y2="95.18633" style="fill: none;stroke: #fff;stroke-linecap: round;stroke-miterlimit: 10;stroke-width: 0.2718711486386699px"/>
        <line x1="172.14378" y1="95.59051" x2="172.80426" y2="95.96859" style="fill: none;stroke: #fff;stroke-linecap: round;stroke-miterlimit: 10;stroke-width: 0.2718711486386699px"/>
      </g>
      <g>
        <g>
          <line x1="162.18688" y1="78.83228" x2="162.18688" y2="74.19085" style="fill: none;stroke: #f2a20d;stroke-linecap: round;stroke-miterlimit: 10;stroke-width: 1.1788783974810306px"/>
          <line x1="162.18688" y1="75.61023" x2="162.18688" y2="74.19085" style="fill: none;stroke: #cc8a19;stroke-linecap: round;stroke-miterlimit: 10;stroke-width: 1.1788783974810306px"/>
          <g>
            <rect x="161.32519" y="67.40439" width="0.36356" height="0.90834" style="fill: #f7a71e"/>
            <rect x="162.58915" y="67.40439" width="0.36356" height="0.90834" style="fill: #f7a71e"/>
            <rect x="161.32519" y="67.40439" width="0.36356" height="0.3321" style="fill: #cc8a19;opacity: 0.30000000000000004"/>
            <rect x="162.58915" y="67.40439" width="0.36356" height="0.40108" style="fill: #cc8a19;opacity: 0.30000000000000004"/>
            <path d="M162.8492,74.44787h-1.32463a.63771.63771,0,0,1-.63584-.63584V68.39879c0-.34972,2.59631-.34972,2.59631,0V73.812A.63771.63771,0,0,1,162.8492,74.44787Z" style="fill: #f7a71e"/>
            <path d="M161.76365,68.14939s1.72139-.062,1.72139.28772v5.41324C163.485,74.20006,161.76365,68.14939,161.76365,68.14939Z" style="fill: #cc8a19;opacity: 0.30000000000000004"/>
            <path d="M160.32686,66.98882l1.626-1.65343a.309.309,0,0,1,.437-.00365l1.65343,1.626a.309.309,0,0,1-.21409.52931l-3.27945.02741A.309.309,0,0,1,160.32686,66.98882Z" style="fill: #fcc062"/>
            <path d="M161.95288,65.33539a.309.309,0,0,1,.437-.00365l1.65343,1.626a.309.309,0,0,1-.21409.52931l-1.34211.01122Z" style="fill: #cc8a19;opacity: 0.30000000000000004"/>
          </g>
          <line x1="160.88873" y1="73.81203" x2="163.48504" y2="73.81203" style="fill: none;stroke: #cc8a19;stroke-miterlimit: 10;stroke-width: 0.11788783974810309px;opacity: 0.30000000000000004"/>
          <line x1="160.88873" y1="71.76863" x2="163.48504" y2="71.76863" style="fill: none;stroke: #cc8a19;stroke-miterlimit: 10;stroke-width: 0.11788783974810309px;opacity: 0.30000000000000004"/>
          <line x1="160.88873" y1="72.78871" x2="163.48504" y2="72.78871" style="fill: none;stroke: #cc8a19;stroke-miterlimit: 10;stroke-width: 0.11788783974810309px;opacity: 0.30000000000000004"/>
        </g>
        <path d="M171.87645,76.27181h2.45775V73.57544a.33406.33406,0,0,0-.33406-.33406h0a.33407.33407,0,0,1-.33407-.33407V71.64265a.33406.33406,0,0,0-.33406-.33407h-.42951a.33406.33406,0,0,0-.33406.33407v1.26682a.33406.33406,0,0,1-.33407.33406h-.02386a.33406.33406,0,0,0-.33406.33406Z" style="fill: #fcc062"/>
        <path d="M174.3342,76.27181V73.57544a.33406.33406,0,0,0-.33406-.33406h0a.33407.33407,0,0,1-.33407-.33407V71.64265a.33406.33406,0,0,0-.33406-.33407h-.42951a.33406.33406,0,0,0-.33406.33407l.77514,4.62916Z" style="fill: #f7a71e"/>
        <path d="M173.45865,76.27181v-1.644a.35331.35331,0,0,0,0-.70662H172.752a.35331.35331,0,1,0,0,.70662v1.644" style="fill: none;stroke: #cc8a19;stroke-miterlimit: 10;stroke-width: 0.11194035200671862px"/>
        <rect x="172.5888" y="76.27181" width="1.04344" height="1.29388" style="fill: #2b7b92"/>
        <polygon points="173.632 77.566 173.344 77.566 172.589 76.272 173.632 76.272 173.632 77.566" style="fill: #1d5463"/>
        <path d="M174.82153,76.27181h2.45776V73.57544a.33406.33406,0,0,0-.33407-.33406h0a.33406.33406,0,0,1-.33406-.33407V71.64265a.33407.33407,0,0,0-.33406-.33407h-.42951a.33407.33407,0,0,0-.33407.33407v1.26682a.33406.33406,0,0,1-.33406.33406h-.02386a.33407.33407,0,0,0-.33407.33406Z" style="fill: #fcc062"/>
        <path d="M177.27929,76.27181V73.57544a.33406.33406,0,0,0-.33407-.33406h0a.33406.33406,0,0,1-.33406-.33407V71.64265a.33407.33407,0,0,0-.33406-.33407h-.42951a.33407.33407,0,0,0-.33407.33407l.77515,4.62916Z" style="fill: #f7a71e"/>
        <path d="M176.40374,76.27181v-1.644a.35331.35331,0,0,0,0-.70662h-.70662a.35331.35331,0,1,0,0,.70662v1.644" style="fill: none;stroke: #cc8a19;stroke-miterlimit: 10;stroke-width: 0.11194035200671862px"/>
        <rect x="175.53389" y="76.27181" width="1.04344" height="1.29388" style="fill: #2b7b92"/>
        <polygon points="176.577 77.566 176.289 77.566 175.534 76.272 176.577 76.272 176.577 77.566" style="fill: #1d5463"/>
        <g>
          <path d="M153.26682,76.83009v2.15643a.75262.75262,0,0,0,.75263.75263h5.39365" style="fill: none;stroke: #2b7b92;stroke-linecap: round;stroke-miterlimit: 10;stroke-width: 0.6424444514752043px"/>
          <circle cx="153.26682" cy="78.09564" r="0.77948" style="fill: #5595a8"/>
          <circle cx="152.84868" cy="74.82744" r="2.3303" style="fill: #5595a8"/>
          <circle cx="153.26682" cy="74.82744" r="2.3303" style="fill: #2b7b92"/>
          <path d="M154.91459,76.47521a2.3303,2.3303,0,0,0,0-3.29554,3.282,3.282,0,0,1-3.29555,3.29554A2.33031,2.33031,0,0,0,154.91459,76.47521Z" style="fill: #1d5463;opacity: 0.30000000000000004"/>
          <circle cx="153.26682" cy="74.82744" r="1.69945" style="fill: #fff"/>
          <circle cx="153.26682" cy="74.82744" r="1.26492" style="fill: none;stroke: #bbcbd0;stroke-linecap: round;stroke-miterlimit: 10;stroke-width: 0.10707407524586726px;stroke-dasharray: 0.21414814889431,0.42829629778862"/>
          <polygon points="154.126 75.48 153.238 74.88 153.375 74.678 154.263 75.279 154.126 75.48" style="fill: #f7a71e"/>
          <circle cx="153.36143" cy="74.80516" r="0.32094" style="fill: #1d5463"/>
          <path d="M154.46851,76.02913a1.69946,1.69946,0,0,0,0-2.40338,3.66791,3.66791,0,0,1-2.40339,2.40338A1.69945,1.69945,0,0,0,154.46851,76.02913Z" style="fill: #2b7b92;opacity: 0.1"/>
        </g>
        <path d="M172.04834,93.69959h12.01794a2.48377,2.48377,0,0,0,2.48377-2.48377V82.0979H172.04834Z" style="fill: #d90b0b;fill-rule: evenodd"/>
        <polygon points="172.048 82.084 186.55 82.084 186.55 77.267 176.507 77.267 172.048 82.098 172.048 82.084" style="fill: #e03c3c;fill-rule: evenodd"/>
        <path d="M153.24528,82.0979h18.80305a0,0,0,0,1,0,0V93.69959a0,0,0,0,1,0,0H155.729a2.48377,2.48377,0,0,1-2.48377-2.48377V82.0979A0,0,0,0,1,153.24528,82.0979Z" style="fill: #e45454"/>
        <path d="M172.04835,93.69959h-16.428c9.09962-1.28369,11.93611-3.448,16.428-11.60169Z" style="fill: #e6423d;fill-rule: evenodd"/>
        <polygon points="176.507 77.267 157.787 77.267 153.245 82.098 172.048 82.098 176.507 77.267" style="fill: #f0908d;fill-rule: evenodd"/>
        <g>
          <g>
            <path d="M155.47094,81.16043v.32395a.14925.14925,0,0,0,.14925.14925h.97012a.597.597,0,0,0,.43387-.18691l.86763-.90986a.14927.14927,0,0,0,.04124-.103v-.49053" style="fill: #ade2ef;fill-rule: evenodd"/>
            <path d="M157.7835,79.82043h-.82057a.597.597,0,0,0-.43387.18691l-1.017,1.076a.14925.14925,0,0,0,.10847.25178h.82056a.597.597,0,0,0,.43388-.18692l1.017-1.076A.14925.14925,0,0,0,157.7835,79.82043Z" style="fill: #f7fcfd;fill-rule: evenodd"/>
          </g>
          <g>
            <path d="M157.21964,79.07172v.324a.14925.14925,0,0,0,.14925.14925h.97012a.597.597,0,0,0,.43387-.18691l.86763-.90986a.14923.14923,0,0,0,.04124-.103v-.49053" style="fill: #ade2ef;fill-rule: evenodd"/>
            <path d="M159.5322,77.73172h-.82056a.597.597,0,0,0-.43388.18692l-1.017,1.076a.14925.14925,0,0,0,.10847.25178h.82057a.597.597,0,0,0,.43387-.18692l1.017-1.076A.14925.14925,0,0,0,159.5322,77.73172Z" style="fill: #f7fcfd;fill-rule: evenodd"/>
          </g>
        </g>
        <g>
          <g>
            <path d="M158.13407,81.16043v.32395a.14926.14926,0,0,0,.14926.14925h.97011a.597.597,0,0,0,.43388-.18691l.86763-.90986a.14927.14927,0,0,0,.04124-.103v-.49053" style="fill: #ade2ef;fill-rule: evenodd"/>
            <path d="M160.44664,79.82043h-.82057a.597.597,0,0,0-.43387.18691l-1.01705,1.076a.14926.14926,0,0,0,.10847.25178h.82057a.597.597,0,0,0,.43387-.18692l1.01705-1.076A.14925.14925,0,0,0,160.44664,79.82043Z" style="fill: #f7fcfd;fill-rule: evenodd"/>
          </g>
          <g>
            <path d="M159.88277,79.07172v.324a.14926.14926,0,0,0,.14926.14925h.97012a.597.597,0,0,0,.43387-.18691l.86763-.90986a.14928.14928,0,0,0,.04124-.103v-.49053" style="fill: #ade2ef;fill-rule: evenodd"/>
            <path d="M162.19534,77.73172h-.82057a.597.597,0,0,0-.43387.18692l-1.017,1.076a.14925.14925,0,0,0,.10846.25178h.82057a.59705.59705,0,0,0,.43388-.18692l1.017-1.076A.14926.14926,0,0,0,162.19534,77.73172Z" style="fill: #f7fcfd;fill-rule: evenodd"/>
          </g>
        </g>
        <g>
          <path d="M171.11562,77.85462h-1.06731a.597.597,0,0,0-.43494.18806L166.589,81.25924a.14925.14925,0,0,0,.10874.25149h1.12256a.597.597,0,0,0,.43869-.19207l2.96635-3.21355A.14926.14926,0,0,0,171.11562,77.85462Z" style="fill: #9b0c1a;fill-rule: evenodd"/>
          <path d="M171.11562,77.85462l-3.29537,3.65611a.597.597,0,0,0,.43869-.19207l2.96635-3.21355A.14926.14926,0,0,0,171.11562,77.85462Z" style="fill: #a52431;fill-rule: evenodd"/>
          <polygon points="169.53 79.189 169.019 79.752 169.019 76.116 169.53 75.552 169.53 79.189" style="fill: #2b7b92;fill-rule: evenodd"/>
          <polygon points="169.53 79.189 169.019 79.752 169.53 75.552 169.53 79.189" style="fill: #1d5463;fill-rule: evenodd"/>
          <circle cx="169.22511" cy="75.88841" r="0.85823" style="fill: #ade2ef"/>
          <path d="M169.832,76.49527a.85823.85823,0,0,0,0-1.21372c-.33516-.33517-1.54889.87856-1.21373,1.21372A.85824.85824,0,0,0,169.832,76.49527Z" style="fill: #76cee5;fill-rule: evenodd"/>
        </g>
        <g>
          <path d="M167.91783,77.85462h-1.0673a.597.597,0,0,0-.43495.18806l-3.02441,3.21656a.14925.14925,0,0,0,.10874.25149h1.12256a.597.597,0,0,0,.43868-.19207l2.96636-3.21355A.14926.14926,0,0,0,167.91783,77.85462Z" style="fill: #9b0c1a;fill-rule: evenodd"/>
          <path d="M167.91783,77.85462l-3.29536,3.65611a.597.597,0,0,0,.43868-.19207l2.96636-3.21355A.14926.14926,0,0,0,167.91783,77.85462Z" style="fill: #a52431;fill-rule: evenodd"/>
          <polygon points="165.106 80.414 164.595 80.977 164.595 77.341 165.106 76.777 165.106 80.414" style="fill: #2b7b92;fill-rule: evenodd"/>
          <polygon points="165.106 80.414 164.595 80.977 165.106 76.777 165.106 80.414" style="fill: #1d5463;fill-rule: evenodd"/>
          <circle cx="164.80105" cy="77.11351" r="0.85823" style="fill: #ade2ef"/>
          <path d="M165.40791,77.72037a.85823.85823,0,0,0,0-1.21372c-.33516-.33516-1.54889.87856-1.21373,1.21372A.85822.85822,0,0,0,165.40791,77.72037Z" style="fill: #76cee5;fill-rule: evenodd"/>
        </g>
        <line x1="155.02318" y1="83.78752" x2="155.02318" y2="85.87636" style="fill: none;stroke: #9b0c1a;stroke-linecap: round;stroke-miterlimit: 10;stroke-width: 0.29850760535124965px"/>
        <line x1="165.99799" y1="83.78752" x2="165.99799" y2="85.87636" style="fill: none;stroke: #9b0c1a;stroke-linecap: round;stroke-miterlimit: 10;stroke-width: 0.29850760535124965px"/>
        <line x1="161.60806" y1="83.78752" x2="161.60806" y2="85.87636" style="fill: none;stroke: #9b0c1a;stroke-linecap: round;stroke-miterlimit: 10;stroke-width: 0.29850760535124965px"/>
        <line x1="159.4131" y1="83.78752" x2="159.4131" y2="85.87636" style="fill: none;stroke: #9b0c1a;stroke-linecap: round;stroke-miterlimit: 10;stroke-width: 0.29850760535124965px"/>
        <line x1="163.80303" y1="83.78752" x2="163.80303" y2="85.87636" style="fill: none;stroke: #9b0c1a;stroke-linecap: round;stroke-miterlimit: 10;stroke-width: 0.29850760535124965px"/>
        <line x1="169.29043" y1="83.78752" x2="169.29043" y2="85.87636" style="fill: none;stroke: #9b0c1a;stroke-linecap: round;stroke-miterlimit: 10;stroke-width: 0.29850760535124965px"/>
        <line x1="168.19295" y1="83.78752" x2="168.19295" y2="85.87636" style="fill: none;stroke: #9b0c1a;stroke-linecap: round;stroke-miterlimit: 10;stroke-width: 0.29850760535124965px"/>
        <line x1="167.09547" y1="83.78752" x2="167.09547" y2="85.87636" style="fill: none;stroke: #9b0c1a;stroke-linecap: round;stroke-miterlimit: 10;stroke-width: 0.29850760535124965px"/>
        <line x1="164.90051" y1="83.78752" x2="164.90051" y2="85.87636" style="fill: none;stroke: #9b0c1a;stroke-linecap: round;stroke-miterlimit: 10;stroke-width: 0.29850760535124965px"/>
        <line x1="162.70555" y1="83.78752" x2="162.70555" y2="85.87636" style="fill: none;stroke: #9b0c1a;stroke-linecap: round;stroke-miterlimit: 10;stroke-width: 0.29850760535124965px"/>
        <line x1="160.51058" y1="83.78752" x2="160.51058" y2="85.87636" style="fill: none;stroke: #9b0c1a;stroke-linecap: round;stroke-miterlimit: 10;stroke-width: 0.29850760535124965px"/>
        <line x1="158.31562" y1="83.78752" x2="158.31562" y2="85.87636" style="fill: none;stroke: #9b0c1a;stroke-linecap: round;stroke-miterlimit: 10;stroke-width: 0.29850760535124965px"/>
        <line x1="156.12066" y1="83.78752" x2="156.12066" y2="85.87636" style="fill: none;stroke: #9b0c1a;stroke-linecap: round;stroke-miterlimit: 10;stroke-width: 0.29850760535124965px"/>
        <line x1="157.21814" y1="83.78752" x2="157.21814" y2="85.87636" style="fill: none;stroke: #9b0c1a;stroke-linecap: round;stroke-miterlimit: 10;stroke-width: 0.29850760535124965px"/>
        <g>
          <g>
            <circle cx="172.86259" cy="88.27521" r="0.24274" style="fill: #bf0f20"/>
            <circle cx="174.82153" cy="88.27521" r="0.24274" style="fill: #bf0f20"/>
          </g>
          <circle cx="172.86259" cy="90.25163" r="0.24274" style="fill: #bf0f20"/>
        </g>
        <line x1="153.24528" y1="87.19363" x2="172.04658" y2="87.19363" style="fill: none;stroke: #9b0c1a;stroke-linecap: round;stroke-miterlimit: 10;stroke-width: 0.14925380267562413px"/>
        <line x1="172.04658" y1="87.19363" x2="186.55005" y2="87.19363" style="fill: none;stroke: #bf0f20;stroke-miterlimit: 10;stroke-width: 0.14925380267562413px"/>
        <path d="M186.55005,84.68482h-2.74759a4.50866,4.50866,0,0,0-2.95492-2.78824h-1.2247c-1.32086,0-2.39162,1.40022-2.39162,3.12778,0,1.72721,1.07076,3.12778,2.39162,3.12778h1.2247a2.15912,2.15912,0,0,0,1.71731-.958,1.83675,1.83675,0,0,0,.93466-.86431h3.05054Z" style="opacity: 0.1"/>
        <path d="M178.89881,87.90271c-1.32084,0-2.3916-1.4003-2.3916-3.12766s1.07076-3.12766,2.3916-3.12766h1.22469v6.25532Z" style="fill: #f9b04b"/>
        <ellipse cx="180.1235" cy="84.77505" rx="2.3916" ry="3.12766" style="fill: #f79c1e"/>
        <path d="M180.47949,87.04162a2.34865,2.34865,0,0,1,0-4.53314h.88751v4.53314Z" style="fill: #f9b94b"/>
        <ellipse cx="181.367" cy="84.77505" rx="1.73316" ry="2.26657" style="fill: #f7a71e"/>
        <g>
          <path d="M196.611,84.4049h1.244a.05131.05131,0,0,1,.05131.05131v.5707a.05131.05131,0,0,1-.05131.05131h-1.244a.33666.33666,0,0,1-.33666-.33666v0a.33666.33666,0,0,1,.33666-.33666Z" transform="translate(394.18059 169.48315) rotate(-179.99999)" style="fill: #f7a71e"/>
          <path d="M196.27433,84.61147v-.15526a.05131.05131,0,0,1,.05131-.05131h1.244a.33632.33632,0,0,1,.27916.14843A15.0412,15.0412,0,0,1,196.27433,84.61147Z" style="fill: #f9b94b"/>
          <path d="M195.09266,84.775s-3.42092,9.35541.16425,9.35541.38487-9.35541.38487-9.35541Z" style="fill: #f7a71e"/>
          <path d="M195.25691,94.13046c3.58516,0,.38487-9.35541.38487-9.35541S196.46316,90.81611,195.25691,94.13046Z" style="fill: #f9b94b"/>
          <path d="M195.494,84.775s3.42091-9.3554-.16425-9.3554-.38488,9.3554-.38488,9.3554Z" style="fill: #f7a71e"/>
          <path d="M195.32974,75.41965c-3.58516,0-.38488,9.3554-.38488,9.3554S193.66982,78.9763,195.32974,75.41965Z" style="fill: #f9b94b"/>
          <rect x="185.07081" y="84.15164" width="10.22251" height="1.17984" transform="translate(380.36413 169.48312) rotate(-180)" style="fill: #f7a71e"/>
          <rect x="185.07081" y="84.15164" width="10.22251" height="0.29496" transform="translate(380.36413 168.59824) rotate(-180)" style="fill: #f9b94b"/>
          <g>
            <path d="M187.53022,86.09739h-6.4035a1.94671,1.94671,0,0,1,0-2.64456h6.4035Z" style="fill: #f8b034"/>
            <path d="M180.60937,84.82487a2.02471,2.02471,0,0,1,.51735-1.372h6.4035v.79665S180.62705,85.49869,180.60937,84.82487Z" style="fill: #f9b94b"/>
          </g>
          <rect x="187.26866" y="82.405" width="1.91016" height="4.67313" rx="0.95508" ry="0.95508" transform="translate(376.44733 169.48346) rotate(-179.9999)" style="fill: #fbb03b"/>
          <path d="M187.72614,82.54578a.95682.95682,0,0,0-.45743.81429v2.763a.9552.9552,0,0,0,.38461.7648l.00636.0023c.06752-.00689-.15594-.572-.15339-2.25958a8.48417,8.48417,0,0,1,.22445-2.08619Z" style="fill: #fcc062"/>
          <path d="M189.17882,83.36008a.99031.99031,0,0,0-.95508-.95508h0a.95789.95789,0,0,0-.95508.95508A2.024,2.024,0,0,1,189.17882,83.36008Z" style="fill: #f79c1e;opacity: 0.30000000000000004"/>
          <rect x="190.52309" y="83.50986" width="2.33398" height="2.46339" rx="1.16699" ry="1.16699" transform="translate(383.3803 169.48281) rotate(179.99991)" style="fill: #fbb03b"/>
          <path d="M190.95992,83.76819a1.16634,1.16634,0,0,0-.43683.90866v.12941a1.16492,1.16492,0,0,0,.38909.868A3.89183,3.89183,0,0,1,190.95992,83.76819Z" style="fill: #fcc062"/>
          <path d="M192.85707,84.67686a1.167,1.167,0,1,0-2.334,0A2.04159,2.04159,0,0,1,192.85707,84.67686Z" style="fill: #f79c1e;opacity: 0.30000000000000004"/>
          <rect x="194.36981" y="83.66098" width="2.04762" height="2.16115" rx="1.02381" ry="1.02381" transform="translate(390.78753 169.48244) rotate(179.9998)" style="fill: #fbb03b"/>
          <path d="M194.753,83.88761a1.02325,1.02325,0,0,0-.38323.79718v.11353a1.022,1.022,0,0,0,.34134.76153A3.41446,3.41446,0,0,1,194.753,83.88761Z" style="fill: #fcc062"/>
          <path d="M196.41742,84.68479a1.02381,1.02381,0,1,0-2.04761,0A1.7911,1.7911,0,0,1,196.41742,84.68479Z" style="fill: #f79c1e;opacity: 0.30000000000000004"/>
          <rect x="196.81555" y="84.139" width="0.4926" height="1.20513" rx="0.2463" ry="0.2463" transform="translate(394.12371 169.48312) rotate(180)" style="fill: #fbb03b"/>
          <path d="M196.93353,84.1753a.24677.24677,0,0,0-.118.21v.71253a.24636.24636,0,0,0,.09919.19723l.00164.00059c.01741-.00178-.04021-.1475-.03956-.58271a2.18842,2.18842,0,0,1,.05788-.538Z" style="fill: #fcc062"/>
          <path d="M197.30815,84.3853a.25538.25538,0,0,0-.2463-.2463h0a.247.247,0,0,0-.2463.2463A.522.522,0,0,1,197.30815,84.3853Z" style="fill: #f79c1e;opacity: 0.30000000000000004"/>
        </g>
      </g>
      <g>
        <path d="M175.08057,35.53693s-.209-3.13891-4.14556-4.90476" style="fill: none;stroke: #f1fafc;stroke-linecap: round;stroke-miterlimit: 10;stroke-width: 0.3398389222943515px"/>
        <path d="M170.10708,30.31667a3.271,3.271,0,0,0-1.00174-.15146" style="fill: none;stroke: #f1fafc;stroke-linecap: round;stroke-miterlimit: 10;stroke-width: 0.3398389222943515px"/>
      </g>
      <g>
        <path d="M148.2665,33.5423s-2.313-2.13221-6.38354-.702" style="fill: none;stroke: #f1fafc;stroke-linecap: round;stroke-miterlimit: 10;stroke-width: 0.3398389222943515px"/>
        <path d="M141.06535,33.18167a3.27074,3.27074,0,0,0-.8307.58" style="fill: none;stroke: #f1fafc;stroke-linecap: round;stroke-miterlimit: 10;stroke-width: 0.3398389222943515px"/>
      </g>
      <g>
        <path d="M219.42672,290.46141H99.62562s10.40367-10.55882,21.77878-10.55882,11.80274,4.09674,16.4212,4.09674,12.487-11.53446,21.98047-11.53446,14.7962,8.29132,18.47386,8.29132c7.26755,0,7.36693-11.41241,29.32846-11.41241C232.21853,269.34378,219.42672,290.46141,219.42672,290.46141Z" style="fill: #e6f6fa"/>
        <path d="M114.32186,252.12755H15.08268s8.61805-8.74656,18.0408-8.74656,9.777,3.39359,13.60278,3.39359,10.34377-9.55476,18.20787-9.55476,12.25666,6.86826,15.30312,6.86826c6.02019,0,6.10251-9.45366,24.2947-9.45366C124.91815,234.63442,114.32186,252.12755,114.32186,252.12755Z" style="fill: #def3f9"/>
        <g>
          <path d="M206.616,123.39637a1.30687,1.30687,0,1,1,2.61374,0C209.22978,124.11813,206.616,124.11813,206.616,123.39637Z" style="fill: #ca6532"/>
          <path d="M25.52651,121.86633a.8956.8956,0,1,1,1.79119,0C27.3177,122.361,25.52651,122.361,25.52651,121.86633Z" style="fill: #ca6532"/>
          <g>
            <line x1="26.2739" y1="136.55787" x2="26.61954" y2="122.21196" style="fill: none;stroke: #c40c1a;stroke-miterlimit: 10;stroke-width: 0.2848600758210905px"/>
            <rect x="25.48769" y="130.78953" width="2.0148" height="4.56104" rx="1.0074" ry="1.0074" transform="translate(51.3206 266.46167) rotate(-179.28201)" style="fill: #e45454"/>
            <circle cx="26.42211" cy="135.08346" r="2.23422" style="fill: #e03c3c"/>
            <path d="M24.18806,135.05546c.01546-1.23382,4.48355-1.17784,4.46809.056a2.23422,2.23422,0,0,1-4.46809-.056Z" style="fill: #d90b0b"/>
          </g>
          <g>
            <line x1="207.75009" y1="138.1379" x2="208.09573" y2="123.79199" style="fill: none;stroke: #c40c1a;stroke-miterlimit: 10;stroke-width: 0.2848600758210905px"/>
            <path d="M207.97129,132.36957h0a1.0074,1.0074,0,0,1,1.0074,1.0074v2.54624a1.0074,1.0074,0,0,1-1.0074,1.0074h0a1.00739,1.00739,0,0,1-1.00739-1.00739V133.377A1.0074,1.0074,0,0,1,207.97129,132.36957Z" transform="translate(414.23887 271.89581) rotate(-179.28197)" style="fill: #e45454"/>
            <circle cx="207.8983" cy="136.66349" r="2.23422" style="fill: #e03c3c"/>
            <path d="M205.66426,136.6355c.01546-1.23383,4.48355-1.17784,4.46809.056a2.23422,2.23422,0,0,1-4.46809-.056Z" style="fill: #d90b0b"/>
          </g>
          <polygon points="83.765 128.445 66.846 176.792 66.846 171.975 80.561 127.786 83.765 128.445" style="fill: #a14516"/>
          <polygon points="126.689 145.104 79.269 137.607 81.227 133.868 127.156 141.146 126.689 145.104" style="fill: #b46a45"/>
          <polygon points="150.874 126.486 105.688 187.997 106.601 181.178 148.696 126.486 150.874 126.486" style="fill: #a14516"/>
          <polygon points="156.08 148.87 134.267 145.826 136.7 143.125 157.938 146.698 156.08 148.87" style="fill: #b46a45"/>
          <polygon points="80.841 185.738 70.099 125.285 67.908 124.952 78.651 185.405 80.841 185.738" style="fill: #a14516"/>
          <polygon points="200.936 125.424 121.439 168.286 122.431 163.735 198.416 125.424 200.936 125.424" style="fill: #d07649"/>
          <polygon points="200.936 125.424 121.439 168.286 121.846 166.422 199.492 125.424 200.936 125.424" style="fill: #dc9876"/>
          <polygon points="78.54 215.955 118.578 222.564 121.974 186.629 98.928 170.123 78.54 215.955" style="fill: #ceeef5"/>
          <polygon points="78.54 215.955 61.44 205.208 50.103 257.771 80.561 261.855 78.54 215.955" style="fill: #ceeef5"/>
          <polygon points="78.54 215.955 118.578 222.564 128.06 243.669 80.561 261.855 78.54 215.955" style="fill: #eff9fc"/>
          <polygon points="35.893 336 48.565 326.505 79.31 335.885 35.893 336" style="fill: #e6f6fa"/>
          <polygon points="51.656 312.318 54.609 305.399 115.016 290.461 150.508 336 92.602 335.86 51.656 312.318" style="fill: #e6f6fa"/>
          <polygon points="48.577 319.533 48.298 335.956 78.169 336 48.577 319.533" style="fill: #c6ebf4"/>
          <polygon points="48.577 319.533 51.656 312.318 92.602 335.86 78.169 336 48.577 319.533" style="fill: #ceeef5"/>
          <polygon points="107.03 332.528 54.609 305.399 49.307 257.541 80.561 261.855 107.03 332.528" style="fill: #bde8f2"/>
          <polygon points="65.522 170.99 61.568 205.744 78.54 215.955 98.928 170.123 65.522 170.99" style="fill: #c6ebf4"/>
          <polygon points="107.03 332.528 144.903 328.878 128.06 243.669 80.561 261.855 107.03 332.528" style="fill: #d6f0f7"/>
          <polygon points="111.228 182.585 116.584 187.997 114.96 205.66 111.809 207.153 111.228 182.585" style="fill: #65c7de;opacity: 0.5"/>
          <polygon points="93.555 170.32 97.475 170.207 101.391 181.482 97.79 181.977 93.555 170.32" style="fill: #65c7de;opacity: 0.5"/>
          <polygon points="66.846 171.298 69.003 171.219 69.003 175.567 66.82 179.225 66.846 171.298" style="fill: #65c7de;opacity: 0.5"/>
          <polygon points="114.674 205.66 131.941 125.303 129.826 124.604 110.082 203.855 111.809 207.153 114.674 205.66" style="fill: #d07649"/>
          <polygon points="114.674 205.66 114.674 205.66 131.99 125.075 130.722 124.799 111.875 207.118 114.674 205.66" style="fill: #dc9876"/>
          <polygon points="69.003 175.567 53.671 124.424 50.134 125.48 66.705 179.225 68.462 179.225 69.003 175.567" style="fill: #d07649"/>
          <polygon points="69.003 175.567 53.671 124.424 51.445 125.088 68.462 179.225 69.003 175.567" style="fill: #dc9876"/>
          <polygon points="101.391 181.482 94.366 125.521 90.679 125.333 97.79 181.977 99.745 183.721 101.391 181.482" style="fill: #d07649"/>
          <polygon points="101.391 181.482 94.366 125.521 91.775 125.389 99.745 183.721 101.391 181.482" style="fill: #dc9876"/>
          <polygon points="217.316 128.657 68.361 128.751 61.909 123.587 222.08 125.15 217.316 128.657" style="fill: #dc9876"/>
          <polygon points="234.073 126.339 29.704 125.981 24.163 121.548 240.917 123.488 234.073 126.339" style="fill: #c4541b"/>
          <g>
            <line x1="48.10181" y1="141.67838" x2="48.5868" y2="121.54845" style="fill: none;stroke: #c40c1a;stroke-miterlimit: 10;stroke-width: 0.3997106039156797px"/>
            <rect x="46.99862" y="133.58435" width="2.82713" height="6.39997" rx="1.41356" ry="1.41356" transform="translate(95.10671 274.16453) rotate(-179.28209)" style="fill: #e45454"/>
            <circle cx="48.30977" cy="139.60951" r="3.13502" style="fill: #e03c3c"/>
            <path d="M45.175,139.57023c.0217-1.73128,6.29124-1.65272,6.26954.07857a3.135,3.135,0,0,1-6.26954-.07857Z" style="fill: #d90b0b"/>
          </g>
          <g>
            <line x1="233.7062" y1="143.26991" x2="234.1912" y2="123.13999" style="fill: none;stroke: #c40c1a;stroke-miterlimit: 10;stroke-width: 0.3997106039156797px"/>
            <rect x="232.60302" y="135.17589" width="2.82713" height="6.39997" rx="1.41356" ry="1.41356" transform="translate(466.28097 279.67306) rotate(-179.28208)" style="fill: #e45454"/>
            <circle cx="233.91417" cy="141.20105" r="3.13502" style="fill: #e03c3c"/>
            <path d="M230.7794,141.16177c.02169-1.73129,6.29123-1.65273,6.26954.07856a3.135,3.135,0,1,1-6.26954-.07856Z" style="fill: #d90b0b"/>
          </g>
          <path d="M232.89133,123.39637a1.30687,1.30687,0,1,1,2.61374,0C235.50507,124.11813,232.89133,124.11813,232.89133,123.39637Z" style="fill: #ca6532"/>
          <path d="M47.27638,121.696a1.30687,1.30687,0,0,1,2.61374,0C49.89012,122.41773,47.27638,122.41773,47.27638,121.696Z" style="fill: #ca6532"/>
        </g>
      </g>
      <path d="M194.55307,115.95191c-3.03624,3.43921-8.26942,3.61339-12.11548,1.47154-3.49276-1.94508-5.12546-6.29062-4.40886-10.3688" style="fill: none;stroke: #346573;stroke-miterlimit: 10;stroke-width: 0.4656099116908908px"/>
      <path d="M194.55307,115.95191c-3.03624,3.43921-8.26942,3.61339-12.11548,1.47154-3.49276-1.94508-5.12546-6.29062-4.40886-10.3688" style="fill: none;stroke: #2b7b92;stroke-linecap: round;stroke-miterlimit: 10;stroke-width: 0.4656099116908908px;stroke-dasharray: 0.9312198162078857,1.8624396324157715"/>
      <g>
        <rect x="195.34922" y="114.45914" width="1.10083" height="1.21373" style="fill: #c40c1a"/>
        <rect x="195.34922" y="114.45914" width="1.10083" height="0.49949" style="opacity: 0.1"/>
        <path d="M193.44462,123.346v-5.8879a2.308,2.308,0,0,1,2.455-2.10713h0a2.308,2.308,0,0,1,2.455,2.10713v5.8879" style="fill: #d90b0b"/>
        <path d="M193.44462,123.346v-5.8879a2.308,2.308,0,0,1,2.455-2.10713h0c-.92746,2.27771,0,7.995,0,7.995Z" style="fill: #e03c3c"/>
        <rect x="194.55307" y="113.78458" width="2.69313" height="0.91185" rx="0.45592" ry="0.45592" style="fill: #d90b0b"/>
        <path d="M195.009,114.69648a.456.456,0,1,1,0-.9119h.89064Z" style="fill: #e03c3c"/>
        <line x1="193.44462" y1="117.45805" x2="198.35465" y2="117.45805" style="fill: none;stroke: #9b0c1a;stroke-linecap: round;stroke-miterlimit: 10;stroke-width: 0.14925380267562413px"/>
        <line x1="193.44462" y1="121.88688" x2="198.35465" y2="121.88688" style="fill: none;stroke: #9b0c1a;stroke-linecap: round;stroke-miterlimit: 10;stroke-width: 0.14925380267562413px"/>
        <line x1="193.44462" y1="119.59564" x2="198.35465" y2="119.59564" style="fill: none;stroke: #9b0c1a;stroke-linecap: round;stroke-miterlimit: 10;stroke-width: 0.14925380267562413px"/>
      </g>
      <g>
        <circle cx="194.36981" cy="101.41045" r="2.09788" style="fill: #4b2c17"/>
        <path d="M196.35676,102.08357a2.09787,2.09787,0,0,0-1.31383-2.66008C193.94557,99.05173,195.985,103.18094,196.35676,102.08357Z" style="fill: #42210b"/>
        <path d="M177.25858,107.0892a7.62878,7.62878,0,0,0,7.72214,1.3303c.829-.322.46853-1.67314-.37133-1.34694a6.23405,6.23405,0,0,1-6.3631-.97107c-.68613-.57136-1.67948.41165-.98771.98771Z" style="fill: #bf8760"/>
        <g>
          <polygon points="179.662 99.754 177.227 98.219 177.364 97.743 180.031 98.473 179.662 99.754" style="fill: #c40c1a"/>
          <polygon points="180.223 99.244 181.205 99.383 181.342 98.907 180.031 98.524 180.223 99.244" style="fill: #c40c1a"/>
          <polygon points="174.185 96.85 177.227 98.219 177.364 97.743 173.783 95.719 174.185 96.85" style="fill: #fbb03b"/>
          <polygon points="174.598 98.022 177.227 98.219 177.364 97.743 174.393 96.833 174.598 98.022" style="fill: #fbb03b"/>
          <polygon points="174.185 96.85 177.227 98.219 177.364 97.743 175.499 96.108 174.185 96.85" style="fill: #f79c1e"/>
          <polygon points="178.711 108.098 177.349 107.725 179.891 98.44 180.709 98.663 178.711 108.098" style="fill: #e2211b"/>
          <polygon points="178.711 108.098 177.349 107.725 178.249 104.439 179.426 104.722 178.711 108.098" style="fill: #1d5463"/>
        </g>
        <path d="M190.28992,116.6029a12.32446,12.32446,0,0,0,.204,5.65954.699.699,0,0,0,1.34693-.37133,10.69742,10.69742,0,0,1-.204-4.91688c.169-.87833-1.177-1.25453-1.34693-.37133Z" style="fill: #c69370"/>
        <rect x="188.96852" y="121.27472" width="3.40107" height="1.787" style="fill: #905f2d"/>
        <rect x="188.96852" y="121.27472" width="1.36043" height="1.787" style="fill: #a87536"/>
        <path d="M185.37567,116.6029a12.32445,12.32445,0,0,0,.204,5.65954.699.699,0,0,0,1.34694-.37133,10.69715,10.69715,0,0,1-.204-4.91688c.169-.87833-1.177-1.25453-1.34693-.37133Z" style="fill: #c69370"/>
        <g style="isolation: isolate">
          <polygon points="184.208 100.109 190.244 100.109 189.158 105.833 183.122 105.833 184.208 100.109" style="fill: #f0b496"/>
          <polygon points="186.267 107.096 183.122 105.833 189.158 105.833 192.303 107.096 186.267 107.096" style="fill: #bf8760"/>
          <polygon points="192.303 107.096 189.158 105.833 190.244 100.109 193.389 101.372 192.303 107.096" style="fill: #c69370"/>
          <path d="M189.93049,99.99292v1.76838c.45371.2065.64663,1.80217,1.29892,2.55679a5.92477,5.92477,0,0,1,1.07341,2.77838c.13518-1.22748,1.54794-2.31993,1.31695-5.33517C193.51911,100.44725,189.93049,99.99292,189.93049,99.99292Z" style="fill: #553723"/>
        </g>
        <g style="isolation: isolate">
          <polygon points="189.118 106.572 184.054 106.572 184.054 113.218 189.118 113.218 192.457 113.218 192.457 106.572 189.118 106.572" style="fill: #d21f19"/>
          <rect x="184.05427" y="106.572" width="5.0641" height="6.64561" style="fill: #e03c3c"/>
          <rect x="189.11837" y="106.572" width="3.3385" height="6.64561" style="fill: #d21f19"/>
          <polygon points="192.457 106.572 189.118 106.572 184.054 106.572 187.393 106.572 192.457 106.572" style="fill: #7e120f"/>
        </g>
        <g style="isolation: isolate">
          <polygon points="189.118 113.098 184.054 113.098 184.054 117.845 185.744 117.845 187.429 117.845 189.082 117.845 189.118 117.845 192.457 117.845 192.457 113.098 189.118 113.098" style="fill: #2b7b92"/>
          <rect x="185.74361" y="115.31371" width="3.3385" height="2.53128" style="fill: #2b7b92"/>
          <polygon points="184.054 113.097 189.118 113.097 189.118 117.845 187.429 117.845 187.429 115.314 185.744 115.314 185.744 117.845 184.054 117.845 184.054 113.097" style="fill: #5595a8"/>
          <rect x="189.11837" y="113.0975" width="3.3385" height="4.74749" style="fill: #2b7b92"/>
          <polygon points="192.457 113.097 189.118 113.097 184.054 113.097 187.393 113.097 192.457 113.097" style="fill: #2f535d"/>
        </g>
        <rect x="184.05427" y="121.27472" width="3.40107" height="1.787" style="fill: #905f2d"/>
        <rect x="184.05427" y="121.27472" width="1.36043" height="1.787" style="fill: #a87536"/>
        <path d="M196.23126,113.20985c-1.02152-2.5069-3.14827-3.99286-5.39016-5.34967a.69894.69894,0,0,0-.705,1.20612c1.8778,1.13647,3.88333,2.39235,4.74822,4.51488.33473.82145,1.68655.46211,1.34694-.37133Z" style="fill: #c69370"/>
        <path d="M184.2083,100.10923a8.20087,8.20087,0,0,1,6.03565,0q-.67249,3.725-1.34488,7.44988c-.2153,1.72239-2.216,1.92132-3.86959,1.72239-1.69613-.20393-2.37125-1.03557-2.19266-1.94838C183.32721,104.6163,183.71791,102.82605,184.2083,100.10923Z" style="fill: #1d5463"/>
        <polygon points="188.749 102.419 184.838 102.136 185.056 101.104 188.974 101.336 188.749 102.419" style="fill: #2b7b92"/>
        <g>
          <circle cx="184.42379" cy="104.57447" r="0.08446" style="fill: #2b7b92"/>
          <circle cx="184.981" cy="104.61649" r="0.08446" style="fill: #2b7b92"/>
          <circle cx="185.53821" cy="104.65893" r="0.08446" style="fill: #2b7b92"/>
          <circle cx="186.09541" cy="104.70096" r="0.08446" style="fill: #2b7b92"/>
          <circle cx="186.65262" cy="104.7434" r="0.08446" style="fill: #2b7b92"/>
          <circle cx="187.20982" cy="104.78542" r="0.08446" style="fill: #2b7b92"/>
          <circle cx="187.76703" cy="104.82786" r="0.08446" style="fill: #2b7b92"/>
          <circle cx="188.32424" cy="104.85387" r="0.08446" style="fill: #2b7b92"/>
        </g>
        <g>
          <circle cx="184.22965" cy="105.2926" r="0.08446" style="fill: #2b7b92"/>
          <circle cx="184.78686" cy="105.33462" r="0.08446" style="fill: #2b7b92"/>
          <circle cx="185.34407" cy="105.37706" r="0.08446" style="fill: #2b7b92"/>
          <circle cx="185.90127" cy="105.41909" r="0.08446" style="fill: #2b7b92"/>
          <circle cx="186.45848" cy="105.46153" r="0.08446" style="fill: #2b7b92"/>
          <circle cx="187.01568" cy="105.50355" r="0.08446" style="fill: #2b7b92"/>
          <circle cx="187.57289" cy="105.54599" r="0.08446" style="fill: #2b7b92"/>
          <circle cx="188.1301" cy="105.572" r="0.08446" style="fill: #2b7b92"/>
        </g>
        <g>
          <circle cx="185.14993" cy="106.1212" r="0.08446" style="fill: #2b7b92"/>
          <circle cx="185.70713" cy="106.16323" r="0.08446" style="fill: #2b7b92"/>
          <circle cx="186.26434" cy="106.20567" r="0.08446" style="fill: #2b7b92"/>
          <circle cx="186.82154" cy="106.24769" r="0.08446" style="fill: #2b7b92"/>
        </g>
        <path d="M190.78761,105.572l-1.88854,1.98711,1.34484-7.44983s1.10669.42288,1.02946.99446C191.18452,101.7613,190.78761,105.572,190.78761,105.572Z" style="fill: #346573"/>
      </g>
      <g>
        <path d="M196.66158,104.94108s2.33114-1.2012,2.37559-4.79751" style="fill: none;stroke: #d6f0f7;stroke-linecap: round;stroke-miterlimit: 10;stroke-width: 0.3398389222943515px"/>
        <path d="M199.00378,99.40574a2.72671,2.72671,0,0,0-.2165-.81633" style="fill: none;stroke: #d6f0f7;stroke-linecap: round;stroke-miterlimit: 10;stroke-width: 0.3398389222943515px"/>
      </g>
      <g>
        <path d="M153.28471,117.03763a3.09792,3.09792,0,0,0-1.67633-2.63844" style="fill: none;stroke: #f1fafc;stroke-linecap: round;stroke-miterlimit: 10;stroke-width: 0.2265592815295676px"/>
        <path d="M151.22987,114.19251a1.59261,1.59261,0,0,0-.47315-.139" style="fill: none;stroke: #f1fafc;stroke-linecap: round;stroke-miterlimit: 10;stroke-width: 0.2265592815295676px"/>
      </g>
      <g>
        <g style="isolation: isolate">
          <polygon points="138.19 114.228 141.809 112.601 134.997 111.81 131.5 113.391 138.19 114.228" style="fill: #f2c1a8"/>
        </g>
        <path d="M136.08112,115.56315c2.06907,1.91453,4.77065,1.92612,7.43035,1.70033,1.09742-.09317,1.10731-1.81812,0-1.72412-2.13789.1815-4.51728.37207-6.21122-1.19534-.81348-.75272-2.03565.4636-1.21913,1.21913Z" style="fill: #eb9b73"/>
        <g style="isolation: isolate">
          <polygon points="135.977 113.319 133.016 113.319 133.016 120.145 135.977 120.145 140.211 120.145 140.211 113.319 135.977 113.319" style="fill: #d90b0b"/>
          <rect x="133.01586" y="113.3186" width="2.96157" height="6.82676" style="fill: #e03c3c"/>
          <rect x="135.97743" y="113.3186" width="4.23359" height="6.82676" style="fill: #d90b0b"/>
          <polygon points="133.016 113.319 137.249 113.319 140.211 113.319 135.977 113.319 133.016 113.319" style="fill: #7e120f"/>
        </g>
        <g style="isolation: isolate">
          <polygon points="139.077 120.039 133.016 120.039 133.016 123.018 139.077 123.018 143.756 123.018 143.756 120.039 139.077 120.039" style="fill: #2b7b92"/>
          <rect x="133.01586" y="120.03913" width="6.06151" height="2.97866" style="fill: #5595a8"/>
          <rect x="139.07737" y="120.03913" width="4.67873" height="2.97866" style="fill: #2b7b92"/>
          <polygon points="133.1 120.039 136.844 120.039 143.756 120.039 139.077 120.039 133.1 120.039" style="fill: #2f535d"/>
        </g>
        <line x1="141.41674" y1="120.14536" x2="141.41674" y2="122.88947" style="fill: none;stroke: #5595a8;stroke-miterlimit: 10;stroke-width: 0.6110660153156828px"/>
        <path d="M142.3278,122.27282a6.17572,6.17572,0,0,1,.63027.42783c.29222.258.27095.35437.29452.76431.03975.69118.0439,1.38141.02583,2.07336a.86258.86258,0,0,0,1.72411,0,11.58963,11.58963,0,0,0-.137-3.107c-.21467-.82156-1.01458-1.204-1.66753-1.6472-.92045-.6248-1.78406.8684-.8702,1.48872Z" style="fill: #eb9b73"/>
        <path d="M139.64868,122.25086c.5323.46694.3547.95507.24737,1.59619l-.31664,1.89147c-.18169,1.08534,1.47946,1.55193,1.66253.45834.17446-1.04217.41561-2.09559.51685-3.14747a2.21661,2.21661,0,0,0-.891-2.01766c-.83106-.729-2.05519.48571-1.21913,1.21913Z" style="fill: #f0b496"/>
        <rect x="143.27665" y="125.15183" width="2.7968" height="1.4695" style="fill: #905f2d"/>
        <rect x="144.95473" y="125.15183" width="1.11872" height="1.4695" style="fill: #a87536"/>
        <rect x="140.08553" y="125.23252" width="1.4695" height="2.7968" transform="translate(-12.51609 237.77811) rotate(-77.89988)" style="fill: #905f2d"/>
        <rect x="140.90593" y="126.24744" width="1.4695" height="1.11872" transform="translate(-12.03963 238.71929) rotate(-77.89988)" style="fill: #a87536"/>
        <g>
          <g style="isolation: isolate">
            <g>
              <polygon points="129.643 107.186 131.434 113.386 135.106 111.822 133.848 105.196 129.643 107.186" style="fill: #eda885"/>
              <polygon points="141.015 105.208 133.818 104.986 135.076 111.612 141.983 111.829 142 110.401 141.015 105.208" style="fill: #eda885"/>
            </g>
            <polygon points="131.434 113.386 135.106 111.822 133.848 105.196 129.643 107.186 131.434 113.386" style="fill: #f0b496"/>
            <path d="M131.50966,113.5215a20.7252,20.7252,0,0,1,2.87583-5.55079l-.16664-3.24123s-4.21966,1.28065-4.542,2.16419C129.07183,108.54607,131.50966,113.5215,131.50966,113.5215Z" style="fill: #8c6b53"/>
            <polygon points="141.015 105.208 133.818 104.986 135.076 111.612 141.983 111.829 142 110.401 141.015 105.208" style="fill: #eda885"/>
          </g>
          <g style="opacity: 0.8">
            <path d="M140.69052,107.9834s-.481-.87012-1.36469-.02637" style="fill: none;stroke: #8a6239;stroke-linecap: round;stroke-linejoin: round;stroke-width: 0.4344348754913606px"/>
          </g>
          <g style="opacity: 0.8">
            <path d="M137.25149,107.9165s-.48065-.86962-1.36389-.02636" style="fill: none;stroke: #8a6239;stroke-linecap: round;stroke-linejoin: round;stroke-width: 0.4344348754913606px"/>
          </g>
          <path d="M138.922,105.14424s.38455,1.43426-4.53654,2.82647c0,0-1.661-1.90381-.56726-2.985C134.91136,103.90073,138.922,105.14424,138.922,105.14424Z" style="fill: #805a40"/>
          <g style="opacity: 0.5">
            <path d="M137.93759,104.8833a3.44,3.44,0,0,1-1.68531,1.78174,4.96267,4.96267,0,0,1-2.41528.50781,8.92518,8.92518,0,0,0,2.29468-.74267,5.04355,5.04355,0,0,0,.99463-.65479A4.10256,4.10256,0,0,0,137.93759,104.8833Z" style="fill: #603813"/>
          </g>
          <g style="opacity: 0.5">
            <path d="M130.4526,110.37891a3.43724,3.43724,0,0,1,.7738-2.32715,4.9468,4.9468,0,0,1,1.97394-1.48145,8.90935,8.90935,0,0,0-1.76532,1.64307,5.04836,5.04836,0,0,0-.62463,1.01367A4.1111,4.1111,0,0,0,130.4526,110.37891Z" style="fill: #603813"/>
          </g>
          <g style="opacity: 0.5">
            <path d="M136.206,104.60449a2.239,2.239,0,0,1-1.10529,1.26367,3.07,3.07,0,0,1-.81482.27,2.82561,2.82561,0,0,1-.84588.01368,6.05283,6.05283,0,0,0,1.53741-.51709,3.3971,3.3971,0,0,0,.66217-.44141A3.43819,3.43819,0,0,0,136.206,104.60449Z" style="fill: #603813"/>
          </g>
          <path d="M141.31816,106.80739s-2.65952-.31155-3.42179-1.683c-.34711-.62488,2.45807-.64123,3.11815.08389A1.5903,1.5903,0,0,1,141.31816,106.80739Z" style="fill: #805a40"/>
          <g style="opacity: 0.5">
            <path d="M141.3876,105.94873a3.95669,3.95669,0,0,1-1.683-.20557,5.0793,5.0793,0,0,1-.7785-.35107,3.618,3.618,0,0,1-.68677-.50293c.52832.21045,1.02246.44287,1.54969.60352.25634.10009.5227.16845.78778.24609C140.843,105.811,141.11086,105.8877,141.3876,105.94873Z" style="fill: #603813"/>
          </g>
          <polygon points="136.511 109.473 137.233 108.889 139.638 108.95 141.154 109.948 140.307 109.981 139.561 109.389 137.697 109.38 136.753 110.075 136.511 109.473" style="fill: #805a40"/>
          <circle cx="138.63179" cy="110.01322" r="0.32521" style="fill: #8a6239;opacity: 0.8"/>
          <path d="M142.00029,110.40129l-2.06256-1.10445-.51833,1.39633-1.28185-.05768-1.33953-1.40185-1.88264,1.57159.49615,2.71627a10.0349,10.0349,0,0,0,3.66822.23865,6.5808,6.5808,0,0,0,2.88747-.65536Z" style="fill: #805a40"/>
          <path d="M131.50966,113.5215c.54743.36038.53408.17591,1.69066.13157.88575-.034,1.77894.24968,2.21121-.13157-.17783-.9993-.31829-1.71695-.49612-2.71626a3.17583,3.17583,0,0,1-2.21385-.09049A3.78874,3.78874,0,0,0,131.50966,113.5215Z" style="fill: #997b66"/>
          <g style="opacity: 0.5">
            <path d="M135.68417,111.20264a2.99585,2.99585,0,0,0,.61474.73974,3.95762,3.95762,0,0,0,.76587.56787,5.45242,5.45242,0,0,0,1.816.64161,3.17011,3.17011,0,0,1-1.95013-.41456,3.3124,3.3124,0,0,1-.77814-.65527A1.96116,1.96116,0,0,1,135.68417,111.20264Z" style="fill: #603813"/>
          </g>
          <g style="opacity: 0.5">
            <path d="M140.08834,112.84814a2.38529,2.38529,0,0,0,.567-.34277,2.35067,2.35067,0,0,0,.45233-.47412,3.42636,3.42636,0,0,0,.60761-1.17334,1.91834,1.91834,0,0,1-.1377.67188,2.56012,2.56012,0,0,1-.32794.61425,2.51327,2.51327,0,0,1-.52393.459A1.24294,1.24294,0,0,1,140.08834,112.84814Z" style="fill: #603813"/>
          </g>
          <g style="opacity: 0.5">
            <path d="M138.36477,112.625a2.48687,2.48687,0,0,0,1.01935-.81641,3.43052,3.43052,0,0,0,.6076-1.17334,1.92189,1.92189,0,0,1-.13769.67188,2.55533,2.55533,0,0,1-.328.61377,2.51457,2.51457,0,0,1-.52393.45947A1.23774,1.23774,0,0,1,138.36477,112.625Z" style="fill: #603813"/>
          </g>
          <g style="opacity: 0.5">
            <path d="M136.74508,110.21582a2.37644,2.37644,0,0,0,.35162.561,2.34948,2.34948,0,0,0,.48151.44482,3.41911,3.41911,0,0,0,1.18286.58838,1.9138,1.9138,0,0,1-.67389-.12647,2.55131,2.55131,0,0,1-.6192-.31836,2.4943,2.4943,0,0,1-.46771-.51611A1.23889,1.23889,0,0,1,136.74508,110.21582Z" style="fill: #603813"/>
          </g>
          <g style="opacity: 0.5">
            <path d="M132.41683,111.38574a2.48538,2.48538,0,0,0,1.10688.69385,3.424,3.424,0,0,0,1.3078.1875,1.92482,1.92482,0,0,1-.67957.09131,2.5663,2.5663,0,0,1-.6878-.10791,2.52033,2.52033,0,0,1-.60621-.34326A1.24071,1.24071,0,0,1,132.41683,111.38574Z" style="fill: #603813"/>
          </g>
        </g>
        <g>
          <g>
            <path d="M139.86808,117.06243h4.21018a2.10509,2.10509,0,1,0-4.21018,0Z" style="fill: #d5e5e9"/>
            <path d="M144.077,117.06243v.00156a2.037,2.037,0,0,0-2.02355-2.10509A2.78207,2.78207,0,0,1,144.077,117.06243Z" style="fill: #6ba3b3;opacity: 0.5"/>
            <path d="M144.0686,117.06243a2.0964,2.0964,0,0,0-2.03375-2.10353h9.6856a1.74537,1.74537,0,0,1,1.74537,1.74537v12.61994H145.814a1.74537,1.74537,0,0,1-1.74537-1.74537Z" style="fill: #eff9fc"/>
            <g>
              <path d="M147.047,116.81075h3.5061a.35544.35544,0,0,0,.35243-.30931l.00616-.04706a.35544.35544,0,0,0-.35715-.40154l-3.51239.04659a.35544.35544,0,0,0-.33726.45231l.00014.00048A.35543.35543,0,0,0,147.047,116.81075Z" style="fill: #84d3e8"/>
              <path d="M145.7006,119.96405h4.99692a.17851.17851,0,0,0,.17381-.1378l.01284-.05479a.17852.17852,0,0,0-.17574-.21922l-5.00962.0542a.17852.17852,0,0,0-.17186.13772l-.00014.00059A.17851.17851,0,0,0,145.7006,119.96405Z" style="fill: #ade2ef"/>
              <path d="M151.69161,119.96405h.54494a.1817.1817,0,0,0,.17691-.14026l.00843-.036a.18171.18171,0,0,0-.18824-.2228l-.553.03453a.18171.18171,0,0,0-.16557.13984l-.00034.00146A.1817.1817,0,0,0,151.69161,119.96405Z" style="fill: #ade2ef"/>
              <path d="M145.6418,120.86862h4.50392a.17965.17965,0,0,0,.17854-.19959l-.00593-.05308a.17965.17965,0,0,0-.18066-.15969l-4.498.05307a.17966.17966,0,0,0-.16275.251h0A.17966.17966,0,0,0,145.6418,120.86862Z" style="fill: #ade2ef"/>
              <path d="M145.43308,122.69573H150.43a.17851.17851,0,0,0,.17381-.1378l.01284-.05479a.17851.17851,0,0,0-.17575-.21922l-5.00961.0542a.17851.17851,0,0,0-.17187.13772l-.00014.00059A.17852.17852,0,0,0,145.43308,122.69573Z" style="fill: #ade2ef"/>
              <path d="M151.68759,122.69573h.55148a.17853.17853,0,0,0,.17382-.1378l.01-.04262a.17852.17852,0,0,0-.18493-.21889l-.55967.035a.1785.1785,0,0,0-.16267.13738l-.0018.00768A.17851.17851,0,0,0,151.68759,122.69573Z" style="fill: #ade2ef"/>
              <path d="M145.59259,123.6003h5.0469a.17853.17853,0,0,0,.17741-.19834l-.00621-.05554a.1785.1785,0,0,0-.17931-.15868l-5.04152.0536a.17852.17852,0,0,0-.16193.24943l.00084.00193A.17851.17851,0,0,0,145.59259,123.6003Z" style="fill: #ade2ef"/>
              <path d="M145.7006,124.449h2.61416a.17852.17852,0,0,0,.17382-.13779l.01237-.05282a.17852.17852,0,0,0-.17728-.2192l-2.62611.051a.17852.17852,0,0,0-.17033.1377l-.00042.00179A.17851.17851,0,0,0,145.7006,124.449Z" style="fill: #ade2ef"/>
              <path d="M145.7006,126.05333h4.99692a.17851.17851,0,0,0,.17381-.1378l.01284-.05479a.17852.17852,0,0,0-.17574-.21923l-5.00962.0542a.17852.17852,0,0,0-.17186.13773l-.00014.00059A.17852.17852,0,0,0,145.7006,126.05333Z" style="fill: #ade2ef"/>
              <path d="M151.68759,126.05333h.55148a.17853.17853,0,0,0,.17382-.1378l.01-.04263a.17851.17851,0,0,0-.18493-.21888l-.55967.03494a.17852.17852,0,0,0-.16267.13739l-.0018.00768A.17852.17852,0,0,0,151.68759,126.05333Z" style="fill: #ade2ef"/>
              <path d="M145.59259,126.95789h5.0469a.17852.17852,0,0,0,.17741-.19833l-.00621-.05554a.17851.17851,0,0,0-.17931-.15869l-5.04152.05361a.17851.17851,0,0,0-.16193.24942l.00084.00193A.17851.17851,0,0,0,145.59259,126.95789Z" style="fill: #ade2ef"/>
              <path d="M145.82631,127.80658h2.61416a.17851.17851,0,0,0,.17381-.1378l.01238-.05282a.17852.17852,0,0,0-.17728-.2192l-2.62612.051a.1785.1785,0,0,0-.17032.1377l-.00043.00179A.17852.17852,0,0,0,145.82631,127.80658Z" style="fill: #ade2ef"/>
              <line x1="152.48527" y1="118.11569" x2="145.2766" y2="118.28826" style="fill: none;stroke: #ade2ef;stroke-linecap: round;stroke-miterlimit: 10;stroke-width: 0.03365233124193789px"/>
            </g>
          </g>
          <g>
            <path d="M147.79553,127.24775a2.10056,2.10056,0,0,1-1.51178,2.07646H151.996l.00967-2.07646a2.10509,2.10509,0,0,0-4.21018,0Z" style="fill: #d5e5e9"/>
            <path d="M152.00571,127.88664v-.63889a2.03662,2.03662,0,0,0-2.02467-2.10354A2.87682,2.87682,0,0,1,152.00571,127.88664Z" style="fill: #6ba3b3;opacity: 0.5"/>
            <path d="M151.996,127.24774a2.0964,2.0964,0,0,0-2.03374-2.10353h9.6856a1.74538,1.74538,0,0,1,1.74537,1.74538V137.6898h-7.65186a1.74537,1.74537,0,0,1-1.74537-1.74537Z" style="fill: #eff9fc"/>
            <path d="M153.91537,127.038h3.86986a.17852.17852,0,0,0,.17381-.1378l.01268-.05416a.17852.17852,0,0,0-.17623-.21922l-3.88255.05269a.17853.17853,0,0,0-.17609.1785v.00148A.17852.17852,0,0,0,153.91537,127.038Z" style="fill: #9fdded"/>
            <path d="M159.9491,127.038h.55148a.17851.17851,0,0,0,.17381-.1378l.01-.04262a.17852.17852,0,0,0-.18494-.21889l-.55966.035a.1785.1785,0,0,0-.16267.13738l-.00181.00768A.17852.17852,0,0,0,159.9491,127.038Z" style="fill: #9fdded"/>
            <path d="M153.8541,127.94252H158.901a.17852.17852,0,0,0,.17741-.19834l-.0062-.05554a.1785.1785,0,0,0-.17931-.15868l-5.04153.0536a.17852.17852,0,0,0-.16192.24943l.00083.00193A.17852.17852,0,0,0,153.8541,127.94252Z" style="fill: #9fdded"/>
            <path d="M153.96211,128.7912h2.61416a.1785.1785,0,0,0,.17381-.13779l.01237-.05282a.17851.17851,0,0,0-.17727-.2192l-2.62612.051a.17853.17853,0,0,0-.17033.1377l-.00042.00179A.17852.17852,0,0,0,153.96211,128.7912Z" style="fill: #9fdded"/>
            <path d="M153.96211,130.53613H158.959a.1785.1785,0,0,0,.17381-.13779l.01284-.0548a.17852.17852,0,0,0-.17575-.21922l-5.00961.0542a.17852.17852,0,0,0-.17187.13772l-.00014.00059A.17852.17852,0,0,0,153.96211,130.53613Z" style="fill: #9fdded"/>
            <path d="M159.95312,130.53613h.54493a.1817.1817,0,0,0,.17692-.14026l.00843-.036a.18171.18171,0,0,0-.18824-.2228l-.553.03453a.18172.18172,0,0,0-.16558.13984l-.00034.00146A.1817.1817,0,0,0,159.95312,130.53613Z" style="fill: #9fdded"/>
            <path d="M154.10439,131.4407h3.62371a.17851.17851,0,0,0,.17741-.19833l-.00613-.05494a.17852.17852,0,0,0-.18-.15868l-3.61885.052a.17852.17852,0,0,0-.16126.24941l.00127.00293A.17852.17852,0,0,0,154.10439,131.4407Z" style="fill: #9fdded"/>
            <path d="M154.364,132.28939h2.61416a.17851.17851,0,0,0,.17381-.1378l.01238-.05282a.17852.17852,0,0,0-.17728-.2192l-2.62612.051a.17851.17851,0,0,0-.17032.1377l-.00042.0018A.17851.17851,0,0,0,154.364,132.28939Z" style="fill: #9fdded"/>
            <path d="M153.96211,134.08143H158.959a.17851.17851,0,0,0,.17381-.1378l.01284-.05479a.17851.17851,0,0,0-.17575-.21922l-5.00961.0542a.17851.17851,0,0,0-.17187.13772l-.00014.00059A.17852.17852,0,0,0,153.96211,134.08143Z" style="fill: #9fdded"/>
            <polygon points="159.724 134.081 160.642 134.081 160.739 133.667 159.807 133.725 159.724 134.081" style="fill: #a0a2d7"/>
            <path d="M153.8541,134.986H158.901a.17852.17852,0,0,0,.17741-.19834l-.0062-.05554a.17852.17852,0,0,0-.17931-.15869l-5.04153.05361a.17851.17851,0,0,0-.16192.24942l.00083.00194A.17852.17852,0,0,0,153.8541,134.986Z" style="fill: #9fdded"/>
            <polygon points="156.12 135.835 159.101 135.835 159.198 135.42 156.203 135.479 156.12 135.835" style="fill: #a0a2d7"/>
          </g>
          <g>
            <path d="M155.64118,135.60426a2.10056,2.10056,0,0,1-1.51178,2.07647h5.7123l.00966-2.07647a2.10509,2.10509,0,1,0-4.21018,0Z" style="fill: #d5e5e9"/>
            <path d="M159.84571,136.24315v-.63889a2.04869,2.04869,0,0,0-2.03775-2.10509C159.78909,133.90344,159.85668,136.26238,159.84571,136.24315Z" style="fill: #6ba3b3;opacity: 0.5"/>
            <path d="M159.8417,135.52975a2.0964,2.0964,0,0,0-2.03375-2.10353h9.6856a1.74537,1.74537,0,0,1,1.74537,1.74537V145.39h-7.65185a1.74537,1.74537,0,0,1-1.74537-1.74537Z" style="fill: #eff9fc"/>
            <path d="M161.55848,135.41965h3.86985a.17851.17851,0,0,0,.17381-.1378l.01269-.05416a.17851.17851,0,0,0-.17623-.21922l-3.88255.05269a.17851.17851,0,0,0-.17609.1785v.00147A.17852.17852,0,0,0,161.55848,135.41965Z" style="fill: #9fdded"/>
            <path d="M167.59507,135.41965h.55148a.17852.17852,0,0,0,.17381-.1378l.01-.04262a.17851.17851,0,0,0-.18493-.21889l-.55967.03494a.17852.17852,0,0,0-.16267.13739l-.0018.00768A.17852.17852,0,0,0,167.59507,135.41965Z" style="fill: #9fdded"/>
            <path d="M161.50007,136.32421H166.547a.17851.17851,0,0,0,.17741-.19833l-.0062-.05554a.17853.17853,0,0,0-.17931-.15869l-5.04153.05361a.17852.17852,0,0,0-.16193.24942l.00084.00194A.17853.17853,0,0,0,161.50007,136.32421Z" style="fill: #9fdded"/>
            <path d="M161.61966,137.1729H164.232a.17942.17942,0,0,0,.17469-.1385l.012-.051a.17942.17942,0,0,0-.17818-.22031l-2.62425.051a.17943.17943,0,0,0-.17119.1384h0A.17942.17942,0,0,0,161.61966,137.1729Z" style="fill: #9fdded"/>
            <path d="M161.60808,138.91783H166.605a.17852.17852,0,0,0,.17381-.1378l.01283-.05479a.1785.1785,0,0,0-.17574-.21922l-5.00962.0542a.17851.17851,0,0,0-.17186.13772l-.00014.00059A.17852.17852,0,0,0,161.60808,138.91783Z" style="fill: #9fdded"/>
            <path d="M167.59507,138.91783h.55148a.17852.17852,0,0,0,.17381-.1378l.01-.04262a.17851.17851,0,0,0-.18493-.21889l-.55967.035a.1785.1785,0,0,0-.16267.13738l-.0018.00768A.17852.17852,0,0,0,167.59507,138.91783Z" style="fill: #9fdded"/>
            <path d="M161.65422,139.8224h3.62371a.17852.17852,0,0,0,.17741-.19834l-.00613-.05493a.17852.17852,0,0,0-.18-.15868l-3.61885.052a.17852.17852,0,0,0-.16126.24942l.00127.00293A.17852.17852,0,0,0,161.65422,139.8224Z" style="fill: #9fdded"/>
            <path d="M161.75352,140.67108h2.61416a.17852.17852,0,0,0,.17381-.1378l.01237-.05281a.17851.17851,0,0,0-.17728-.2192l-2.62611.051a.17853.17853,0,0,0-.17033.1377l-.00042.00179A.17852.17852,0,0,0,161.75352,140.67108Z" style="fill: #9fdded"/>
            <line x1="168.21059" y1="141.48803" x2="161.00193" y2="141.6606" style="fill: none;stroke: #ade2ef;stroke-linecap: round;stroke-miterlimit: 10;stroke-width: 0.03365233124193789px"/>
            <path d="M172.87937,143.37375h-9.35176c0,1.04539-.83594,2.09078-1.59827,2.09078H171.134a1.74537,1.74537,0,0,0,1.74537-1.74538Z" style="fill: #d5e5e9"/>
          </g>
          <line x1="159.19761" y1="141.11526" x2="159.19761" y2="138.42147" style="fill: none;stroke: #e4f5fa;stroke-linecap: round;stroke-miterlimit: 10;stroke-width: 0.1593893986603204px"/>
          <line x1="159.19761" y1="142.9207" x2="159.19761" y2="141.87212" style="fill: none;stroke: #e4f5fa;stroke-linecap: round;stroke-miterlimit: 10;stroke-width: 0.1593893986603204px"/>
          <g>
            <circle cx="162.29109" cy="143.01199" r="0.90662" style="fill: none;stroke: #76cee5;stroke-miterlimit: 10;stroke-width: 0.14085532066505557px"/>
            <polyline points="161.894 143.133 162.21 143.406 162.68 142.663" style="fill: none;stroke: #76cee5;stroke-linecap: round;stroke-miterlimit: 10;stroke-width: 0.21128298099758375px"/>
          </g>
          <g>
            <path d="M160.55261,146.29321a2.73051,2.73051,0,0,1-2.2315-1.616" style="fill: none;stroke: #bae6f2;stroke-linecap: round;stroke-miterlimit: 10;stroke-width: 0.1593893986603204px"/>
            <path d="M158.15954,144.33313a1.40311,1.40311,0,0,1-.097-.4237" style="fill: none;stroke: #bae6f2;stroke-linecap: round;stroke-miterlimit: 10;stroke-width: 0.1593893986603204px"/>
          </g>
        </g>
        <path d="M133.67071,114.9054c1.15192,3.87494,6.01469,3.96769,9.14791,2.5474,1.00907-.45741.13362-1.94375-.8702-1.48872-2.06.93381-5.82592,1.138-6.61518-1.517a.8628.8628,0,0,0-1.66253.45833Z" style="fill: #f0b496"/>
      </g>
    </g>
  </g>
</svg>
