<svg xmlns="http://www.w3.org/2000/svg" viewBox="0 0 296 32">
  <title>engine-desktop-home-bottom-cloud</title>
  <g id="desktop-services-top">
    <path d="M295.9976,31.97105H0s70.80939.44126,82.81214-2.12168S98.1348,26.26126,101.625,26.26126s7.49108,3.24639,9.449,3.24639,5.44806-6.32191,9.95973-6.32191,5.95881,1.70862,6.72494,1.70862.25538-14.60874,16.25905-14.60874,17.96156,12.90012,20.08971,12.90012S180.19616,5.07432,199.009,5.07432s29.79655,14.69831,33.42171,14.69831S243.10378,0,269.94323,0,295.9976,31.97105,295.9976,31.97105Z" style="fill: #bde8f2"/>
    <path d="M266.33669,31.98131H40.60723s88.51385.28491,96.26385-1.36994,9.89362-2.31679,12.14717-2.31679,4.83688,2.09614,6.10107,2.09614,3.51773-4.082,6.43085-4.082,3.84752,1.10323,4.3422,1.10323.1649-9.43265,10.49824-9.43265,11.59752,8.32942,12.97163,8.32942,10.38831-11.69428,22.53548-11.69428,19.2392,9.49048,21.57991,9.49048,6.89146-12.7669,24.22131-12.7669C280.84543,11.33806,266.33669,31.98131,266.33669,31.98131Z" style="fill: #e6f6fa"/>
  </g>
</svg>
