<svg xmlns="http://www.w3.org/2000/svg" viewBox="0 0 88 192">
  <title>engine-mobile-home-bottom-baloon</title>
  <g id="desktop-services-top">
    <g>
      <g>
        <g>
          <line x1="28.51107" y1="175.64827" x2="28.05114" y2="161.40803" style="fill: none;stroke: #c40c1a;stroke-miterlimit: 10;stroke-width: 0.379057780662844px"/>
          <rect x="26.87621" y="167.97245" width="2.68105" height="6.06929" rx="1.34052" ry="1.34052" transform="translate(-2.14117 0.3671) rotate(-0.71816)" style="fill: #e45454"/>
          <circle cx="28.31385" cy="173.6863" r="2.97303" style="fill: #e03c3c"/>
          <path d="M31.28665,173.64905c-.02057-1.64183-5.96617-1.56733-5.94559.0745a2.973,2.973,0,0,0,5.94559-.0745Z" style="fill: #d90b0b"/>
        </g>
        <g>
          <line x1="58.89994" y1="187.98893" x2="58.44" y2="163.33386" style="fill: none;stroke: #c40c1a;stroke-miterlimit: 10;stroke-width: 0.379057780662844px"/>
          <rect x="57.26507" y="180.31312" width="2.68105" height="6.06929" rx="1.34052" ry="1.34052" transform="translate(-2.29332 0.74891) rotate(-0.71812)" style="fill: #e45454"/>
          <circle cx="58.70272" cy="186.02696" r="2.97303" style="fill: #e03c3c"/>
          <path d="M61.67552,185.98971c-.02058-1.64183-5.96617-1.56732-5.9456.07451a2.973,2.973,0,0,0,5.9456-.07451Z" style="fill: #d90b0b"/>
        </g>
        <g>
          <line x1="40.41645" y1="29.68566" x2="44.3279" y2="91.79527" style="fill: none;stroke: #9b0c1a;stroke-miterlimit: 10;stroke-width: 0.44455393852242003px"/>
          <line x1="71.01229" y1="31.40454" x2="50.54995" y2="90.57297" style="fill: none;stroke: #bf0f20;stroke-miterlimit: 10;stroke-width: 0.44455393852242003px"/>
          <line x1="38.80575" y1="90.57297" x2="18.57497" y2="31.40454" style="fill: none;stroke: #bf0f20;stroke-miterlimit: 10;stroke-width: 0.44455393852242003px"/>
          <circle cx="44.89432" cy="29.68252" r="26.68249" style="fill: #d90b0b"/>
          <circle cx="44.89432" cy="29.68252" r="26.68249" style="fill: #dd2323"/>
          <path d="M18.21183,29.68252c5.38992,2.62883,13.95021,7.69144,26.68249.029,8.059,3.42781,12.28281,7.00253,26.68249-.029a26.68249,26.68249,0,0,1-53.365,0Z" style="fill: #d90b0b"/>
          <path d="M67.20482,44.32347a26.68923,26.68923,0,0,1-44.67639-.0846C35.00207,47.57127,50.25946,48.25744,67.20482,44.32347Z" style="fill: #9b0c1a;opacity: 0.1"/>
          <path d="M22.712,14.84848a26.68869,26.68869,0,0,1,44.30786-.0844C63.38978,18.11662,32.621,18.52609,22.712,14.84848Z" style="fill: #e03c3c"/>
          <path d="M31.48724,6.608a26.71919,26.71919,0,0,1,26.12547-.38754c-2.22125,1.19157-6.81,1.67121-12.97455,1.77152C38.42766,8.093,33.74505,7.73423,31.48724,6.608Z" style="fill: #9b0c1a;opacity: 0.1"/>
          <path d="M71.57684,29.68252C69.813,30.86177,65.05408,34.91187,58.336,34.94c-6.83816.02855-11.68482-4.05415-13.44167-5.22852-1.812,1.1818-6.58592,5.13017-13.2874,5.145-6.76562.01486-11.58627-3.99436-13.39514-5.174" style="fill: none;stroke: #9b0c1a;stroke-miterlimit: 10;stroke-width: 0.5419299947221089px;opacity: 0.2"/>
          <path d="M71.57684,29.68254a23.99382,23.99382,0,0,1-26.68253,0,24.41515,24.41515,0,0,1-26.68254,0" style="fill: none;stroke: #bf0f20;stroke-miterlimit: 10;stroke-width: 0.5419299947221089px"/>
          <path d="M67.07608,14.84887c-4.71076,1.882-12.79192,2.817-23.06519,2.6653-9.35407-.13824-16.75164-.84822-21.29836-2.6653" style="fill: none;stroke: #c40c1a;stroke-linecap: round;stroke-miterlimit: 10;stroke-width: 0.5419299947221089px"/>
          <path d="M57.61271,6.23217A46.8399,46.8399,0,0,1,44.01089,8.09476c-4.8254-.07132-8.88151-.37276-12.4488-1.53014" style="fill: none;stroke: #c40c1a;stroke-linecap: round;stroke-miterlimit: 10;stroke-width: 0.5419299947221089px"/>
          <path d="M67.18277,44.34551c-4.71076,1.882-12.89861,2.71035-23.17188,2.55861-9.35407-.13824-16.99443-.84821-21.54115-2.6653" style="fill: none;stroke: #c40c1a;stroke-linecap: round;stroke-miterlimit: 10;stroke-width: 0.5419299947221089px"/>
          <line x1="44.89432" y1="29.68252" x2="44.98179" y2="91.79213" style="fill: none;stroke: #bf0f20;stroke-miterlimit: 10;stroke-width: 0.44455393852242003px"/>
          <circle cx="71.57681" cy="29.68252" r="1.20135" style="fill: #ca2431;stroke: #c40c1a;stroke-miterlimit: 10;stroke-width: 0.7225733262961428px"/>
          <circle cx="18.21177" cy="29.75675" r="1.20135" style="fill: #ca2431;stroke: #c40c1a;stroke-miterlimit: 10;stroke-width: 0.7225733262961428px"/>
          <line x1="44.82626" y1="29.75675" x2="38.80575" y2="90.57297" style="fill: none;stroke: #bf0f20;stroke-linecap: round;stroke-miterlimit: 10;stroke-width: 0.44455393852242003px"/>
          <line x1="44.93806" y1="29.7115" x2="50.54995" y2="90.57297" style="fill: none;stroke: #bf0f20;stroke-linecap: round;stroke-miterlimit: 10;stroke-width: 0.44455393852242003px"/>
          <circle cx="44.89432" cy="29.68252" r="1.51434" style="fill: #ca2431;stroke: #c40c1a;stroke-miterlimit: 10;stroke-width: 0.7225733262961428px"/>
          <path d="M44.89431,3c-1.20527.80714-13.924,9.65172-14.31025,25.91848-.40879,17.21941,13.38,26.82272,14.31025,27.44649" style="fill: none;stroke: #c40c1a;stroke-linecap: round;stroke-miterlimit: 10;stroke-width: 0.5419299947221089px;opacity: 0.7000000000000001"/>
          <path d="M45.01213,3c1.257.86081,13.74924,9.74077,14.13065,25.91848C59.54659,46.04375,46.01,55.68079,45.01213,56.365" style="fill: none;stroke: #c40c1a;stroke-linecap: round;stroke-miterlimit: 10;stroke-width: 0.5419299947221089px;opacity: 0.7000000000000001"/>
        </g>
        <g>
          <polygon points="52.598 159.24 52.598 86.168 40.893 74.619 37.738 71.455 37.738 159.24 52.598 159.24" style="fill: #2b7b92"/>
          <path d="M50.62578,158.68773V83.93355L35.42534,69.21524c-.25763,1.28818,0,89.47249,0,89.47249H22.66382l20.30449,22.86492L62.5256,158.68773Z" style="fill: #41889d"/>
          <path d="M38.26338,161.14826s-.15016-77.99766,0-78.74849l8.85982,8.57879v70.1697H55.911L43.02556,175.96382,29.77177,161.14826Z" style="fill: #6ba3b3"/>
          <path d="M35.42534,69.21524c-.03148.15742-.07278,5.25335-.07278,5.25335L50.62578,88.38774V83.93355Z" style="fill: #fbb03b"/>
          <polygon points="52.939 86.168 52.939 90.371 50.626 88.388 50.626 83.934 52.939 86.168" style="fill: #f79c1e"/>
        </g>
        <g>
          <circle cx="42.52692" cy="156.2465" r="3.68209" style="opacity: 0.1"/>
          <circle cx="41.56248" cy="156.2465" r="3.68209" style="fill: #ade2ef"/>
          <circle cx="41.56248" cy="156.2465" r="2.8776" style="fill: #eff9fc"/>
          <rect x="39.50885" y="154.39075" width="3.6653" height="3.51095" rx="1.75547" ry="1.75547" style="fill: #2b7b92"/>
          <rect x="40.14997" y="154.39075" width="3.6653" height="3.51095" rx="1.75547" ry="1.75547" style="fill: #2b7b92;opacity: 0.6000000000000001"/>
          <rect x="38.70495" y="154.39075" width="3.6653" height="3.51095" rx="1.75547" ry="1.75547" style="fill: #1d5463;opacity: 0.6000000000000001"/>
          <circle cx="38.91172" cy="156.2465" r="2.85094" style="fill: #fcc062"/>
          <path d="M40.92764,158.26242a2.85093,2.85093,0,0,0,0-4.03183c-1.11336-1.11336-5.1452,2.91847-4.03184,4.03183A2.85094,2.85094,0,0,0,40.92764,158.26242Z" style="fill: #f7a71e;fill-rule: evenodd"/>
        </g>
        <g>
          <circle cx="42.52692" cy="95.76329" r="3.68209" style="opacity: 0.1"/>
          <circle cx="41.56248" cy="95.76329" r="3.68209" style="fill: #ade2ef"/>
          <circle cx="41.56248" cy="95.76329" r="2.8776" style="fill: #eff9fc"/>
          <rect x="39.50885" y="93.90754" width="3.6653" height="3.51095" rx="1.75547" ry="1.75547" style="fill: #2b7b92"/>
          <rect x="40.14997" y="93.90754" width="3.6653" height="3.51095" rx="1.75547" ry="1.75547" style="fill: #2b7b92;opacity: 0.6000000000000001"/>
          <rect x="38.70495" y="93.90754" width="3.6653" height="3.51095" rx="1.75547" ry="1.75547" style="fill: #1d5463;opacity: 0.6000000000000001"/>
          <circle cx="38.91172" cy="95.76329" r="2.85094" style="fill: #fcc062"/>
          <path d="M40.92764,97.77921a2.85093,2.85093,0,0,0,0-4.03183c-1.11336-1.11336-5.1452,2.91847-4.03184,4.03183A2.85094,2.85094,0,0,0,40.92764,97.77921Z" style="fill: #f7a71e;fill-rule: evenodd"/>
        </g>
        <g>
          <path d="M63.97021,124.07763l-2.26757-.61286a8.55807,8.55807,0,0,0-.98056-2.45141l1.10314-2.02242a.3775.3775,0,0,0-.06129-.429l-1.716-1.716a.30281.30281,0,0,0-.429-.06129l-2.02242,1.10314A10.92983,10.92983,0,0,0,55.1451,116.846l-.67414-2.20628a.28038.28038,0,0,0-.30642-.24514H51.71312a.41379.41379,0,0,0-.36771.24514l-.61286,2.20628a10.93,10.93,0,0,0-2.45141,1.04185l-2.02242-1.10314a.30281.30281,0,0,0-.429.06129l-1.716,1.716a.30281.30281,0,0,0-.06129.429l1.10314,2.02242a10.93,10.93,0,0,0-1.04185,2.45141l-2.20628.61286a.41379.41379,0,0,0-.24514.36771v2.45142a.28038.28038,0,0,0,.24514.30642l2.20628.67414a10.92983,10.92983,0,0,0,1.04185,2.45142l-1.10314,2.02242a.30281.30281,0,0,0,.06129.429l1.716,1.716a.3775.3775,0,0,0,.429.06129l2.02242-1.10314a8.55807,8.55807,0,0,0,2.45141.98056l.61286,2.26757a.41379.41379,0,0,0,.36771.24514h2.45142a.28038.28038,0,0,0,.30642-.24514l.67414-2.26757a8.558,8.558,0,0,0,2.45142-.98056l2.02242,1.10314a.3775.3775,0,0,0,.429-.06129l1.716-1.716a.3775.3775,0,0,0,.06129-.429l-1.10314-2.02242a8.558,8.558,0,0,0,.98056-2.45142l2.26757-.67414a.28038.28038,0,0,0,.24514-.30642v-2.45142A.41379.41379,0,0,0,63.97021,124.07763Zm-11.03138,8.35243a6.759,6.759,0,1,1,6.759-6.759A6.78369,6.78369,0,0,1,52.93883,132.43006Z" style="fill: #f79c1e"/>
          <path d="M62.97509,124.07763l-2.26756-.61286a8.55838,8.55838,0,0,0-.98057-2.45141l1.10314-2.02242a.3775.3775,0,0,0-.06129-.429l-1.716-1.716a.30281.30281,0,0,0-.429-.06129L56.6014,117.8878A10.93,10.93,0,0,0,54.15,116.846l-.67414-2.20628a.28039.28039,0,0,0-.30643-.24514H50.718a.41379.41379,0,0,0-.36771.24514l-.61286,2.20628A10.93,10.93,0,0,0,47.286,117.8878l-2.02242-1.10314a.30281.30281,0,0,0-.429.06129l-1.716,1.716a.30281.30281,0,0,0-.06129.429l1.10314,2.02242a10.93,10.93,0,0,0-1.04185,2.45141l-2.20628.61286a.41379.41379,0,0,0-.24514.36771v2.45142a.28038.28038,0,0,0,.24514.30642l2.20628.67414a10.92983,10.92983,0,0,0,1.04185,2.45142l-1.10314,2.02242a.30281.30281,0,0,0,.06129.429l1.716,1.716a.3775.3775,0,0,0,.429.06129L47.286,133.4543a8.55807,8.55807,0,0,0,2.45141.98056l.61286,2.26757a.41379.41379,0,0,0,.36771.24514h2.45142a.28039.28039,0,0,0,.30643-.24514l.67414-2.26757a8.55807,8.55807,0,0,0,2.45141-.98056l2.02242,1.10314a.3775.3775,0,0,0,.429-.06129l1.716-1.716a.3775.3775,0,0,0,.06129-.429L59.727,130.32874a8.55832,8.55832,0,0,0,.98057-2.45142l2.26756-.67414a.28038.28038,0,0,0,.24514-.30642v-2.45142A.41379.41379,0,0,0,62.97509,124.07763Zm-11.03138,8.35243a6.759,6.759,0,1,1,6.759-6.759A6.78369,6.78369,0,0,1,51.94371,132.43006Z" style="fill: #f9b04b"/>
        </g>
        <g>
          <circle cx="42.51582" cy="124.55288" r="13.84648" style="fill: #fdd79d"/>
          <path d="M59.61732,121.02724a17.97564,17.97564,0,0,0-1.76806-4.85974l-5.6357-6.19616A18.80184,18.80184,0,0,0,47.7934,107.906l-1.21554-4.37377a.52229.52229,0,0,0-.55252-.486H41.60519a.75031.75031,0,0,0-.663.486l-1.105,4.37377a20.80021,20.80021,0,0,0-4.42015,2.63771l-5.6357,5.62384a22.87225,22.87225,0,0,0-1.87856,4.85974L35.417,140.14755c1.32605.85045,2.8731,2.26255,4.42015,2.627l1.105,4.49526a.75032.75032,0,0,0,.663.486h4.42015a.5223.5223,0,0,0,.55252-.486l1.21554-4.49526a14.65952,14.65952,0,0,0,4.42016-1.94389l5.6357-6.19617a17.9754,17.9754,0,0,0,1.76806-4.85974Zm-15.80206,17.773c-6.69625,0-12.18718-6.037-12.18718-13.3992s5.49093-13.3992,12.18718-13.3992,12.18719,6.037,12.18719,13.3992S50.51152,138.80021,43.81526,138.80021Z" style="opacity: 0.1"/>
          <path d="M64.57119,122.467l-4.17529-1.12846a15.75855,15.75855,0,0,0-1.80553-4.51382l2.03122-3.72391a.69507.69507,0,0,0-.11284-.78992l-3.15968-3.15967a.55756.55756,0,0,0-.78992-.11285l-3.7239,2.03122a20.12576,20.12576,0,0,0-4.51383-1.91837l-1.2413-4.06244a.51628.51628,0,0,0-.56423-.45138H42.00207a.76192.76192,0,0,0-.67707.45138l-1.12846,4.06244a20.12568,20.12568,0,0,0-4.51382,1.91837l-3.7239-2.03122a.55755.55755,0,0,0-.78992.11285l-3.15968,3.15967a.55756.55756,0,0,0-.11285.78992l2.03122,3.72391a20.126,20.126,0,0,0-1.91837,4.51382L23.94678,122.467a.76192.76192,0,0,0-.45138.67707v4.51382a.51628.51628,0,0,0,.45138.56423l4.06244,1.2413a20.126,20.126,0,0,0,1.91837,4.51382l-2.03122,3.72391a.55756.55756,0,0,0,.11285.78992l3.15968,3.15967a.695.695,0,0,0,.78992.11285l3.7239-2.03122a15.75866,15.75866,0,0,0,4.51382,1.80553l1.12846,4.17528a.76192.76192,0,0,0,.67707.45139h4.51382a.51628.51628,0,0,0,.56423-.45139l1.2413-4.17528a15.75872,15.75872,0,0,0,4.51383-1.80553l3.7239,2.03122a.695.695,0,0,0,.78992-.11285l3.15968-3.15967a.69507.69507,0,0,0,.11284-.78992l-2.03122-3.72391a15.75855,15.75855,0,0,0,1.80553-4.51382l4.17529-1.2413a.51628.51628,0,0,0,.45138-.56423V123.1441A.76192.76192,0,0,0,64.57119,122.467ZM44.259,137.84646A12.44545,12.44545,0,1,1,56.70443,125.401,12.49089,12.49089,0,0,1,44.259,137.84646Z" style="fill: #f7a71e"/>
          <path d="M63.337,122.467l-4.17528-1.12846a15.75855,15.75855,0,0,0-1.80553-4.51382l2.03122-3.72391a.69509.69509,0,0,0-.11285-.78992l-3.15967-3.15967a.55756.55756,0,0,0-.78992-.11285L51.601,111.06962a20.12549,20.12549,0,0,0-4.51382-1.91837l-1.2413-4.06244a.51628.51628,0,0,0-.56423-.45138H40.76786a.762.762,0,0,0-.67708.45138l-1.12845,4.06244a20.12549,20.12549,0,0,0-4.51382,1.91837L30.7246,109.0384a.55756.55756,0,0,0-.78992.11285L26.775,112.31092a.55755.55755,0,0,0-.11285.78992l2.03122,3.72391a20.12549,20.12549,0,0,0-1.91837,4.51382L22.71257,122.467a.76192.76192,0,0,0-.45139.67707v4.51382a.51628.51628,0,0,0,.45139.56423l4.06244,1.2413a20.12549,20.12549,0,0,0,1.91837,4.51382l-2.03122,3.72391a.55755.55755,0,0,0,.11285.78992l3.15967,3.15967a.695.695,0,0,0,.78992.11285l3.72391-2.03122a15.75855,15.75855,0,0,0,4.51382,1.80553l1.12845,4.17528a.76194.76194,0,0,0,.67708.45139h4.51382a.51628.51628,0,0,0,.56423-.45139l1.2413-4.17528A15.75855,15.75855,0,0,0,51.601,139.7324l3.72391,2.03122a.695.695,0,0,0,.78992-.11285l3.15967-3.15967a.69509.69509,0,0,0,.11285-.78992l-2.03122-3.72391a15.75855,15.75855,0,0,0,1.80553-4.51382l4.17528-1.2413a.51628.51628,0,0,0,.45138-.56423V123.1441A.76192.76192,0,0,0,63.337,122.467Zm-20.3122,15.37943A12.44545,12.44545,0,1,1,55.47021,125.401,12.49089,12.49089,0,0,1,43.02477,137.84646Z" style="fill: #fbb03b"/>
          <g>
            <path d="M30.96152,121.3041a6.91679,6.91679,0,0,0-5.51649.73165c-3.05269,1.686-3.94182,3.52646-3.64795,3.855s2.76722.14107,4.46647,2.80112S30.96152,121.3041,30.96152,121.3041Z" style="fill: #d90b0b"/>
            <path d="M30.96152,121.3041s-6.39722,4.72767-4.698,7.38772S30.96152,121.3041,30.96152,121.3041Z" style="opacity: 0.1"/>
            <path d="M40.58851,116.27516a6.26166,6.26166,0,0,0-4.85321-1.35086c-3.14083.31915-4.5351,1.5357-4.40712,1.91363s2.254,1.10068,2.72368,3.9193S40.58851,116.27516,40.58851,116.27516Z" style="fill: #d90b0b"/>
            <path d="M39.90916,115.54722s-6.99821,1.69742-6.51482,4.51373S39.90916,115.54722,39.90916,115.54722Z" style="opacity: 0.1"/>
            <path d="M47.42835,114.26348a3.89174,3.89174,0,0,0-2.46109-1.93556c-1.87812-.568-2.9689-.20355-2.98586.04386a3.89987,3.89987,0,0,1,.62522,2.89973C42.202,117.0008,47.42835,114.26348,47.42835,114.26348Z" style="fill: #d90b0b"/>
            <path d="M53.81675,115.22154a3.41915,3.41915,0,0,0-1.39546-2.37058c-1.35545-1.06512-2.3646-1.11546-2.45756-.91841a3.42621,3.42621,0,0,1-.41511,2.57288C48.66483,115.79131,53.81675,115.22154,53.81675,115.22154Z" style="fill: #d90b0b"/>
            <path d="M47.31632,113.97556s-4.41714-.72125-4.82173,1.008S47.31632,113.97556,47.31632,113.97556Z" style="opacity: 0.1"/>
            <path d="M54.41331,114.91778s-3.91708-2.16514-4.87982-.67274S54.41331,114.91778,54.41331,114.91778Z" style="opacity: 0.1"/>
            <path d="M36.79331,136.29224a6.91681,6.91681,0,0,1-4.5603,3.18915c-3.38939.82061-5.28863.065-5.294-.37567s1.94416-1.97424,1.39872-5.08323S36.79331,136.29224,36.79331,136.29224Z" style="fill: #d90b0b"/>
            <path d="M36.79331,136.29224s-7.91019.83924-8.45563-2.26975S36.79331,136.29224,36.79331,136.29224Z" style="opacity: 0.1"/>
            <path d="M61.21481,118.0816c-.33671-.86535-9.88675-7.05778-21.4729-2.54969S24.53581,131.08,24.96605,132.18576s10.25,7.13785,22.46114,2.38658S61.55151,118.947,61.21481,118.0816Z" style="fill: #e03c3c"/>
            <path d="M61.21481,118.0816,24.96605,132.18576c.43023,1.10573,10.25,7.13785,22.46114,2.38658S61.55151,118.947,61.21481,118.0816Z" style="fill: #dd2323"/>
            <path d="M61.21481,118.0816s-4.088,7.84556-15.6741,12.35365-20.57466,1.75051-20.57466,1.75051c.43023,1.10573,10.25,7.13785,22.46114,2.38658S61.55151,118.947,61.21481,118.0816Z" style="fill: #d90b0b"/>
            <path d="M61.17912,118.09549c.86536-.33671-9.42944-7.23572-21.47289-2.54969-11.58614,4.50809-15.2061,15.54811-14.77587,16.65384,0,0,4.46994-7.71741,16.68106-12.46867S60.90683,118.20144,61.17912,118.09549Z" style="fill: #e45454"/>
            <path d="M31.72984,120.55627a17.69713,17.69713,0,0,1,5.42634,6.997c1.65356,4.24979.864,7.32542.82568,8.819" style="fill: none;stroke: #c40c1a;stroke-miterlimit: 10;stroke-width: 0.11285289601276792px;opacity: 0.4"/>
            <path d="M47.99987,113.95967s4.07381,3.11514,5.65337,7.17474a23.04534,23.04534,0,0,1,1.37013,8.75645" style="fill: none;stroke: #c40c1a;stroke-miterlimit: 10;stroke-width: 0.11285289601276792px;opacity: 0.4"/>
            <g>
              <ellipse cx="28.35435" cy="130.9247" rx="5.60388" ry="0.6688" transform="translate(-45.54506 19.19232) rotate(-21.26069)" style="fill: #d90b0b"/>
              <path d="M33.57683,128.89267c.15068.38725-3.72831,2.44283-8.137,3.74269C25.4398,132.63536,31.50084,130.10741,33.57683,128.89267Z" style="opacity: 0.1"/>
            </g>
          </g>
        </g>
        <polygon points="42.968 181.553 45.454 181.553 64.792 158.933 62.074 158.688 42.968 181.553" style="fill: #2b7b92"/>
      </g>
      <g>
        <line x1="74.67481" y1="126.1649" x2="74.67481" y2="167.99296" style="fill: none;stroke: #d6f0f7;stroke-linecap: round;stroke-miterlimit: 10;stroke-width: 0.4778407224645233px"/>
        <line x1="74.67481" y1="169.72072" x2="74.67481" y2="176.31112" style="fill: none;stroke: #d6f0f7;stroke-linecap: round;stroke-miterlimit: 10;stroke-width: 0.4778407224645233px"/>
        <line x1="74.67481" y1="179.83367" x2="74.67481" y2="183.12887" style="fill: none;stroke: #d6f0f7;stroke-linecap: round;stroke-miterlimit: 10;stroke-width: 0.4778407224645233px"/>
      </g>
      <g>
        <line x1="70.88151" y1="119.39744" x2="70.88151" y2="151.77649" style="fill: none;stroke: #d6f0f7;stroke-linecap: round;stroke-miterlimit: 10;stroke-width: 0.4778407224645233px"/>
        <line x1="70.88151" y1="161.27314" x2="70.88151" y2="167.56468" style="fill: none;stroke: #d6f0f7;stroke-linecap: round;stroke-miterlimit: 10;stroke-width: 0.4778407224645233px"/>
        <line x1="70.88151" y1="171.59127" x2="70.88151" y2="173.47873" style="fill: none;stroke: #d6f0f7;stroke-linecap: round;stroke-miterlimit: 10;stroke-width: 0.4778407224645233px"/>
      </g>
      <g>
        <line x1="21.74408" y1="55.48853" x2="21.74408" y2="97.3166" style="fill: none;stroke: #d6f0f7;stroke-linecap: round;stroke-miterlimit: 10;stroke-width: 0.4778407224645233px"/>
        <line x1="21.74408" y1="99.04436" x2="21.74408" y2="105.63476" style="fill: none;stroke: #d6f0f7;stroke-linecap: round;stroke-miterlimit: 10;stroke-width: 0.4778407224645233px"/>
        <line x1="21.74408" y1="109.15731" x2="21.74408" y2="112.45251" style="fill: none;stroke: #d6f0f7;stroke-linecap: round;stroke-miterlimit: 10;stroke-width: 0.4778407224645233px"/>
      </g>
      <g>
        <path d="M7.32519,48.72108A5.32841,5.32841,0,0,1,12.638,43.40829h0a5.32841,5.32841,0,0,1,5.31279,5.31279v32.379" style="fill: none;stroke: #d6f0f7;stroke-linecap: round;stroke-miterlimit: 10;stroke-width: 0.4778407224645233px"/>
        <line x1="17.95078" y1="90.59678" x2="17.95078" y2="96.88832" style="fill: none;stroke: #d6f0f7;stroke-linecap: round;stroke-miterlimit: 10;stroke-width: 0.4778407224645233px"/>
        <line x1="17.95078" y1="100.9149" x2="17.95078" y2="102.80237" style="fill: none;stroke: #d6f0f7;stroke-linecap: round;stroke-miterlimit: 10;stroke-width: 0.4778407224645233px"/>
      </g>
    </g>
  </g>
</svg>
