<svg xmlns="http://www.w3.org/2000/svg" xmlns:xlink="http://www.w3.org/1999/xlink" viewBox="0 0 320 434.18613">
  <defs>
    <clipPath id="clip-path">
      <path d="M319.99945,59.67928a107.87664,107.87664,0,0,1-17.00319-24.39281A52.10452,52.10452,0,0,1,281.27366,40,52.44513,52.44513,0,0,1,232.88292,7.68625a106.76185,106.76185,0,0,1-39.06936,19.32623,63.747,63.747,0,0,1-43.26721,16.86394A64.03149,64.03149,0,0,1,94.74246,11.21923a52.31019,52.31019,0,0,1-14.43157,2.01836A52.19287,52.19287,0,0,1,62.60522,10.1602,64.04284,64.04284,0,0,1,6.35769,43.61342q-3.21876,0-6.35769-.31486v274.631a127.64126,127.64126,0,0,1,73.938,63.48338,62.14286,62.14286,0,0,1,83.157,32.73486,126.62358,126.62358,0,0,1,46.33768-22.92162A75.6062,75.6062,0,0,1,254.74911,371.225c28.38459,0,52.197,15.60828,65.25089,38.7326Z" style="fill: none"/>
    </clipPath>
    <linearGradient id="Dégradé_sans_nom_3" data-name="Dégradé sans nom 3" y1="217.09306" x2="320" y2="217.09306" gradientUnits="userSpaceOnUse">
      <stop offset="0" stop-color="#ade2ef"/>
      <stop offset="1" stop-color="#ade2ef"/>
    </linearGradient>
    <clipPath id="clip-path-2">
      <path d="M132.99236,197.86943a2.94919,2.94919,0,0,1-2.44015,2.47405,62.1647,62.1647,0,0,1-19.61433.008,2.9529,2.9529,0,0,1-2.45454-2.53549,116.457,116.457,0,0,1,.01495-30.86321,2.953,2.953,0,0,1,2.36189-2.49775,50.75456,50.75456,0,0,1,19.769.00985,2.965,2.965,0,0,1,2.35062,2.46437,102.09028,102.09028,0,0,1,.01258,30.94017Z" style="fill: none;clip-rule: evenodd"/>
    </clipPath>
  </defs>
  <title>engine-mobile-home-top</title>
  <g id="mobile-home-top">
    <g style="clip-path: url(#clip-path)">
      <g>
        <rect width="320" height="434.18613" style="fill: url(#Dégradé_sans_nom_3)"/>
        <path d="M180.382,5.55377a28.19792,28.19792,0,0,0,56.07222,4.48286Z" style="fill: #ceeef5"/>
        <path d="M3.65266,17.549a28.19792,28.19792,0,0,0,56.07222,4.48286Z" style="fill: #ceeef5"/>
        <path d="M165.636,23.899a20.0611,20.0611,0,0,0,38.6314-10.44774Z" style="fill: #ceeef5"/>
        <path d="M281.185,25.71694a20.57046,20.57046,0,0,0,37.33435,17.03079Z" style="fill: #ceeef5"/>
        <polygon points="304.031 360.841 320 352.859 320 412.882 305.831 412.882 304.031 360.841" style="fill: #c6ebf4"/>
        <g style="opacity: 0.15">
          <polygon points="89.2 330.275 66.483 322.428 60.626 324.38 72.972 335.403 89.2 330.275" style="fill: #65c7de"/>
          <polygon points="89.998 430.069 160.236 430.069 89.2 330.275 72.972 335.403 89.998 430.069" style="fill: #65c7de"/>
        </g>
        <g>
          <polygon points="82.529 430.069 67.666 430.085 53.36 323.259 65.706 334.282 82.529 430.069" style="fill: #eff9fc"/>
          <polygon points="80.726 330.077 59.217 321.307 53.36 323.259 65.706 334.282 80.726 330.077" style="fill: #e6f6fa"/>
          <polygon points="82.529 430.069 135.797 430.069 80.726 330.077 65.706 334.282 82.529 430.069" style="fill: #d6f0f7"/>
        </g>
        <path d="M40.50574,91.2558H240.04463s-75.506.24291-82.11705-1.168-8.43967-1.97525-10.362-1.97525-4.12606,1.78713-5.20446,1.78713-3.00078-3.4802-5.48579-3.4802-3.28209.94059-3.70408.94059-.14066-8.04209-8.95542-8.04209-9.89317,7.1015-11.06535,7.1015-8.86165-9.97031-19.22369-9.97031-16.41184,8.0914-18.40857,8.0914S69.63948,73.65578,54.8564,73.65578,40.50574,91.2558,40.50574,91.2558Z" style="fill: #bde8f2"/>
        <path d="M35.697,91.26181H155.606s-47.01915.15127-51.136-.72732-5.25556-1.23-6.45266-1.23-2.56938,1.11288-3.24092,1.11288-1.86865-2.16719-3.41612-2.16719a5.13171,5.13171,0,0,0-2.3066.58572c-.26278,0-.0876-5.008-5.57673-5.008s-6.16069,4.42225-6.89062,4.42225-5.51834-6.20872-11.971-6.20872-10.22,5.03868-11.46339,5.03868-3.66079-6.77819-12.86652-6.77819C27.98988,80.30192,35.697,91.26181,35.697,91.26181Z" style="fill: #e6f6fa"/>
        <g style="opacity: 0.1">
          <path d="M185.87277,434.18438a56.76486,56.76486,0,0,0-72.30612-46.44865,24.7811,24.7811,0,1,0-34.0582,27.96551,56.68882,56.68882,0,0,0-6.00933,18.48314Z" style="fill: #ade2ef"/>
        </g>
        <path d="M185.87277,434.18438a56.76486,56.76486,0,0,0-72.30612-46.44865,24.7811,24.7811,0,1,0-34.0582,27.96551,56.68882,56.68882,0,0,0-6.00933,18.48314Z" style="fill: #eff9fc"/>
        <path d="M320,433.18613H0V319.28755c32.73747,10.20594,59.80855,30.3167,75.30336,60.4a62.148,62.148,0,0,1,81.7916,33.339,126.62342,126.62342,0,0,1,46.33768-22.92162,75.60621,75.60621,0,0,1,51.31647-20.00124c28.38459,0,52.197,15.60829,65.25089,38.73261Z" style="fill: #2b7b92;opacity: 0.1"/>
        <g style="opacity: 0.1">
          <path d="M0,0V82.00293a55.15257,55.15257,0,0,0,24.4027-29.5241,18.17582,18.17582,0,0,0,1.89436-29.46405A54.8701,54.8701,0,0,0,15.41489-.06942Z" style="fill: #ade2ef"/>
          <path d="M22.84782.00028A47.91054,47.91054,0,0,0,69.39353,36.78137,47.91046,47.91046,0,0,0,115.93922.00015Z" style="fill: #ade2ef"/>
        </g>
        <g>
          <path d="M0,0V80.58489a55.1526,55.1526,0,0,0,24.4027-29.5241,18.17582,18.17582,0,0,0,1.89436-29.464A46.03607,46.03607,0,0,0,15.33547-.00588Z" style="fill: #eff9fc"/>
          <path d="M23.20737,0A47.9067,47.9067,0,0,0,69.42966,35.505,48.02548,48.02548,0,0,0,115.61569,0Z" style="fill: #eff9fc"/>
          <path d="M208.61906,0A47.91924,47.91924,0,0,0,255.993,41.1297a47.73168,47.73168,0,0,0,13.5906-1.96677,20.894,20.894,0,1,0,28.716-23.579A47.79691,47.79691,0,0,0,303.3663,0Z" style="fill: #eff9fc"/>
        </g>
        <path d="M320,59.11582c-7.207-7.495-13.34515-12.03638-18.15493-21.37461a52.12423,52.12423,0,0,1-20.57141,4.20415A52.44513,52.44513,0,0,1,232.88292,9.63161a106.76185,106.76185,0,0,1-39.06936,19.32623,63.747,63.747,0,0,1-43.26721,16.86394A64.0315,64.0315,0,0,1,94.74246,13.1646,52.31019,52.31019,0,0,1,80.31089,15.183a52.19311,52.19311,0,0,1-17.70567-3.07738C51.72209,32.04019,32.61461,43.55878,8.35769,43.55878c-2.14587,0-6.2664-.107-8.35769-.31487V0H320Z" style="fill: #2b7b92;opacity: 0.1"/>
        <g>
          <g>
            <g>
              <polygon points="320 418.764 279.944 370.597 59.667 434.119 320 434.186 320 418.764" style="fill: #e6f6fa"/>
              <polygon points="270.09 335.381 262.414 318.379 105.371 281.677 0 410.056 0 434.186 87.993 434.329 270.09 335.381" style="fill: #e6f6fa"/>
              <polygon points="278.094 353.109 279.223 415.906 245.051 434.186 124.711 434.183 278.094 353.109" style="fill: #c6ebf4"/>
              <polygon points="278.094 353.109 270.09 335.381 87.993 434.329 124.711 434.183 278.094 353.109" style="fill: #ceeef5"/>
              <g>
                <polygon points="143.426 384.701 239.028 336.117 208.379 263.549 143.426 384.701" style="fill: #bde8f2"/>
                <polygon points="143.105 385.208 57.525 366.907 77.92 311.942 83.657 296.482 88.909 282.326 93.418 264.597 208.379 263.543 143.105 385.208" style="fill: #c6ebf4"/>
                <polygon points="143.426 384.701 103.254 388.182 57.846 366.4 78.241 311.435 83.978 295.975 89.23 281.819 92.096 264.22 184.214 263.294 143.426 384.701" style="fill: #ceeef5"/>
                <polygon points="103.254 388.182 57.846 366.4 78.241 311.435 90.261 264.237 108.85 264.024 103.254 388.182" style="fill: #daf2f8"/>
              </g>
              <polygon points="90.261 264.237 85.82 281.677 163.215 270.858 208.239 263.55 90.261 264.237" style="fill: #65c7de;opacity: 0.2"/>
            </g>
            <g>
              <g>
                <g>
                  <g style="opacity: 0.7000000000000001">
                    <path d="M117.18843,134.14825a3.582,3.582,0,0,0-2.20721-2.86212" style="fill: none;stroke: #f1fafc;stroke-linecap: round;stroke-miterlimit: 10;stroke-width: 0.209092288557244px"/>
                    <path d="M114.52368,131.08788a1.84094,1.84094,0,0,0-.5594-.11041" style="fill: none;stroke: #f1fafc;stroke-linecap: round;stroke-miterlimit: 10;stroke-width: 0.209092288557244px"/>
                  </g>
                  <g style="opacity: 0.7000000000000001">
                    <path d="M135.5411,121.78534a2.23634,2.23634,0,0,0-1.32423,1.82714" style="fill: none;stroke: #f1fafc;stroke-linecap: round;stroke-miterlimit: 10;stroke-width: 0.191800068066841px"/>
                    <path d="M134.17893,123.92149a1.14978,1.14978,0,0,0,.03266.35449" style="fill: none;stroke: #f1fafc;stroke-linecap: round;stroke-miterlimit: 10;stroke-width: 0.191800068066841px"/>
                  </g>
                  <g style="opacity: 0.7000000000000001">
                    <path d="M123.243,120.46586a1.98384,1.98384,0,0,0,1.05968,1.69828" style="fill: none;stroke: #f1fafc;stroke-linecap: round;stroke-miterlimit: 10;stroke-width: 0.170144285777412px"/>
                    <path d="M124.544,122.29847a1.01957,1.01957,0,0,0,.30225.09148" style="fill: none;stroke: #f1fafc;stroke-linecap: round;stroke-miterlimit: 10;stroke-width: 0.170144285777412px"/>
                  </g>
                  <g style="opacity: 0.7000000000000001">
                    <path d="M138.9274,129.94892a3.6195,3.6195,0,0,1,2.336-2.80742" style="fill: none;stroke: #f1fafc;stroke-linecap: round;stroke-miterlimit: 10;stroke-width: 0.211281764675319px"/>
                    <path d="M141.73287,126.95846a1.86017,1.86017,0,0,1,.569-.09053" style="fill: none;stroke: #f1fafc;stroke-linecap: round;stroke-miterlimit: 10;stroke-width: 0.211281764675319px"/>
                  </g>
                  <g>
                    <g>
                      <path d="M130.5797,136.3684l-7.56939-.815a20.63188,20.63188,0,0,1,.35612-4.87293,19.90453,19.90453,0,0,1,1.18553-4.425c2.357-.14967,4.58438-.326,6.94137-.47572a17.34508,17.34508,0,0,0-1.24261,5.27858A17.66486,17.66486,0,0,0,130.5797,136.3684Z" style="fill: #2b7b92;opacity: 0.05"/>
                      <path d="M130.36438,136.04881l-7.15862-.68865a19.328,19.328,0,0,1,1.42822-9.02163l6.70548-.4258a16.73927,16.73927,0,0,0-.97508,10.13608Z" style="fill: #eff9fc"/>
                      <path d="M130.36438,136.04881l-4.01922-.38664s2.75911-9.6075,4.9943-9.74944a16.73927,16.73927,0,0,0-.97508,10.13608Z" style="fill: #def3f9"/>
                      <line x1="125.06946" y1="127.38538" x2="129.75346" y2="127.28223" style="fill: none;stroke: #c6ebf4;stroke-linecap: round;stroke-miterlimit: 10;stroke-width: 0.175218835152675px"/>
                      <line x1="124.8872" y1="128.28252" x2="129.57119" y2="128.17937" style="fill: none;stroke: #c6ebf4;stroke-linecap: round;stroke-miterlimit: 10;stroke-width: 0.175218835152675px"/>
                      <line x1="124.68524" y1="129.20434" x2="129.36923" y2="129.10119" style="fill: none;stroke: #c6ebf4;stroke-linecap: round;stroke-miterlimit: 10;stroke-width: 0.175218835152675px"/>
                      <line x1="124.44483" y1="130.25454" x2="129.12883" y2="130.15139" style="fill: none;stroke: #c6ebf4;stroke-linecap: round;stroke-miterlimit: 10;stroke-width: 0.175218835152675px"/>
                      <line x1="124.2426" y1="131.40024" x2="128.94396" y2="131.40207" style="fill: none;stroke: #c6ebf4;stroke-linecap: round;stroke-miterlimit: 10;stroke-width: 0.175218835152675px"/>
                      <line x1="124.13734" y1="132.56664" x2="128.74875" y2="132.75264" style="fill: none;stroke: #c6ebf4;stroke-linecap: round;stroke-miterlimit: 10;stroke-width: 0.175218835152675px"/>
                      <line x1="124.07427" y1="133.8425" x2="128.73161" y2="134.10859" style="fill: none;stroke: #c6ebf4;stroke-linecap: round;stroke-miterlimit: 10;stroke-width: 0.175218835152675px"/>
                    </g>
                    <g>
                      <path d="M132.02608,136.44709l-6.74005,3.54a20.63163,20.63163,0,0,1-2.41893-4.24511,19.9045,19.9045,0,0,1-1.48058-4.33516c1.874-1.43735,3.62545-2.82469,5.49943-4.262a17.34534,17.34534,0,0,0,1.90874,5.07585A17.66476,17.66476,0,0,0,132.02608,136.44709Z" style="fill: #2b7b92;opacity: 0.05"/>
                      <path d="M131.66923,136.30164l-6.32852,3.41613a19.32826,19.32826,0,0,1-3.83983-8.28767q2.66571-2.04462,5.33136-4.08918a16.73925,16.73925,0,0,0,4.837,8.96072Z" style="fill: #eff9fc"/>
                      <path d="M131.66923,136.30164l-3.55316,1.918s-3.061-9.51562-1.28383-10.87871a16.73925,16.73925,0,0,0,4.837,8.96072Z" style="fill: #def3f9"/>
                      <line x1="122.44572" y1="132.05686" x2="126.27808" y2="129.36178" style="fill: none;stroke: #c6ebf4;stroke-linecap: round;stroke-miterlimit: 10;stroke-width: 0.175218835152675px"/>
                      <line x1="122.79415" y1="132.90342" x2="126.62651" y2="130.20834" style="fill: none;stroke: #c6ebf4;stroke-linecap: round;stroke-miterlimit: 10;stroke-width: 0.175218835152675px"/>
                      <line x1="123.13997" y1="133.78146" x2="126.97233" y2="131.08638" style="fill: none;stroke: #c6ebf4;stroke-linecap: round;stroke-miterlimit: 10;stroke-width: 0.175218835152675px"/>
                      <line x1="123.52539" y1="134.78752" x2="127.35775" y2="132.09244" style="fill: none;stroke: #c6ebf4;stroke-linecap: round;stroke-miterlimit: 10;stroke-width: 0.175218835152675px"/>
                      <line x1="123.99571" y1="135.85164" x2="127.90097" y2="133.23406" style="fill: none;stroke: #c6ebf4;stroke-linecap: round;stroke-miterlimit: 10;stroke-width: 0.175218835152675px"/>
                      <line x1="124.55809" y1="136.87891" x2="128.49125" y2="134.46439" style="fill: none;stroke: #c6ebf4;stroke-linecap: round;stroke-miterlimit: 10;stroke-width: 0.175218835152675px"/>
                      <line x1="125.21648" y1="137.97359" x2="129.2324" y2="135.59999" style="fill: none;stroke: #c6ebf4;stroke-linecap: round;stroke-miterlimit: 10;stroke-width: 0.175218835152675px"/>
                    </g>
                    <g>
                      <path d="M125.38884,124.20086l-3.12537,2.53225a10.90091,10.90091,0,0,1-1.693-1.94886,10.51645,10.51645,0,0,1-1.21614-2.0927c.822-.93881,1.58578-1.839,2.40781-2.77783a9.16461,9.16461,0,0,0,1.5147,2.43211A9.33327,9.33327,0,0,0,125.38884,124.20086Z" style="fill: #2b7b92;opacity: 0.05"/>
                      <path d="M125.18889,124.16246l-2.925,2.42544a10.21231,10.21231,0,0,1-2.84789-3.89615l2.33864-2.67085a8.8443,8.8443,0,0,0,3.43424,4.14156Z" style="fill: #eff9fc"/>
                      <path d="M125.18889,124.16246l-1.64224,1.36177s-2.57155-4.613-1.792-5.50333a8.8443,8.8443,0,0,0,3.43424,4.14156Z" style="fill: #def3f9"/>
                      <line x1="119.97046" y1="122.91861" x2="121.67686" y2="121.12531" style="fill: none;stroke: #c6ebf4;stroke-linecap: round;stroke-miterlimit: 10;stroke-width: 0.092578247562931px"/>
                      <line x1="120.23867" y1="123.32113" x2="121.94507" y2="121.52783" style="fill: none;stroke: #c6ebf4;stroke-linecap: round;stroke-miterlimit: 10;stroke-width: 0.092578247562931px"/>
                      <line x1="120.50879" y1="123.74022" x2="122.21519" y2="121.94692" style="fill: none;stroke: #c6ebf4;stroke-linecap: round;stroke-miterlimit: 10;stroke-width: 0.092578247562931px"/>
                      <line x1="120.81269" y1="124.22155" x2="122.51909" y2="122.42825" style="fill: none;stroke: #c6ebf4;stroke-linecap: round;stroke-miterlimit: 10;stroke-width: 0.092578247562931px"/>
                      <line x1="121.16659" y1="124.72415" x2="122.91879" y2="122.96346" style="fill: none;stroke: #c6ebf4;stroke-linecap: round;stroke-miterlimit: 10;stroke-width: 0.092578247562931px"/>
                      <line x1="121.56436" y1="125.19814" x2="123.35206" y2="123.53976" style="fill: none;stroke: #c6ebf4;stroke-linecap: round;stroke-miterlimit: 10;stroke-width: 0.092578247562931px"/>
                      <line x1="122.01887" y1="125.6971" x2="123.85368" y2="124.05134" style="fill: none;stroke: #c6ebf4;stroke-linecap: round;stroke-miterlimit: 10;stroke-width: 0.092578247562931px"/>
                    </g>
                    <g>
                      <path d="M136.31761,138.37411,127.404,135.413a25.45415,25.45415,0,0,1,1.703-5.78237,24.55684,24.55684,0,0,1,2.586-5.02546c2.881.43557,5.61276.80507,8.49377,1.24064a21.39936,21.39936,0,0,0-2.87788,6.03979A21.7933,21.7933,0,0,0,136.31761,138.37411Z" style="fill: #2b7b92;opacity: 0.05"/>
                      <path d="M136.14152,137.9325l-8.4514-2.70134a23.84575,23.84575,0,0,1,4.08-10.5044q4.09821.61957,8.19631,1.23918a20.652,20.652,0,0,0-3.8249,11.96656Z" style="fill: #eff9fc"/>
                      <path d="M136.14152,137.9325l-4.74505-1.51667s5.83781-10.86295,8.57-10.44989a20.652,20.652,0,0,0-3.8249,11.96656Z" style="fill: #def3f9"/>
                      <line x1="132.02157" y1="126.1028" x2="137.69618" y2="127.20267" style="fill: none;stroke: #c6ebf4;stroke-linecap: round;stroke-miterlimit: 10;stroke-width: 0.21617378784388px"/>
                      <line x1="131.56733" y1="127.13687" x2="137.24194" y2="128.23673" style="fill: none;stroke: #c6ebf4;stroke-linecap: round;stroke-miterlimit: 10;stroke-width: 0.21617378784388px"/>
                      <line x1="131.08289" y1="128.19556" x2="136.7575" y2="129.29542" style="fill: none;stroke: #c6ebf4;stroke-linecap: round;stroke-miterlimit: 10;stroke-width: 0.21617378784388px"/>
                      <line x1="130.51854" y1="129.39898" x2="136.19315" y2="130.49885" style="fill: none;stroke: #c6ebf4;stroke-linecap: round;stroke-miterlimit: 10;stroke-width: 0.21617378784388px"/>
                      <line x1="129.97526" y1="130.72755" x2="135.64336" y2="131.95852" style="fill: none;stroke: #c6ebf4;stroke-linecap: round;stroke-miterlimit: 10;stroke-width: 0.21617378784388px"/>
                      <line x1="129.54349" y1="132.1064" x2="135.055" y2="133.53593" style="fill: none;stroke: #c6ebf4;stroke-linecap: round;stroke-miterlimit: 10;stroke-width: 0.21617378784388px"/>
                      <line x1="129.13397" y1="133.62826" x2="134.67994" y2="135.16635" style="fill: none;stroke: #c6ebf4;stroke-linecap: round;stroke-miterlimit: 10;stroke-width: 0.21617378784388px"/>
                    </g>
                    <g>
                      <path d="M131.884,128.25092l-6.24126-2.93372a18.68943,18.68943,0,0,1,1.74429-4.06771,18.03165,18.03165,0,0,1,2.32223-3.4391c2.0626.568,4.02211,1.07489,6.0847,1.64291a15.71244,15.71244,0,0,0-2.62324,4.15324A16.00177,16.00177,0,0,0,131.884,128.25092Z" style="fill: #2b7b92;opacity: 0.05"/>
                      <path d="M131.794,127.91365l-5.92682-2.70418a17.50836,17.50836,0,0,1,3.88778-7.30375l5.868,1.616a15.16326,15.16326,0,0,0-3.82892,8.39194Z" style="fill: #eff9fc"/>
                      <path d="M131.794,127.91365l-3.32762-1.51827s5.20053-7.41234,7.15654-6.87367a15.16326,15.16326,0,0,0-3.82892,8.39194Z" style="fill: #def3f9"/>
                      <line x1="129.81871" y1="118.93081" x2="133.86028" y2="120.226" style="fill: none;stroke: #c6ebf4;stroke-linecap: round;stroke-miterlimit: 10;stroke-width: 0.15872224166921px"/>
                      <line x1="129.39764" y1="119.64523" x2="133.43921" y2="120.94042" style="fill: none;stroke: #c6ebf4;stroke-linecap: round;stroke-miterlimit: 10;stroke-width: 0.15872224166921px"/>
                      <line x1="128.95242" y1="120.37497" x2="132.99399" y2="121.67017" style="fill: none;stroke: #c6ebf4;stroke-linecap: round;stroke-miterlimit: 10;stroke-width: 0.15872224166921px"/>
                      <line x1="128.43635" y1="121.20329" x2="132.47792" y2="122.49849" style="fill: none;stroke: #c6ebf4;stroke-linecap: round;stroke-miterlimit: 10;stroke-width: 0.15872224166921px"/>
                      <line x1="127.92476" y1="122.12468" x2="131.95019" y2="123.51489" style="fill: none;stroke: #c6ebf4;stroke-linecap: round;stroke-miterlimit: 10;stroke-width: 0.15872224166921px"/>
                      <line x1="127.4901" y1="123.09242" x2="131.3841" y2="124.61379" style="fill: none;stroke: #c6ebf4;stroke-linecap: round;stroke-miterlimit: 10;stroke-width: 0.15872224166921px"/>
                      <line x1="127.05923" y1="124.16637" x2="130.96892" y2="125.76987" style="fill: none;stroke: #c6ebf4;stroke-linecap: round;stroke-miterlimit: 10;stroke-width: 0.15872224166921px"/>
                    </g>
                    <g>
                      <path d="M119.63135,140.59218l7.60272-3.87523a26.53325,26.53325,0,0,0-2.0853-5.46582,24.46244,24.46244,0,0,0-2.79219-4.62872c-2.50928.74269-4.89289,1.40437-7.40218,2.14706a21.46235,21.46235,0,0,1,3.152,5.58828A23.22728,23.22728,0,0,1,119.63135,140.59218Z" style="fill: #2b7b92;opacity: 0.05"/>
                      <path d="M119.74335,140.14107l7.219-3.57046a25.019,25.019,0,0,0-1.86763-5.36471,23.6517,23.6517,0,0,0-2.79444-4.45618l-7.13876,2.11293a20.65221,20.65221,0,0,1,3.13561,5.36615A22.02655,22.02655,0,0,1,119.74335,140.14107Z" style="fill: #def3f9"/>
                      <path d="M119.74335,140.14107l4.05314-2.00464s-.70916-8.81-3.53544-10.78313l-5.0995,1.50935a20.65221,20.65221,0,0,1,3.13561,5.36615A22.02655,22.02655,0,0,1,119.74335,140.14107Z" style="fill: #eff9fc"/>
                      <line x1="122.21466" y1="128.12267" x2="117.29634" y2="129.82205" style="fill: none;stroke: #c6ebf4;stroke-linecap: round;stroke-miterlimit: 10;stroke-width: 0.202466100680124px"/>
                      <line x1="122.72021" y1="129.08367" x2="117.8019" y2="130.78305" style="fill: none;stroke: #c6ebf4;stroke-linecap: round;stroke-miterlimit: 10;stroke-width: 0.202466100680124px"/>
                      <line x1="123.25496" y1="130.06541" x2="118.33665" y2="131.76479" style="fill: none;stroke: #c6ebf4;stroke-linecap: round;stroke-miterlimit: 10;stroke-width: 0.202466100680124px"/>
                      <line x1="123.87495" y1="131.17987" x2="118.95664" y2="132.87925" style="fill: none;stroke: #c6ebf4;stroke-linecap: round;stroke-miterlimit: 10;stroke-width: 0.202466100680124px"/>
                      <line x1="124.48875" y1="132.41899" x2="119.58927" y2="134.24583" style="fill: none;stroke: #c6ebf4;stroke-linecap: round;stroke-miterlimit: 10;stroke-width: 0.202466100680124px"/>
                      <line x1="125.00876" y1="133.71953" x2="120.26782" y2="135.72327" style="fill: none;stroke: #c6ebf4;stroke-linecap: round;stroke-miterlimit: 10;stroke-width: 0.202466100680124px"/>
                      <line x1="125.5233" y1="135.16234" x2="120.76265" y2="137.276" style="fill: none;stroke: #c6ebf4;stroke-linecap: round;stroke-miterlimit: 10;stroke-width: 0.202466100680124px"/>
                    </g>
                  </g>
                  <g>
                    <rect x="121.11807" y="150.81624" width="11.65133" height="2.8284" style="fill: #d90b0b"/>
                    <rect x="121.11807" y="150.81624" width="3.26896" height="2.8284" style="fill: #e03c3c"/>
                    <rect x="122.35399" y="153.64464" width="9.17949" height="1.79428" style="fill: #c40c1a"/>
                    <rect x="122.35399" y="153.64464" width="2.86195" height="1.79428" style="fill: #d03d48"/>
                    <rect x="123.74885" y="149.31122" width="6.38978" height="1.50502" style="fill: #c40c1a"/>
                    <rect x="123.74885" y="149.31122" width="1.85613" height="1.50502" style="fill: #d03d48"/>
                    <path d="M128.95642,149.31123H124.931v-4.42342a12.311,12.311,0,0,1-5.12794-3.15049,13.716,13.716,0,0,1-3.90649-6.37557h22.09423a11.79151,11.79151,0,0,1-3.51471,6.51571,10.46246,10.46246,0,0,1-5.51971,3.01035Z" style="fill: #f7a71e"/>
                    <path d="M115.89661,135.36175h22.09423a11.59265,11.59265,0,0,1-.50084,1.89231Z" style="fill: #cc8a19;opacity: 0.30000000000000004"/>
                    <path d="M128.95642,149.31123H124.931v-4.42342c1.525-1.86406,2.40746-6.12736,2.01273-9.52606h11.04707a11.79151,11.79151,0,0,1-3.51471,6.51571,10.46246,10.46246,0,0,1-5.51971,3.01035Z" style="fill: #cc8a19;opacity: 0.30000000000000004"/>
                    <rect x="123.16909" y="155.43893" width="7.54929" height="4.64654" style="fill: #d90b0b"/>
                    <rect x="123.16909" y="155.43893" width="2.43589" height="4.64654" style="fill: #e03c3c"/>
                    <rect x="115.21232" y="133.60729" width="23.46284" height="1.75445" style="fill: #fbb03b"/>
                    <rect x="115.21232" y="133.60729" width="11.76384" height="1.75445" style="fill: #fcc062"/>
                  </g>
                  <g>
                    <path d="M90.58212,148.5757s-3.26322-.61541-6.10765,2.94142" style="fill: none;stroke: #f1fafc;stroke-linecap: round;stroke-miterlimit: 10;stroke-width: 0.39217106771128px"/>
                    <path d="M83.93336,152.28a3.453,3.453,0,0,0-.41938.98379" style="fill: none;stroke: #f1fafc;stroke-linecap: round;stroke-miterlimit: 10;stroke-width: 0.39217106771128px"/>
                  </g>
                  <g>
                    <path d="M77.55635,154.53472S74.255,154.176,71.697,157.94407" style="fill: none;stroke: #f1fafc;stroke-linecap: round;stroke-miterlimit: 10;stroke-width: 0.39217106771128px"/>
                    <path d="M71.21714,158.74683a3.45259,3.45259,0,0,0-.34128,1.01353" style="fill: none;stroke: #f1fafc;stroke-linecap: round;stroke-miterlimit: 10;stroke-width: 0.39217106771128px"/>
                  </g>
                  <g>
                    <path d="M216.20989,164.77349a4.14514,4.14514,0,0,1-2.03347,3.655" style="fill: none;stroke: #d6f0f7;stroke-linecap: round;stroke-miterlimit: 10;stroke-width: 0.241966714018522px"/>
                    <path d="M213.68693,168.73411a2.13023,2.13023,0,0,1-.62117.22258" style="fill: none;stroke: #d6f0f7;stroke-linecap: round;stroke-miterlimit: 10;stroke-width: 0.241966714018522px"/>
                  </g>
                  <g>
                    <path d="M221.55727,127.41274a4.14514,4.14514,0,0,1,.77479,4.11022" style="fill: none;stroke: #d6f0f7;stroke-linecap: round;stroke-miterlimit: 10;stroke-width: 0.453510295987411px"/>
                    <path d="M222.15126,132.071a2.13066,2.13066,0,0,1-.33512.56841" style="fill: none;stroke: #d6f0f7;stroke-linecap: round;stroke-miterlimit: 10;stroke-width: 0.453510295987411px"/>
                  </g>
                  <g>
                    <path d="M216.32334,172.60873s6.34994-3.06263,7.17646-2.23611-2.9545,4.65178-3.42537,3.90836a1.59407,1.59407,0,0,1,0-1.98282c.45128-.74287,4.48386.347,4.6486,1.35255s-2.8745,4.16809-3.60065,3.44193a1.55677,1.55677,0,0,1-.19841-2.21494c.51483-.83572,3.91158,1.24554,3.79906,2.42848s-4.03455,2.55217-4.6486,1.93812a1.2149,1.2149,0,0,1,0-1.75494c.6028-.4262,3.46909,2.267,2.62729,3.1088s-6.37838-2.109-6.37838-2.109" style="fill: none;stroke: #2b7b92;stroke-miterlimit: 10;stroke-width: 0.33048440719767px;fill-rule: evenodd"/>
                    <path d="M216.32334,172.60873s6.34994-3.06263,7.17646-2.23611-2.9545,4.65178-3.42537,3.90836a1.59407,1.59407,0,0,1,0-1.98282c.45128-.74287,4.48386.347,4.6486,1.35255s-2.8745,4.16809-3.60065,3.44193a1.55677,1.55677,0,0,1-.19841-2.21494c.51483-.83572,3.91158,1.24554,3.79906,2.42848s-4.03455,2.55217-4.6486,1.93812a1.2149,1.2149,0,0,1,0-1.75494c.6028-.4262,3.46909,2.267,2.62729,3.1088s-6.37838-2.109-6.37838-2.109" style="fill: none;stroke: #76cee5;stroke-miterlimit: 10;stroke-width: 0.33048440719767px;stroke-dasharray: 0.45348063111305237,0.9069612622261047;fill-rule: evenodd"/>
                    <rect x="209.77348" y="172.90009" width="7.61268" height="6.11668" transform="translate(389.53825 -37.6214) rotate(90)" style="fill: #d90b0b"/>
                    <rect x="213.17665" y="168.69057" width="0.80636" height="6.11668" transform="translate(41.83092 385.32873) rotate(-90)" style="fill: #e84d49"/>
                    <rect x="202.96858" y="174.38593" width="12.15739" height="3.62637" transform="translate(385.24639 -32.84816) rotate(90)" style="fill: #c40c1a"/>
                    <rect x="208.4034" y="167.66337" width="1.28774" height="3.62637" transform="translate(39.57072 378.52383) rotate(-90)" style="fill: #e84d49"/>
                    <rect x="210.3551" y="175.06914" width="10.67761" height="2.10322" transform="translate(391.81465 -39.57316) rotate(90)" style="fill: #c40c1a"/>
                    <rect x="215.1284" y="169.16483" width="1.131" height="2.10322" transform="translate(45.47746 385.91035) rotate(-90)" style="fill: #e84d49"/>
                  </g>
                  <path d="M221.227,116.647l-3.83838-.005a1.17,1.17,0,0,1-.81468-1.28156c0-1.19606.97258-1.19555,1.47591-1.25913a2.59722,2.59722,0,0,1,.29425-.02221,1.28132,1.28132,0,0,0,0-2.56264H158.35929a1.28132,1.28132,0,0,0,0,2.56264l44.34267.00526a1.17012,1.17012,0,0,1,.8138,1.28137c0,1.2813-1.327,1.2813-.6222,1.2813h-4.53939a1.28133,1.28133,0,0,0,0,2.56265h4.9l.20427.00529c-.13217,0-.19287-.00555-.20427-.00529a1.16952,1.16952,0,0,1,.82647,1.28659,1.20716,1.20716,0,0,1-1.02694,1.225H180.05112a1.28133,1.28133,0,0,0,0,2.56265l10.54735.00519a1.17017,1.17017,0,0,1,.81418,1.2814c0,1.28134-1.327,1.28134-.62232,1.28134h-4.5394a1.28132,1.28132,0,0,0,0,2.56264h4.9l.20428.0053c-.13217,0-.19287-.00555-.20428-.0053a1.16954,1.16954,0,0,1,.8266,1.2866c0,1.28134-1.43283,1.28134-1.43283,1.28134a1.28132,1.28132,0,0,0,0,2.56264h23.53941a1.28132,1.28132,0,0,0,0-2.56264l-14.83977-.0052a1.17,1.17,0,0,1-.81418-1.28143c0-1.28131,1.327-1.28131.62233-1.28131h10.07126a1.28132,1.28132,0,1,0,0-2.56264l-3.83837-.005a1.16993,1.16993,0,0,1-.81469-1.28156c0-.99586.67213-1.16047,1.18839-1.22494h7.55966a1.28133,1.28133,0,1,0,0-2.56265l-1.8699-.00478a1.16988,1.16988,0,0,1-.81544-1.28181c0-1.28134,1.327-1.28134.62232-1.28134H221.227a1.28133,1.28133,0,1,0,0-2.56265Z" style="fill: #fff;opacity: 0.4"/>
                  <g>
                    <line x1="152.9986" y1="137.85669" x2="152.9986" y2="139.88504" style="fill: none;stroke: #d6f0f7;stroke-linecap: round;stroke-miterlimit: 10;stroke-width: 0.39217106771128px"/>
                    <line x1="149.31997" y1="139.9974" x2="150.75423" y2="141.43166" style="fill: none;stroke: #d6f0f7;stroke-linecap: round;stroke-miterlimit: 10;stroke-width: 0.39217106771128px"/>
                    <line x1="156.33965" y1="139.9974" x2="154.90539" y2="141.43166" style="fill: none;stroke: #d6f0f7;stroke-linecap: round;stroke-miterlimit: 10;stroke-width: 0.39217106771128px"/>
                    <path d="M149.8417,155.81364h6.45785v-7.08483a.87777.87777,0,0,0-.87777-.87776h0a.87777.87777,0,0,1-.87776-.87777v-3.323a.87777.87777,0,0,0-.87777-.87777h-1.12856a.87777.87777,0,0,0-.87776.87777v3.32863a.87777.87777,0,0,1-.87777.87777h-.0627a.87776.87776,0,0,0-.87776.87776Z" style="fill: #fcc062"/>
                    <path d="M156.29955,155.81364v-7.08483a.87777.87777,0,0,0-.87777-.87776h0a.87777.87777,0,0,1-.87776-.87777v-3.323a.87777.87777,0,0,0-.87777-.87777h-1.12856a.87777.87777,0,0,0-.87776.87777l2.03672,12.16334Z" style="fill: #f7a71e"/>
                    <path d="M153.999,155.81365v-4.31971a.92834.92834,0,0,0,0-1.85667h-1.85667a.92834.92834,0,1,0,0,1.85667v4.31971" style="fill: none;stroke: #cc8a19;stroke-miterlimit: 10;stroke-width: 0.29412830078346px"/>
                    <rect x="151.71344" y="155.81365" width="2.7417" height="3.39972" style="fill: #2b7b92"/>
                    <polygon points="154.455 159.213 153.697 159.213 151.713 155.814 154.455 155.814 154.455 159.213" style="fill: #1d5463"/>
                  </g>
                  <g>
                    <line x1="185.00637" y1="137.85669" x2="185.00637" y2="139.88504" style="fill: none;stroke: #d6f0f7;stroke-linecap: round;stroke-miterlimit: 10;stroke-width: 0.39217106771128px"/>
                    <line x1="181.32774" y1="139.9974" x2="182.762" y2="141.43166" style="fill: none;stroke: #d6f0f7;stroke-linecap: round;stroke-miterlimit: 10;stroke-width: 0.39217106771128px"/>
                    <line x1="188.34742" y1="139.9974" x2="186.91316" y2="141.43166" style="fill: none;stroke: #d6f0f7;stroke-linecap: round;stroke-miterlimit: 10;stroke-width: 0.39217106771128px"/>
                    <path d="M181.84947,155.81364h6.45785v-7.08483a.87777.87777,0,0,0-.87777-.87776h0a.87777.87777,0,0,1-.87776-.87777v-3.323a.87777.87777,0,0,0-.87777-.87777h-1.12856a.87777.87777,0,0,0-.87776.87777v3.32863a.87777.87777,0,0,1-.87777.87777h-.0627a.87776.87776,0,0,0-.87776.87776Z" style="fill: #fcc062"/>
                    <path d="M188.30732,155.81364v-7.08483a.87777.87777,0,0,0-.87777-.87776h0a.87777.87777,0,0,1-.87776-.87777v-3.323a.87777.87777,0,0,0-.87777-.87777h-1.12856a.87777.87777,0,0,0-.87776.87777l2.03672,12.16334Z" style="fill: #f7a71e"/>
                    <path d="M186.00678,155.81365v-4.31971a.92834.92834,0,0,0,0-1.85667h-1.85667a.92834.92834,0,1,0,0,1.85667v4.31971" style="fill: none;stroke: #cc8a19;stroke-miterlimit: 10;stroke-width: 0.29412830078346px"/>
                    <rect x="183.72121" y="155.81365" width="2.7417" height="3.39972" style="fill: #2b7b92"/>
                    <polygon points="186.463 159.213 185.704 159.213 183.721 155.814 186.463 155.814 186.463 159.213" style="fill: #1d5463"/>
                  </g>
                  <g>
                    <line x1="169.00248" y1="137.85669" x2="169.00248" y2="139.88504" style="fill: none;stroke: #c8ebf5;stroke-linecap: round;stroke-miterlimit: 10;stroke-width: 0.39217106771128px"/>
                    <line x1="165.32386" y1="139.9974" x2="166.75812" y2="141.43166" style="fill: none;stroke: #c8ebf5;stroke-linecap: round;stroke-miterlimit: 10;stroke-width: 0.39217106771128px"/>
                    <line x1="172.34354" y1="139.9974" x2="170.90928" y2="141.43166" style="fill: none;stroke: #c8ebf5;stroke-linecap: round;stroke-miterlimit: 10;stroke-width: 0.39217106771128px"/>
                    <path d="M165.88568,155.81364h6.45786v-7.08483a.87777.87777,0,0,0-.87777-.87776h0a.87777.87777,0,0,1-.87777-.87777v-3.323a.87777.87777,0,0,0-.87776-.87777h-1.12856a.87777.87777,0,0,0-.87777.87777v3.32863a.87777.87777,0,0,1-.87776.87777h-.0627a.87777.87777,0,0,0-.87777.87776Z" style="fill: #fcc062"/>
                    <path d="M172.34354,155.81364v-7.08483a.87777.87777,0,0,0-.87777-.87776h0a.87777.87777,0,0,1-.87777-.87777v-3.323a.87777.87777,0,0,0-.87776-.87777h-1.12856a.87777.87777,0,0,0-.87777.87777l2.03673,12.16334Z" style="fill: #f7a71e"/>
                    <path d="M170.043,155.81365v-4.31971a.92834.92834,0,0,0,0-1.85667h-1.85668a.92834.92834,0,1,0,0,1.85667v4.31971" style="fill: none;stroke: #cc8a19;stroke-miterlimit: 10;stroke-width: 0.29412830078346px"/>
                    <rect x="167.75743" y="155.81365" width="2.7417" height="3.39972" style="fill: #2b7b92"/>
                    <polygon points="170.499 159.213 169.741 159.213 167.757 155.814 170.499 155.814 170.499 159.213" style="fill: #1d5463"/>
                  </g>
                  <g>
                    <path d="M80.33908,168.57631v5.6661A1.97759,1.97759,0,0,0,82.31667,176.22H96.48872" style="fill: none;stroke: #2b7b92;stroke-linecap: round;stroke-miterlimit: 10;stroke-width: 1.68805164065254px"/>
                    <circle cx="80.33908" cy="171.90158" r="2.04813" style="fill: #5595a8"/>
                    <circle cx="79.24042" cy="163.31425" r="6.12297" style="fill: #5595a8"/>
                    <circle cx="80.33908" cy="163.31425" r="6.12297" style="fill: #2b7b92"/>
                    <path d="M84.66868,167.64384a6.123,6.123,0,0,0,0-8.65919c.13578,3.2279-2.22722,8.26971-8.6592,8.65919A6.123,6.123,0,0,0,84.66868,167.64384Z" style="fill: #1d5463;opacity: 0.30000000000000004"/>
                    <circle cx="80.33908" cy="163.31425" r="4.46538" style="fill: #fff"/>
                    <circle cx="80.33908" cy="163.31425" r="3.32363" style="fill: none;stroke: #bbcbd0;stroke-linecap: round;stroke-miterlimit: 10;stroke-width: 0.281341940108756px;stroke-dasharray: 0.5626838803291321,1.1253677606582642"/>
                    <polygon points="82.596 165.028 80.264 163.451 80.624 162.922 82.956 164.5 82.596 165.028" style="fill: #f7a71e"/>
                    <circle cx="80.5877" cy="163.25571" r="0.84327" style="fill: #1d5463"/>
                    <path d="M83.49658,166.47175a4.46538,4.46538,0,0,0,0-6.315c-.89585,2.0558-2.56655,5.50783-6.315,6.315A4.4654,4.4654,0,0,0,83.49658,166.47175Z" style="fill: #2b7b92;opacity: 0.1"/>
                  </g>
                  <g>
                    <path d="M94.02522,165.86131v7.89815a2.75662,2.75662,0,0,0,2.75662,2.75662h8.61441" style="fill: none;stroke: #fbb03b;stroke-linecap: round;stroke-miterlimit: 10;stroke-width: 2.35302640626768px"/>
                    <circle cx="94.02522" cy="170.49651" r="2.85495" style="fill: #fcc062"/>
                    <circle cx="97.61549" cy="176.72086" r="2.01876" style="fill: #fcc062"/>
                    <circle cx="92.49376" cy="158.52636" r="8.535" style="fill: #fcc062"/>
                    <circle cx="94.02522" cy="158.52636" r="8.535" style="fill: #f7a71e"/>
                    <path d="M100.06037,164.56152a8.535,8.535,0,0,0,0-12.07031c.18927,4.49946-3.10458,11.52739-12.07031,12.07031A8.535,8.535,0,0,0,100.06037,164.56152Z" style="fill: #cc8a19;opacity: 0.30000000000000004"/>
                    <circle cx="94.02522" cy="158.52636" r="6.22443" style="fill: #fff"/>
                    <circle cx="94.02522" cy="158.52636" r="4.6329" style="fill: none;stroke: #bbcbd0;stroke-linecap: round;stroke-miterlimit: 10;stroke-width: 0.39217106771128px;stroke-dasharray: 0.7843421101570129,1.5686842203140259"/>
                    <polygon points="96.14 155.45 94.35 158.941 93.558 158.532 95.348 155.04 96.14 155.45" style="fill: #f7a71e"/>
                    <circle cx="94.02522" cy="158.52636" r="1.17546" style="fill: #1d5463"/>
                    <path d="M98.42655,162.9277a6.22443,6.22443,0,0,0,0-8.80267c-1.24876,2.86564-3.57759,7.67753-8.80267,8.80267A6.22443,6.22443,0,0,0,98.42655,162.9277Z" style="fill: #2b7b92;opacity: 0.1"/>
                  </g>
                  <path d="M157.078,264.70329h51.41977V162.22805a3.92171,3.92171,0,0,0-3.92171-3.92171H168.79392V206.309L157.078,219.0012Z" style="fill: #d90b0b;fill-rule: evenodd"/>
                  <rect x="157.07802" y="219.0012" width="51.41977" height="45.70208" style="fill: #d90b0b"/>
                  <polygon points="157.078 218.965 208.498 218.965 208.498 206.309 168.794 206.309 157.078 219.001 157.078 218.965" style="fill: #e03c3c;fill-rule: evenodd"/>
                  <rect x="90.55174" y="219.0012" width="66.52628" height="45.70208" style="fill: #e45454"/>
                  <path d="M157.07805,264.70329H90.55172a168.7033,168.7033,0,0,0,66.52633-45.70209Z" style="fill: #e6423d;fill-rule: evenodd"/>
                  <polygon points="168.794 206.309 102.486 206.309 90.552 219.001 157.078 219.001 168.794 206.309" style="fill: #f0908d;fill-rule: evenodd"/>
                  <path d="M106.40748,158.30634h62.38644a0,0,0,0,1,0,0V206.309a0,0,0,0,1,0,0H102.48577a0,0,0,0,1,0,0V162.22805A3.92171,3.92171,0,0,1,106.40748,158.30634Z" style="fill: #e45454"/>
                  <path d="M168.79387,206.309H102.48574a111.09186,111.09186,0,0,0,66.30813-48.00263Z" style="fill: #e6423d;fill-rule: evenodd"/>
                  <path d="M134.16887,197.86943a2.94918,2.94918,0,0,1-2.44015,2.47405,62.1647,62.1647,0,0,1-19.61433.008,2.95288,2.95288,0,0,1-2.45453-2.53549,116.45642,116.45642,0,0,1,.01494-30.86321,2.95305,2.95305,0,0,1,2.3619-2.49775,50.75451,50.75451,0,0,1,19.769.00985,2.96492,2.96492,0,0,1,2.35062,2.46437,102.08942,102.08942,0,0,1,.01258,30.94017Z" style="fill: #bf0f20;fill-rule: evenodd;opacity: 0.8"/>
                  <path d="M132.99236,197.86943a2.94919,2.94919,0,0,1-2.44015,2.47405,62.1647,62.1647,0,0,1-19.61433.008,2.9529,2.9529,0,0,1-2.45454-2.53549,116.457,116.457,0,0,1,.01495-30.86321,2.953,2.953,0,0,1,2.36189-2.49775,50.75456,50.75456,0,0,1,19.769.00985,2.965,2.965,0,0,1,2.35062,2.46437,102.09028,102.09028,0,0,1,.01258,30.94017Z" style="fill: #e6f6fa;fill-rule: evenodd"/>
                  <path d="M132.99236,197.86943a2.94919,2.94919,0,0,1-2.44015,2.47405,62.1647,62.1647,0,0,1-19.61433.008c19.34555-3.51038,21.852-34.65765,22.0419-33.42223a102.09028,102.09028,0,0,1,.01258,30.94017Z" style="fill: #ade2ef;fill-rule: evenodd;opacity: 0.2"/>
                  <path d="M110.93788,200.35149a2.9529,2.9529,0,0,1-2.45454-2.53549,116.457,116.457,0,0,1,.01495-30.86321,2.953,2.953,0,0,1,2.36189-2.49775C109.6748,166.95279,107.84342,191.829,110.93788,200.35149Z" style="fill: #76cee5;fill-rule: evenodd;opacity: 0.2"/>
                  <g>
                    <g>
                      <path d="M96.39975,216.53793v.85121a.39217.39217,0,0,0,.39217.39217h2.549a1.56873,1.56873,0,0,0,1.14-.49113l2.27974-2.3907a.39217.39217,0,0,0,.10835-.27064V213.34" style="fill: #ade2ef;fill-rule: evenodd"/>
                      <path d="M102.47612,213.017H100.32a1.56867,1.56867,0,0,0-1.14.49114l-2.67232,2.82725a.39217.39217,0,0,0,.285.66156h2.15608a1.56869,1.56869,0,0,0,1.14-.49113l2.67233-2.82726A.39217.39217,0,0,0,102.47612,213.017Z" style="fill: #f7fcfd;fill-rule: evenodd"/>
                    </g>
                    <g>
                      <path d="M100.99454,211.04978v.8512a.39218.39218,0,0,0,.39217.39218h2.549a1.56868,1.56868,0,0,0,1.14-.49114l2.27974-2.39069a.3922.3922,0,0,0,.10835-.27065v-1.28889" style="fill: #ade2ef;fill-rule: evenodd"/>
                      <path d="M107.07091,207.52887h-2.15608a1.5687,1.5687,0,0,0-1.14.49113l-2.67232,2.82725a.39217.39217,0,0,0,.285.66156h2.15608a1.56873,1.56873,0,0,0,1.14-.49113l2.67232-2.82725A.39217.39217,0,0,0,107.07091,207.52887Z" style="fill: #f7fcfd;fill-rule: evenodd"/>
                    </g>
                  </g>
                  <g>
                    <g>
                      <path d="M131.38729,216.53793v.85121a.39217.39217,0,0,0,.39217.39217h2.549a1.56869,1.56869,0,0,0,1.14-.49113l2.27974-2.3907a.39218.39218,0,0,0,.10836-.27064V213.34" style="fill: #ade2ef;fill-rule: evenodd"/>
                      <path d="M137.46366,213.017h-2.15608a1.5687,1.5687,0,0,0-1.14.49114l-2.67232,2.82725a.39217.39217,0,0,0,.285.66156h2.15608a1.5687,1.5687,0,0,0,1.14-.49113l2.67232-2.82726A.39217.39217,0,0,0,137.46366,213.017Z" style="fill: #f7fcfd;fill-rule: evenodd"/>
                    </g>
                    <g>
                      <path d="M135.98208,211.04978v.8512a.39218.39218,0,0,0,.39217.39218h2.549a1.56866,1.56866,0,0,0,1.14-.49114l2.27974-2.39069a.3922.3922,0,0,0,.10836-.27065v-1.28889" style="fill: #ade2ef;fill-rule: evenodd"/>
                      <path d="M142.05845,207.52887h-2.15608a1.56873,1.56873,0,0,0-1.14.49113L136.09,210.84725a.39217.39217,0,0,0,.285.66156h2.15608a1.5687,1.5687,0,0,0,1.14-.49113l2.67232-2.82725A.39217.39217,0,0,0,142.05845,207.52887Z" style="fill: #f7fcfd;fill-rule: evenodd"/>
                    </g>
                  </g>
                  <g>
                    <g>
                      <path d="M103.39726,216.53793v.85121a.39217.39217,0,0,0,.39217.39217h2.549a1.56869,1.56869,0,0,0,1.14-.49113l2.27974-2.3907a.39214.39214,0,0,0,.10836-.27064V213.34" style="fill: #ade2ef;fill-rule: evenodd"/>
                      <path d="M109.47363,213.017h-2.15608a1.56866,1.56866,0,0,0-1.14.49114l-2.67233,2.82725a.39217.39217,0,0,0,.285.66156h2.15608a1.56869,1.56869,0,0,0,1.14-.49113l2.67232-2.82726A.39217.39217,0,0,0,109.47363,213.017Z" style="fill: #f7fcfd;fill-rule: evenodd"/>
                    </g>
                    <g>
                      <path d="M107.99205,211.04978v.8512a.39218.39218,0,0,0,.39217.39218h2.549a1.56866,1.56866,0,0,0,1.14-.49114l2.27974-2.39069a.39216.39216,0,0,0,.10836-.27065v-1.28889" style="fill: #ade2ef;fill-rule: evenodd"/>
                      <path d="M114.06842,207.52887h-2.15608a1.56869,1.56869,0,0,0-1.14.49113L108.1,210.84725a.39217.39217,0,0,0,.285.66156h2.15608a1.56869,1.56869,0,0,0,1.14-.49113l2.67232-2.82725A.39217.39217,0,0,0,114.06842,207.52887Z" style="fill: #f7fcfd;fill-rule: evenodd"/>
                    </g>
                  </g>
                  <g>
                    <g>
                      <path d="M110.39477,216.53793v.85121a.39217.39217,0,0,0,.39217.39217h2.549a1.5687,1.5687,0,0,0,1.14-.49113l2.27974-2.3907a.39218.39218,0,0,0,.10836-.27064V213.34" style="fill: #ade2ef;fill-rule: evenodd"/>
                      <path d="M116.47114,213.017h-2.15608a1.5687,1.5687,0,0,0-1.14.49114l-2.67232,2.82725a.39217.39217,0,0,0,.285.66156h2.15608a1.5687,1.5687,0,0,0,1.14-.49113l2.67232-2.82726A.39217.39217,0,0,0,116.47114,213.017Z" style="fill: #f7fcfd;fill-rule: evenodd"/>
                    </g>
                    <g>
                      <path d="M114.98956,211.04978v.8512a.39218.39218,0,0,0,.39217.39218h2.549a1.56867,1.56867,0,0,0,1.14-.49114l2.27974-2.39069a.3922.3922,0,0,0,.10836-.27065v-1.28889" style="fill: #ade2ef;fill-rule: evenodd"/>
                      <path d="M121.06593,207.52887h-2.15608a1.56873,1.56873,0,0,0-1.14.49113l-2.67232,2.82725a.39217.39217,0,0,0,.285.66156h2.15608a1.5687,1.5687,0,0,0,1.14-.49113l2.67232-2.82725A.39217.39217,0,0,0,121.06593,207.52887Z" style="fill: #f7fcfd;fill-rule: evenodd"/>
                    </g>
                  </g>
                  <g>
                    <g>
                      <path d="M117.39227,216.53793v.85121a.39218.39218,0,0,0,.39218.39217h2.549a1.56871,1.56871,0,0,0,1.14-.49113l2.27974-2.3907a.39217.39217,0,0,0,.10835-.27064V213.34" style="fill: #ade2ef;fill-rule: evenodd"/>
                      <path d="M123.46864,213.017h-2.15608a1.56867,1.56867,0,0,0-1.14.49114l-2.67232,2.82725a.39217.39217,0,0,0,.285.66156h2.15608a1.56873,1.56873,0,0,0,1.14-.49113l2.67232-2.82726A.39217.39217,0,0,0,123.46864,213.017Z" style="fill: #f7fcfd;fill-rule: evenodd"/>
                    </g>
                    <g>
                      <path d="M121.98706,211.04978v.8512a.39219.39219,0,0,0,.39218.39218h2.549a1.56868,1.56868,0,0,0,1.14-.49114l2.27974-2.39069a.3922.3922,0,0,0,.10835-.27065v-1.28889" style="fill: #ade2ef;fill-rule: evenodd"/>
                      <path d="M128.06343,207.52887h-2.15608a1.5687,1.5687,0,0,0-1.14.49113l-2.67232,2.82725a.39217.39217,0,0,0,.285.66156h2.15608a1.56873,1.56873,0,0,0,1.14-.49113l2.67232-2.82725A.39217.39217,0,0,0,128.06343,207.52887Z" style="fill: #f7fcfd;fill-rule: evenodd"/>
                    </g>
                  </g>
                  <g>
                    <g>
                      <path d="M124.38978,216.53793v.85121a.39217.39217,0,0,0,.39217.39217h2.549a1.56869,1.56869,0,0,0,1.14-.49113l2.27974-2.3907a.39214.39214,0,0,0,.10836-.27064V213.34" style="fill: #ade2ef;fill-rule: evenodd"/>
                      <path d="M130.46615,213.017h-2.15608a1.56866,1.56866,0,0,0-1.14.49114l-2.67232,2.82725a.39217.39217,0,0,0,.285.66156h2.15608a1.56869,1.56869,0,0,0,1.14-.49113l2.67232-2.82726A.39217.39217,0,0,0,130.46615,213.017Z" style="fill: #f7fcfd;fill-rule: evenodd"/>
                    </g>
                    <g>
                      <path d="M128.98457,211.04978v.8512a.39218.39218,0,0,0,.39217.39218h2.549a1.56866,1.56866,0,0,0,1.14-.49114l2.27974-2.39069a.39216.39216,0,0,0,.10836-.27065v-1.28889" style="fill: #ade2ef;fill-rule: evenodd"/>
                      <path d="M135.06094,207.52887h-2.15608a1.56869,1.56869,0,0,0-1.14.49113l-2.67232,2.82725a.39217.39217,0,0,0,.285.66156h2.15608a1.56869,1.56869,0,0,0,1.14-.49113l2.67233-2.82725A.39217.39217,0,0,0,135.06094,207.52887Z" style="fill: #f7fcfd;fill-rule: evenodd"/>
                    </g>
                  </g>
                  <polygon points="157.261 211.357 155.919 212.837 155.919 203.283 157.261 201.802 157.261 211.357" style="fill: #1d5463;fill-rule: evenodd"/>
                  <g>
                    <path d="M161.42781,207.85179h-2.80439a1.56868,1.56868,0,0,0-1.14284.49412l-7.94678,8.45166a.39218.39218,0,0,0,.28571.66082h2.94957a1.5687,1.5687,0,0,0,1.15268-.50468L161.716,208.51A.39217.39217,0,0,0,161.42781,207.85179Z" style="fill: #9b0c1a;fill-rule: evenodd"/>
                    <path d="M161.42781,207.85179l-8.65873,9.6066a1.5687,1.5687,0,0,0,1.15268-.50468L161.716,208.51A.39217.39217,0,0,0,161.42781,207.85179Z" style="fill: #a52431;fill-rule: evenodd"/>
                    <polygon points="157.261 211.357 155.919 212.837 155.919 203.283 157.261 201.802 157.261 211.357" style="fill: #2b7b92;fill-rule: evenodd"/>
                    <polygon points="157.261 211.357 155.919 212.837 157.261 201.802 157.261 211.357" style="fill: #1d5463;fill-rule: evenodd"/>
                    <circle cx="156.46043" cy="202.68547" r="2.25505" style="fill: #ade2ef"/>
                    <path d="M158.055,204.28a2.25505,2.25505,0,0,0,0-3.18912c-.88065-.88065-4.06977,2.30847-3.18912,3.18912A2.25505,2.25505,0,0,0,158.055,204.28Z" style="fill: #76cee5;fill-rule: evenodd"/>
                  </g>
                  <g>
                    <path d="M153.0255,207.85179h-2.8044a1.56867,1.56867,0,0,0-1.14283.49412l-7.94679,8.45166a.39218.39218,0,0,0,.28571.66082h2.94958a1.56868,1.56868,0,0,0,1.15267-.50468l7.79423-8.44374A.39218.39218,0,0,0,153.0255,207.85179Z" style="fill: #9b0c1a;fill-rule: evenodd"/>
                    <path d="M153.0255,207.85179l-8.65873,9.6066a1.56868,1.56868,0,0,0,1.15267-.50468l7.79423-8.44374A.39218.39218,0,0,0,153.0255,207.85179Z" style="fill: #a52431;fill-rule: evenodd"/>
                    <polygon points="145.637 214.576 144.294 216.056 144.294 206.502 145.637 205.022 145.637 214.576" style="fill: #2b7b92;fill-rule: evenodd"/>
                    <polygon points="145.637 214.576 144.294 216.056 145.637 205.022 145.637 214.576" style="fill: #1d5463;fill-rule: evenodd"/>
                    <circle cx="144.836" cy="205.90449" r="2.25505" style="fill: #ade2ef"/>
                    <path d="M146.43056,207.499a2.255,2.255,0,0,0,0-3.18911c-.88065-.88066-4.06977,2.30846-3.18912,3.18911A2.255,2.255,0,0,0,146.43056,207.499Z" style="fill: #76cee5;fill-rule: evenodd"/>
                  </g>
                  <line x1="137.85661" y1="164.76428" x2="137.85661" y2="200.10425" style="fill: none;stroke: #9b0c1a;stroke-linecap: round;stroke-miterlimit: 10;stroke-width: 0.784342135422561px"/>
                  <line x1="95.22324" y1="223.44074" x2="95.22324" y2="228.92927" style="fill: none;stroke: #9b0c1a;stroke-linecap: round;stroke-miterlimit: 10;stroke-width: 0.784342135422561px"/>
                  <line x1="124.06006" y1="223.44074" x2="124.06006" y2="228.92927" style="fill: none;stroke: #9b0c1a;stroke-linecap: round;stroke-miterlimit: 10;stroke-width: 0.784342135422561px"/>
                  <line x1="112.52533" y1="223.44074" x2="112.52533" y2="228.92927" style="fill: none;stroke: #9b0c1a;stroke-linecap: round;stroke-miterlimit: 10;stroke-width: 0.784342135422561px"/>
                  <line x1="106.75797" y1="223.44074" x2="106.75797" y2="228.92927" style="fill: none;stroke: #9b0c1a;stroke-linecap: round;stroke-miterlimit: 10;stroke-width: 0.784342135422561px"/>
                  <line x1="118.29269" y1="223.44074" x2="118.29269" y2="228.92927" style="fill: none;stroke: #9b0c1a;stroke-linecap: round;stroke-miterlimit: 10;stroke-width: 0.784342135422561px"/>
                  <line x1="132.7111" y1="223.44074" x2="132.7111" y2="228.92927" style="fill: none;stroke: #9b0c1a;stroke-linecap: round;stroke-miterlimit: 10;stroke-width: 0.784342135422561px"/>
                  <line x1="129.82742" y1="223.44074" x2="129.82742" y2="228.92927" style="fill: none;stroke: #9b0c1a;stroke-linecap: round;stroke-miterlimit: 10;stroke-width: 0.784342135422561px"/>
                  <line x1="126.94374" y1="223.44074" x2="126.94374" y2="228.92927" style="fill: none;stroke: #9b0c1a;stroke-linecap: round;stroke-miterlimit: 10;stroke-width: 0.784342135422561px"/>
                  <line x1="121.17637" y1="223.44074" x2="121.17637" y2="228.92927" style="fill: none;stroke: #9b0c1a;stroke-linecap: round;stroke-miterlimit: 10;stroke-width: 0.784342135422561px"/>
                  <line x1="115.40901" y1="223.44074" x2="115.40901" y2="228.92927" style="fill: none;stroke: #9b0c1a;stroke-linecap: round;stroke-miterlimit: 10;stroke-width: 0.784342135422561px"/>
                  <line x1="109.64165" y1="223.44074" x2="109.64165" y2="228.92927" style="fill: none;stroke: #9b0c1a;stroke-linecap: round;stroke-miterlimit: 10;stroke-width: 0.784342135422561px"/>
                  <line x1="103.87428" y1="223.44074" x2="103.87428" y2="228.92927" style="fill: none;stroke: #9b0c1a;stroke-linecap: round;stroke-miterlimit: 10;stroke-width: 0.784342135422561px"/>
                  <line x1="98.10692" y1="223.44074" x2="98.10692" y2="228.92927" style="fill: none;stroke: #9b0c1a;stroke-linecap: round;stroke-miterlimit: 10;stroke-width: 0.784342135422561px"/>
                  <line x1="100.9906" y1="223.44074" x2="100.9906" y2="228.92927" style="fill: none;stroke: #9b0c1a;stroke-linecap: round;stroke-miterlimit: 10;stroke-width: 0.784342135422561px"/>
                  <line x1="143.27859" y1="164.76428" x2="143.27859" y2="179.48225" style="fill: none;stroke: #9b0c1a;stroke-linecap: round;stroke-miterlimit: 10;stroke-width: 0.784342135422561px"/>
                  <line x1="143.27859" y1="185.38628" x2="143.27859" y2="200.10425" style="fill: none;stroke: #9b0c1a;stroke-linecap: round;stroke-miterlimit: 10;stroke-width: 0.784342135422561px"/>
                  <rect x="142.32958" y="166.3776" width="1.89803" height="3.11563" rx="0.94901" ry="0.94901" style="fill: #eff9fc"/>
                  <rect x="136.90759" y="171.2934" width="1.89803" height="3.11563" rx="0.94901" ry="0.94901" style="fill: #eff9fc"/>
                  <line x1="202.29572" y1="184.79077" x2="174.60075" y2="184.79077" style="fill: none;stroke: #bf0f20;stroke-linecap: round;stroke-miterlimit: 10;stroke-width: 0.784342135422561px"/>
                  <rect x="193.25978" y="183.23295" width="1.89803" height="3.11563" rx="0.94901" ry="0.94901" transform="translate(378.99956 -9.41803) rotate(90)" style="fill: #ade2ef"/>
                  <rect x="142.32958" y="193.88265" width="1.89803" height="3.11563" rx="0.94901" ry="0.94901" style="fill: #eff9fc"/>
                  <circle cx="177.18607" cy="213.01702" r="2.04601" style="fill: #eff9fc"/>
                  <circle cx="178.2338" cy="213.01702" r="2.04601" style="fill: #ade2ef"/>
                  <circle cx="169.84709" cy="213.01702" r="2.04601" style="fill: #eff9fc"/>
                  <circle cx="170.89481" cy="213.01702" r="2.04601" style="fill: #ade2ef"/>
                  <g>
                    <rect x="127.50154" y="240.71855" width="9.43539" height="8.9516" rx="1.56868" ry="1.56868" style="fill: #bf0f20"/>
                    <g>
                      <circle cx="129.64562" cy="242.77201" r="0.6378" style="fill: #9b0c1a"/>
                      <circle cx="134.79284" cy="242.77201" r="0.6378" style="fill: #9b0c1a"/>
                    </g>
                    <g>
                      <circle cx="129.64562" cy="247.68012" r="0.6378" style="fill: #9b0c1a"/>
                      <circle cx="134.79284" cy="247.68012" r="0.6378" style="fill: #9b0c1a"/>
                    </g>
                  </g>
                  <path d="M157.07342,218.96494h9.43539a0,0,0,0,1,0,0v7.38292a1.56868,1.56868,0,0,1-1.56868,1.56868h-7.8667a0,0,0,0,1,0,0v-8.9516A0,0,0,0,1,157.07342,218.96494Z" style="fill: #bf0f20"/>
                  <g>
                    <circle cx="159.2175" cy="221.0184" r="0.6378" style="fill: #9b0c1a"/>
                    <circle cx="164.36472" cy="221.0184" r="0.6378" style="fill: #9b0c1a"/>
                  </g>
                  <g>
                    <circle cx="159.2175" cy="225.92651" r="0.6378" style="fill: #9b0c1a"/>
                    <circle cx="164.36472" cy="225.92651" r="0.6378" style="fill: #9b0c1a"/>
                  </g>
                  <g>
                    <g>
                      <circle cx="159.2175" cy="235.23234" r="0.6378" style="fill: #bf0f20"/>
                      <circle cx="164.36472" cy="235.23234" r="0.6378" style="fill: #bf0f20"/>
                    </g>
                    <circle cx="159.2175" cy="240.42547" r="0.6378" style="fill: #bf0f20"/>
                  </g>
                  <g>
                    <g>
                      <circle cx="206.37666" cy="235.2553" r="0.6378" style="fill: #bf0f20"/>
                      <circle cx="206.37666" cy="240.40252" r="0.6378" style="fill: #bf0f20"/>
                    </g>
                    <circle cx="201.18353" cy="235.2553" r="0.6378" style="fill: #bf0f20"/>
                  </g>
                  <path d="M199.06241,218.96494h7.8667a1.56868,1.56868,0,0,1,1.56868,1.56868v7.38292a0,0,0,0,1,0,0h-9.43539a0,0,0,0,1,0,0v-8.9516A0,0,0,0,1,199.06241,218.96494Z" transform="translate(407.5602 446.88148) rotate(-180)" style="fill: #bf0f20"/>
                  <g>
                    <circle cx="206.35371" cy="221.0184" r="0.6378" style="fill: #9b0c1a"/>
                    <circle cx="201.20649" cy="221.0184" r="0.6378" style="fill: #9b0c1a"/>
                  </g>
                  <g>
                    <circle cx="206.35371" cy="225.92651" r="0.6378" style="fill: #9b0c1a"/>
                    <circle cx="201.20649" cy="225.92651" r="0.6378" style="fill: #9b0c1a"/>
                  </g>
                  <g>
                    <circle cx="204.0854" cy="210.59469" r="0.6378" style="fill: #9b0c1a"/>
                    <circle cx="204.0854" cy="215.50279" r="0.6378" style="fill: #9b0c1a"/>
                  </g>
                  <g>
                    <circle cx="187.26375" cy="210.59469" r="0.6378" style="fill: #9b0c1a"/>
                    <circle cx="187.26375" cy="215.50279" r="0.6378" style="fill: #9b0c1a"/>
                  </g>
                  <g>
                    <circle cx="192.87097" cy="210.59469" r="0.6378" style="fill: #9b0c1a"/>
                    <circle cx="192.87097" cy="215.50279" r="0.6378" style="fill: #9b0c1a"/>
                  </g>
                  <g>
                    <circle cx="198.47819" cy="210.59469" r="0.6378" style="fill: #9b0c1a"/>
                    <circle cx="198.47819" cy="215.50279" r="0.6378" style="fill: #9b0c1a"/>
                  </g>
                  <path d="M198.57244,199.07284H175.00056c-1.51406,0-2.75284-1.5782-2.75284-3.50711v-.22908c0-1.92891,1.23878-3.50711,2.75284-3.50711h23.57188" style="fill: #eff9fc"/>
                  <rect x="175.3851" y="191.82954" width="29.07755" height="7.2433" rx="3.10717" ry="3.10717" style="fill: #ade2ef"/>
                  <rect x="178.33595" y="194.46131" width="23.17584" height="1.97976" rx="0.98988" ry="0.98988" style="fill: #1d5463"/>
                  <line x1="183.48054" y1="206.30898" x2="183.48054" y2="219.0012" style="fill: none;stroke: #9b0c1a;stroke-linecap: round;stroke-miterlimit: 10;stroke-width: 0.486998754138647px"/>
                  <line x1="90.55174" y1="232.39046" x2="157.07342" y2="232.39046" style="fill: none;stroke: #9b0c1a;stroke-linecap: round;stroke-miterlimit: 10;stroke-width: 0.39217106771128px"/>
                  <line x1="102.61857" y1="162.04217" x2="168.8488" y2="162.04217" style="fill: none;stroke: #9b0c1a;stroke-linecap: round;stroke-miterlimit: 10;stroke-width: 0.39217106771128px;opacity: 0.6000000000000001"/>
                  <line x1="159.38027" y1="162.04217" x2="159.38027" y2="206.47819" style="fill: none;stroke: #9b0c1a;stroke-linecap: round;stroke-miterlimit: 10;stroke-width: 0.39217106771128px;opacity: 0.6000000000000001"/>
                  <line x1="169.04137" y1="162.04217" x2="208.49779" y2="162.04217" style="fill: none;stroke: #bf0f20;stroke-linecap: round;stroke-miterlimit: 10;stroke-width: 0.39217106771128px"/>
                  <line x1="157.07342" y1="232.39046" x2="208.49779" y2="232.39046" style="fill: none;stroke: #bf0f20;stroke-miterlimit: 10;stroke-width: 0.39217106771128px"/>
                  <g>
                    <path d="M143.22853,240.71855h7.597a1.5733,1.5733,0,0,0,1.56868-1.56869V224.384a1.57329,1.57329,0,0,0-1.56868-1.56868h-7.597" style="fill: #ade2ef"/>
                    <rect x="139.64627" y="222.81535" width="10.73436" height="17.9032" rx="1.56868" ry="1.56868" style="fill: #eff9fc"/>
                    <circle cx="145.31719" cy="227.2625" r="2.04601" style="fill: #9b0c1a"/>
                    <circle cx="144.26947" cy="227.2625" r="2.04601" style="fill: #e2211b"/>
                    <circle cx="145.31719" cy="235.87015" r="2.04601" style="fill: #9b0c1a"/>
                    <circle cx="144.26947" cy="235.87015" r="2.04601" style="fill: #e2211b"/>
                  </g>
                  <line x1="183.48054" y1="232.39046" x2="183.48054" y2="264.70329" style="fill: none;stroke: #bf0f20;stroke-miterlimit: 10;stroke-width: 0.39217106771128px"/>
                  <g style="clip-path: url(#clip-path-2)">
                    <path d="M134.165,179.07242s-2.23008,12.81412-4.7243,12.81412c-1.98927,0-1.75974-10.08836-3.71077-10.08836s-1.60672,14.02314-2.98392,14.02314-1.1094-4.76251-2.36841-4.76251,0,7.21465-2.08491,7.21465-2.08834-10.85776-2.88368-10.85776-.65837,4.08763-1.88254,4.08763-.6886-7.65918-2.37183-7.65918-1.95377,8.922-3.5813,8.922l-.10932,8.69672h26.701" style="fill: #bfd7de"/>
                  </g>
                  <g>
                    <circle cx="120.17327" cy="175.93069" r="5.04845" style="fill: none;stroke: #bfd7de;stroke-miterlimit: 10;stroke-width: 0.784342135422561px"/>
                    <polyline points="117.961 176.603 119.719 178.126 122.337 173.986" style="fill: none;stroke: #bfd7de;stroke-linecap: round;stroke-miterlimit: 10;stroke-width: 1.17651320313384px"/>
                  </g>
                  <g>
                    <path d="M181.4134,160.05318h-7.597a1.5733,1.5733,0,0,0-1.56869,1.56869V176.3877a1.57329,1.57329,0,0,0,1.56869,1.56868h7.597" style="fill: #eff9fc"/>
                    <g>
                      <rect x="174.2613" y="160.05318" width="10.73436" height="17.9032" rx="1.56868" ry="1.56868" transform="translate(359.25696 338.00957) rotate(180)" style="fill: #ade2ef"/>
                      <circle cx="179.32474" cy="173.50924" r="2.04601" style="fill: #e2211b"/>
                      <circle cx="180.37246" cy="173.50924" r="2.04601" style="fill: #9b0c1a"/>
                      <circle cx="179.32474" cy="164.90158" r="2.04601" style="fill: #e2211b"/>
                      <circle cx="180.37246" cy="164.90158" r="2.04601" style="fill: #9b0c1a"/>
                    </g>
                  </g>
                  <path d="M201.04185,160.05318h-12.303a1.5733,1.5733,0,0,0-1.56869,1.56869V176.3877a1.57329,1.57329,0,0,0,1.56869,1.56868h12.303" style="fill: #eff9fc"/>
                  <rect x="189.1837" y="160.05318" width="15.44041" height="17.9032" rx="1.56868" ry="1.56868" transform="translate(393.80781 338.00957) rotate(180)" style="fill: #ade2ef"/>
                  <ellipse cx="196.56458" cy="169.00464" rx="4.55395" ry="5.95552" style="fill: #e2211b"/>
                  <ellipse cx="198.89657" cy="169.00464" rx="4.55395" ry="5.95552" style="fill: #9b0c1a"/>
                  <g>
                    <circle cx="160.24748" cy="172.85121" r="5.86643" style="fill: #9b0c1a;opacity: 0.5"/>
                    <circle cx="158.71089" cy="172.85121" r="5.86643" style="fill: #ade2ef"/>
                    <circle cx="158.71089" cy="172.85121" r="4.58469" style="fill: #eff9fc"/>
                    <rect x="155.43898" y="169.89456" width="5.83968" height="5.59376" rx="2.59358" ry="2.59358" style="fill: #2b7b92"/>
                    <rect x="156.46043" y="169.89456" width="5.83968" height="5.59376" rx="2.59358" ry="2.59358" style="fill: #2b7b92;opacity: 0.6000000000000001"/>
                    <rect x="154.15818" y="169.89456" width="5.83968" height="5.59376" rx="2.59358" ry="2.59358" style="fill: #1d5463;opacity: 0.6000000000000001"/>
                    <circle cx="154.48762" cy="172.85121" r="4.54221" style="fill: #fcc062"/>
                    <path d="M157.69944,176.063a4.5422,4.5422,0,0,0,0-6.42366c-1.77384-1.77384-8.1975,4.64982-6.42365,6.42366A4.54219,4.54219,0,0,0,157.69944,176.063Z" style="fill: #f7a71e;fill-rule: evenodd"/>
                  </g>
                  <g>
                    <circle cx="160.24748" cy="190.97467" r="5.86643" style="fill: #9b0c1a;opacity: 0.5"/>
                    <circle cx="158.71089" cy="190.97467" r="5.86643" style="fill: #ade2ef"/>
                    <circle cx="158.71089" cy="190.97467" r="4.58469" style="fill: #eff9fc"/>
                    <rect x="155.43898" y="188.01802" width="5.83968" height="5.59376" rx="2.59358" ry="2.59358" style="fill: #2b7b92"/>
                    <rect x="156.46043" y="188.01802" width="5.83968" height="5.59376" rx="2.59358" ry="2.59358" style="fill: #2b7b92;opacity: 0.6000000000000001"/>
                    <rect x="154.15818" y="188.01802" width="5.83968" height="5.59376" rx="2.59358" ry="2.59358" style="fill: #1d5463;opacity: 0.6000000000000001"/>
                    <circle cx="154.48762" cy="190.97467" r="4.54221" style="fill: #fcc062"/>
                    <path d="M157.69944,194.1865a4.5422,4.5422,0,0,0,0-6.42366c-1.77384-1.77384-8.1975,4.64982-6.42365,6.42366A4.54221,4.54221,0,0,0,157.69944,194.1865Z" style="fill: #f7a71e;fill-rule: evenodd"/>
                  </g>
                  <path d="M198.89657,169.00464h6.36791a7.84342,7.84342,0,0,0,7.84342-7.84342V154.6856" style="fill: none;stroke: #f2a20d;stroke-linecap: round;stroke-miterlimit: 10;stroke-width: 3.9217106771128px"/>
                  <line x1="213.1079" y1="159.40738" x2="213.1079" y2="154.6856" style="fill: none;stroke: #cc8a19;stroke-linecap: round;stroke-miterlimit: 10;stroke-width: 3.9217106771128px"/>
                  <g>
                    <rect x="210.24136" y="132.10947" width="1.20943" height="3.02171" style="fill: #f7a71e"/>
                    <rect x="214.44608" y="132.10947" width="1.20943" height="3.02171" style="fill: #f7a71e"/>
                    <rect x="210.24136" y="132.10947" width="1.20943" height="1.10478" style="fill: #cc8a19;opacity: 0.30000000000000004"/>
                    <rect x="214.44608" y="132.10947" width="1.20943" height="1.33424" style="fill: #cc8a19;opacity: 0.30000000000000004"/>
                    <path d="M215.31118,155.54061h-4.40656a2.12143,2.12143,0,0,1-2.11521-2.11522V135.41747c0-1.16337,8.637-1.16337,8.637,0v18.00792A2.12143,2.12143,0,0,1,215.31118,155.54061Z" style="fill: #f7a71e"/>
                    <path d="M211.69994,134.5878s5.72645-.20623,5.72645.95714v18.00793C217.42639,154.71624,211.69994,134.5878,211.69994,134.5878Z" style="fill: #cc8a19;opacity: 0.30000000000000004"/>
                    <path d="M206.92025,130.727l5.4092-5.50039a1.028,1.028,0,0,1,1.4537-.01215l5.50039,5.4092a1.028,1.028,0,0,1-.71219,1.76085l-10.90958.09118A1.028,1.028,0,0,1,206.92025,130.727Z" style="fill: #fcc062"/>
                    <path d="M212.32945,125.22662a1.028,1.028,0,0,1,1.4537-.01215l5.50039,5.4092a1.028,1.028,0,0,1-.71219,1.76085l-4.46472.03732Z" style="fill: #cc8a19;opacity: 0.30000000000000004"/>
                  </g>
                  <circle cx="206.00224" cy="169.00478" r="2.76224" style="fill: #fcc062"/>
                  <path d="M207.95544,170.958a2.76225,2.76225,0,0,0,0-3.9064c-1.07873-1.07872-4.98513,2.82768-3.90641,3.9064A2.76224,2.76224,0,0,0,207.95544,170.958Z" style="fill: #cc8a19;opacity: 0.30000000000000004"/>
                  <line x1="208.78941" y1="153.42539" x2="217.42639" y2="153.42539" style="fill: none;stroke: #cc8a19;stroke-miterlimit: 10;stroke-width: 0.39217106771128px;opacity: 0.30000000000000004"/>
                  <line x1="208.78941" y1="146.62772" x2="217.42639" y2="146.62772" style="fill: none;stroke: #cc8a19;stroke-miterlimit: 10;stroke-width: 0.39217106771128px;opacity: 0.30000000000000004"/>
                  <line x1="208.78941" y1="150.0212" x2="217.42639" y2="150.0212" style="fill: none;stroke: #cc8a19;stroke-miterlimit: 10;stroke-width: 0.39217106771128px;opacity: 0.30000000000000004"/>
                </g>
                <g style="opacity: 0.2">
                  <path d="M208.497,190.40128h-22.383c.01938.00057.03814.00374.05752.00451l.00669.00258c-.07214-.003-.143-.0109-.216-.0109a5.17945,5.17945,0,0,0-5.17943,5.17947h6.02v25.87519a4.29444,4.29444,0,0,0,4.29449,4.29441H206.308v12.06715a4.293,4.293,0,0,0,2.18906,3.74378" style="fill: #1d5463"/>
                </g>
              </g>
              <g>
                <g>
                  <line x1="238.39944" y1="232.73869" x2="238.39944" y2="226.11072" style="fill: none;stroke: #f1fafc;stroke-linecap: round;stroke-miterlimit: 10;stroke-width: 0.39217106771128px"/>
                  <line x1="238.39944" y1="237.18087" x2="238.39944" y2="234.60089" style="fill: none;stroke: #f1fafc;stroke-linecap: round;stroke-miterlimit: 10;stroke-width: 0.39217106771128px"/>
                  <line x1="240.43005" y1="235.50697" x2="240.43005" y2="228.879" style="fill: none;stroke: #c8ebf5;stroke-linecap: round;stroke-miterlimit: 10;stroke-width: 0.39217106771128px"/>
                  <line x1="240.43005" y1="239.94916" x2="240.43005" y2="237.36917" style="fill: none;stroke: #c8ebf5;stroke-linecap: round;stroke-miterlimit: 10;stroke-width: 0.39217106771128px"/>
                </g>
                <g>
                  <path d="M232.12809,211.95379s3.32063-.02805,5.49051,3.97613" style="fill: none;stroke: #f1fafc;stroke-linecap: round;stroke-miterlimit: 10;stroke-width: 0.39217106771128px"/>
                  <path d="M238.01614,216.77648a3.453,3.453,0,0,1,.2386,1.04249" style="fill: none;stroke: #f1fafc;stroke-linecap: round;stroke-miterlimit: 10;stroke-width: 0.39217106771128px"/>
                </g>
                <g>
                  <path d="M236.24676,211.84618a4.14514,4.14514,0,0,1,3.38761,2.45324" style="fill: none;stroke: #c8ebf5;stroke-linecap: round;stroke-miterlimit: 10;stroke-width: 0.241966714018522px"/>
                  <path d="M239.87965,214.82174a2.13076,2.13076,0,0,1,.14721.64321" style="fill: none;stroke: #c8ebf5;stroke-linecap: round;stroke-miterlimit: 10;stroke-width: 0.241966714018522px"/>
                </g>
                <g>
                  <path d="M250.65665,233.23683s3.32063-.02805,5.49051,3.97613" style="fill: none;stroke: #f1fafc;stroke-linecap: round;stroke-miterlimit: 10;stroke-width: 0.39217106771128px"/>
                  <path d="M256.5447,238.05953a3.45331,3.45331,0,0,1,.2386,1.04249" style="fill: none;stroke: #f1fafc;stroke-linecap: round;stroke-miterlimit: 10;stroke-width: 0.39217106771128px"/>
                </g>
                <line x1="217.51785" y1="203.45308" x2="217.51785" y2="196.82511" style="fill: none;stroke: #f1fafc;stroke-linecap: round;stroke-miterlimit: 10;stroke-width: 0.39217106771128px"/>
                <line x1="217.51785" y1="207.89527" x2="217.51785" y2="205.31529" style="fill: none;stroke: #f1fafc;stroke-linecap: round;stroke-miterlimit: 10;stroke-width: 0.39217106771128px"/>
                <line x1="219.35619" y1="208.51208" x2="219.35619" y2="201.88411" style="fill: none;stroke: #c8ebf5;stroke-linecap: round;stroke-miterlimit: 10;stroke-width: 0.39217106771128px"/>
                <line x1="219.35619" y1="212.95426" x2="219.35619" y2="210.37428" style="fill: none;stroke: #c8ebf5;stroke-linecap: round;stroke-miterlimit: 10;stroke-width: 0.39217106771128px"/>
                <g>
                  <path d="M211.3912,187.823s3.32063-.028,5.49051,3.97613" style="fill: none;stroke: #f1fafc;stroke-linecap: round;stroke-miterlimit: 10;stroke-width: 0.39217106771128px"/>
                  <path d="M217.27925,192.64565a3.45274,3.45274,0,0,1,.2386,1.04249" style="fill: none;stroke: #f1fafc;stroke-linecap: round;stroke-miterlimit: 10;stroke-width: 0.39217106771128px"/>
                </g>
                <g>
                  <path d="M180.99785,195.703h10.359a5.17949,5.17949,0,1,0-10.359,0Z" style="fill: #d5e5e9"/>
                  <path d="M191.3537,195.703v.00383a5.012,5.012,0,0,0-4.97886-5.17948C190.99442,192.19343,191.3537,195.703,191.3537,195.703Z" style="fill: #6ba3b3;opacity: 0.5"/>
                  <path d="M191.333,195.70295a5.15811,5.15811,0,0,0-5.00395-5.17564h23.831a4.29442,4.29442,0,0,1,4.29442,4.29441v31.05085H195.62746a4.29441,4.29441,0,0,1-4.29441-4.29442Z" style="fill: #eff9fc"/>
                  <g>
                    <path d="M198.66131,195.08371h8.6266a.87454.87454,0,0,0,.86714-.761l.01516-.11579a.87455.87455,0,0,0-.87875-.988l-8.64208.11463a.87454.87454,0,0,0-.82981,1.11289l.00033.00118A.87454.87454,0,0,0,198.66131,195.08371Z" style="fill: #84d3e8"/>
                    <path d="M195.34852,202.84228h12.29472a.43924.43924,0,0,0,.42766-.339l.03158-.13482a.43924.43924,0,0,0-.43241-.53939l-12.326.13337a.43922.43922,0,0,0-.42286.33885l-.00034.00146A.43923.43923,0,0,0,195.34852,202.84228Z" style="fill: #ade2ef"/>
                    <path d="M210.08916,202.84228H211.43a.44709.44709,0,0,0,.43529-.34511l.02074-.08854a.44708.44708,0,0,0-.46315-.54818l-1.36069.085a.44707.44707,0,0,0-.40739.34407l-.00084.00358A.44708.44708,0,0,0,210.08916,202.84228Z" style="fill: #ade2ef"/>
                    <path d="M195.20383,205.06792h11.08172a.442.442,0,0,0,.43929-.49109l-.01459-.13058a.442.442,0,0,0-.4445-.39292l-11.06713.13059a.442.442,0,0,0-.40043.61758h0A.442.442,0,0,0,195.20383,205.06792Z" style="fill: #ade2ef"/>
                    <path d="M194.69029,209.56346H206.985a.43922.43922,0,0,0,.42765-.339l.03159-.13481a.43923.43923,0,0,0-.43241-.53939l-12.326.13336a.43921.43921,0,0,0-.42286.33886l-.00034.00145A.43923.43923,0,0,0,194.69029,209.56346Z" style="fill: #ade2ef"/>
                    <path d="M210.07926,209.56346h1.3569a.43924.43924,0,0,0,.42766-.339l.02457-.10487a.43924.43924,0,0,0-.455-.53857l-1.377.086a.43923.43923,0,0,0-.40025.338l-.00443.01889A.43923.43923,0,0,0,210.07926,209.56346Z" style="fill: #ade2ef"/>
                    <path d="M195.08277,211.7891h12.41767a.43923.43923,0,0,0,.43652-.488l-.01527-.13665a.43924.43924,0,0,0-.44118-.39045l-12.40447.1319a.43923.43923,0,0,0-.39841.6137l.002.00475A.43922.43922,0,0,0,195.08277,211.7891Z" style="fill: #ade2ef"/>
                    <path d="M195.34852,213.87726h6.432a.43923.43923,0,0,0,.42766-.339l.03044-.13a.43923.43923,0,0,0-.43619-.53933l-6.46144.12554a.43925.43925,0,0,0-.41909.3388l-.001.00441A.43922.43922,0,0,0,195.34852,213.87726Z" style="fill: #ade2ef"/>
                    <path d="M195.34852,217.82468h12.29472a.43924.43924,0,0,0,.42766-.33905l.03158-.13481a.43923.43923,0,0,0-.43241-.53939l-12.326.13336a.43924.43924,0,0,0-.42286.33886l-.00034.00145A.43923.43923,0,0,0,195.34852,217.82468Z" style="fill: #ade2ef"/>
                    <path d="M210.07926,217.82468h1.3569a.43924.43924,0,0,0,.42766-.33905l.02457-.10487a.43923.43923,0,0,0-.455-.53856l-1.377.086a.43923.43923,0,0,0-.40025.338l-.00443.01889A.43923.43923,0,0,0,210.07926,217.82468Z" style="fill: #ade2ef"/>
                    <path d="M195.08277,220.05033h12.41767a.43924.43924,0,0,0,.43652-.488l-.01527-.13665a.43922.43922,0,0,0-.44118-.39044l-12.40447.13189a.43923.43923,0,0,0-.39841.6137l.002.00476A.43923.43923,0,0,0,195.08277,220.05033Z" style="fill: #ade2ef"/>
                    <path d="M195.65782,222.13849h6.432a.43922.43922,0,0,0,.42765-.339l.03045-.13a.43925.43925,0,0,0-.43619-.53934l-6.46145.12554a.43923.43923,0,0,0-.41908.3388l-.001.00442A.43923.43923,0,0,0,195.65782,222.13849Z" style="fill: #ade2ef"/>
                    <line x1="212.04191" y1="198.29447" x2="194.30528" y2="198.71907" style="fill: none;stroke: #ade2ef;stroke-linecap: round;stroke-miterlimit: 10;stroke-width: 0.082800178588102px"/>
                  </g>
                </g>
                <g>
                  <path d="M200.503,220.7635a5.16836,5.16836,0,0,1-3.71967,5.10907h14.05486l.02378-5.10907a5.17949,5.17949,0,1,0-10.359,0Z" style="fill: #d5e5e9"/>
                  <path d="M210.862,222.33547v-1.572a5.011,5.011,0,0,0-4.9816-5.17565C210.862,216.87787,210.862,222.33547,210.862,222.33547Z" style="fill: #6ba3b3;opacity: 0.5"/>
                  <path d="M210.83819,220.76349a5.1581,5.1581,0,0,0-5.00394-5.17564h23.831a4.29441,4.29441,0,0,1,4.29441,4.29441v26.57349H215.13261a4.29441,4.29441,0,0,1-4.29442-4.29441Z" style="fill: #eff9fc"/>
                  <path d="M215.56061,220.24731h9.52163a.43923.43923,0,0,0,.42765-.339l.03122-.13326a.43924.43924,0,0,0-.43361-.53938l-9.55285.12964a.43925.43925,0,0,0-.43327.4392v.00362A.43923.43923,0,0,0,215.56061,220.24731Z" style="fill: #9fdded"/>
                  <path d="M230.40636,220.24731h1.3569a.43924.43924,0,0,0,.42765-.339l.02457-.10487a.43923.43923,0,0,0-.455-.53856l-1.377.086a.43921.43921,0,0,0-.40024.338l-.00444.01889A.43924.43924,0,0,0,230.40636,220.24731Z" style="fill: #9fdded"/>
                  <path d="M215.40986,222.473h12.41767a.43924.43924,0,0,0,.43652-.488l-.01527-.13665a.43922.43922,0,0,0-.44118-.39044l-12.40447.13189a.43923.43923,0,0,0-.39841.6137l.00206.00476A.43923.43923,0,0,0,215.40986,222.473Z" style="fill: #9fdded"/>
                  <path d="M215.67562,224.56112h6.432a.43924.43924,0,0,0,.42765-.339l.03044-.13a.43923.43923,0,0,0-.43618-.53934l-6.46145.12554a.43923.43923,0,0,0-.41908.3388l-.001.00442A.43924.43924,0,0,0,215.67562,224.56112Z" style="fill: #9fdded"/>
                  <path d="M215.67562,228.85444h12.29472a.43924.43924,0,0,0,.42765-.33905l.03158-.13481a.43923.43923,0,0,0-.4324-.53939l-12.326.13336a.43925.43925,0,0,0-.42287.33886l-.00034.00145A.43924.43924,0,0,0,215.67562,228.85444Z" style="fill: #9fdded"/>
                  <path d="M230.41626,228.85444H231.757a.44707.44707,0,0,0,.43529-.3451l.02074-.08855a.44707.44707,0,0,0-.46315-.54817l-1.36069.085a.44709.44709,0,0,0-.40739.34406l-.00084.00359A.44708.44708,0,0,0,230.41626,228.85444Z" style="fill: #9fdded"/>
                  <path d="M216.02568,231.08009h8.916a.43923.43923,0,0,0,.43652-.488l-.0151-.13517a.43924.43924,0,0,0-.44283-.39043l-8.904.128a.43924.43924,0,0,0-.39677.61368l.00312.00721A.43923.43923,0,0,0,216.02568,231.08009Z" style="fill: #9fdded"/>
                  <path d="M216.66455,233.16825h6.432a.43924.43924,0,0,0,.42766-.33905l.03044-.12995a.43923.43923,0,0,0-.43619-.53933l-6.46144.12554a.43922.43922,0,0,0-.41909.3388l-.001.00441A.43923.43923,0,0,0,216.66455,233.16825Z" style="fill: #9fdded"/>
                  <path d="M215.67562,237.5775h12.29472a.43924.43924,0,0,0,.42765-.339l.03158-.13481a.43922.43922,0,0,0-.4324-.53939l-12.326.13336a.43924.43924,0,0,0-.42287.33886l-.00034.00145A.43924.43924,0,0,0,215.67562,237.5775Z" style="fill: #9fdded"/>
                  <polygon points="229.852 237.577 232.111 237.577 232.35 236.558 230.058 236.701 229.852 237.577" style="fill: #a0a2d7"/>
                  <path d="M215.40986,239.80315h12.41767a.43924.43924,0,0,0,.43652-.488l-.01527-.13665a.43924.43924,0,0,0-.44118-.39045l-12.40447.1319a.43923.43923,0,0,0-.39841.6137l.00206.00475A.43922.43922,0,0,0,215.40986,239.80315Z" style="fill: #9fdded"/>
                  <polygon points="220.984 241.891 228.319 241.891 228.557 240.872 221.19 241.015 220.984 241.891" style="fill: #a0a2d7"/>
                </g>
                <g>
                  <path d="M219.80691,241.32435a5.16836,5.16836,0,0,1-3.71967,5.10907H230.1421l.02378-5.10907a5.17949,5.17949,0,0,0-10.359,0Z" style="fill: #d5e5e9"/>
                  <path d="M230.152,242.89632l0-1.572a5.0407,5.0407,0,0,0-5.0138-5.17948C230.01266,237.13956,230.179,242.94363,230.152,242.89632Z" style="fill: #6ba3b3;opacity: 0.5"/>
                  <path d="M230.1421,241.141a5.1581,5.1581,0,0,0-5.00394-5.17564h23.831a4.29441,4.29441,0,0,1,4.29441,4.29441v25.142H234.43651a4.29441,4.29441,0,0,1-4.29441-4.29441Z" style="fill: #eff9fc"/>
                  <path d="M234.36616,240.87013h9.52163a.43922.43922,0,0,0,.42765-.339l.03122-.13327a.43922.43922,0,0,0-.43361-.53937l-9.55285.12964a.43924.43924,0,0,0-.43327.43919v.00363A.43923.43923,0,0,0,234.36616,240.87013Z" style="fill: #9fdded"/>
                  <path d="M249.219,240.87013h1.3569a.43924.43924,0,0,0,.42765-.339l.02457-.10488a.43924.43924,0,0,0-.455-.53856l-1.377.086a.43923.43923,0,0,0-.40025.338l-.00443.01889A.43923.43923,0,0,0,249.219,240.87013Z" style="fill: #9fdded"/>
                  <path d="M234.22245,243.09577h12.41767a.43923.43923,0,0,0,.43652-.488l-.01527-.13665a.43924.43924,0,0,0-.44118-.39045l-12.40447.1319a.43923.43923,0,0,0-.39841.6137l.002.00475A.43923.43923,0,0,0,234.22245,243.09577Z" style="fill: #9fdded"/>
                  <path d="M234.51672,245.18393h6.42747a.44146.44146,0,0,0,.42982-.34076l.02938-.12545a.44144.44144,0,0,0-.43839-.54206l-6.45686.12545a.44144.44144,0,0,0-.4212.34051h0A.44145.44145,0,0,0,234.51672,245.18393Z" style="fill: #9fdded"/>
                  <path d="M234.4882,249.47726h12.29472a.43924.43924,0,0,0,.42766-.33905l.03158-.13481a.43923.43923,0,0,0-.43241-.53939l-12.326.13336a.43924.43924,0,0,0-.42286.33886l-.00034.00145A.43923.43923,0,0,0,234.4882,249.47726Z" style="fill: #9fdded"/>
                  <path d="M249.219,249.47726h1.3569a.43924.43924,0,0,0,.42765-.33905l.02457-.10487a.43923.43923,0,0,0-.455-.53856l-1.377.086a.43923.43923,0,0,0-.40025.338l-.00443.01889A.43923.43923,0,0,0,249.219,249.47726Z" style="fill: #9fdded"/>
                  <path d="M234.60173,251.70291h8.916a.43923.43923,0,0,0,.43651-.488l-.01509-.13516a.43924.43924,0,0,0-.44283-.39043l-8.904.128a.43924.43924,0,0,0-.39678.61368l.00312.0072A.43924.43924,0,0,0,234.60173,251.70291Z" style="fill: #9fdded"/>
                  <path d="M234.84605,253.79107h6.432a.43924.43924,0,0,0,.42766-.339l.03044-.13a.43924.43924,0,0,0-.43619-.53933l-6.46144.12554a.43925.43925,0,0,0-.41909.3388l-.001.00442A.43923.43923,0,0,0,234.84605,253.79107Z" style="fill: #9fdded"/>
                  <line x1="250.73342" y1="255.80113" x2="232.9968" y2="256.22574" style="fill: none;stroke: #ade2ef;stroke-linecap: round;stroke-miterlimit: 10;stroke-width: 0.082800178588102px"/>
                  <path d="M262.22075,260.44086H239.21114c0,2.57214-2.05679,5.14427-3.93248,5.14427h22.64768a4.29441,4.29441,0,0,0,4.29441-4.29441Z" style="fill: #d5e5e9"/>
                </g>
                <line x1="228.55735" y1="254.88396" x2="228.55735" y2="248.25599" style="fill: none;stroke: #e4f5fa;stroke-linecap: round;stroke-miterlimit: 10;stroke-width: 0.39217106771128px"/>
                <line x1="228.55735" y1="259.32614" x2="228.55735" y2="256.74616" style="fill: none;stroke: #e4f5fa;stroke-linecap: round;stroke-miterlimit: 10;stroke-width: 0.39217106771128px"/>
                <g>
                  <circle cx="236.16874" cy="259.55078" r="2.2307" style="fill: none;stroke: #76cee5;stroke-miterlimit: 10;stroke-width: 0.346568730181058px"/>
                  <polyline points="235.191 259.848 235.968 260.521 237.125 258.691" style="fill: none;stroke: #76cee5;stroke-linecap: round;stroke-miterlimit: 10;stroke-width: 0.519853095271586px"/>
                </g>
                <g>
                  <path d="M231.89127,267.62408s-3.32063.02805-5.49051-3.97613" style="fill: none;stroke: #bae6f2;stroke-linecap: round;stroke-miterlimit: 10;stroke-width: 0.39217106771128px"/>
                  <path d="M226.00322,262.80138a3.45274,3.45274,0,0,1-.2386-1.04249" style="fill: none;stroke: #bae6f2;stroke-linecap: round;stroke-miterlimit: 10;stroke-width: 0.39217106771128px"/>
                </g>
              </g>
            </g>
          </g>
          <g>
            <polygon points="0 345.718 11.751 342.906 92.686 380.217 97.281 390.081 81.511 434.318 0 434.186 0 345.718" style="fill: #eff9fc"/>
            <polygon points="20.072 204.672 37.546 202.172 42.204 211.143 33.51 215.736 20.072 204.672" style="fill: #f7fcfd"/>
            <polygon points="25.508 229.814 41.714 232.615 42.204 211.143 33.51 215.736 25.508 229.814" style="fill: #def3f9"/>
            <polygon points="25.508 229.814 18.384 224.363 15.187 252.805 27.491 254.428 25.508 229.814" style="fill: #c6ebf4"/>
            <polygon points="25.508 229.814 41.714 232.615 46.052 243.772 27.491 254.428 25.508 229.814" style="fill: #f7fcfd"/>
            <polygon points="7.295 299.827 13.851 361.825 50.631 396.475 46.173 332.501 7.295 299.827" style="fill: #bde8f2"/>
            <polygon points="64.06 333.136 70.616 395.134 50.631 396.475 46.173 332.501 64.06 333.136" style="fill: #ceeef5"/>
            <polygon points="64.06 333.136 70.616 395.134 84.376 389.469 79.917 325.495 64.06 333.136" style="fill: #def3f9"/>
            <polygon points="88.385 341.936 93.698 390.351 84.376 389.469 80.856 338.957 88.385 341.936" style="fill: #ceeef5"/>
            <polygon points="88.385 341.936 84.295 336.011 80.613 335.481 80.856 338.957 88.385 341.936" style="fill: #eff9fc"/>
            <polygon points="7.295 299.827 16.329 289.764 70.29 308.945 80.209 325.339 63.999 332.93 46.173 332.501 7.295 299.827" style="fill: #eff9fc"/>
            <polygon points="16.129 283.214 18.21 278.3 42.024 269.147 65.467 303.939 49.257 311.53 16.129 283.214" style="fill: #eff9fc"/>
            <polygon points="52.084 324.104 69.926 318.059 65.467 303.939 49.257 311.53 52.084 324.104" style="fill: #def3f9"/>
            <polygon points="16.129 283.214 16.635 299.738 52.084 324.104 49.257 311.53 16.129 283.214" style="fill: #ceeef5"/>
            <polygon points="39.901 291.889 18.21 278.3 14.862 252.696 27.491 254.428 39.901 291.889" style="fill: #bde8f2"/>
            <polygon points="20.072 204.672 18.449 224.648 25.366 229.735 33.51 215.736 20.072 204.672" style="fill: #bde8f2"/>
            <polygon points="39.901 291.889 55.37 289.15 46.052 243.772 27.491 254.428 39.901 291.889" style="fill: #def3f9"/>
          </g>
          <g>
            <polygon points="320 378.483 320 434.186 275.504 434.186 275.932 428.053 320 378.483" style="fill: #ceeef5"/>
            <polygon points="320 355.077 320 378.483 275.932 428.053 278.592 389.877 320 355.077" style="fill: #bde8f2"/>
            <polygon points="257.317 390.388 255.65 434.186 275.504 434.186 278.592 389.877 257.317 390.388" style="fill: #c6ebf4"/>
            <polygon points="257.317 390.388 255.65 434.186 234.733 434.186 237.969 381.328 257.317 390.388" style="fill: #d6f0f7"/>
            <polygon points="320 345.318 314.21 338.869 249.808 361.763 237.969 381.328 257.317 390.388 278.592 389.877 320 355.077 320 345.318" style="fill: #eff9fc"/>
            <polygon points="314.45 331.052 311.966 325.186 283.544 314.263 255.564 355.788 274.911 364.847 314.45 331.052" style="fill: #eff9fc"/>
            <polygon points="271.537 379.854 250.242 372.64 255.564 355.788 274.911 364.847 271.537 379.854" style="fill: #def3f9"/>
            <polygon points="314.45 331.052 313.846 350.773 271.537 379.854 274.911 364.847 314.45 331.052" style="fill: #ceeef5"/>
            <polygon points="314.45 331.052 311.966 325.186 283.544 314.263 255.564 355.788 274.911 364.847 314.45 331.052" style="fill: #eff9fc"/>
            <polygon points="271.537 379.854 250.242 372.64 255.564 355.788 274.911 364.847 271.537 379.854" style="fill: #def3f9"/>
            <polygon points="314.45 331.052 313.846 350.773 271.537 379.854 274.911 364.847 314.45 331.052" style="fill: #ceeef5"/>
            <polygon points="309.871 318.529 308.224 314.641 289.383 307.4 270.835 334.926 283.66 340.932 309.871 318.529" style="fill: #eff9fc"/>
            <polygon points="281.424 350.88 267.307 346.098 270.835 334.926 283.66 340.932 281.424 350.88" style="fill: #def3f9"/>
            <polygon points="309.871 318.529 309.47 331.602 281.424 350.88 283.66 340.932 309.871 318.529" style="fill: #ceeef5"/>
            <polygon points="309.871 318.529 308.224 314.641 289.383 307.4 270.835 334.926 283.66 340.932 309.871 318.529" style="fill: #eff9fc"/>
            <polygon points="281.424 350.88 267.307 346.098 270.835 334.926 283.66 340.932 281.424 350.88" style="fill: #def3f9"/>
            <polygon points="309.871 318.529 309.47 331.602 281.424 350.88 283.66 340.932 309.871 318.529" style="fill: #ceeef5"/>
            <polygon points="302.245 267.211 289.678 265.413 286.328 271.865 292.581 275.169 302.245 267.211" style="fill: #f7fcfd"/>
            <polygon points="298.336 285.293 286.681 287.307 286.328 271.865 292.581 275.169 298.336 285.293" style="fill: #def3f9"/>
            <polygon points="298.336 285.293 303.459 281.372 305.758 301.827 296.909 302.995 298.336 285.293" style="fill: #c6ebf4"/>
            <polygon points="298.336 285.293 286.681 287.307 283.561 295.331 296.909 302.995 298.336 285.293" style="fill: #f7fcfd"/>
            <polygon points="287.985 329.935 303.584 320.162 305.992 301.749 296.909 302.995 287.985 329.935" style="fill: #bde8f2"/>
            <polygon points="302.245 267.211 303.412 281.577 298.438 285.236 292.581 275.169 302.245 267.211" style="fill: #bde8f2"/>
            <polygon points="287.985 329.935 276.86 327.966 283.561 295.331 296.909 302.995 287.985 329.935" style="fill: #def3f9"/>
          </g>
          <g style="opacity: 0.15">
            <polygon points="182.408 344.91 157.366 326.84 149.943 328.493 163.484 347.936 182.408 344.91" style="fill: #65c7de"/>
            <polygon points="167.949 434.186 223.46 434.186 184.011 343.78 163.484 347.936 167.949 434.186" style="fill: #65c7de"/>
          </g>
          <g>
            <polygon points="167.949 434.186 150.917 434.186 149.099 319.151 163.312 339.559 167.949 434.186" style="fill: #eff9fc"/>
            <polygon points="183.175 336.382 156.89 317.416 149.099 319.151 163.312 339.559 183.175 336.382" style="fill: #e6f6fa"/>
            <polygon points="167.949 434.186 215.038 434.186 183.175 336.382 163.312 339.559 167.949 434.186" style="fill: #d6f0f7"/>
          </g>
        </g>
      </g>
    </g>
  </g>
</svg>
