<svg xmlns="http://www.w3.org/2000/svg" xmlns:xlink="http://www.w3.org/1999/xlink" viewBox="0 0 1092 856">
  <defs>
    <clipPath id="clip-path">
      <path d="M1045.424,0l-9.79367,69.88564-37.72856,49.34649-38.738,392.7823-63.548,73.15807L840.75,766.90947a126.0982,126.0982,0,0,0-55.79331,53.05946,102.88708,102.88708,0,0,0-62.89725-2.07089,125.27136,125.27136,0,0,0-193.89657-30.88635,209.015,209.015,0,0,0-76.46443,37.79593,102.58439,102.58439,0,0,0-137.222-53.9771A210.58431,210.58431,0,0,0,183.88292,663.58091L165.03285,306.05559l-37.72034-73.15853L116.14277,0Z" style="fill: none"/>
    </clipPath>
    <linearGradient id="Dégradé_sans_nom_3" data-name="Dégradé sans nom 3" y1="428" x2="1092" y2="428" gradientUnits="userSpaceOnUse">
      <stop offset="0" stop-color="#ade2ef"/>
      <stop offset="1" stop-color="#ade2ef"/>
    </linearGradient>
    <clipPath id="clip-path-2">
      <path d="M403.00015,374.6921a5.18407,5.18407,0,0,1-4.28423,4.35368,108.89742,108.89742,0,0,1-34.43728.01409,5.19087,5.19087,0,0,1-4.30948-4.46179,205.3975,205.3975,0,0,1,.02624-54.31106,5.19153,5.19153,0,0,1,4.14683-4.39538,88.91115,88.91115,0,0,1,34.70879.01732,5.21233,5.21233,0,0,1,4.127,4.33665,180.05758,180.05758,0,0,1,.02209,54.44649Z" style="fill: none;clip-rule: evenodd"/>
    </clipPath>
  </defs>
  <title>engine-desktop-home-top</title>
  <g id="deskstop-home-top">
    <polygon points="97.254 0 116.143 0 127.313 232.897 97.254 0" style="fill: #eff9fc"/>
    <polygon points="179.621 582.75 155.435 320.44 127.313 232.897 165.033 306.056 179.621 582.75" style="fill: #e6f6fa"/>
    <g style="clip-path: url(#clip-path)">
      <g>
        <polygon points="1092 856 0 856 0 0.226 1092 0 1092 856" style="fill: url(#Dégradé_sans_nom_3)"/>
        <polygon points="911.282 857.849 115.515 857.849 115.515 374.67 224.634 556.112 299.178 591.851 326.095 577.945 544.807 712.521 677.704 680.86 766.684 722.843 877.274 666.256 911.282 692.761 911.282 857.849" style="fill: #b9e6f1"/>
        <polygon points="115.725 857.849 115.515 374.67 216.047 670.36 326.603 576.458 458.679 857.849 115.725 857.849" style="fill: #c6ebf4"/>
        <polygon points="694.165 760.188 877.274 666.256 907.079 845.998 697.137 845.998 694.165 760.188" style="fill: #c6ebf4"/>
        <polygon points="148.491 729.687 115.725 378.181 216.047 670.36 148.491 729.687" style="fill: #c6ebf4"/>
        <path d="M650.231,205.167H936.33037s-24.17516-24.59177-50.60765-24.59177-27.42619,9.54142-38.15818,9.54142-29.01612-26.86408-51.07632-26.86408-34.38212,19.31072-42.928,19.31072c-16.88771,0-17.11863-26.57983-68.15095-26.57983C628.22241,155.98342,650.231,205.167,650.231,205.167Z" style="fill: #b5e5f1"/>
        <path d="M631.72049,205.167H823.963s-16.69457-16.98227-34.948-16.98227-18.93963,6.589-26.35079,6.589-20.03758-18.55146-35.27163-18.55146-23.74316,13.33536-29.64464,13.33536c-11.6621,0-11.82157-18.35516-47.06282-18.35516C611.19373,171.20242,631.72049,205.167,631.72049,205.167Z" style="fill: #c6ebf4"/>
        <g>
          <g>
            <polygon points="765.988 755.593 757.767 856 609.367 857.849 765.988 755.593" style="fill: #b5e5f1"/>
            <polygon points="769.18 756.095 661.007 678.646 42.712 857.849 611.871 857.849 769.18 756.095" style="fill: #e6f6fa"/>
            <polygon points="643.706 616.676 630.229 586.758 354.505 522.17 125.647 800.829 293.941 807.165 643.706 616.676" style="fill: #e6f6fa"/>
            <polygon points="91.445 857.849 103.63 828.079 293.879 840.65 290.622 857.849 91.445 857.849" style="fill: #ceeef5"/>
            <polygon points="293.941 807.165 125.647 800.829 103.63 828.079 293.879 840.65 293.941 807.165" style="fill: #d6f0f7"/>
            <polygon points="657.758 647.872 659.741 758.379 475.818 856.991 290.622 857.849 293.879 840.65 657.758 647.872" style="fill: #c6ebf4"/>
            <polygon points="657.758 647.872 643.706 616.676 293.941 807.165 293.879 840.65 657.758 647.872" style="fill: #ceeef5"/>
            <g>
              <polygon points="421.318 703.466 589.17 617.971 535.358 490.271 421.318 703.466" style="fill: #bde8f2"/>
              <polygon points="420.754 704.358 270.5 672.153 306.308 575.429 316.38 548.224 325.602 523.314 333.519 492.114 535.358 490.26 420.754 704.358" style="fill: #c6ebf4"/>
              <polygon points="421.318 703.466 350.788 709.593 271.063 671.261 306.872 574.538 316.944 547.332 326.166 522.422 331.197 491.452 492.932 489.821 421.318 703.466" style="fill: #ceeef5"/>
              <polygon points="350.788 709.593 271.063 671.261 306.872 574.538 327.977 491.482 360.613 491.107 350.788 709.593" style="fill: #daf2f8"/>
            </g>
            <polygon points="327.977 491.482 320.179 522.17 456.063 503.133 535.112 490.273 327.977 491.482" style="fill: #65c7de;opacity: 0.2"/>
          </g>
          <g>
            <g>
              <g>
                <g style="opacity: 0.7000000000000001">
                  <path d="M375.25287,262.55973s-.06745-3.1149-3.87525-5.03658" style="fill: none;stroke: #f1fafc;stroke-linecap: round;stroke-miterlimit: 10;stroke-width: 0.3675270567597836px"/>
                  <path d="M370.5743,257.17428a3.2255,3.2255,0,0,0-.98215-.19429" style="fill: none;stroke: #f1fafc;stroke-linecap: round;stroke-miterlimit: 10;stroke-width: 0.3675270567597836px"/>
                </g>
                <g style="opacity: 0.7000000000000001">
                  <path d="M407.475,240.80429a3.93292,3.93292,0,0,0-2.325,3.21528" style="fill: none;stroke: #f1fafc;stroke-linecap: round;stroke-miterlimit: 10;stroke-width: 0.3371320625420081px"/>
                  <path d="M405.08344,244.56333a2.027,2.027,0,0,0,.05734.62381" style="fill: none;stroke: #f1fafc;stroke-linecap: round;stroke-miterlimit: 10;stroke-width: 0.3371320625420081px"/>
                </g>
                <g style="opacity: 0.7000000000000001">
                  <path d="M385.883,238.48234a3.49318,3.49318,0,0,0,1.86049,2.98853" style="fill: none;stroke: #f1fafc;stroke-linecap: round;stroke-miterlimit: 10;stroke-width: 0.2990671201111655px"/>
                  <path d="M388.16719,241.70725a1.78733,1.78733,0,0,0,.53067.161" style="fill: none;stroke: #f1fafc;stroke-linecap: round;stroke-miterlimit: 10;stroke-width: 0.2990671201111655px"/>
                </g>
                <g style="opacity: 0.7000000000000001">
                  <path d="M413.42042,255.17s.18454-3.14282,4.1014-4.9403" style="fill: none;stroke: #f1fafc;stroke-linecap: round;stroke-miterlimit: 10;stroke-width: 0.3713755569559153px"/>
                  <path d="M418.346,249.90759a3.25974,3.25974,0,0,1,.999-.1593" style="fill: none;stroke: #f1fafc;stroke-linecap: round;stroke-miterlimit: 10;stroke-width: 0.3713755569559153px"/>
                </g>
                <g>
                  <g>
                    <path d="M398.76419,266.4666l-13.28974-1.43422a36.38768,36.38768,0,0,1,.62525-8.57506,35.08959,35.08959,0,0,1,2.08147-7.78674c4.13821-.26338,8.04889-.57377,12.18709-.83715a30.58058,30.58058,0,0,0-2.18166,9.28891A31.15442,31.15442,0,0,0,398.76419,266.4666Z" style="fill: #2b7b92;opacity: 0.05"/>
                    <path d="M398.38615,265.90421l-12.56853-1.21184a34.08246,34.08246,0,0,1,2.50754-15.87569l11.773-.74928a29.51916,29.51916,0,0,0-1.712,17.83681Z" style="fill: #eff9fc"/>
                    <path d="M398.38615,265.90421l-7.05662-.68039s4.84422-16.90665,8.76858-17.15642a29.51916,29.51916,0,0,0-1.712,17.83681Z" style="fill: #def3f9"/>
                    <line x1="389.08975" y1="250.65887" x2="397.31353" y2="250.47735" style="fill: none;stroke: #c6ebf4;stroke-linecap: round;stroke-miterlimit: 10;stroke-width: 0.30798679002889257px"/>
                    <line x1="388.76974" y1="252.23759" x2="396.99353" y2="252.05607" style="fill: none;stroke: #c6ebf4;stroke-linecap: round;stroke-miterlimit: 10;stroke-width: 0.30798679002889257px"/>
                    <line x1="388.41516" y1="253.85975" x2="396.63895" y2="253.67824" style="fill: none;stroke: #c6ebf4;stroke-linecap: round;stroke-miterlimit: 10;stroke-width: 0.30798679002889257px"/>
                    <line x1="387.99308" y1="255.70782" x2="396.21687" y2="255.52631" style="fill: none;stroke: #c6ebf4;stroke-linecap: round;stroke-miterlimit: 10;stroke-width: 0.30798679002889257px"/>
                    <line x1="387.63802" y1="257.72396" x2="395.89229" y2="257.72717" style="fill: none;stroke: #c6ebf4;stroke-linecap: round;stroke-miterlimit: 10;stroke-width: 0.30798679002889257px"/>
                    <line x1="387.45321" y1="259.77651" x2="395.54955" y2="260.10383" style="fill: none;stroke: #c6ebf4;stroke-linecap: round;stroke-miterlimit: 10;stroke-width: 0.30798679002889257px"/>
                    <line x1="387.34247" y1="262.02169" x2="395.51946" y2="262.48993" style="fill: none;stroke: #c6ebf4;stroke-linecap: round;stroke-miterlimit: 10;stroke-width: 0.30798679002889257px"/>
                  </g>
                  <g>
                    <path d="M401.30362,266.60507,389.47,272.83457a36.32645,36.32645,0,0,1-4.247-7.47028,35.08143,35.08143,0,0,1-2.59949-7.62871c3.29018-2.52937,6.36529-4.97072,9.65547-7.50009a30.56728,30.56728,0,0,0,3.35121,8.93215A31.07651,31.07651,0,0,0,401.30362,266.60507Z" style="fill: #2b7b92;opacity: 0.05"/>
                    <path d="M400.67709,266.34912,389.566,272.3606a34.04819,34.04819,0,0,1-6.74167-14.5841q4.68024-3.598,9.36039-7.19587a29.47632,29.47632,0,0,0,8.49239,15.76849Z" style="fill: #eff9fc"/>
                    <path d="M400.67709,266.34912l-6.23835,3.37515s-5.3742-16.745-2.254-19.14364a29.47632,29.47632,0,0,0,8.49239,15.76849Z" style="fill: #def3f9"/>
                    <line x1="384.48319" y1="258.87942" x2="391.21175" y2="254.1368" style="fill: none;stroke: #c6ebf4;stroke-linecap: round;stroke-miterlimit: 10;stroke-width: 0.30798679002889257px"/>
                    <line x1="385.09493" y1="260.36915" x2="391.82349" y2="255.62653" style="fill: none;stroke: #c6ebf4;stroke-linecap: round;stroke-miterlimit: 10;stroke-width: 0.30798679002889257px"/>
                    <line x1="385.7021" y1="261.91426" x2="392.43066" y2="257.17164" style="fill: none;stroke: #c6ebf4;stroke-linecap: round;stroke-miterlimit: 10;stroke-width: 0.30798679002889257px"/>
                    <line x1="386.37879" y1="263.68467" x2="393.10734" y2="258.94205" style="fill: none;stroke: #c6ebf4;stroke-linecap: round;stroke-miterlimit: 10;stroke-width: 0.30798679002889257px"/>
                    <line x1="387.20454" y1="265.55723" x2="394.06108" y2="260.95099" style="fill: none;stroke: #c6ebf4;stroke-linecap: round;stroke-miterlimit: 10;stroke-width: 0.30798679002889257px"/>
                    <line x1="388.19192" y1="267.36496" x2="395.09746" y2="263.11605" style="fill: none;stroke: #c6ebf4;stroke-linecap: round;stroke-miterlimit: 10;stroke-width: 0.30798679002889257px"/>
                    <line x1="389.34787" y1="269.29131" x2="396.39871" y2="265.1144" style="fill: none;stroke: #c6ebf4;stroke-linecap: round;stroke-miterlimit: 10;stroke-width: 0.30798679002889257px"/>
                  </g>
                  <g>
                    <path d="M389.65049,245.055l-5.48728,4.45609a19.16912,19.16912,0,0,1-2.97239-3.42947,18.5171,18.5171,0,0,1-2.13521-3.6826c1.44326-1.65206,2.78419-3.23619,4.22744-4.88825a16.13394,16.13394,0,0,0,2.65939,4.27987A16.39763,16.39763,0,0,0,389.65049,245.055Z" style="fill: #2b7b92;opacity: 0.05"/>
                    <path d="M389.29943,244.98739l-5.13546,4.26812a17.96876,17.96876,0,0,1-5.0001-6.85618l4.106-4.7a15.55531,15.55531,0,0,0,6.02956,7.28806Z" style="fill: #eff9fc"/>
                    <path d="M389.29943,244.98739l-2.88332,2.39634s-4.51492-8.11771-3.14624-9.6844a15.55531,15.55531,0,0,0,6.02956,7.28806Z" style="fill: #def3f9"/>
                    <line x1="380.13732" y1="242.79853" x2="383.13329" y2="239.6428" style="fill: none;stroke: #c6ebf4;stroke-linecap: round;stroke-miterlimit: 10;stroke-width: 0.1627272391610348px"/>
                    <line x1="380.60823" y1="243.50686" x2="383.60419" y2="240.35113" style="fill: none;stroke: #c6ebf4;stroke-linecap: round;stroke-miterlimit: 10;stroke-width: 0.1627272391610348px"/>
                    <line x1="381.08249" y1="244.24435" x2="384.07845" y2="241.08862" style="fill: none;stroke: #c6ebf4;stroke-linecap: round;stroke-miterlimit: 10;stroke-width: 0.1627272391610348px"/>
                    <line x1="381.61604" y1="245.09136" x2="384.61201" y2="241.93563" style="fill: none;stroke: #c6ebf4;stroke-linecap: round;stroke-miterlimit: 10;stroke-width: 0.1627272391610348px"/>
                    <line x1="382.23739" y1="245.97581" x2="385.31376" y2="242.87746" style="fill: none;stroke: #c6ebf4;stroke-linecap: round;stroke-miterlimit: 10;stroke-width: 0.1627272391610348px"/>
                    <line x1="382.93578" y1="246.8099" x2="386.07447" y2="243.89159" style="fill: none;stroke: #c6ebf4;stroke-linecap: round;stroke-miterlimit: 10;stroke-width: 0.1627272391610348px"/>
                    <line x1="383.73376" y1="247.68794" x2="386.95517" y2="244.79185" style="fill: none;stroke: #c6ebf4;stroke-linecap: round;stroke-miterlimit: 10;stroke-width: 0.1627272391610348px"/>
                  </g>
                  <g>
                    <path d="M408.83835,269.99612l-15.64988-5.2107a44.87,44.87,0,0,1,2.99-10.17544,43.24919,43.24919,0,0,1,4.54023-8.84347c5.05826.76648,9.85444,1.4167,14.9127,2.18318a37.69356,37.69356,0,0,0-5.05277,10.62843A38.43226,38.43226,0,0,0,408.83835,269.99612Z" style="fill: #2b7b92;opacity: 0.05"/>
                    <path d="M408.52919,269.219l-14.83829-4.75365a42.01841,42.01841,0,0,1,7.16331-18.485l14.39043,2.18064a36.399,36.399,0,0,0-6.71545,21.058Z" style="fill: #eff9fc"/>
                    <path d="M408.52919,269.219l-8.331-2.66894s10.24956-19.11591,15.04643-18.389a36.399,36.399,0,0,0-6.71545,21.058Z" style="fill: #def3f9"/>
                    <line x1="401.29572" y1="248.40187" x2="411.25874" y2="250.33734" style="fill: none;stroke: #c6ebf4;stroke-linecap: round;stroke-miterlimit: 10;stroke-width: 0.3799743957229856px"/>
                    <line x1="400.49819" y1="250.22155" x2="410.46122" y2="252.15702" style="fill: none;stroke: #c6ebf4;stroke-linecap: round;stroke-miterlimit: 10;stroke-width: 0.3799743957229856px"/>
                    <line x1="399.64765" y1="252.08456" x2="409.61068" y2="254.02003" style="fill: none;stroke: #c6ebf4;stroke-linecap: round;stroke-miterlimit: 10;stroke-width: 0.3799743957229856px"/>
                    <line x1="398.65682" y1="254.20227" x2="408.61984" y2="256.13774" style="fill: none;stroke: #c6ebf4;stroke-linecap: round;stroke-miterlimit: 10;stroke-width: 0.3799743957229856px"/>
                    <line x1="397.70296" y1="256.54019" x2="407.65457" y2="258.70637" style="fill: none;stroke: #c6ebf4;stroke-linecap: round;stroke-miterlimit: 10;stroke-width: 0.3799743957229856px"/>
                    <line x1="396.94489" y1="258.9666" x2="406.62157" y2="261.4822" style="fill: none;stroke: #c6ebf4;stroke-linecap: round;stroke-miterlimit: 10;stroke-width: 0.3799743957229856px"/>
                    <line x1="396.22589" y1="261.64468" x2="405.96306" y2="264.35131" style="fill: none;stroke: #c6ebf4;stroke-linecap: round;stroke-miterlimit: 10;stroke-width: 0.3799743957229856px"/>
                  </g>
                  <g>
                    <path d="M401.05423,252.182l-10.95791-5.16258a32.92874,32.92874,0,0,1,3.06249-7.15808,31.73221,31.73221,0,0,1,4.07719-6.0519c3.62134.99956,7.06169,1.89151,10.683,2.89107a27.65735,27.65735,0,0,0-4.60568,7.30861A28.2092,28.2092,0,0,0,401.05423,252.182Z" style="fill: #2b7b92;opacity: 0.05"/>
                    <path d="M400.89623,251.58848l-10.40584-4.75864a30.83274,30.83274,0,0,1,6.82586-12.85267q5.15131,1.42187,10.30249,2.84371a26.71134,26.71134,0,0,0-6.72251,14.7676Z" style="fill: #eff9fc"/>
                    <path d="M400.89623,251.58848l-5.84237-2.67175s9.13067-13.04375,12.56488-12.09585a26.71134,26.71134,0,0,0-6.72251,14.7676Z" style="fill: #def3f9"/>
                    <line x1="397.42811" y1="235.78107" x2="404.52398" y2="238.06026" style="fill: none;stroke: #c6ebf4;stroke-linecap: round;stroke-miterlimit: 10;stroke-width: 0.27899029048615276px"/>
                    <line x1="396.68883" y1="237.03825" x2="403.78469" y2="239.31745" style="fill: none;stroke: #c6ebf4;stroke-linecap: round;stroke-miterlimit: 10;stroke-width: 0.27899029048615276px"/>
                    <line x1="395.90714" y1="238.32241" x2="403.003" y2="240.6016" style="fill: none;stroke: #c6ebf4;stroke-linecap: round;stroke-miterlimit: 10;stroke-width: 0.27899029048615276px"/>
                    <line x1="395.00107" y1="239.78003" x2="402.09693" y2="242.05923" style="fill: none;stroke: #c6ebf4;stroke-linecap: round;stroke-miterlimit: 10;stroke-width: 0.27899029048615276px"/>
                    <line x1="394.10286" y1="241.40143" x2="401.17039" y2="243.84783" style="fill: none;stroke: #c6ebf4;stroke-linecap: round;stroke-miterlimit: 10;stroke-width: 0.27899029048615276px"/>
                    <line x1="393.33972" y1="243.1044" x2="400.1765" y2="245.7816" style="fill: none;stroke: #c6ebf4;stroke-linecap: round;stroke-miterlimit: 10;stroke-width: 0.27899029048615276px"/>
                    <line x1="392.58323" y1="244.99425" x2="399.44754" y2="247.816" style="fill: none;stroke: #c6ebf4;stroke-linecap: round;stroke-miterlimit: 10;stroke-width: 0.27899029048615276px"/>
                  </g>
                  <g>
                    <path d="M379.54194,273.89933,392.8902,267.08a46.7578,46.7578,0,0,0-3.6612-9.6184,43.066,43.066,0,0,0-4.90231-8.14532c-4.4056,1.30694-8.59055,2.47132-12.99616,3.77825a37.79019,37.79019,0,0,1,5.534,9.83389A40.95142,40.95142,0,0,1,379.54194,273.89933Z" style="fill: #2b7b92;opacity: 0.05"/>
                    <path d="M379.73859,273.10549l12.6746-6.28305a44.09591,44.09591,0,0,0-3.279-9.44048,41.63377,41.63377,0,0,0-4.90626-7.84168q-6.26693,1.8591-12.53367,3.71819a36.36044,36.36044,0,0,1,5.50527,9.443A38.83529,38.83529,0,0,1,379.73859,273.10549Z" style="fill: #def3f9"/>
                    <path d="M379.73859,273.10549l7.11617-3.52763s-1.24508-15.50324-6.20724-18.97545l-8.9533,2.65606a36.36044,36.36044,0,0,1,5.50527,9.443A38.83529,38.83529,0,0,1,379.73859,273.10549Z" style="fill: #eff9fc"/>
                    <line x1="384.07751" y1="251.9563" x2="375.44233" y2="254.94676" style="fill: none;stroke: #c6ebf4;stroke-linecap: round;stroke-miterlimit: 10;stroke-width: 0.35588003072731245px"/>
                    <line x1="384.96511" y1="253.6474" x2="376.32993" y2="256.63786" style="fill: none;stroke: #c6ebf4;stroke-linecap: round;stroke-miterlimit: 10;stroke-width: 0.35588003072731245px"/>
                    <line x1="385.904" y1="255.37501" x2="377.26882" y2="258.36547" style="fill: none;stroke: #c6ebf4;stroke-linecap: round;stroke-miterlimit: 10;stroke-width: 0.35588003072731245px"/>
                    <line x1="386.99253" y1="257.33616" x2="378.35735" y2="260.32663" style="fill: none;stroke: #c6ebf4;stroke-linecap: round;stroke-miterlimit: 10;stroke-width: 0.35588003072731245px"/>
                    <line x1="388.07019" y1="259.51668" x2="379.46807" y2="262.73143" style="fill: none;stroke: #c6ebf4;stroke-linecap: round;stroke-miterlimit: 10;stroke-width: 0.35588003072731245px"/>
                    <line x1="388.98317" y1="261.80529" x2="380.6594" y2="265.33135" style="fill: none;stroke: #c6ebf4;stroke-linecap: round;stroke-miterlimit: 10;stroke-width: 0.35588003072731245px"/>
                    <line x1="389.88657" y1="264.34425" x2="381.5282" y2="268.06374" style="fill: none;stroke: #c6ebf4;stroke-linecap: round;stroke-miterlimit: 10;stroke-width: 0.35588003072731245px"/>
                  </g>
                </g>
                <g>
                  <rect x="382.15221" y="291.89097" width="20.45648" height="4.97724" style="fill: #d90b0b"/>
                  <rect x="382.15221" y="291.89097" width="5.73939" height="4.97724" style="fill: #e03c3c"/>
                  <rect x="384.32214" y="296.86821" width="16.11662" height="3.15746" style="fill: #c40c1a"/>
                  <rect x="384.32214" y="296.86821" width="5.02478" height="3.15746" style="fill: #d03d48"/>
                  <rect x="386.77112" y="289.24254" width="11.21867" height="2.64843" style="fill: #c40c1a"/>
                  <rect x="386.77112" y="289.24254" width="3.25885" height="2.64843" style="fill: #d03d48"/>
                  <path d="M395.91416,289.24254h-7.06744v-7.784c-2.11783-.54473-5.06554-1.92372-9.00323-5.544a24.14854,24.14854,0,0,1-6.8587-11.21932h38.7913a20.76689,20.76689,0,0,1-6.17086,11.46592c-4.30862,4.04252-7.88717,5.02155-9.69107,5.29743Z" style="fill: #f7a71e"/>
                  <path d="M372.98479,264.69516h38.7913a20.43841,20.43841,0,0,1-.87934,3.33Z" style="fill: #cc8a19;opacity: 0.30000000000000004"/>
                  <path d="M395.91416,289.24254h-7.06744v-7.784c2.67741-3.28026,4.22683-10.78253,3.53379-16.76334h19.39558a20.76692,20.76692,0,0,1-6.17086,11.46592c-4.30862,4.04252-7.88717,5.02155-9.69107,5.29742Z" style="fill: #cc8a19;opacity: 0.30000000000000004"/>
                  <rect x="385.75323" y="300.02567" width="13.25445" height="8.17668" style="fill: #d90b0b"/>
                  <rect x="385.75323" y="300.02567" width="4.27674" height="8.17668" style="fill: #e03c3c"/>
                  <rect x="371.78336" y="261.60778" width="41.19419" height="3.08737" style="fill: #fbb03b"/>
                  <rect x="371.78336" y="261.60778" width="20.65401" height="3.08737" style="fill: #fcc062"/>
                </g>
                <g>
                  <path d="M328.53962,287.94822s-5.72931-1.083-10.72332,5.17612" style="fill: none;stroke: #f1fafc;stroke-linecap: round;stroke-miterlimit: 10;stroke-width: 0.6893294786565443px"/>
                  <path d="M316.86625,294.46671a6.08313,6.08313,0,0,0-.73631,1.73121" style="fill: none;stroke: #f1fafc;stroke-linecap: round;stroke-miterlimit: 10;stroke-width: 0.6893294786565443px"/>
                </g>
                <g>
                  <path d="M305.67,298.43451s-5.79619-.63127-10.28733,5.99956" style="fill: none;stroke: #f1fafc;stroke-linecap: round;stroke-miterlimit: 10;stroke-width: 0.6893294786565443px"/>
                  <path d="M294.54011,305.84669a6.08519,6.08519,0,0,0-.59918,1.78355" style="fill: none;stroke: #f1fafc;stroke-linecap: round;stroke-miterlimit: 10;stroke-width: 0.6893294786565443px"/>
                </g>
                <g>
                  <path d="M549.10688,316.452s.45747,3.57621-3.5702,6.43189" style="fill: none;stroke: #d6f0f7;stroke-linecap: round;stroke-miterlimit: 10;stroke-width: 0.4253113055994743px"/>
                  <path d="M544.67726,323.42167a3.735,3.735,0,0,1-1.09059.39168" style="fill: none;stroke: #d6f0f7;stroke-linecap: round;stroke-miterlimit: 10;stroke-width: 0.4253113055994743px"/>
                </g>
                <g>
                  <path d="M558.49538,250.707s2.63388,2.45569,1.36031,7.23292" style="fill: none;stroke: #d6f0f7;stroke-linecap: round;stroke-miterlimit: 10;stroke-width: 0.7971470657507276px"/>
                  <path d="M559.53825,258.90424a3.7512,3.7512,0,0,1-.58836,1.00025" style="fill: none;stroke: #d6f0f7;stroke-linecap: round;stroke-miterlimit: 10;stroke-width: 0.7971470657507276px"/>
                </g>
                <g>
                  <path d="M549.30605,330.24s11.14874-5.3894,12.59987-3.935-5.18728,8.1859-6.014,6.87768a2.81018,2.81018,0,0,1,0-3.48924c.79232-1.30725,7.87241.61072,8.16165,2.38013s-5.04681,7.33473-6.32174,6.05689-1.25224-2.42707-.34835-3.89771,6.86764,2.19182,6.67009,4.27348-7.08354,4.49114-8.16165,3.41057c-.70309-.7047-1.05081-2.34357,0-3.08823,1.05836-.75,6.09077,3.98931,4.6128,5.47066s-11.19867-3.71135-11.19867-3.71135" style="fill: none;stroke: #2b7b92;stroke-miterlimit: 10;stroke-width: 0.5809012007112273px;fill-rule: evenodd"/>
                  <path d="M549.30605,330.24s11.14874-5.3894,12.59987-3.935-5.18728,8.1859-6.014,6.87768a2.81018,2.81018,0,0,1,0-3.48924c.79232-1.30725,7.87241.61072,8.16165,2.38013s-5.04681,7.33473-6.32174,6.05689-1.25224-2.42707-.34835-3.89771,6.86764,2.19182,6.67009,4.27348-7.08354,4.49114-8.16165,3.41057c-.70309-.7047-1.05081-2.34357,0-3.08823,1.05836-.75,6.09077,3.98931,4.6128,5.47066s-11.19867-3.71135-11.19867-3.71135" style="fill: none;stroke: #76cee5;stroke-miterlimit: 10;stroke-width: 0.5809012007112273px;stroke-dasharray: 0.7970948815345764,1.5941897630691528;fill-rule: evenodd"/>
                  <rect x="537.79107" y="330.76496" width="13.3963" height="10.73918" transform="translate(880.62376 -208.35467) rotate(90)" style="fill: #d90b0b"/>
                  <rect x="543.77973" y="323.35732" width="1.41897" height="10.73918" transform="translate(215.7623 873.21613) rotate(-90)" style="fill: #e84d49"/>
                  <rect x="525.83443" y="333.37466" width="21.39378" height="6.3669" transform="translate(873.08943 -199.97322) rotate(90)" style="fill: #c40c1a"/>
                  <rect x="535.39828" y="321.54472" width="2.26609" height="6.3669" transform="translate(211.80315 861.2595) rotate(-90)" style="fill: #e84d49"/>
                  <rect x="538.80607" y="334.57386" width="18.78976" height="3.69267" transform="translate(884.62114 -211.78076) rotate(90)" style="fill: #c40c1a"/>
                  <rect x="547.20582" y="324.18385" width="1.99026" height="3.69267" transform="translate(222.17077 874.23113) rotate(-90)" style="fill: #e84d49"/>
                </g>
                <path d="M557.91557,231.76208l-6.73912-.00886a2.05806,2.05806,0,0,1-1.43036-2.25521c0-2.10474,1.70758-2.10384,2.5913-2.21573a4.54986,4.54986,0,0,1,.51661-.03908,2.2548,2.2548,0,0,0,0-4.50958H447.53739a2.2548,2.2548,0,0,0,0,4.50958l77.85334.00925a2.05838,2.05838,0,0,1,1.4288,2.25487c0,2.25476-2.32987,2.25476-1.09241,2.25476h-7.9699a2.2548,2.2548,0,0,0,0,4.50958h8.6031l.35865.00931c-.232,0-.33863-.00976-.35865-.00931-.087.00278,1.45106.20314,1.45106,2.26407a2.12262,2.12262,0,0,1-1.803,2.15558H485.62217a2.25479,2.25479,0,0,0,0,4.50957l18.51821.00914a2.05847,2.05847,0,0,1,1.42948,2.25493c0,2.25482-2.32988,2.25482-1.09263,2.25482h-7.96991a2.25479,2.25479,0,0,0,0,4.50957h8.6031l.35865.00931c-.23205,0-.33862-.00976-.35865-.00931-.087.00279,1.45128.20309,1.45128,2.26407,0,2.25481-2.51565,2.25481-2.51565,2.25481a2.2548,2.2548,0,0,0,0,4.50958h41.32862a2.2548,2.2548,0,0,0,0-4.50958l-26.05449-.00914a2.0582,2.0582,0,0,1-1.42947-2.255c0-2.25476,2.32988-2.25476,1.09263-2.25476h17.68233a2.25479,2.25479,0,0,0,0-4.50957l-6.73911-.00887a2.058,2.058,0,0,1-1.43037-2.2552c0-1.75247,1.18007-2.04214,2.08648-2.15559h13.27265a2.25479,2.25479,0,0,0,0-4.50957l-3.283-.00842a2.05793,2.05793,0,0,1-1.4317-2.25565c0-2.25481,2.32988-2.25481,1.09263-2.25481h17.68233a2.2548,2.2548,0,0,0,0-4.50958Z" style="fill: #fff;opacity: 0.4"/>
                <g>
                  <line x1="438.12551" y1="269.0856" x2="438.12551" y2="272.65495" style="fill: none;stroke: #d6f0f7;stroke-linecap: round;stroke-miterlimit: 10;stroke-width: 0.6893294786565443px"/>
                  <line x1="431.66687" y1="272.85268" x2="434.18503" y2="275.37659" style="fill: none;stroke: #d6f0f7;stroke-linecap: round;stroke-miterlimit: 10;stroke-width: 0.6893294786565443px"/>
                  <line x1="443.99146" y1="272.85268" x2="441.47331" y2="275.37659" style="fill: none;stroke: #d6f0f7;stroke-linecap: round;stroke-miterlimit: 10;stroke-width: 0.6893294786565443px"/>
                  <path d="M432.58287,300.68507h11.33819V288.21765A1.54287,1.54287,0,0,0,442.38,286.673h0a1.54288,1.54288,0,0,1-1.54111-1.54464v-5.84755a1.54288,1.54288,0,0,0-1.54111-1.54464h-1.98143a1.54288,1.54288,0,0,0-1.54111,1.54464v5.85751a1.54288,1.54288,0,0,1-1.54111,1.54464H434.124a1.54287,1.54287,0,0,0-1.54112,1.54463Z" style="fill: #fcc062"/>
                  <path d="M443.92106,300.68507V288.21765A1.54287,1.54287,0,0,0,442.38,286.673h0a1.54288,1.54288,0,0,1-1.54111-1.54464v-5.84755a1.54288,1.54288,0,0,0-1.54111-1.54464h-1.98143a1.54288,1.54288,0,0,0-1.54111,1.54464l3.57592,21.40425Z" style="fill: #f7a71e"/>
                  <path d="M439.882,300.68508v-7.60154a1.63363,1.63363,0,0,0,0-3.26725h-3.25981a1.63363,1.63363,0,0,0,0,3.26725v7.60154" style="fill: none;stroke: #cc8a19;stroke-miterlimit: 10;stroke-width: 0.5169971089924084px"/>
                  <rect x="435.86913" y="300.68508" width="4.81365" height="5.9826" style="fill: #2b7b92"/>
                  <polygon points="440.683 306.668 439.351 306.668 435.869 300.685 440.683 300.685 440.683 306.668" style="fill: #1d5463"/>
                </g>
                <g>
                  <line x1="494.32221" y1="269.0856" x2="494.32221" y2="272.65495" style="fill: none;stroke: #d6f0f7;stroke-linecap: round;stroke-miterlimit: 10;stroke-width: 0.6893294786565443px"/>
                  <line x1="487.86357" y1="272.85268" x2="490.38173" y2="275.37659" style="fill: none;stroke: #d6f0f7;stroke-linecap: round;stroke-miterlimit: 10;stroke-width: 0.6893294786565443px"/>
                  <line x1="500.18816" y1="272.85268" x2="497.67001" y2="275.37659" style="fill: none;stroke: #d6f0f7;stroke-linecap: round;stroke-miterlimit: 10;stroke-width: 0.6893294786565443px"/>
                  <path d="M488.77957,300.68507h11.33819V288.21765a1.54287,1.54287,0,0,0-1.54111-1.54463h0a1.54288,1.54288,0,0,1-1.54111-1.54464v-5.84755a1.54288,1.54288,0,0,0-1.54111-1.54464H493.513a1.54288,1.54288,0,0,0-1.54111,1.54464v5.85751a1.54288,1.54288,0,0,1-1.54111,1.54464h-.11009a1.54287,1.54287,0,0,0-1.54111,1.54463Z" style="fill: #fcc062"/>
                  <path d="M500.11776,300.68507V288.21765a1.54287,1.54287,0,0,0-1.54111-1.54463h0a1.54288,1.54288,0,0,1-1.54111-1.54464v-5.84755a1.54288,1.54288,0,0,0-1.54111-1.54464H493.513a1.54288,1.54288,0,0,0-1.54111,1.54464l3.57592,21.40425Z" style="fill: #f7a71e"/>
                  <path d="M496.07866,300.68508v-7.60154a1.63363,1.63363,0,0,0,0-3.26725h-3.25981a1.63363,1.63363,0,0,0,0,3.26725v7.60154" style="fill: none;stroke: #cc8a19;stroke-miterlimit: 10;stroke-width: 0.5169971089924084px"/>
                  <rect x="492.06583" y="300.68508" width="4.81365" height="5.9826" style="fill: #2b7b92"/>
                  <polygon points="496.879 306.668 495.548 306.668 492.066 300.685 496.879 300.685 496.879 306.668" style="fill: #1d5463"/>
                </g>
                <g>
                  <line x1="466.22386" y1="269.0856" x2="466.22386" y2="272.65495" style="fill: none;stroke: #c8ebf5;stroke-linecap: round;stroke-miterlimit: 10;stroke-width: 0.6893294786565443px"/>
                  <line x1="459.76522" y1="272.85268" x2="462.28338" y2="275.37659" style="fill: none;stroke: #c8ebf5;stroke-linecap: round;stroke-miterlimit: 10;stroke-width: 0.6893294786565443px"/>
                  <line x1="472.08981" y1="272.85268" x2="469.57166" y2="275.37659" style="fill: none;stroke: #c8ebf5;stroke-linecap: round;stroke-miterlimit: 10;stroke-width: 0.6893294786565443px"/>
                  <path d="M460.75163,300.68507h11.33818V288.21765a1.54287,1.54287,0,0,0-1.54111-1.54463h0a1.54288,1.54288,0,0,1-1.54111-1.54464v-5.84755a1.54288,1.54288,0,0,0-1.54111-1.54464H465.485a1.54288,1.54288,0,0,0-1.54111,1.54464v5.85751a1.54287,1.54287,0,0,1-1.54111,1.54464h-.11008a1.54287,1.54287,0,0,0-1.54111,1.54463Z" style="fill: #fcc062"/>
                  <path d="M472.08981,300.68507V288.21765a1.54287,1.54287,0,0,0-1.54111-1.54463h0a1.54288,1.54288,0,0,1-1.54111-1.54464v-5.84755a1.54288,1.54288,0,0,0-1.54111-1.54464H465.485a1.54288,1.54288,0,0,0-1.54111,1.54464l3.57593,21.40425Z" style="fill: #f7a71e"/>
                  <path d="M468.05071,300.68508v-7.60154a1.63363,1.63363,0,0,0,0-3.26725h-3.2598a1.63363,1.63363,0,0,0,0,3.26725v7.60154" style="fill: none;stroke: #cc8a19;stroke-miterlimit: 10;stroke-width: 0.5169971089924084px"/>
                  <rect x="464.03789" y="300.68508" width="4.81365" height="5.9826" style="fill: #2b7b92"/>
                  <polygon points="468.852 306.668 467.52 306.668 464.038 300.685 468.852 300.685 468.852 306.668" style="fill: #1d5463"/>
                </g>
                <g>
                  <path d="M310.5557,323.144v9.97083a3.47607,3.47607,0,0,0,3.4721,3.48H338.91" style="fill: none;stroke: #2b7b92;stroke-linecap: round;stroke-miterlimit: 10;stroke-width: 2.967133103895897px"/>
                  <ellipse cx="310.5557" cy="328.99557" rx="3.59595" ry="3.60417" style="fill: #5595a8"/>
                  <ellipse cx="308.62676" cy="313.88415" rx="10.75023" ry="10.77481" style="fill: #5595a8"/>
                  <ellipse cx="310.5557" cy="313.88415" rx="10.75023" ry="10.77481" style="fill: #2b7b92"/>
                  <path d="M318.15726,321.50309a10.79224,10.79224,0,0,0,0-15.23789c.2384,5.68025-3.91037,14.5525-15.20312,15.23789A10.7329,10.7329,0,0,0,318.15726,321.50309Z" style="fill: #1d5463;opacity: 0.30000000000000004"/>
                  <ellipse cx="310.5557" cy="313.88415" rx="7.83996" ry="7.85788" style="fill: #fff"/>
                  <ellipse cx="310.5557" cy="313.88415" rx="5.83536" ry="5.8487" style="fill: none;stroke: #bbcbd0;stroke-linecap: round;stroke-miterlimit: 10;stroke-width: 0.4945221839826488px;stroke-dasharray: 0.9890443682670593,1.9780887365341187"/>
                  <polygon points="314.518 316.901 310.424 314.125 311.057 313.194 315.15 315.97 314.518 316.901" style="fill: #f7a71e"/>
                  <circle cx="310.9922" cy="313.78114" r="1.48055" style="fill: #1d5463"/>
                  <path d="M316.09939,319.44051a7.87061,7.87061,0,0,0,0-11.11273c-1.57287,3.61767-4.50614,9.69232-11.08738,11.11273A7.82733,7.82733,0,0,0,316.09939,319.44051Z" style="fill: #2b7b92;opacity: 0.1"/>
                </g>
                <g>
                  <path d="M334.58473,318.3663v13.89864a4.8454,4.8454,0,0,0,4.83986,4.85093h15.12449" style="fill: none;stroke: #fbb03b;stroke-linecap: round;stroke-miterlimit: 10;stroke-width: 4.135976871939263px"/>
                  <ellipse cx="334.58473" cy="326.52302" rx="5.0125" ry="5.02396" style="fill: #fcc062"/>
                  <ellipse cx="340.88826" cy="337.47623" rx="3.54437" ry="3.55248" style="fill: #fcc062"/>
                  <ellipse cx="331.89592" cy="305.45874" rx="14.98508" ry="15.01934" style="fill: #fcc062"/>
                  <ellipse cx="334.58473" cy="305.45874" rx="14.98508" ry="15.01934" style="fill: #f7a71e"/>
                  <path d="M345.18078,316.079a15.04364,15.04364,0,0,0,0-21.24056c.3323,7.91787-5.45078,20.28517-21.1921,21.24056A14.96093,14.96093,0,0,0,345.18078,316.079Z" style="fill: #cc8a19;opacity: 0.30000000000000004"/>
                  <ellipse cx="334.58473" cy="305.45874" rx="10.92835" ry="10.95334" style="fill: #fff"/>
                  <ellipse cx="334.58473" cy="305.45874" rx="8.13409" ry="8.15268" style="fill: none;stroke: #bbcbd0;stroke-linecap: round;stroke-miterlimit: 10;stroke-width: 0.6893294786565443px;stroke-dasharray: 1.3786590099334717,2.7573180198669434"/>
                  <polygon points="338.298 300.044 335.155 306.189 333.764 305.468 336.907 299.324 338.298 300.044" style="fill: #f7a71e"/>
                  <ellipse cx="334.58473" cy="305.45874" rx="2.06378" ry="2.0685" style="fill: #1d5463"/>
                  <path d="M342.31224,313.20392a10.971,10.971,0,0,0,0-15.49036c-2.19246,5.04277-6.28124,13.51041-15.455,15.49036A10.91072,10.91072,0,0,0,342.31224,313.20392Z" style="fill: #2b7b92;opacity: 0.1"/>
                </g>
                <path d="M445.28783,492.302h90.27876V311.97273a6.89331,6.89331,0,0,0-6.88543-6.90117H465.85768v84.47191l-20.56985,22.33495Z" style="fill: #d90b0b;fill-rule: evenodd"/>
                <rect x="445.28783" y="411.87842" width="90.27876" height="80.42355" style="fill: #d90b0b"/>
                <polygon points="445.288 411.815 535.567 411.815 535.567 389.543 465.858 389.543 445.288 411.878 445.288 411.815" style="fill: #e03c3c;fill-rule: evenodd"/>
                <rect x="328.48628" y="411.87842" width="116.80155" height="80.42355" style="fill: #e45454"/>
                <path d="M445.28788,492.302H328.48624a296.182,296.182,0,0,0,116.80164-80.42355Z" style="fill: #e6423d;fill-rule: evenodd"/>
                <polygon points="465.858 389.543 349.439 389.543 328.486 411.878 445.288 411.878 465.858 389.543" style="fill: #f0908d;fill-rule: evenodd"/>
                <path d="M356.33239,305.07156H465.85768a0,0,0,0,1,0,0v84.47192a0,0,0,0,1,0,0H349.4391a0,0,0,0,1,0,0V311.96485A6.8933,6.8933,0,0,1,356.33239,305.07156Z" style="fill: #e45454"/>
                <path d="M465.85759,389.54347H349.43905a195.07381,195.07381,0,0,0,116.41854-84.4719Z" style="fill: #e6423d;fill-rule: evenodd"/>
                <path d="M405.06578,374.6921a5.18407,5.18407,0,0,1-4.28423,4.35368,108.89742,108.89742,0,0,1-34.43728.01409,5.19087,5.19087,0,0,1-4.30948-4.46179A205.3975,205.3975,0,0,1,362.061,320.287a5.19153,5.19153,0,0,1,4.14683-4.39538,88.91115,88.91115,0,0,1,34.70879.01732,5.21233,5.21233,0,0,1,4.127,4.33665,180.05758,180.05758,0,0,1,.02209,54.44649Z" style="fill: #bf0f20;fill-rule: evenodd;opacity: 0.8"/>
                <path d="M403.00015,374.6921a5.18407,5.18407,0,0,1-4.28423,4.35368,108.89742,108.89742,0,0,1-34.43728.01409,5.19087,5.19087,0,0,1-4.30948-4.46179,205.3975,205.3975,0,0,1,.02624-54.31106,5.19153,5.19153,0,0,1,4.14683-4.39538,88.91115,88.91115,0,0,1,34.70879.01732,5.21233,5.21233,0,0,1,4.127,4.33665,180.05758,180.05758,0,0,1,.02209,54.44649Z" style="fill: #e6f6fa;fill-rule: evenodd"/>
                <path d="M403.00015,374.6921a5.18407,5.18407,0,0,1-4.28423,4.35368,108.89742,108.89742,0,0,1-34.43728.01409c33.96537-6.17734,38.36608-60.98828,38.69942-58.81426a180.05758,180.05758,0,0,1,.02209,54.44649Z" style="fill: #ade2ef;fill-rule: evenodd;opacity: 0.2"/>
                <path d="M364.27864,379.05987a5.19087,5.19087,0,0,1-4.30948-4.46179,205.3975,205.3975,0,0,1,.02624-54.31106,5.19153,5.19153,0,0,1,4.14683-4.39538C362.061,320.287,358.84563,364.06248,364.27864,379.05987Z" style="fill: #76cee5;fill-rule: evenodd;opacity: 0.2"/>
                <g>
                  <g>
                    <path d="M338.75375,407.54372v1.4979a.68934.68934,0,0,0,.68855.69012h4.47538a2.75119,2.75119,0,0,0,2.00156-.86427l4.00258-4.207a.69094.69094,0,0,0,.19025-.47626v-2.2681" style="fill: #ade2ef;fill-rule: evenodd"/>
                    <path d="M349.42216,401.34786h-3.78547a2.7512,2.7512,0,0,0-2.00157.86426l-4.69185,4.97521a.6903.6903,0,0,0,.50039,1.16417h3.78547a2.7512,2.7512,0,0,0,2.00157-.86426l4.69185-4.97522A.69029.69029,0,0,0,349.42216,401.34786Z" style="fill: #f7fcfd;fill-rule: evenodd"/>
                  </g>
                  <g>
                    <path d="M346.82092,397.886v1.4979a.68933.68933,0,0,0,.68854.69012h4.47539a2.75121,2.75121,0,0,0,2.00156-.86427l4.00258-4.207a.69094.69094,0,0,0,.19025-.47626v-2.2681" style="fill: #ade2ef;fill-rule: evenodd"/>
                    <path d="M357.48933,391.69016h-3.78547a2.7512,2.7512,0,0,0-2.00157.86426l-4.69185,4.97521a.6903.6903,0,0,0,.50039,1.16417h3.78547a2.7512,2.7512,0,0,0,2.00157-.86426l4.69185-4.97521A.6903.6903,0,0,0,357.48933,391.69016Z" style="fill: #f7fcfd;fill-rule: evenodd"/>
                  </g>
                </g>
                <g>
                  <g>
                    <path d="M400.18209,407.54372v1.4979a.68933.68933,0,0,0,.68854.69012H405.346a2.75117,2.75117,0,0,0,2.00156-.86427l4.00259-4.207a.69093.69093,0,0,0,.19024-.47626v-2.2681" style="fill: #ade2ef;fill-rule: evenodd"/>
                    <path d="M410.85049,401.34786H407.065a2.75118,2.75118,0,0,0-2.00156.86426l-4.69185,4.97521a.6903.6903,0,0,0,.50039,1.16417h3.78547a2.75118,2.75118,0,0,0,2.00156-.86426l4.69185-4.97522A.69029.69029,0,0,0,410.85049,401.34786Z" style="fill: #f7fcfd;fill-rule: evenodd"/>
                  </g>
                  <g>
                    <path d="M408.24926,397.886v1.4979a.68933.68933,0,0,0,.68854.69012h4.47538a2.75117,2.75117,0,0,0,2.00156-.86427l4.00259-4.207a.691.691,0,0,0,.19024-.47626v-2.2681" style="fill: #ade2ef;fill-rule: evenodd"/>
                    <path d="M418.91766,391.69016h-3.78547a2.75116,2.75116,0,0,0-2.00156.86426l-4.69185,4.97521a.6903.6903,0,0,0,.50039,1.16417h3.78547a2.75118,2.75118,0,0,0,2.00156-.86426l4.69185-4.97521A.6903.6903,0,0,0,418.91766,391.69016Z" style="fill: #f7fcfd;fill-rule: evenodd"/>
                  </g>
                </g>
                <g>
                  <g>
                    <path d="M351.03942,407.54372v1.4979a.68933.68933,0,0,0,.68854.69012h4.47538a2.75121,2.75121,0,0,0,2.00157-.86427l4.00258-4.207a.69094.69094,0,0,0,.19025-.47626v-2.2681" style="fill: #ade2ef;fill-rule: evenodd"/>
                    <path d="M361.70782,401.34786h-3.78547a2.7512,2.7512,0,0,0-2.00156.86426l-4.69185,4.97521a.6903.6903,0,0,0,.50039,1.16417h3.78547a2.75116,2.75116,0,0,0,2.00156-.86426l4.69185-4.97522A.69029.69029,0,0,0,361.70782,401.34786Z" style="fill: #f7fcfd;fill-rule: evenodd"/>
                  </g>
                  <g>
                    <path d="M359.10659,397.886v1.4979a.68933.68933,0,0,0,.68854.69012h4.47538a2.75121,2.75121,0,0,0,2.00157-.86427l4.00258-4.207a.69093.69093,0,0,0,.19024-.47626v-2.2681" style="fill: #ade2ef;fill-rule: evenodd"/>
                    <path d="M369.775,391.69016h-3.78547a2.75118,2.75118,0,0,0-2.00156.86426l-4.69185,4.97521a.6903.6903,0,0,0,.50039,1.16417H363.582a2.75118,2.75118,0,0,0,2.00156-.86426l4.69185-4.97521A.6903.6903,0,0,0,369.775,391.69016Z" style="fill: #f7fcfd;fill-rule: evenodd"/>
                  </g>
                </g>
                <g>
                  <g>
                    <path d="M363.32509,407.54372v1.4979a.68933.68933,0,0,0,.68854.69012H368.489a2.75117,2.75117,0,0,0,2.00156-.86427l4.00259-4.207a.69093.69093,0,0,0,.19024-.47626v-2.2681" style="fill: #ade2ef;fill-rule: evenodd"/>
                    <path d="M373.99349,401.34786H370.208a2.75118,2.75118,0,0,0-2.00156.86426l-4.69185,4.97521a.6903.6903,0,0,0,.50039,1.16417h3.78547a2.75118,2.75118,0,0,0,2.00156-.86426l4.69185-4.97522A.69029.69029,0,0,0,373.99349,401.34786Z" style="fill: #f7fcfd;fill-rule: evenodd"/>
                  </g>
                  <g>
                    <path d="M371.39226,397.886v1.4979a.68933.68933,0,0,0,.68854.69012h4.47538a2.75119,2.75119,0,0,0,2.00156-.86427l4.00259-4.207a.691.691,0,0,0,.19024-.47626v-2.2681" style="fill: #ade2ef;fill-rule: evenodd"/>
                    <path d="M382.06066,391.69016h-3.78547a2.75116,2.75116,0,0,0-2.00156.86426l-4.69185,4.97521a.6903.6903,0,0,0,.50039,1.16417h3.78547a2.75118,2.75118,0,0,0,2.00156-.86426l4.69185-4.97521A.6903.6903,0,0,0,382.06066,391.69016Z" style="fill: #f7fcfd;fill-rule: evenodd"/>
                  </g>
                </g>
                <g>
                  <g>
                    <path d="M375.61075,407.54372v1.4979a.68934.68934,0,0,0,.68855.69012h4.47538a2.75119,2.75119,0,0,0,2.00156-.86427l4.00259-4.207a.691.691,0,0,0,.19024-.47626v-2.2681" style="fill: #ade2ef;fill-rule: evenodd"/>
                    <path d="M386.27916,401.34786h-3.78547a2.75116,2.75116,0,0,0-2.00156.86426l-4.69186,4.97521a.69031.69031,0,0,0,.5004,1.16417h3.78547a2.7512,2.7512,0,0,0,2.00156-.86426l4.69185-4.97522A.69029.69029,0,0,0,386.27916,401.34786Z" style="fill: #f7fcfd;fill-rule: evenodd"/>
                  </g>
                  <g>
                    <path d="M383.67792,397.886v1.4979a.68934.68934,0,0,0,.68855.69012h4.47538a2.75119,2.75119,0,0,0,2.00156-.86427l4.00258-4.207a.69094.69094,0,0,0,.19025-.47626v-2.2681" style="fill: #ade2ef;fill-rule: evenodd"/>
                    <path d="M394.34633,391.69016h-3.78547a2.7512,2.7512,0,0,0-2.00157.86426l-4.69185,4.97521a.6903.6903,0,0,0,.50039,1.16417h3.78547a2.7512,2.7512,0,0,0,2.00157-.86426l4.69185-4.97521A.6903.6903,0,0,0,394.34633,391.69016Z" style="fill: #f7fcfd;fill-rule: evenodd"/>
                  </g>
                </g>
                <g>
                  <g>
                    <path d="M387.89642,407.54372v1.4979a.68933.68933,0,0,0,.68854.69012h4.47539a2.75121,2.75121,0,0,0,2.00156-.86427l4.00258-4.207a.69094.69094,0,0,0,.19025-.47626v-2.2681" style="fill: #ade2ef;fill-rule: evenodd"/>
                    <path d="M398.56482,401.34786h-3.78547a2.7512,2.7512,0,0,0-2.00156.86426l-4.69185,4.97521a.6903.6903,0,0,0,.50039,1.16417h3.78547a2.75116,2.75116,0,0,0,2.00156-.86426l4.69186-4.97522A.6903.6903,0,0,0,398.56482,401.34786Z" style="fill: #f7fcfd;fill-rule: evenodd"/>
                  </g>
                  <g>
                    <path d="M395.96359,397.886v1.4979a.68933.68933,0,0,0,.68854.69012h4.47538a2.75121,2.75121,0,0,0,2.00157-.86427l4.00258-4.207a.69093.69093,0,0,0,.19024-.47626v-2.2681" style="fill: #ade2ef;fill-rule: evenodd"/>
                    <path d="M406.632,391.69016h-3.78547a2.75118,2.75118,0,0,0-2.00156.86426l-4.69185,4.97521a.6903.6903,0,0,0,.50039,1.16417H400.439a2.75116,2.75116,0,0,0,2.00156-.86426l4.69185-4.97521A.6903.6903,0,0,0,406.632,391.69016Z" style="fill: #f7fcfd;fill-rule: evenodd"/>
                  </g>
                </g>
                <polygon points="445.61 398.426 443.252 401.031 443.252 384.218 445.61 381.613 445.61 398.426" style="fill: #1d5463;fill-rule: evenodd"/>
                <g>
                  <path d="M452.92485,392.25842h-4.92373a2.7512,2.7512,0,0,0-2.0065.86952l-13.95233,14.87268a.69029.69029,0,0,0,.50162,1.16285h5.17863a2.75128,2.75128,0,0,0,2.02378-.88809l13.68448-14.85875A.69029.69029,0,0,0,452.92485,392.25842Z" style="fill: #9b0c1a;fill-rule: evenodd"/>
                  <path d="M452.92485,392.25842l-15.20231,16.90505a2.75128,2.75128,0,0,0,2.02378-.88809l13.68448-14.85875A.69029.69029,0,0,0,452.92485,392.25842Z" style="fill: #a52431;fill-rule: evenodd"/>
                  <polygon points="445.61 398.426 443.252 401.031 443.252 384.218 445.61 381.613 445.61 398.426" style="fill: #2b7b92;fill-rule: evenodd"/>
                  <polygon points="445.61 398.426 443.252 401.031 445.61 381.613 445.61 398.426" style="fill: #1d5463;fill-rule: evenodd"/>
                  <ellipse cx="444.20352" cy="383.16707" rx="3.95923" ry="3.96829" style="fill: #ade2ef"/>
                  <path d="M447.00312,385.97307a3.97471,3.97471,0,0,0,0-5.612c-1.54617-1.54971-7.14537,4.0623-5.5992,5.612A3.95285,3.95285,0,0,0,447.00312,385.97307Z" style="fill: #76cee5;fill-rule: evenodd"/>
                </g>
                <g>
                  <path d="M438.17274,392.25842H433.249a2.75122,2.75122,0,0,0-2.00651.86952l-13.95233,14.87268a.6903.6903,0,0,0,.50163,1.16285h5.17863a2.75128,2.75128,0,0,0,2.02377-.88809l13.68448-14.85875A.69029.69029,0,0,0,438.17274,392.25842Z" style="fill: #9b0c1a;fill-rule: evenodd"/>
                  <path d="M438.17274,392.25842l-15.20231,16.90505a2.75128,2.75128,0,0,0,2.02377-.88809l13.68448-14.85875A.69029.69029,0,0,0,438.17274,392.25842Z" style="fill: #a52431;fill-rule: evenodd"/>
                  <polygon points="425.2 404.091 422.843 406.696 422.843 389.883 425.2 387.278 425.2 404.091" style="fill: #2b7b92;fill-rule: evenodd"/>
                  <polygon points="425.2 404.091 422.843 406.696 425.2 387.278 425.2 404.091" style="fill: #1d5463;fill-rule: evenodd"/>
                  <ellipse cx="423.79427" cy="388.83167" rx="3.95923" ry="3.96829" style="fill: #ade2ef"/>
                  <path d="M426.59387,391.63767a3.97471,3.97471,0,0,0,0-5.612c-1.54618-1.54971-7.14538,4.06229-5.59921,5.612A3.95285,3.95285,0,0,0,426.59387,391.63767Z" style="fill: #76cee5;fill-rule: evenodd"/>
                </g>
                <line x1="411.5404" y1="316.43583" x2="411.5404" y2="378.6248" style="fill: none;stroke: #9b0c1a;stroke-linecap: round;stroke-miterlimit: 10;stroke-width: 1.3786589573130847px"/>
                <line x1="336.68812" y1="419.69083" x2="336.68812" y2="429.34918" style="fill: none;stroke: #9b0c1a;stroke-linecap: round;stroke-miterlimit: 10;stroke-width: 1.3786589573130847px"/>
                <line x1="387.31751" y1="419.69083" x2="387.31751" y2="429.34918" style="fill: none;stroke: #9b0c1a;stroke-linecap: round;stroke-miterlimit: 10;stroke-width: 1.3786589573130847px"/>
                <line x1="367.06576" y1="419.69083" x2="367.06576" y2="429.34918" style="fill: none;stroke: #9b0c1a;stroke-linecap: round;stroke-miterlimit: 10;stroke-width: 1.3786589573130847px"/>
                <line x1="356.93988" y1="419.69083" x2="356.93988" y2="429.34918" style="fill: none;stroke: #9b0c1a;stroke-linecap: round;stroke-miterlimit: 10;stroke-width: 1.3786589573130847px"/>
                <line x1="377.19164" y1="419.69083" x2="377.19164" y2="429.34918" style="fill: none;stroke: #9b0c1a;stroke-linecap: round;stroke-miterlimit: 10;stroke-width: 1.3786589573130847px"/>
                <line x1="402.50633" y1="419.69083" x2="402.50633" y2="429.34918" style="fill: none;stroke: #9b0c1a;stroke-linecap: round;stroke-miterlimit: 10;stroke-width: 1.3786589573130847px"/>
                <line x1="397.44339" y1="419.69083" x2="397.44339" y2="429.34918" style="fill: none;stroke: #9b0c1a;stroke-linecap: round;stroke-miterlimit: 10;stroke-width: 1.3786589573130847px"/>
                <line x1="392.38045" y1="419.69083" x2="392.38045" y2="429.34918" style="fill: none;stroke: #9b0c1a;stroke-linecap: round;stroke-miterlimit: 10;stroke-width: 1.3786589573130847px"/>
                <line x1="382.25458" y1="419.69083" x2="382.25458" y2="429.34918" style="fill: none;stroke: #9b0c1a;stroke-linecap: round;stroke-miterlimit: 10;stroke-width: 1.3786589573130847px"/>
                <line x1="372.1287" y1="419.69083" x2="372.1287" y2="429.34918" style="fill: none;stroke: #9b0c1a;stroke-linecap: round;stroke-miterlimit: 10;stroke-width: 1.3786589573130847px"/>
                <line x1="362.00282" y1="419.69083" x2="362.00282" y2="429.34918" style="fill: none;stroke: #9b0c1a;stroke-linecap: round;stroke-miterlimit: 10;stroke-width: 1.3786589573130847px"/>
                <line x1="351.87694" y1="419.69083" x2="351.87694" y2="429.34918" style="fill: none;stroke: #9b0c1a;stroke-linecap: round;stroke-miterlimit: 10;stroke-width: 1.3786589573130847px"/>
                <line x1="341.75106" y1="419.69083" x2="341.75106" y2="429.34918" style="fill: none;stroke: #9b0c1a;stroke-linecap: round;stroke-miterlimit: 10;stroke-width: 1.3786589573130847px"/>
                <line x1="346.814" y1="419.69083" x2="346.814" y2="429.34918" style="fill: none;stroke: #9b0c1a;stroke-linecap: round;stroke-miterlimit: 10;stroke-width: 1.3786589573130847px"/>
                <line x1="421.0599" y1="316.43583" x2="421.0599" y2="342.33555" style="fill: none;stroke: #9b0c1a;stroke-linecap: round;stroke-miterlimit: 10;stroke-width: 1.3786589573130847px"/>
                <line x1="421.0599" y1="352.72508" x2="421.0599" y2="378.6248" style="fill: none;stroke: #9b0c1a;stroke-linecap: round;stroke-miterlimit: 10;stroke-width: 1.3786589573130847px"/>
                <rect x="419.39369" y="319.27484" width="3.33241" height="5.48269" rx="1.6662" ry="1.6662" style="fill: #eff9fc"/>
                <rect x="409.8742" y="327.92533" width="3.33241" height="5.48269" rx="1.6662" ry="1.6662" style="fill: #eff9fc"/>
                <line x1="524.67748" y1="351.67712" x2="476.05286" y2="351.67712" style="fill: none;stroke: #bf0f20;stroke-linecap: round;stroke-miterlimit: 10;stroke-width: 1.3786589573130847px"/>
                <rect x="508.80908" y="348.94203" width="3.34003" height="5.47018" rx="1.66811" ry="1.66811" transform="translate(862.15623 -158.80197) rotate(90)" style="fill: #ade2ef"/>
                <rect x="419.39369" y="367.67644" width="3.33241" height="5.48269" rx="1.6662" ry="1.6662" style="fill: #eff9fc"/>
                <ellipse cx="480.59196" cy="401.34786" rx="3.59223" ry="3.60044" style="fill: #eff9fc"/>
                <ellipse cx="482.43146" cy="401.34786" rx="3.59223" ry="3.60044" style="fill: #ade2ef"/>
                <ellipse cx="467.70675" cy="401.34786" rx="3.59223" ry="3.60044" style="fill: #eff9fc"/>
                <ellipse cx="469.54626" cy="401.34786" rx="3.59223" ry="3.60044" style="fill: #ade2ef"/>
                <g>
                  <rect x="393.35979" y="450.0952" width="16.5659" height="15.75244" rx="2.75732" ry="2.75732" style="fill: #bf0f20"/>
                  <g>
                    <circle cx="397.12421" cy="453.70874" r="1.11981" style="fill: #9b0c1a"/>
                    <circle cx="406.16129" cy="453.70874" r="1.11981" style="fill: #9b0c1a"/>
                  </g>
                  <g>
                    <circle cx="397.12421" cy="462.34571" r="1.11981" style="fill: #9b0c1a"/>
                    <circle cx="406.16129" cy="462.34571" r="1.11981" style="fill: #9b0c1a"/>
                  </g>
                </g>
                <path d="M445.27976,411.81461h16.5659a0,0,0,0,1,0,0v12.99513a2.75732,2.75732,0,0,1-2.75732,2.75732H445.27976a0,0,0,0,1,0,0V411.81461A0,0,0,0,1,445.27976,411.81461Z" style="fill: #bf0f20"/>
                <g>
                  <circle cx="449.04417" cy="415.42816" r="1.11981" style="fill: #9b0c1a"/>
                  <circle cx="458.08125" cy="415.42816" r="1.11981" style="fill: #9b0c1a"/>
                </g>
                <g>
                  <circle cx="449.04417" cy="424.06512" r="1.11981" style="fill: #9b0c1a"/>
                  <circle cx="458.08125" cy="424.06512" r="1.11981" style="fill: #9b0c1a"/>
                </g>
                <g>
                  <g>
                    <circle cx="449.04417" cy="440.44093" r="1.11981" style="fill: #bf0f20"/>
                    <circle cx="458.08125" cy="440.44093" r="1.11981" style="fill: #bf0f20"/>
                  </g>
                  <circle cx="449.04417" cy="449.57946" r="1.11981" style="fill: #bf0f20"/>
                </g>
                <g>
                  <g>
                    <circle cx="531.84248" cy="440.48132" r="1.11981" style="fill: #bf0f20"/>
                    <circle cx="531.84248" cy="449.53906" r="1.11981" style="fill: #bf0f20"/>
                  </g>
                  <circle cx="522.72479" cy="440.48132" r="1.11981" style="fill: #bf0f20"/>
                </g>
                <path d="M519.00068,411.81461h13.80858a2.75732,2.75732,0,0,1,2.75732,2.75732V427.567a0,0,0,0,1,0,0h-16.5659a0,0,0,0,1,0,0V411.81461A0,0,0,0,1,519.00068,411.81461Z" transform="translate(1054.56727 839.38166) rotate(-180)" style="fill: #bf0f20"/>
                <g>
                  <circle cx="531.80218" cy="415.42816" r="1.11981" style="fill: #9b0c1a"/>
                  <circle cx="522.7651" cy="415.42816" r="1.11981" style="fill: #9b0c1a"/>
                </g>
                <g>
                  <circle cx="531.80218" cy="424.06512" r="1.11981" style="fill: #9b0c1a"/>
                  <circle cx="522.7651" cy="424.06512" r="1.11981" style="fill: #9b0c1a"/>
                </g>
                <g>
                  <circle cx="527.81966" cy="397.08518" r="1.11981" style="fill: #9b0c1a"/>
                  <circle cx="527.81966" cy="405.72215" r="1.11981" style="fill: #9b0c1a"/>
                </g>
                <g>
                  <circle cx="498.28555" cy="397.08518" r="1.11981" style="fill: #9b0c1a"/>
                  <circle cx="498.28555" cy="405.72215" r="1.11981" style="fill: #9b0c1a"/>
                </g>
                <g>
                  <circle cx="508.13025" cy="397.08518" r="1.11981" style="fill: #9b0c1a"/>
                  <circle cx="508.13025" cy="405.72215" r="1.11981" style="fill: #9b0c1a"/>
                </g>
                <g>
                  <circle cx="517.97496" cy="397.08518" r="1.11981" style="fill: #9b0c1a"/>
                  <circle cx="517.97496" cy="405.72215" r="1.11981" style="fill: #9b0c1a"/>
                </g>
                <path d="M518.14044,376.80979H476.75481c-2.65827,0-4.83321-2.77722-4.83321-6.17159v-.40312c0-3.39437,2.17494-6.17159,4.83321-6.17159h41.38563" style="fill: #eff9fc"/>
                <rect x="477.42994" y="364.06349" width="51.05206" height="12.74629" rx="5.46156" ry="5.46156" style="fill: #ade2ef"/>
                <rect x="482.61082" y="368.69472" width="40.6903" height="3.48384" rx="1.73993" ry="1.73993" style="fill: #1d5463"/>
                <line x1="491.64328" y1="389.54347" x2="491.64328" y2="411.87842" style="fill: none;stroke: #9b0c1a;stroke-linecap: round;stroke-miterlimit: 10;stroke-width: 0.8560106161220619px"/>
                <line x1="328.48628" y1="435.43996" x2="445.27976" y2="435.43996" style="fill: none;stroke: #9b0c1a;stroke-linecap: round;stroke-miterlimit: 10;stroke-width: 0.6893294786565443px"/>
                <line x1="349.67226" y1="311.64563" x2="465.95404" y2="311.64563" style="fill: none;stroke: #9b0c1a;stroke-linecap: round;stroke-miterlimit: 10;stroke-width: 0.6893294786565443px;opacity: 0.6000000000000001"/>
                <line x1="449.32994" y1="311.64563" x2="449.32994" y2="389.84124" style="fill: none;stroke: #9b0c1a;stroke-linecap: round;stroke-miterlimit: 10;stroke-width: 0.6893294786565443px;opacity: 0.6000000000000001"/>
                <line x1="466.29214" y1="311.64563" x2="535.56659" y2="311.64563" style="fill: none;stroke: #bf0f20;stroke-linecap: round;stroke-miterlimit: 10;stroke-width: 0.6893294786565443px"/>
                <line x1="445.27976" y1="435.43996" x2="535.56659" y2="435.43996" style="fill: none;stroke: #bf0f20;stroke-miterlimit: 10;stroke-width: 0.6893294786565443px"/>
                <g>
                  <path d="M420.972,450.0952h13.33819a2.76544,2.76544,0,0,0,2.75417-2.76047v-25.984a2.76544,2.76544,0,0,0-2.75417-2.76047H420.972" style="fill: #ade2ef"/>
                  <rect x="414.68255" y="418.5903" width="18.84653" height="31.50489" rx="2.75732" ry="2.75732" style="fill: #eff9fc"/>
                  <ellipse cx="424.6391" cy="426.41611" rx="3.59223" ry="3.60044" style="fill: #9b0c1a"/>
                  <ellipse cx="422.79959" cy="426.41611" rx="3.59223" ry="3.60044" style="fill: #e2211b"/>
                  <ellipse cx="424.6391" cy="441.56329" rx="3.59223" ry="3.60044" style="fill: #9b0c1a"/>
                  <ellipse cx="422.79959" cy="441.56329" rx="3.59223" ry="3.60044" style="fill: #e2211b"/>
                </g>
                <line x1="491.64328" y1="435.43996" x2="491.64328" y2="492.30197" style="fill: none;stroke: #bf0f20;stroke-miterlimit: 10;stroke-width: 0.6893294786565443px"/>
                <g style="clip-path: url(#clip-path-2)">
                  <path d="M405.059,341.61436s-3.9154,22.54945-8.29455,22.54945c-3.49262,0-3.08962-17.75284-6.51508-17.75284s-2.821,24.677-5.23892,24.677-1.94781-8.38076-4.15827-8.38076,0,12.69588-3.66052,12.69588-3.66655-19.10678-5.06294-19.10678-1.15591,7.19314-3.30522,7.19314-1.209-13.47812-4.16427-13.47812-3.43027,15.70037-6.28775,15.70037l-.19194,15.30392H405.059" style="fill: #bfd7de"/>
                </g>
                <g>
                  <ellipse cx="380.49341" cy="336.08575" rx="8.86367" ry="8.88394" style="fill: none;stroke: #bfd7de;stroke-miterlimit: 10;stroke-width: 1.3786589573130847px"/>
                  <polyline points="376.61 337.269 379.696 339.949 384.291 332.663" style="fill: none;stroke: #bfd7de;stroke-linecap: round;stroke-miterlimit: 10;stroke-width: 2.0679884359696317px"/>
                </g>
                <g>
                  <path d="M488.014,308.14553H474.67577a2.76543,2.76543,0,0,0-2.75417,2.76047V336.89a2.76543,2.76543,0,0,0,2.75417,2.76047H488.014" style="fill: #eff9fc"/>
                  <g>
                    <rect x="475.45687" y="308.14553" width="18.84653" height="31.50489" rx="2.75732" ry="2.75732" transform="translate(969.76028 647.79596) rotate(180)" style="fill: #ade2ef"/>
                    <ellipse cx="484.34685" cy="331.82462" rx="3.59223" ry="3.60044" style="fill: #e2211b"/>
                    <ellipse cx="486.18636" cy="331.82462" rx="3.59223" ry="3.60044" style="fill: #9b0c1a"/>
                    <ellipse cx="484.34685" cy="316.67744" rx="3.59223" ry="3.60044" style="fill: #e2211b"/>
                    <ellipse cx="486.18636" cy="316.67744" rx="3.59223" ry="3.60044" style="fill: #9b0c1a"/>
                  </g>
                </g>
                <path d="M522.476,308.14553H500.87533a2.76544,2.76544,0,0,0-2.75417,2.76047V336.89a2.76544,2.76544,0,0,0,2.75417,2.76047H522.476" style="fill: #eff9fc"/>
                <rect x="501.65644" y="308.14553" width="27.10905" height="31.50489" rx="2.75732" ry="2.75732" transform="translate(1030.42193 647.79596) rotate(180)" style="fill: #ade2ef"/>
                <ellipse cx="514.6152" cy="323.89772" rx="7.99546" ry="10.48013" style="fill: #e2211b"/>
                <ellipse cx="518.70952" cy="323.89772" rx="7.99546" ry="10.48013" style="fill: #9b0c1a"/>
                <g>
                  <ellipse cx="450.85252" cy="330.66668" rx="10.29982" ry="10.32337" style="fill: #9b0c1a;opacity: 0.5"/>
                  <ellipse cx="448.1547" cy="330.66668" rx="10.29982" ry="10.32337" style="fill: #ade2ef"/>
                  <ellipse cx="448.1547" cy="330.66668" rx="8.04943" ry="8.06784" style="fill: #eff9fc"/>
                  <rect x="442.41014" y="325.46375" width="10.25284" height="9.84354" rx="4.55881" ry="4.55881" style="fill: #2b7b92"/>
                  <rect x="444.20352" y="325.46375" width="10.25284" height="9.84354" rx="4.55881" ry="4.55881" style="fill: #2b7b92;opacity: 0.6000000000000001"/>
                  <rect x="440.16141" y="325.46375" width="10.25284" height="9.84354" rx="4.55881" ry="4.55881" style="fill: #1d5463;opacity: 0.6000000000000001"/>
                  <ellipse cx="440.73981" cy="330.66668" rx="7.97485" ry="7.99309" style="fill: #fcc062"/>
                  <path d="M446.37888,336.31864a8.006,8.006,0,0,0,0-11.30393c-3.11437-3.1215-14.39252,8.18244-11.27815,11.30393A7.962,7.962,0,0,0,446.37888,336.31864Z" style="fill: #f7a71e;fill-rule: evenodd"/>
                </g>
                <g>
                  <ellipse cx="450.85252" cy="362.55916" rx="10.29982" ry="10.32337" style="fill: #9b0c1a;opacity: 0.5"/>
                  <ellipse cx="448.1547" cy="362.55916" rx="10.29982" ry="10.32337" style="fill: #ade2ef"/>
                  <ellipse cx="448.1547" cy="362.55916" rx="8.04943" ry="8.06784" style="fill: #eff9fc"/>
                  <rect x="442.41014" y="357.35623" width="10.25284" height="9.84354" rx="4.55881" ry="4.55881" style="fill: #2b7b92"/>
                  <rect x="444.20352" y="357.35623" width="10.25284" height="9.84354" rx="4.55881" ry="4.55881" style="fill: #2b7b92;opacity: 0.6000000000000001"/>
                  <rect x="440.16141" y="357.35623" width="10.25284" height="9.84354" rx="4.55881" ry="4.55881" style="fill: #1d5463;opacity: 0.6000000000000001"/>
                  <ellipse cx="440.73981" cy="362.55916" rx="7.97485" ry="7.99309" style="fill: #fcc062"/>
                  <path d="M446.37888,368.21113a8.006,8.006,0,0,0,0-11.30394c-3.11437-3.12149-14.39252,8.18244-11.27815,11.30394A7.962,7.962,0,0,0,446.37888,368.21113Z" style="fill: #f7a71e;fill-rule: evenodd"/>
                </g>
                <path d="M518.70952,323.89772h11.18027a13.78663,13.78663,0,0,0,13.77086-13.80234V298.7" style="fill: none;stroke: #f2a20d;stroke-linecap: round;stroke-miterlimit: 10;stroke-width: 6.893294786565442px"/>
                <line x1="543.66065" y1="307.00909" x2="543.66065" y2="298.70002" style="fill: none;stroke: #cc8a19;stroke-linecap: round;stroke-miterlimit: 10;stroke-width: 6.893294786565442px"/>
                <g>
                  <rect x="538.62781" y="258.97201" width="2.12343" height="5.31741" style="fill: #f7a71e"/>
                  <rect x="546.01013" y="258.97201" width="2.12343" height="5.31741" style="fill: #f7a71e"/>
                  <rect x="538.62781" y="258.97201" width="2.12343" height="1.94411" style="fill: #cc8a19;opacity: 0.30000000000000004"/>
                  <rect x="546.01013" y="258.97201" width="2.12343" height="2.3479" style="fill: #cc8a19;opacity: 0.30000000000000004"/>
                  <path d="M547.529,300.2046h-7.73668a3.72891,3.72891,0,0,1-3.71373-3.72222V264.79321c0-2.04723,15.16414-2.04723,15.16414,0v31.68917A3.72891,3.72891,0,0,1,547.529,300.2046Z" style="fill: #f7a71e"/>
                  <path d="M541.18867,263.33321s10.054-.3629,10.054,1.68432v31.68918C551.24272,298.75393,541.18867,263.33321,541.18867,263.33321Z" style="fill: #cc8a19;opacity: 0.30000000000000004"/>
                  <path d="M532.79687,256.53924l9.497-9.67921a1.80189,1.80189,0,0,1,2.5523-.02138l9.65713,9.51875a1.8095,1.8095,0,0,1-1.2504,3.09863l-19.15417.16045A1.8094,1.8094,0,0,1,532.79687,256.53924Z" style="fill: #fcc062"/>
                  <path d="M542.29391,246.86a1.80189,1.80189,0,0,1,2.5523-.02138l9.65713,9.51875a1.8095,1.8095,0,0,1-1.2504,3.09863l-7.83881.06566Z" style="fill: #cc8a19;opacity: 0.30000000000000004"/>
                </g>
                <ellipse cx="531.18509" cy="323.89798" rx="4.84973" ry="4.86082" style="fill: #fcc062"/>
                <path d="M534.61436,327.3351a4.86868,4.86868,0,0,0,0-6.87424c-1.89394-1.89826-8.75249,4.976-6.85855,6.87424A4.84192,4.84192,0,0,0,534.61436,327.3351Z" style="fill: #cc8a19;opacity: 0.30000000000000004"/>
                <line x1="536.07858" y1="296.48238" x2="551.24272" y2="296.48238" style="fill: none;stroke: #cc8a19;stroke-miterlimit: 10;stroke-width: 0.6893294786565443px;opacity: 0.30000000000000004"/>
                <line x1="536.07858" y1="284.52029" x2="551.24272" y2="284.52029" style="fill: none;stroke: #cc8a19;stroke-miterlimit: 10;stroke-width: 0.6893294786565443px;opacity: 0.30000000000000004"/>
                <line x1="536.07858" y1="290.4919" x2="551.24272" y2="290.4919" style="fill: none;stroke: #cc8a19;stroke-miterlimit: 10;stroke-width: 0.6893294786565443px;opacity: 0.30000000000000004"/>
              </g>
              <g style="opacity: 0.2">
                <path d="M535.56522,361.55014H496.267c.034.001.067.00658.101.00794l.01176.00453c-.12667-.00526-.25116-.01918-.37928-.01918a9.10407,9.10407,0,0,0-9.09362,9.1145h10.56948V416.1914a7.54848,7.54848,0,0,0,7.53992,7.557h26.7056v21.235a7.55746,7.55746,0,0,0,3.84339,6.58806" style="fill: #1d5463"/>
              </g>
            </g>
            <g>
              <g>
                <line x1="588.06553" y1="436.05275" x2="588.06553" y2="424.38928" style="fill: none;stroke: #f1fafc;stroke-linecap: round;stroke-miterlimit: 10;stroke-width: 0.6893294786565443px"/>
                <line x1="588.06553" y1="443.86982" x2="588.06553" y2="439.32973" style="fill: none;stroke: #f1fafc;stroke-linecap: round;stroke-miterlimit: 10;stroke-width: 0.6893294786565443px"/>
                <line x1="591.63071" y1="440.9242" x2="591.63071" y2="429.26073" style="fill: none;stroke: #c8ebf5;stroke-linecap: round;stroke-miterlimit: 10;stroke-width: 0.6893294786565443px"/>
                <line x1="591.63071" y1="448.74127" x2="591.63071" y2="444.20118" style="fill: none;stroke: #c8ebf5;stroke-linecap: round;stroke-miterlimit: 10;stroke-width: 0.6893294786565443px"/>
              </g>
              <g>
                <path d="M577.05478,399.47684s5.8301-.04936,9.63981,6.99693" style="fill: none;stroke: #f1fafc;stroke-linecap: round;stroke-miterlimit: 10;stroke-width: 0.6893294786565443px"/>
                <path d="M587.39255,407.96351a6.08756,6.08756,0,0,1,.41893,1.83451" style="fill: none;stroke: #f1fafc;stroke-linecap: round;stroke-miterlimit: 10;stroke-width: 0.6893294786565443px"/>
              </g>
              <g>
                <path d="M584.286,399.28747s3.59713-.03045,5.94769,4.31706" style="fill: none;stroke: #c8ebf5;stroke-linecap: round;stroke-miterlimit: 10;stroke-width: 0.4253113055994743px"/>
                <path d="M590.66435,404.52368a3.75561,3.75561,0,0,1,.25848,1.13188" style="fill: none;stroke: #c8ebf5;stroke-linecap: round;stroke-miterlimit: 10;stroke-width: 0.4253113055994743px"/>
              </g>
              <g>
                <path d="M609.58576,436.92936s5.83009-.04936,9.6398,6.99693" style="fill: none;stroke: #f1fafc;stroke-linecap: round;stroke-miterlimit: 10;stroke-width: 0.6893294786565443px"/>
                <path d="M619.92352,445.416a6.0872,6.0872,0,0,1,.41893,1.8345" style="fill: none;stroke: #f1fafc;stroke-linecap: round;stroke-miterlimit: 10;stroke-width: 0.6893294786565443px"/>
              </g>
              <line x1="551.40329" y1="384.51786" x2="551.40329" y2="372.85439" style="fill: none;stroke: #f1fafc;stroke-linecap: round;stroke-miterlimit: 10;stroke-width: 0.6893294786565443px"/>
              <line x1="551.40329" y1="392.33493" x2="551.40329" y2="387.79484" style="fill: none;stroke: #f1fafc;stroke-linecap: round;stroke-miterlimit: 10;stroke-width: 0.6893294786565443px"/>
              <line x1="554.6309" y1="393.42034" x2="554.6309" y2="381.75687" style="fill: none;stroke: #c8ebf5;stroke-linecap: round;stroke-miterlimit: 10;stroke-width: 0.6893294786565443px"/>
              <line x1="554.6309" y1="401.23741" x2="554.6309" y2="396.69732" style="fill: none;stroke: #c8ebf5;stroke-linecap: round;stroke-miterlimit: 10;stroke-width: 0.6893294786565443px"/>
              <g>
                <path d="M540.6466,357.013s5.8301-.04936,9.63981,6.99693" style="fill: none;stroke: #f1fafc;stroke-linecap: round;stroke-miterlimit: 10;stroke-width: 0.6893294786565443px"/>
                <path d="M550.98437,365.49964a6.08737,6.08737,0,0,1,.41892,1.8345" style="fill: none;stroke: #f1fafc;stroke-linecap: round;stroke-miterlimit: 10;stroke-width: 0.6893294786565443px"/>
              </g>
              <g>
                <path d="M487.28438,370.87969h18.18745a9.09375,9.09375,0,1,0-18.18745,0Z" style="fill: #d5e5e9"/>
                <path d="M505.46635,370.87969v.00675a8.81067,8.81067,0,0,0-8.74148-9.11452C504.83555,364.70385,505.46635,370.87969,505.46635,370.87969Z" style="fill: #6ba3b3;opacity: 0.5"/>
                <path d="M505.43009,370.87968a9.06739,9.06739,0,0,0-8.78553-9.10776h41.8406a7.54843,7.54843,0,0,1,7.53979,7.557V423.9702H512.96988a7.54841,7.54841,0,0,1-7.53979-7.557Z" style="fill: #eff9fc"/>
                <g>
                  <path d="M518.29647,369.79h15.1459a1.53664,1.53664,0,0,0,1.52246-1.33923l.02661-.20377a1.53769,1.53769,0,0,0-1.54283-1.73856l-15.17308.20171a1.53831,1.53831,0,0,0-1.45692,1.9584l.00058.00207A1.536,1.536,0,0,0,518.29647,369.79Z" style="fill: #84d3e8"/>
                  <path d="M512.48015,383.443h21.58609a.77154.77154,0,0,0,.75084-.59664l.05545-.23724a.77248.77248,0,0,0-.75919-.94918l-21.64094.23468a.77156.77156,0,0,0-.74243.5963l-.0006.00256A.77251.77251,0,0,0,512.48015,383.443Z" style="fill: #ade2ef"/>
                  <path d="M538.36059,383.443h2.354a.78532.78532,0,0,0,.76425-.60729l.03642-.15582a.78617.78617,0,0,0-.81317-.96465l-2.389.14951a.78545.78545,0,0,0-.71527.60547l-.00147.0063A.7863.7863,0,0,0,538.36059,383.443Z" style="fill: #ade2ef"/>
                  <path d="M512.2261,387.35954h19.45641a.77717.77717,0,0,0,.77126-.86418l-.02561-.2298a.77669.77669,0,0,0-.78042-.69143l-19.43079.2298a.77771.77771,0,0,0-.703,1.08678h0A.776.776,0,0,0,512.2261,387.35954Z" style="fill: #ade2ef"/>
                  <path d="M511.32448,395.27049h21.58609a.77153.77153,0,0,0,.75084-.59663l.05545-.23724a.77248.77248,0,0,0-.75919-.94918l-21.64094.23468a.77156.77156,0,0,0-.74243.5963l-.0006.00256A.7725.7725,0,0,0,511.32448,395.27049Z" style="fill: #ade2ef"/>
                  <path d="M538.34321,395.27049h2.38234a.77153.77153,0,0,0,.75084-.59663l.04313-.18455a.77238.77238,0,0,0-.7989-.94773l-2.41768.15131a.77167.77167,0,0,0-.70272.59484l-.00778.03325A.77249.77249,0,0,0,538.34321,395.27049Z" style="fill: #ade2ef"/>
                  <path d="M512.01355,399.187h21.802a.77229.77229,0,0,0,.76641-.85874l-.02681-.24047a.77178.77178,0,0,0-.7746-.68708l-21.77877.23211a.77281.77281,0,0,0-.69951,1.07994l.00362.00837A.77112.77112,0,0,0,512.01355,399.187Z" style="fill: #ade2ef"/>
                  <path d="M512.48015,402.86165H523.773a.77154.77154,0,0,0,.75084-.59664l.05345-.22868a.77246.77246,0,0,0-.76582-.94908l-11.3445.22092a.77157.77157,0,0,0-.73579.5962l-.00182.00776A.77251.77251,0,0,0,512.48015,402.86165Z" style="fill: #ade2ef"/>
                  <path d="M512.48015,409.80806h21.58609a.77154.77154,0,0,0,.75084-.59664l.05545-.23724a.77248.77248,0,0,0-.75919-.94918l-21.64094.23468a.77156.77156,0,0,0-.74243.5963l-.0006.00256A.77251.77251,0,0,0,512.48015,409.80806Z" style="fill: #ade2ef"/>
                  <path d="M538.34321,409.80806h2.38234a.77154.77154,0,0,0,.75084-.59664l.04313-.18455a.77238.77238,0,0,0-.7989-.94773l-2.41768.15131a.77167.77167,0,0,0-.70272.59484l-.00778.03325A.7725.7725,0,0,0,538.34321,409.80806Z" style="fill: #ade2ef"/>
                  <path d="M512.01355,413.7246h21.802a.77229.77229,0,0,0,.76641-.85874l-.02681-.24047a.77178.77178,0,0,0-.7746-.68708l-21.77877.23211a.77281.77281,0,0,0-.69951,1.07994l.00362.00837A.77112.77112,0,0,0,512.01355,413.7246Z" style="fill: #ade2ef"/>
                  <path d="M513.02318,417.39921h11.29287a.77153.77153,0,0,0,.75084-.59663l.05345-.22869a.77246.77246,0,0,0-.76582-.94908l-11.3445.22092a.77157.77157,0,0,0-.73579.5962l-.00182.00776A.77251.77251,0,0,0,513.02318,417.39921Z" style="fill: #ade2ef"/>
                  <line x1="541.78906" y1="375.44006" x2="510.6485" y2="376.18724" style="fill: none;stroke: #ade2ef;stroke-linecap: round;stroke-miterlimit: 10;stroke-width: 0.14554006819499737px"/>
                </g>
              </g>
              <g>
                <path d="M521.53,414.9796a9.08884,9.08884,0,0,1-6.53071,8.9906h24.67642l.04174-8.9906a9.09375,9.09375,0,1,0-18.18745,0Z" style="fill: #d5e5e9"/>
                <path d="M539.71742,417.74585V414.9796a8.80878,8.80878,0,0,0-8.74629-9.10777C539.71742,408.14193,539.71742,417.74585,539.71742,417.74585Z" style="fill: #6ba3b3;opacity: 0.5"/>
                <path d="M539.67568,414.97959a9.06739,9.06739,0,0,0-8.78553-9.10776h41.8406a7.54843,7.54843,0,0,1,7.53979,7.557v46.7623H547.21547a7.54841,7.54841,0,0,1-7.53979-7.557Z" style="fill: #eff9fc"/>
                <path d="M547.96692,414.07124h16.71732a.77153.77153,0,0,0,.75084-.59663l.05481-.23452a.77246.77246,0,0,0-.7613-.94915l-16.77213.22814a.77207.77207,0,0,0-.7607.77286v.00637A.772.772,0,0,0,547.96692,414.07124Z" style="fill: #9fdded"/>
                <path d="M574.03191,414.07124h2.38233a.77153.77153,0,0,0,.75084-.59663l.04314-.18455a.77238.77238,0,0,0-.7989-.94773l-2.41769.15131a.77165.77165,0,0,0-.70271.59484l-.00779.03325A.77251.77251,0,0,0,574.03191,414.07124Z" style="fill: #9fdded"/>
                <path d="M547.70225,417.98779h21.802a.77227.77227,0,0,0,.7664-.85874l-.0268-.24047a.77178.77178,0,0,0-.7746-.68708l-21.77877.2321a.77281.77281,0,0,0-.69951,1.07995l.00362.00837A.7711.7711,0,0,0,547.70225,417.98779Z" style="fill: #9fdded"/>
                <path d="M548.16884,421.6624H559.4617a.77153.77153,0,0,0,.75084-.59664l.05345-.22868a.77245.77245,0,0,0-.76582-.94908l-11.34449.22091a.77158.77158,0,0,0-.73579.5962l-.00182.00777A.7725.7725,0,0,0,548.16884,421.6624Z" style="fill: #9fdded"/>
                <path d="M548.16884,429.21751h21.58609a.77153.77153,0,0,0,.75084-.59663l.05545-.23724a.77248.77248,0,0,0-.75918-.94918l-21.64094.23468a.77155.77155,0,0,0-.74243.5963l-.0006.00256A.77249.77249,0,0,0,548.16884,429.21751Z" style="fill: #9fdded"/>
                <path d="M574.04928,429.21751h2.354a.7853.7853,0,0,0,.76425-.60729l.03642-.15581a.78616.78616,0,0,0-.81316-.96465l-2.389.14951a.78544.78544,0,0,0-.71526.60546l-.00148.00631A.7863.7863,0,0,0,574.04928,429.21751Z" style="fill: #9fdded"/>
                <path d="M548.78346,433.13406h15.654a.77227.77227,0,0,0,.7664-.85874l-.02651-.23786a.77177.77177,0,0,0-.77748-.687l-15.633.22517a.77282.77282,0,0,0-.69662,1.07991l.00548.01269A.7711.7711,0,0,0,548.78346,433.13406Z" style="fill: #9fdded"/>
                <path d="M549.90514,436.80867H561.198a.77154.77154,0,0,0,.75084-.59664l.05345-.22868a.77246.77246,0,0,0-.76582-.94908l-11.3445.22092a.77157.77157,0,0,0-.73579.5962l-.00182.00776A.77251.77251,0,0,0,549.90514,436.80867Z" style="fill: #9fdded"/>
                <path d="M548.16884,444.56778h21.58609a.77154.77154,0,0,0,.75084-.59664l.05545-.23723a.77248.77248,0,0,0-.75918-.94919l-21.64094.23469a.77154.77154,0,0,0-.74243.5963l-.0006.00255A.7725.7725,0,0,0,548.16884,444.56778Z" style="fill: #9fdded"/>
                <polygon points="573.059 444.568 577.026 444.568 577.445 442.774 573.42 443.026 573.059 444.568" style="fill: #a0a2d7"/>
                <path d="M547.70225,448.48433h21.802a.77227.77227,0,0,0,.7664-.85874l-.0268-.24047a.77177.77177,0,0,0-.7746-.68708l-21.77877.2321a.7728.7728,0,0,0-.69951,1.07994l.00362.00837A.77111.77111,0,0,0,547.70225,448.48433Z" style="fill: #9fdded"/>
                <polygon points="557.489 452.159 570.366 452.159 570.786 450.365 557.85 450.617 557.489 452.159" style="fill: #a0a2d7"/>
              </g>
              <g>
                <path d="M555.42224,451.16125a9.08883,9.08883,0,0,1-6.53071,8.9906H573.568l.04174-8.9906a9.09375,9.09375,0,1,0-18.18745,0Z" style="fill: #d5e5e9"/>
                <path d="M573.58527,453.9275l0-2.76625a8.86092,8.86092,0,0,0-8.80284-9.11452C573.34068,443.79712,573.63267,454.01074,573.58527,453.9275Z" style="fill: #6ba3b3;opacity: 0.5"/>
                <path d="M573.568,450.83864a9.06739,9.06739,0,0,0-8.78553-9.10776H606.623a7.54842,7.54842,0,0,1,7.53978,7.557v44.24329H581.10774a7.54841,7.54841,0,0,1-7.53979-7.557Z" style="fill: #eff9fc"/>
                <path d="M580.98422,450.36193h16.71731a.77154.77154,0,0,0,.75085-.59663l.05481-.23451a.77248.77248,0,0,0-.76131-.94916l-16.77213.22814a.77207.77207,0,0,0-.7607.77286v.00637A.772.772,0,0,0,580.98422,450.36193Z" style="fill: #9fdded"/>
                <path d="M607.06155,450.36193h2.38234a.77153.77153,0,0,0,.75084-.59663l.04313-.18455a.77237.77237,0,0,0-.79889-.94773l-2.41769.15131a.77166.77166,0,0,0-.70272.59484l-.00778.03325A.7725.7725,0,0,0,607.06155,450.36193Z" style="fill: #9fdded"/>
                <path d="M580.7319,454.27848h21.802a.77228.77228,0,0,0,.7664-.85874l-.0268-.24047a.7718.7718,0,0,0-.7746-.68708l-21.77878.2321a.77281.77281,0,0,0-.6995,1.07995l.00361.00837A.77112.77112,0,0,0,580.7319,454.27848Z" style="fill: #9fdded"/>
                <path d="M581.24855,457.95309h11.28484a.77544.77544,0,0,0,.75464-.59966l.0516-.22076a.77637.77637,0,0,0-.7697-.95388l-11.33644.22076a.77548.77548,0,0,0-.73952.59921h0A.77642.77642,0,0,0,581.24855,457.95309Z" style="fill: #9fdded"/>
                <path d="M581.19849,465.5082h21.58609a.77153.77153,0,0,0,.75084-.59663l.05545-.23724a.77248.77248,0,0,0-.75919-.94918l-21.64094.23468a.77157.77157,0,0,0-.74243.5963l-.00059.00256A.77249.77249,0,0,0,581.19849,465.5082Z" style="fill: #9fdded"/>
                <path d="M607.06155,465.5082h2.38234a.77153.77153,0,0,0,.75084-.59663l.04313-.18455a.77237.77237,0,0,0-.79889-.94773l-2.41769.15131a.77167.77167,0,0,0-.70272.59484l-.00778.03325A.77249.77249,0,0,0,607.06155,465.5082Z" style="fill: #9fdded"/>
                <path d="M581.39781,469.42475h15.654a.77228.77228,0,0,0,.7664-.85874l-.02651-.23786a.77178.77178,0,0,0-.77748-.687l-15.633.22517a.77282.77282,0,0,0-.69663,1.07991l.00548.01269A.77112.77112,0,0,0,581.39781,469.42475Z" style="fill: #9fdded"/>
                <path d="M581.82677,473.09936h11.29286a.77154.77154,0,0,0,.75084-.59664l.05345-.22868a.77245.77245,0,0,0-.76582-.94908l-11.34449.22092a.77156.77156,0,0,0-.73579.5962l-.00182.00776A.7725.7725,0,0,0,581.82677,473.09936Z" style="fill: #9fdded"/>
                <line x1="609.72054" y1="476.63654" x2="578.57999" y2="477.38373" style="fill: none;stroke: #ade2ef;stroke-linecap: round;stroke-miterlimit: 10;stroke-width: 0.14554006819499737px"/>
                <path d="M629.88909,484.80123H589.49064c0,4.52628-3.61115,9.05256-6.90433,9.05256h39.763a7.54843,7.54843,0,0,0,7.53979-7.557Z" style="fill: #d5e5e9"/>
              </g>
              <line x1="570.78557" y1="475.02256" x2="570.78557" y2="463.35909" style="fill: none;stroke: #e4f5fa;stroke-linecap: round;stroke-miterlimit: 10;stroke-width: 0.6893294786565443px"/>
              <line x1="570.78557" y1="482.83963" x2="570.78557" y2="478.29954" style="fill: none;stroke: #e4f5fa;stroke-linecap: round;stroke-miterlimit: 10;stroke-width: 0.6893294786565443px"/>
              <g>
                <ellipse cx="584.14903" cy="483.23493" rx="3.91649" ry="3.92545" style="fill: none;stroke: #76cee5;stroke-miterlimit: 10;stroke-width: 0.6091730414703852px"/>
                <polyline points="582.433 483.758 583.797 484.942 585.827 481.723" style="fill: none;stroke: #76cee5;stroke-linecap: round;stroke-miterlimit: 10;stroke-width: 0.9137595622055779px"/>
              </g>
              <g>
                <path d="M576.639,497.4418s-5.8301.04936-9.63981-6.99693" style="fill: none;stroke: #bae6f2;stroke-linecap: round;stroke-miterlimit: 10;stroke-width: 0.6893294786565443px"/>
                <path d="M566.30123,488.95513a6.08756,6.08756,0,0,1-.41893-1.83451" style="fill: none;stroke: #bae6f2;stroke-linecap: round;stroke-miterlimit: 10;stroke-width: 0.6893294786565443px"/>
              </g>
            </g>
          </g>
        </g>
        <g>
          <polygon points="205.636 726.821 221.511 705.071 342.888 761.152 349.78 775.979 337.079 789.2 275.232 796.954 205.636 726.821" style="fill: #eff9fc"/>
          <polygon points="274.807 827.283 339.85 817.646 336.852 789.24 275.005 796.994 274.807 827.283" style="fill: #def3f9"/>
          <polygon points="275.034 827.243 339.784 817.082 325.762 857.763 274.794 857.926 275.034 827.243" style="fill: #ceeef5"/>
          <polygon points="350.608 815.985 339.784 817.082 325.762 857.763 332.709 857.743 350.608 815.985" style="fill: #bde8f2"/>
          <polygon points="350.608 815.985 349.487 775.456 336.786 788.676 339.784 817.082 350.608 815.985" style="fill: #ceeef5"/>
          <polygon points="196.533 843.076 192.411 789.952 240.87 857.722 201.497 857.723 196.533 843.076" style="fill: #b5e5f1"/>
          <polygon points="209.341 758.102 191.608 765.831 192.411 789.952 240.87 857.722 274.686 857.925 274.979 831.636 209.341 758.102" style="fill: #eff9fc"/>
          <polygon points="205.636 726.821 212.024 780.757 265.539 857.658 274.788 857.926 275.232 796.954 205.636 726.821" style="fill: #b5e5f1"/>
          <polygon points="233.99 497.288 260.196 493.531 267.181 507.016 254.143 513.92 233.99 497.288" style="fill: #f7fcfd"/>
          <polygon points="242.143 535.081 266.447 539.29 267.181 507.016 254.143 513.92 242.143 535.081" style="fill: #def3f9"/>
          <polygon points="242.143 535.081 231.459 526.886 226.664 569.638 245.117 572.078 242.143 535.081" style="fill: #c6ebf4"/>
          <polygon points="242.143 535.081 266.447 539.29 272.952 556.061 245.117 572.078 242.143 535.081" style="fill: #f7fcfd"/>
          <polygon points="214.828 640.318 224.66 733.508 279.819 785.591 273.133 689.431 214.828 640.318" style="fill: #bde8f2"/>
          <polygon points="299.958 690.385 309.79 783.575 279.819 785.591 273.133 689.431 299.958 690.385" style="fill: #ceeef5"/>
          <polygon points="299.958 690.385 309.79 783.575 330.426 775.059 323.74 678.899 299.958 690.385" style="fill: #def3f9"/>
          <polygon points="336.439 703.612 344.407 776.385 330.426 775.059 325.147 699.135 336.439 703.612" style="fill: #ceeef5"/>
          <polygon points="336.439 703.612 330.305 694.706 324.783 693.909 325.147 699.135 336.439 703.612" style="fill: #eff9fc"/>
          <polygon points="214.828 640.318 228.378 625.191 309.302 654.024 324.177 678.665 299.867 690.075 273.133 689.431 214.828 640.318" style="fill: #eff9fc"/>
          <polygon points="228.077 615.346 231.197 607.959 266.911 594.202 302.069 646.499 277.759 657.909 228.077 615.346" style="fill: #eff9fc"/>
          <polygon points="281.998 676.808 308.756 667.722 302.069 646.499 277.759 657.909 281.998 676.808" style="fill: #def3f9"/>
          <polygon points="228.077 615.346 228.836 640.184 281.998 676.808 277.759 657.909 228.077 615.346" style="fill: #ceeef5"/>
          <polygon points="263.728 628.386 231.197 607.959 226.177 569.474 245.117 572.078 263.728 628.386" style="fill: #bde8f2"/>
          <polygon points="233.99 497.288 231.556 527.315 241.93 534.961 254.143 513.92 233.99 497.288" style="fill: #bde8f2"/>
          <polygon points="263.728 628.386 286.926 624.269 272.952 556.061 245.117 572.078 263.728 628.386" style="fill: #def3f9"/>
        </g>
        <g>
          <polygon points="847.386 720.871 821.003 684.722 619.278 777.928 607.825 802.57 628.934 824.542 731.721 837.429 847.386 720.871" style="fill: #eff9fc"/>
          <polygon points="625.817 857.712 629.31 824.609 732.098 837.496 732.23 857.715 625.817 857.712" style="fill: #def3f9"/>
          <polygon points="606.77 857.462 608.312 801.7 629.42 823.672 625.827 857.714 606.77 857.462" style="fill: #ceeef5"/>
          <polygon points="866.886 857.756 869.366 825.793 846.39 857.925 866.886 857.756" style="fill: #b5e5f1"/>
          <polygon points="841.23 772.858 870.7 785.704 869.366 825.793 846.39 857.925 765.292 857.93 841.23 772.858" style="fill: #eff9fc"/>
          <polygon points="847.386 720.871 836.77 810.51 803.814 857.868 731.869 857.718 731.721 837.429 847.386 720.871" style="fill: #b5e5f1"/>
          <polygon points="843.067 610.769 815.769 731.984 724.097 818.544 729.653 738.637 843.067 610.769" style="fill: #ceeef5"/>
          <polygon points="832.109 577.106 843.067 610.769 729.653 738.637 735.208 658.73 832.109 577.106" style="fill: #bde8f2"/>
          <polygon points="687.118 756.197 674.286 815.193 724.097 818.544 729.653 738.637 687.118 756.197" style="fill: #d6f0f7"/>
          <polygon points="690.779 659.8 687.118 756.197 729.653 738.637 735.208 658.73 690.779 659.8" style="fill: #c6ebf4"/>
          <polygon points="687.118 756.197 674.286 815.193 639.991 801.041 644.919 730.166 687.118 756.197" style="fill: #def3f9"/>
          <polygon points="690.779 659.8 687.118 756.197 644.919 730.166 650.375 640.837 690.779 659.8" style="fill: #d6f0f7"/>
          <polygon points="629.997 682.298 616.755 803.244 639.991 801.041 648.764 674.858 629.997 682.298" style="fill: #ceeef5"/>
          <polygon points="629.997 682.298 640.192 667.498 648.848 665.845 648.764 674.858 629.997 682.298" style="fill: #eff9fc"/>
          <polygon points="832.109 577.106 809.591 551.966 675.098 599.884 650.375 640.837 690.779 659.8 735.208 658.73 832.109 577.106" style="fill: #eff9fc"/>
          <polygon points="810.091 535.603 804.905 523.327 745.55 500.462 687.118 587.378 727.521 606.341 810.091 535.603" style="fill: #eff9fc"/>
          <polygon points="720.476 637.751 676.005 622.651 687.118 587.378 727.521 606.341 720.476 637.751" style="fill: #def3f9"/>
          <polygon points="810.091 535.603 808.829 576.882 720.476 637.751 727.521 606.341 810.091 535.603" style="fill: #ceeef5"/>
          <polygon points="810.091 535.603 804.905 523.327 745.55 500.462 687.118 587.378 727.521 606.341 810.091 535.603" style="fill: #eff9fc"/>
          <polygon points="720.476 637.751 676.005 622.651 687.118 587.378 727.521 606.341 720.476 637.751" style="fill: #def3f9"/>
          <polygon points="810.091 535.603 808.829 576.882 720.476 637.751 727.521 606.341 810.091 535.603" style="fill: #ceeef5"/>
          <polygon points="800.528 509.392 797.09 501.254 757.743 486.097 719.009 543.714 745.792 556.284 800.528 509.392" style="fill: #eff9fc"/>
          <polygon points="741.122 577.106 711.642 567.096 719.009 543.714 745.792 556.284 741.122 577.106" style="fill: #def3f9"/>
          <polygon points="800.528 509.392 799.692 536.756 741.122 577.106 745.792 556.284 800.528 509.392" style="fill: #ceeef5"/>
          <polygon points="800.528 509.392 797.09 501.254 757.743 486.097 719.009 543.714 745.792 556.284 800.528 509.392" style="fill: #eff9fc"/>
          <polygon points="741.122 577.106 711.642 567.096 719.009 543.714 745.792 556.284 741.122 577.106" style="fill: #def3f9"/>
          <polygon points="800.528 509.392 799.692 536.756 741.122 577.106 745.792 556.284 800.528 509.392" style="fill: #ceeef5"/>
          <polygon points="784.604 401.979 758.36 398.216 751.364 411.721 764.422 418.635 784.604 401.979" style="fill: #f7fcfd"/>
          <polygon points="776.439 439.826 752.1 444.042 751.364 411.721 764.422 418.635 776.439 439.826" style="fill: #def3f9"/>
          <polygon points="776.439 439.826 787.139 431.62 791.94 474.433 773.461 476.877 776.439 439.826" style="fill: #c6ebf4"/>
          <polygon points="776.439 439.826 752.1 444.042 745.585 460.837 773.461 476.877 776.439 439.826" style="fill: #f7fcfd"/>
          <polygon points="754.823 533.267 787.4 512.811 792.428 474.269 773.461 476.877 754.823 533.267" style="fill: #bde8f2"/>
          <polygon points="784.604 401.979 787.041 432.049 776.652 439.707 764.422 418.635 784.604 401.979" style="fill: #bde8f2"/>
          <polygon points="754.823 533.267 731.591 529.144 745.585 460.837 773.461 476.877 754.823 533.267" style="fill: #def3f9"/>
        </g>
        <g style="opacity: 0.15">
          <polygon points="489.76 633.444 445.793 601.646 432.761 604.555 456.535 638.769 489.76 633.444" style="fill: #65c7de"/>
          <polygon points="591.174 857.933 492.574 631.455 456.535 638.769 467.831 857.463 591.174 857.933" style="fill: #65c7de"/>
        </g>
        <g>
          <polygon points="435.531 857.862 431.278 588.116 456.233 624.028 467.526 857.478 435.531 857.862" style="fill: #eff9fc"/>
          <polygon points="491.107 618.438 444.957 585.062 431.278 588.116 456.233 624.028 491.107 618.438" style="fill: #e6f6fa"/>
          <polygon points="568.884 857.723 491.107 618.438 456.233 624.028 467.526 857.478 568.884 857.723" style="fill: #d6f0f7"/>
        </g>
        <path d="M163.71868,116.4008h599.1607s-226.7238.72885-246.575-3.50448-25.342-5.92666-31.11437-5.92666-12.38944,5.36222-15.62758,5.36222-9.0105-10.44221-16.47232-10.44221-9.85523,2.82222-11.12233,2.82222-.42236-24.13-26.8907-24.13-29.70648,21.30775-33.2262,21.30775-26.60913-29.91551-57.7235-29.91551-49.28026,24.27791-55.27588,24.27791-17.65212-32.65941-62.04167-32.65941S163.71868,116.4008,163.71868,116.4008Z" style="fill: #bde8f2"/>
        <g style="opacity: 0.1">
          <path d="M1030.11439,855.07833A107.47806,107.47806,0,1,0,859.7246,737.208a35.53039,35.53039,0,0,0-3.70754,57.62192,107.57744,107.57744,0,0,0,36.02145,60.24623Z" style="fill: #ade2ef"/>
          <path d="M865.10664,855.07555a93.66088,93.66088,0,0,0-186.87119,0Z" style="fill: #ade2ef"/>
          <path d="M499.18636,855.07546a93.68922,93.68922,0,0,0-119.31643-76.58971,40.88921,40.88921,0,1,0-56.20136,46.11265,93.42537,93.42537,0,0,0-9.91635,30.47705Z" style="fill: #ade2ef"/>
        </g>
        <g>
          <path d="M1030.11439,857.85155A107.47806,107.47806,0,1,0,859.7246,739.98117a35.53039,35.53039,0,0,0-3.70754,57.62192,107.57744,107.57744,0,0,0,36.02145,60.24623Z" style="fill: #eff9fc"/>
          <path d="M865.10664,857.84877a93.66088,93.66088,0,0,0-186.87119,0Z" style="fill: #eff9fc"/>
          <path d="M499.18636,857.84868A93.68922,93.68922,0,0,0,379.86993,781.259a40.88921,40.88921,0,1,0-56.20136,46.11265,93.42537,93.42537,0,0,0-9.91635,30.477Z" style="fill: #eff9fc"/>
        </g>
        <path d="M1092,857.84881H0V699.24637a208.75951,208.75951,0,0,1,130.0795-45.24895c81.272,0,151.75269,46.28575,186.65,113.98811a102.59337,102.59337,0,0,1,134.969,54.973,209.01142,209.01142,0,0,1,76.46444-37.79571,125.27136,125.27136,0,0,1,193.89656,30.88636,102.88515,102.88515,0,0,1,62.89726,2.07111,125.41009,125.41009,0,0,1,133.45119-63.2365,125.3894,125.3894,0,0,1,173.59234-71.02868Z" style="fill: #ade2ef;opacity: 0.1"/>
      </g>
    </g>
    <polygon points="874.029 656.677 908.176 591.743 959.164 512.014 895.616 585.173 874.029 656.677" style="fill: #eff9fc"/>
    <polygon points="985.786 242.081 1011.579 123.512 1035.63 69.886 997.902 119.232 985.786 242.081" style="fill: #eff9fc"/>
    <path d="M78.464,115.1927H543.91007s-182.51237.58673-198.4926-2.8211-20.40029-4.77095-25.047-4.77095-9.97348,4.31658-12.58019,4.31658-7.25343-8.406-13.26019-8.406-7.93345,2.27188-8.95346,2.27188-.34-19.42459-21.647-19.42459-23.91368,17.15271-26.747,17.15271-21.42031-24.08195-46.46734-24.08195S151.04469,98.973,146.21823,98.973,132.00829,72.68222,96.27476,72.68222C48.54753,72.68222,78.464,115.1927,78.464,115.1927Z" style="fill: #def3f9"/>
  </g>
</svg>
